G04 #@! TF.GenerationSoftware,KiCad,Pcbnew,8.0.7*
G04 #@! TF.CreationDate,2025-01-06T21:38:41-05:00*
G04 #@! TF.ProjectId,BCD-S3-DevKitC-1-N16R8V,4243442d-5333-42d4-9465-764b6974432d,1.0*
G04 #@! TF.SameCoordinates,Original*
G04 #@! TF.FileFunction,Soldermask,Bot*
G04 #@! TF.FilePolarity,Negative*
%FSLAX46Y46*%
G04 Gerber Fmt 4.6, Leading zero omitted, Abs format (unit mm)*
G04 Created by KiCad (PCBNEW 8.0.7) date 2025-01-06 21:38:41*
%MOMM*%
%LPD*%
G01*
G04 APERTURE LIST*
%ADD10O,1.000000X1.600000*%
%ADD11O,1.000000X2.100000*%
%ADD12C,0.650000*%
%ADD13C,1.700000*%
%ADD14C,0.450000*%
%ADD15C,3.500000*%
G04 #@! TA.AperFunction,Profile*
%ADD16C,0.050000*%
G04 #@! TD*
G04 APERTURE END LIST*
D10*
X135673333Y-61286800D03*
D11*
X135673333Y-65466800D03*
D10*
X144313333Y-61286800D03*
D11*
X144313333Y-65466800D03*
D12*
X137103333Y-64936800D03*
X142883333Y-64936800D03*
D13*
X132700000Y-113340000D03*
X132700000Y-110800000D03*
X132700000Y-108260000D03*
X132700000Y-105720000D03*
X132700000Y-103180000D03*
X132700000Y-100640000D03*
X132700000Y-98100000D03*
X132700000Y-95560000D03*
X132700000Y-93020000D03*
X132700000Y-90480000D03*
X132700000Y-87940000D03*
X132700000Y-85400000D03*
X132700000Y-82860000D03*
X132700000Y-80320000D03*
X132700000Y-77780000D03*
X132700000Y-75240000D03*
X132700000Y-72700000D03*
X132700000Y-70160000D03*
X132700000Y-67620000D03*
X132700000Y-65080000D03*
X132700000Y-62540000D03*
X132700000Y-60000000D03*
X158100000Y-60000000D03*
X158100000Y-62540000D03*
X158100000Y-65080000D03*
X158100000Y-67620000D03*
X158100000Y-70160000D03*
X158100000Y-72700000D03*
X158100000Y-75240000D03*
X158100000Y-77780000D03*
X158100000Y-80320000D03*
X158100000Y-82860000D03*
X158100000Y-85400000D03*
X158100000Y-87940000D03*
X158100000Y-90480000D03*
X158100000Y-93020000D03*
X158100000Y-95560000D03*
X158100000Y-98100000D03*
X158100000Y-100640000D03*
X158100000Y-103180000D03*
X158100000Y-105720000D03*
X158100000Y-108260000D03*
X158100000Y-110800000D03*
X158100000Y-113340000D03*
D12*
X153696666Y-64936800D03*
X147916666Y-64936800D03*
D11*
X155126666Y-65466800D03*
D10*
X155126666Y-61286800D03*
D11*
X146486666Y-65466800D03*
D10*
X146486666Y-61286800D03*
D14*
X155052000Y-113660000D03*
X155052000Y-112390000D03*
X155052000Y-111120000D03*
X155052000Y-109850000D03*
X155052000Y-108580000D03*
X155052000Y-107310000D03*
X155052000Y-106040000D03*
X155052000Y-104770000D03*
X155052000Y-103500000D03*
X155052000Y-102230000D03*
X155052000Y-100960000D03*
X155052000Y-99690000D03*
X155052000Y-98420000D03*
X155052000Y-97150000D03*
X152385000Y-94998000D03*
X151115000Y-94998000D03*
X149845000Y-94998000D03*
X148575000Y-94998000D03*
X147305000Y-94998000D03*
X146035000Y-94998000D03*
X144765000Y-94998000D03*
X143495000Y-94998000D03*
X142225000Y-94998000D03*
X140955000Y-94998000D03*
X139685000Y-94998000D03*
X138415000Y-94998000D03*
X135748000Y-97150000D03*
X135748000Y-98420000D03*
X135748000Y-99690000D03*
X135748000Y-100960000D03*
X135748000Y-102230000D03*
X135748000Y-103500000D03*
X135748000Y-104770000D03*
X135748000Y-106040000D03*
X135748000Y-107310000D03*
X135748000Y-108580000D03*
X135748000Y-109850000D03*
X135748000Y-111120000D03*
X135748000Y-112390000D03*
X135748000Y-113660000D03*
D15*
X146900000Y-105940000D03*
D16*
X159900000Y-114692000D02*
G75*
G02*
X159392000Y-115200000I-508001J1D01*
G01*
X131408000Y-115200000D02*
G75*
G02*
X130900000Y-114692000I1J508001D01*
G01*
X159392000Y-58200000D02*
G75*
G02*
X159900000Y-58708000I-1J-508001D01*
G01*
X130900000Y-58708000D02*
G75*
G02*
X131408000Y-58200000I508001J-1D01*
G01*
X159900000Y-114692000D02*
X159900000Y-58708000D01*
X159392000Y-115200000D02*
X131408000Y-115200000D01*
X159392000Y-58200000D02*
X131408000Y-58200000D01*
X130900000Y-58708000D02*
X130900000Y-114692000D01*
M02*
