G04 #@! TF.GenerationSoftware,KiCad,Pcbnew,8.0.7*
G04 #@! TF.CreationDate,2025-01-06T21:38:41-05:00*
G04 #@! TF.ProjectId,BCD-S3-DevKitC-1-N16R8V,4243442d-5333-42d4-9465-764b6974432d,1.0*
G04 #@! TF.SameCoordinates,Original*
G04 #@! TF.FileFunction,Legend,Top*
G04 #@! TF.FilePolarity,Positive*
%FSLAX46Y46*%
G04 Gerber Fmt 4.6, Leading zero omitted, Abs format (unit mm)*
G04 Created by KiCad (PCBNEW 8.0.7) date 2025-01-06 21:38:41*
%MOMM*%
%LPD*%
G01*
G04 APERTURE LIST*
G04 Aperture macros list*
%AMRoundRect*
0 Rectangle with rounded corners*
0 $1 Rounding radius*
0 $2 $3 $4 $5 $6 $7 $8 $9 X,Y pos of 4 corners*
0 Add a 4 corners polygon primitive as box body*
4,1,4,$2,$3,$4,$5,$6,$7,$8,$9,$2,$3,0*
0 Add four circle primitives for the rounded corners*
1,1,$1+$1,$2,$3*
1,1,$1+$1,$4,$5*
1,1,$1+$1,$6,$7*
1,1,$1+$1,$8,$9*
0 Add four rect primitives between the rounded corners*
20,1,$1+$1,$2,$3,$4,$5,0*
20,1,$1+$1,$4,$5,$6,$7,0*
20,1,$1+$1,$6,$7,$8,$9,0*
20,1,$1+$1,$8,$9,$2,$3,0*%
%AMOutline5P*
0 Free polygon, 5 corners , with rotation*
0 The origin of the aperture is its center*
0 number of corners: always 5*
0 $1 to $10 corner X, Y*
0 $11 Rotation angle, in degrees counterclockwise*
0 create outline with 5 corners*
4,1,5,$1,$2,$3,$4,$5,$6,$7,$8,$9,$10,$1,$2,$11*%
%AMOutline6P*
0 Free polygon, 6 corners , with rotation*
0 The origin of the aperture is its center*
0 number of corners: always 6*
0 $1 to $12 corner X, Y*
0 $13 Rotation angle, in degrees counterclockwise*
0 create outline with 6 corners*
4,1,6,$1,$2,$3,$4,$5,$6,$7,$8,$9,$10,$11,$12,$1,$2,$13*%
%AMOutline7P*
0 Free polygon, 7 corners , with rotation*
0 The origin of the aperture is its center*
0 number of corners: always 7*
0 $1 to $14 corner X, Y*
0 $15 Rotation angle, in degrees counterclockwise*
0 create outline with 7 corners*
4,1,7,$1,$2,$3,$4,$5,$6,$7,$8,$9,$10,$11,$12,$13,$14,$1,$2,$15*%
%AMOutline8P*
0 Free polygon, 8 corners , with rotation*
0 The origin of the aperture is its center*
0 number of corners: always 8*
0 $1 to $16 corner X, Y*
0 $17 Rotation angle, in degrees counterclockwise*
0 create outline with 8 corners*
4,1,8,$1,$2,$3,$4,$5,$6,$7,$8,$9,$10,$11,$12,$13,$14,$15,$16,$1,$2,$17*%
%AMFreePoly0*
4,1,19,0.550000,-0.750000,0.000000,-0.750000,0.000000,-0.744911,-0.071157,-0.744911,-0.207708,-0.704816,-0.327430,-0.627875,-0.420627,-0.520320,-0.479746,-0.390866,-0.500000,-0.250000,-0.500000,0.250000,-0.479746,0.390866,-0.420627,0.520320,-0.327430,0.627875,-0.207708,0.704816,-0.071157,0.744911,0.000000,0.744911,0.000000,0.750000,0.550000,0.750000,0.550000,-0.750000,0.550000,-0.750000,
$1*%
%AMFreePoly1*
4,1,19,0.000000,0.744911,0.071157,0.744911,0.207708,0.704816,0.327430,0.627875,0.420627,0.520320,0.479746,0.390866,0.500000,0.250000,0.500000,-0.250000,0.479746,-0.390866,0.420627,-0.520320,0.327430,-0.627875,0.207708,-0.704816,0.071157,-0.744911,0.000000,-0.744911,0.000000,-0.750000,-0.550000,-0.750000,-0.550000,0.750000,0.000000,0.750000,0.000000,0.744911,0.000000,0.744911,
$1*%
G04 Aperture macros list end*
%ADD10C,0.152400*%
%ADD11C,0.100000*%
%ADD12C,0.203200*%
%ADD13O,1.000000X1.600000*%
%ADD14O,1.000000X2.100000*%
%ADD15R,0.600000X1.450000*%
%ADD16R,0.300000X1.450000*%
%ADD17C,0.650000*%
%ADD18RoundRect,0.225000X0.250000X-0.225000X0.250000X0.225000X-0.250000X0.225000X-0.250000X-0.225000X0*%
%ADD19RoundRect,0.135000X-0.185000X0.135000X-0.185000X-0.135000X0.185000X-0.135000X0.185000X0.135000X0*%
%ADD20RoundRect,0.140000X0.140000X0.170000X-0.140000X0.170000X-0.140000X-0.170000X0.140000X-0.170000X0*%
%ADD21R,0.750000X1.000000*%
%ADD22RoundRect,0.140000X0.170000X-0.140000X0.170000X0.140000X-0.170000X0.140000X-0.170000X-0.140000X0*%
%ADD23RoundRect,0.218750X0.256250X-0.218750X0.256250X0.218750X-0.256250X0.218750X-0.256250X-0.218750X0*%
%ADD24RoundRect,0.135000X0.185000X-0.135000X0.185000X0.135000X-0.185000X0.135000X-0.185000X-0.135000X0*%
%ADD25RoundRect,0.062500X0.350000X0.062500X-0.350000X0.062500X-0.350000X-0.062500X0.350000X-0.062500X0*%
%ADD26RoundRect,0.062500X0.062500X0.350000X-0.062500X0.350000X-0.062500X-0.350000X0.062500X-0.350000X0*%
%ADD27R,1.700000X1.700000*%
%ADD28RoundRect,0.150000X-0.150000X0.587500X-0.150000X-0.587500X0.150000X-0.587500X0.150000X0.587500X0*%
%ADD29RoundRect,0.140000X-0.140000X-0.170000X0.140000X-0.170000X0.140000X0.170000X-0.140000X0.170000X0*%
%ADD30RoundRect,0.218750X-0.218750X-0.256250X0.218750X-0.256250X0.218750X0.256250X-0.218750X0.256250X0*%
%ADD31RoundRect,0.140000X-0.170000X0.140000X-0.170000X-0.140000X0.170000X-0.140000X0.170000X0.140000X0*%
%ADD32RoundRect,0.218750X-0.256250X0.218750X-0.256250X-0.218750X0.256250X-0.218750X0.256250X0.218750X0*%
%ADD33RoundRect,0.135000X-0.135000X-0.185000X0.135000X-0.185000X0.135000X0.185000X-0.135000X0.185000X0*%
%ADD34RoundRect,0.112500X0.112500X-0.187500X0.112500X0.187500X-0.112500X0.187500X-0.112500X-0.187500X0*%
%ADD35FreePoly0,0.000000*%
%ADD36R,1.000000X1.500000*%
%ADD37FreePoly1,0.000000*%
%ADD38RoundRect,0.375000X-0.375000X0.625000X-0.375000X-0.625000X0.375000X-0.625000X0.375000X0.625000X0*%
%ADD39RoundRect,0.500000X-1.400000X0.500000X-1.400000X-0.500000X1.400000X-0.500000X1.400000X0.500000X0*%
%ADD40RoundRect,0.100000X-0.650000X-0.400000X0.650000X-0.400000X0.650000X0.400000X-0.650000X0.400000X0*%
%ADD41C,1.700000*%
%ADD42C,0.450000*%
%ADD43Outline6P,-1.000000X0.270000X-0.820000X0.450000X1.000000X0.450000X1.000000X-0.450000X-0.820000X-0.450000X-1.000000X-0.270000X180.000000*%
%ADD44Outline6P,-1.000000X0.270000X-0.820000X0.450000X1.000000X0.450000X1.000000X-0.450000X-0.820000X-0.450000X-1.000000X-0.270000X270.000000*%
%ADD45Outline6P,-1.000000X0.270000X-0.820000X0.450000X1.000000X0.450000X1.000000X-0.450000X-0.820000X-0.450000X-1.000000X-0.270000X0.000000*%
%ADD46C,3.500000*%
%ADD47R,3.900000X3.900000*%
G04 #@! TA.AperFunction,Profile*
%ADD48C,0.050000*%
G04 #@! TD*
G04 APERTURE END LIST*
D10*
X156140520Y-77625181D02*
X156140520Y-77780000D01*
X156140520Y-77780000D02*
X156179225Y-77857410D01*
X156179225Y-77857410D02*
X156217929Y-77896114D01*
X156217929Y-77896114D02*
X156334044Y-77973524D01*
X156334044Y-77973524D02*
X156488863Y-78012229D01*
X156488863Y-78012229D02*
X156798501Y-78012229D01*
X156798501Y-78012229D02*
X156875910Y-77973524D01*
X156875910Y-77973524D02*
X156914615Y-77934819D01*
X156914615Y-77934819D02*
X156953320Y-77857410D01*
X156953320Y-77857410D02*
X156953320Y-77702591D01*
X156953320Y-77702591D02*
X156914615Y-77625181D01*
X156914615Y-77625181D02*
X156875910Y-77586476D01*
X156875910Y-77586476D02*
X156798501Y-77547772D01*
X156798501Y-77547772D02*
X156604977Y-77547772D01*
X156604977Y-77547772D02*
X156527567Y-77586476D01*
X156527567Y-77586476D02*
X156488863Y-77625181D01*
X156488863Y-77625181D02*
X156450158Y-77702591D01*
X156450158Y-77702591D02*
X156450158Y-77857410D01*
X156450158Y-77857410D02*
X156488863Y-77934819D01*
X156488863Y-77934819D02*
X156527567Y-77973524D01*
X156527567Y-77973524D02*
X156604977Y-78012229D01*
X156953320Y-62385181D02*
X156953320Y-61998133D01*
X156953320Y-61998133D02*
X156566272Y-61959429D01*
X156566272Y-61959429D02*
X156604977Y-61998133D01*
X156604977Y-61998133D02*
X156643682Y-62075543D01*
X156643682Y-62075543D02*
X156643682Y-62269067D01*
X156643682Y-62269067D02*
X156604977Y-62346476D01*
X156604977Y-62346476D02*
X156566272Y-62385181D01*
X156566272Y-62385181D02*
X156488863Y-62423886D01*
X156488863Y-62423886D02*
X156295339Y-62423886D01*
X156295339Y-62423886D02*
X156217929Y-62385181D01*
X156217929Y-62385181D02*
X156179225Y-62346476D01*
X156179225Y-62346476D02*
X156140520Y-62269067D01*
X156140520Y-62269067D02*
X156140520Y-62075543D01*
X156140520Y-62075543D02*
X156179225Y-61998133D01*
X156179225Y-61998133D02*
X156217929Y-61959429D01*
X156953320Y-62656114D02*
X156140520Y-62927047D01*
X156140520Y-62927047D02*
X156953320Y-63197981D01*
X133846679Y-80358705D02*
X133846679Y-80281295D01*
X133846679Y-80281295D02*
X133885384Y-80203886D01*
X133885384Y-80203886D02*
X133924089Y-80165181D01*
X133924089Y-80165181D02*
X134001498Y-80126476D01*
X134001498Y-80126476D02*
X134156317Y-80087771D01*
X134156317Y-80087771D02*
X134349841Y-80087771D01*
X134349841Y-80087771D02*
X134504660Y-80126476D01*
X134504660Y-80126476D02*
X134582070Y-80165181D01*
X134582070Y-80165181D02*
X134620775Y-80203886D01*
X134620775Y-80203886D02*
X134659479Y-80281295D01*
X134659479Y-80281295D02*
X134659479Y-80358705D01*
X134659479Y-80358705D02*
X134620775Y-80436114D01*
X134620775Y-80436114D02*
X134582070Y-80474819D01*
X134582070Y-80474819D02*
X134504660Y-80513524D01*
X134504660Y-80513524D02*
X134349841Y-80552228D01*
X134349841Y-80552228D02*
X134156317Y-80552228D01*
X134156317Y-80552228D02*
X134001498Y-80513524D01*
X134001498Y-80513524D02*
X133924089Y-80474819D01*
X133924089Y-80474819D02*
X133885384Y-80436114D01*
X133885384Y-80436114D02*
X133846679Y-80358705D01*
X153591164Y-67824066D02*
X153745983Y-67824066D01*
X153745983Y-67824066D02*
X153823393Y-67862771D01*
X153823393Y-67862771D02*
X153900802Y-67940181D01*
X153900802Y-67940181D02*
X153939507Y-68095000D01*
X153939507Y-68095000D02*
X153939507Y-68365933D01*
X153939507Y-68365933D02*
X153900802Y-68520752D01*
X153900802Y-68520752D02*
X153823393Y-68598162D01*
X153823393Y-68598162D02*
X153745983Y-68636866D01*
X153745983Y-68636866D02*
X153591164Y-68636866D01*
X153591164Y-68636866D02*
X153513755Y-68598162D01*
X153513755Y-68598162D02*
X153436345Y-68520752D01*
X153436345Y-68520752D02*
X153397641Y-68365933D01*
X153397641Y-68365933D02*
X153397641Y-68095000D01*
X153397641Y-68095000D02*
X153436345Y-67940181D01*
X153436345Y-67940181D02*
X153513755Y-67862771D01*
X153513755Y-67862771D02*
X153591164Y-67824066D01*
X154171736Y-67824066D02*
X154636193Y-67824066D01*
X154403965Y-68636866D02*
X154403965Y-67824066D01*
X155332879Y-67862771D02*
X155255469Y-67824066D01*
X155255469Y-67824066D02*
X155139355Y-67824066D01*
X155139355Y-67824066D02*
X155023241Y-67862771D01*
X155023241Y-67862771D02*
X154945831Y-67940181D01*
X154945831Y-67940181D02*
X154907126Y-68017590D01*
X154907126Y-68017590D02*
X154868422Y-68172409D01*
X154868422Y-68172409D02*
X154868422Y-68288523D01*
X154868422Y-68288523D02*
X154907126Y-68443342D01*
X154907126Y-68443342D02*
X154945831Y-68520752D01*
X154945831Y-68520752D02*
X155023241Y-68598162D01*
X155023241Y-68598162D02*
X155139355Y-68636866D01*
X155139355Y-68636866D02*
X155216764Y-68636866D01*
X155216764Y-68636866D02*
X155332879Y-68598162D01*
X155332879Y-68598162D02*
X155371583Y-68559457D01*
X155371583Y-68559457D02*
X155371583Y-68288523D01*
X155371583Y-68288523D02*
X155216764Y-68288523D01*
X134195022Y-113727047D02*
X134195022Y-112952952D01*
X134427251Y-113572228D02*
X134427251Y-113107771D01*
X133846679Y-113340000D02*
X134195022Y-113340000D01*
X134659479Y-113262590D02*
X134659479Y-113417409D01*
X134195022Y-62927047D02*
X134195022Y-62152952D01*
X134427251Y-62772228D02*
X134427251Y-62307771D01*
X133846679Y-62540000D02*
X134195022Y-62540000D01*
X134659479Y-62462590D02*
X134659479Y-62617409D01*
X156953320Y-100794819D02*
X156953320Y-100640000D01*
X156953320Y-100640000D02*
X156914615Y-100562591D01*
X156914615Y-100562591D02*
X156875910Y-100523886D01*
X156875910Y-100523886D02*
X156759796Y-100446476D01*
X156759796Y-100446476D02*
X156604977Y-100407772D01*
X156604977Y-100407772D02*
X156295339Y-100407772D01*
X156295339Y-100407772D02*
X156217929Y-100446476D01*
X156217929Y-100446476D02*
X156179225Y-100485181D01*
X156179225Y-100485181D02*
X156140520Y-100562591D01*
X156140520Y-100562591D02*
X156140520Y-100717410D01*
X156140520Y-100717410D02*
X156179225Y-100794819D01*
X156179225Y-100794819D02*
X156217929Y-100833524D01*
X156217929Y-100833524D02*
X156295339Y-100872229D01*
X156295339Y-100872229D02*
X156488863Y-100872229D01*
X156488863Y-100872229D02*
X156566272Y-100833524D01*
X156566272Y-100833524D02*
X156604977Y-100794819D01*
X156604977Y-100794819D02*
X156643682Y-100717410D01*
X156643682Y-100717410D02*
X156643682Y-100562591D01*
X156643682Y-100562591D02*
X156604977Y-100485181D01*
X156604977Y-100485181D02*
X156566272Y-100446476D01*
X156566272Y-100446476D02*
X156488863Y-100407772D01*
D11*
X137024771Y-81028709D02*
X136858105Y-80790614D01*
X136739057Y-81028709D02*
X136739057Y-80528709D01*
X136739057Y-80528709D02*
X136929533Y-80528709D01*
X136929533Y-80528709D02*
X136977152Y-80552519D01*
X136977152Y-80552519D02*
X137000962Y-80576328D01*
X137000962Y-80576328D02*
X137024771Y-80623947D01*
X137024771Y-80623947D02*
X137024771Y-80695376D01*
X137024771Y-80695376D02*
X137000962Y-80742995D01*
X137000962Y-80742995D02*
X136977152Y-80766804D01*
X136977152Y-80766804D02*
X136929533Y-80790614D01*
X136929533Y-80790614D02*
X136739057Y-80790614D01*
X137191438Y-80528709D02*
X137524771Y-81028709D01*
X137524771Y-80528709D02*
X137191438Y-81028709D01*
X133882847Y-66070476D02*
X133882847Y-65994285D01*
X133882847Y-65994285D02*
X133901895Y-65956190D01*
X133901895Y-65956190D02*
X133939990Y-65918095D01*
X133939990Y-65918095D02*
X134016180Y-65899047D01*
X134016180Y-65899047D02*
X134149514Y-65899047D01*
X134149514Y-65899047D02*
X134225704Y-65918095D01*
X134225704Y-65918095D02*
X134263800Y-65956190D01*
X134263800Y-65956190D02*
X134282847Y-65994285D01*
X134282847Y-65994285D02*
X134282847Y-66070476D01*
X134282847Y-66070476D02*
X134263800Y-66108571D01*
X134263800Y-66108571D02*
X134225704Y-66146666D01*
X134225704Y-66146666D02*
X134149514Y-66165714D01*
X134149514Y-66165714D02*
X134016180Y-66165714D01*
X134016180Y-66165714D02*
X133939990Y-66146666D01*
X133939990Y-66146666D02*
X133901895Y-66108571D01*
X133901895Y-66108571D02*
X133882847Y-66070476D01*
X133882847Y-65784761D02*
X133882847Y-65556190D01*
X134282847Y-65670476D02*
X133882847Y-65670476D01*
X133901895Y-65213333D02*
X133882847Y-65251428D01*
X133882847Y-65251428D02*
X133882847Y-65308571D01*
X133882847Y-65308571D02*
X133901895Y-65365714D01*
X133901895Y-65365714D02*
X133939990Y-65403809D01*
X133939990Y-65403809D02*
X133978085Y-65422856D01*
X133978085Y-65422856D02*
X134054276Y-65441904D01*
X134054276Y-65441904D02*
X134111419Y-65441904D01*
X134111419Y-65441904D02*
X134187609Y-65422856D01*
X134187609Y-65422856D02*
X134225704Y-65403809D01*
X134225704Y-65403809D02*
X134263800Y-65365714D01*
X134263800Y-65365714D02*
X134282847Y-65308571D01*
X134282847Y-65308571D02*
X134282847Y-65270475D01*
X134282847Y-65270475D02*
X134263800Y-65213333D01*
X134263800Y-65213333D02*
X134244752Y-65194285D01*
X134244752Y-65194285D02*
X134111419Y-65194285D01*
X134111419Y-65194285D02*
X134111419Y-65270475D01*
X134282847Y-64718094D02*
X133882847Y-64718094D01*
X133882847Y-64718094D02*
X133882847Y-64622856D01*
X133882847Y-64622856D02*
X133901895Y-64565713D01*
X133901895Y-64565713D02*
X133939990Y-64527618D01*
X133939990Y-64527618D02*
X133978085Y-64508571D01*
X133978085Y-64508571D02*
X134054276Y-64489523D01*
X134054276Y-64489523D02*
X134111419Y-64489523D01*
X134111419Y-64489523D02*
X134187609Y-64508571D01*
X134187609Y-64508571D02*
X134225704Y-64527618D01*
X134225704Y-64527618D02*
X134263800Y-64565713D01*
X134263800Y-64565713D02*
X134282847Y-64622856D01*
X134282847Y-64622856D02*
X134282847Y-64718094D01*
X134130466Y-64318094D02*
X134130466Y-64013333D01*
X134545873Y-65356190D02*
X134526825Y-65394285D01*
X134526825Y-65394285D02*
X134526825Y-65451428D01*
X134526825Y-65451428D02*
X134545873Y-65508571D01*
X134545873Y-65508571D02*
X134583968Y-65546666D01*
X134583968Y-65546666D02*
X134622063Y-65565713D01*
X134622063Y-65565713D02*
X134698254Y-65584761D01*
X134698254Y-65584761D02*
X134755397Y-65584761D01*
X134755397Y-65584761D02*
X134831587Y-65565713D01*
X134831587Y-65565713D02*
X134869682Y-65546666D01*
X134869682Y-65546666D02*
X134907778Y-65508571D01*
X134907778Y-65508571D02*
X134926825Y-65451428D01*
X134926825Y-65451428D02*
X134926825Y-65413332D01*
X134926825Y-65413332D02*
X134907778Y-65356190D01*
X134907778Y-65356190D02*
X134888730Y-65337142D01*
X134888730Y-65337142D02*
X134755397Y-65337142D01*
X134755397Y-65337142D02*
X134755397Y-65413332D01*
X134926825Y-64956190D02*
X134926825Y-65184761D01*
X134926825Y-65070475D02*
X134526825Y-65070475D01*
X134526825Y-65070475D02*
X134583968Y-65108571D01*
X134583968Y-65108571D02*
X134622063Y-65146666D01*
X134622063Y-65146666D02*
X134641111Y-65184761D01*
X134926825Y-64765714D02*
X134926825Y-64689523D01*
X134926825Y-64689523D02*
X134907778Y-64651428D01*
X134907778Y-64651428D02*
X134888730Y-64632380D01*
X134888730Y-64632380D02*
X134831587Y-64594285D01*
X134831587Y-64594285D02*
X134755397Y-64575238D01*
X134755397Y-64575238D02*
X134603016Y-64575238D01*
X134603016Y-64575238D02*
X134564920Y-64594285D01*
X134564920Y-64594285D02*
X134545873Y-64613333D01*
X134545873Y-64613333D02*
X134526825Y-64651428D01*
X134526825Y-64651428D02*
X134526825Y-64727619D01*
X134526825Y-64727619D02*
X134545873Y-64765714D01*
X134545873Y-64765714D02*
X134564920Y-64784761D01*
X134564920Y-64784761D02*
X134603016Y-64803809D01*
X134603016Y-64803809D02*
X134698254Y-64803809D01*
X134698254Y-64803809D02*
X134736349Y-64784761D01*
X134736349Y-64784761D02*
X134755397Y-64765714D01*
X134755397Y-64765714D02*
X134774444Y-64727619D01*
X134774444Y-64727619D02*
X134774444Y-64651428D01*
X134774444Y-64651428D02*
X134755397Y-64613333D01*
X134755397Y-64613333D02*
X134736349Y-64594285D01*
X134736349Y-64594285D02*
X134698254Y-64575238D01*
D10*
X134659479Y-105487771D02*
X134659479Y-105952228D01*
X134659479Y-105720000D02*
X133846679Y-105720000D01*
X133846679Y-105720000D02*
X133962794Y-105797409D01*
X133962794Y-105797409D02*
X134040203Y-105874819D01*
X134040203Y-105874819D02*
X134078908Y-105952228D01*
X133846679Y-83517980D02*
X133846679Y-83014818D01*
X133846679Y-83014818D02*
X134156317Y-83285752D01*
X134156317Y-83285752D02*
X134156317Y-83169637D01*
X134156317Y-83169637D02*
X134195022Y-83092228D01*
X134195022Y-83092228D02*
X134233727Y-83053523D01*
X134233727Y-83053523D02*
X134311136Y-83014818D01*
X134311136Y-83014818D02*
X134504660Y-83014818D01*
X134504660Y-83014818D02*
X134582070Y-83053523D01*
X134582070Y-83053523D02*
X134620775Y-83092228D01*
X134620775Y-83092228D02*
X134659479Y-83169637D01*
X134659479Y-83169637D02*
X134659479Y-83401866D01*
X134659479Y-83401866D02*
X134620775Y-83479275D01*
X134620775Y-83479275D02*
X134582070Y-83517980D01*
X133846679Y-82279428D02*
X133846679Y-82666476D01*
X133846679Y-82666476D02*
X134233727Y-82705180D01*
X134233727Y-82705180D02*
X134195022Y-82666476D01*
X134195022Y-82666476D02*
X134156317Y-82589066D01*
X134156317Y-82589066D02*
X134156317Y-82395542D01*
X134156317Y-82395542D02*
X134195022Y-82318133D01*
X134195022Y-82318133D02*
X134233727Y-82279428D01*
X134233727Y-82279428D02*
X134311136Y-82240723D01*
X134311136Y-82240723D02*
X134504660Y-82240723D01*
X134504660Y-82240723D02*
X134582070Y-82279428D01*
X134582070Y-82279428D02*
X134620775Y-82318133D01*
X134620775Y-82318133D02*
X134659479Y-82395542D01*
X134659479Y-82395542D02*
X134659479Y-82589066D01*
X134659479Y-82589066D02*
X134620775Y-82666476D01*
X134620775Y-82666476D02*
X134582070Y-82705180D01*
X134117613Y-100872228D02*
X134659479Y-100872228D01*
X133807975Y-101065752D02*
X134388546Y-101259275D01*
X134388546Y-101259275D02*
X134388546Y-100756114D01*
X133924089Y-100485180D02*
X133885384Y-100446476D01*
X133885384Y-100446476D02*
X133846679Y-100369066D01*
X133846679Y-100369066D02*
X133846679Y-100175542D01*
X133846679Y-100175542D02*
X133885384Y-100098133D01*
X133885384Y-100098133D02*
X133924089Y-100059428D01*
X133924089Y-100059428D02*
X134001498Y-100020723D01*
X134001498Y-100020723D02*
X134078908Y-100020723D01*
X134078908Y-100020723D02*
X134195022Y-100059428D01*
X134195022Y-100059428D02*
X134659479Y-100523885D01*
X134659479Y-100523885D02*
X134659479Y-100020723D01*
X156140520Y-95405181D02*
X156140520Y-94940724D01*
X156140520Y-95172952D02*
X156953320Y-95172952D01*
X156953320Y-95172952D02*
X156837205Y-95095543D01*
X156837205Y-95095543D02*
X156759796Y-95018133D01*
X156759796Y-95018133D02*
X156721091Y-94940724D01*
X156953320Y-96140571D02*
X156953320Y-95753523D01*
X156953320Y-95753523D02*
X156566272Y-95714819D01*
X156566272Y-95714819D02*
X156604977Y-95753523D01*
X156604977Y-95753523D02*
X156643682Y-95830933D01*
X156643682Y-95830933D02*
X156643682Y-96024457D01*
X156643682Y-96024457D02*
X156604977Y-96101866D01*
X156604977Y-96101866D02*
X156566272Y-96140571D01*
X156566272Y-96140571D02*
X156488863Y-96179276D01*
X156488863Y-96179276D02*
X156295339Y-96179276D01*
X156295339Y-96179276D02*
X156217929Y-96140571D01*
X156217929Y-96140571D02*
X156179225Y-96101866D01*
X156179225Y-96101866D02*
X156140520Y-96024457D01*
X156140520Y-96024457D02*
X156140520Y-95830933D01*
X156140520Y-95830933D02*
X156179225Y-95753523D01*
X156179225Y-95753523D02*
X156217929Y-95714819D01*
X156953320Y-103373524D02*
X156953320Y-102986476D01*
X156953320Y-102986476D02*
X156566272Y-102947772D01*
X156566272Y-102947772D02*
X156604977Y-102986476D01*
X156604977Y-102986476D02*
X156643682Y-103063886D01*
X156643682Y-103063886D02*
X156643682Y-103257410D01*
X156643682Y-103257410D02*
X156604977Y-103334819D01*
X156604977Y-103334819D02*
X156566272Y-103373524D01*
X156566272Y-103373524D02*
X156488863Y-103412229D01*
X156488863Y-103412229D02*
X156295339Y-103412229D01*
X156295339Y-103412229D02*
X156217929Y-103373524D01*
X156217929Y-103373524D02*
X156179225Y-103334819D01*
X156179225Y-103334819D02*
X156140520Y-103257410D01*
X156140520Y-103257410D02*
X156140520Y-103063886D01*
X156140520Y-103063886D02*
X156179225Y-102986476D01*
X156179225Y-102986476D02*
X156217929Y-102947772D01*
X134117613Y-95792228D02*
X134659479Y-95792228D01*
X133807975Y-95985752D02*
X134388546Y-96179275D01*
X134388546Y-96179275D02*
X134388546Y-95676114D01*
X133846679Y-95211657D02*
X133846679Y-95134247D01*
X133846679Y-95134247D02*
X133885384Y-95056838D01*
X133885384Y-95056838D02*
X133924089Y-95018133D01*
X133924089Y-95018133D02*
X134001498Y-94979428D01*
X134001498Y-94979428D02*
X134156317Y-94940723D01*
X134156317Y-94940723D02*
X134349841Y-94940723D01*
X134349841Y-94940723D02*
X134504660Y-94979428D01*
X134504660Y-94979428D02*
X134582070Y-95018133D01*
X134582070Y-95018133D02*
X134620775Y-95056838D01*
X134620775Y-95056838D02*
X134659479Y-95134247D01*
X134659479Y-95134247D02*
X134659479Y-95211657D01*
X134659479Y-95211657D02*
X134620775Y-95289066D01*
X134620775Y-95289066D02*
X134582070Y-95327771D01*
X134582070Y-95327771D02*
X134504660Y-95366476D01*
X134504660Y-95366476D02*
X134349841Y-95405180D01*
X134349841Y-95405180D02*
X134156317Y-95405180D01*
X134156317Y-95405180D02*
X134001498Y-95366476D01*
X134001498Y-95366476D02*
X133924089Y-95327771D01*
X133924089Y-95327771D02*
X133885384Y-95289066D01*
X133885384Y-95289066D02*
X133846679Y-95211657D01*
X135467119Y-67824066D02*
X135467119Y-68482047D01*
X135467119Y-68482047D02*
X135505824Y-68559457D01*
X135505824Y-68559457D02*
X135544529Y-68598162D01*
X135544529Y-68598162D02*
X135621938Y-68636866D01*
X135621938Y-68636866D02*
X135776757Y-68636866D01*
X135776757Y-68636866D02*
X135854167Y-68598162D01*
X135854167Y-68598162D02*
X135892872Y-68559457D01*
X135892872Y-68559457D02*
X135931576Y-68482047D01*
X135931576Y-68482047D02*
X135931576Y-67824066D01*
X136279920Y-68404638D02*
X136666967Y-68404638D01*
X136202510Y-68636866D02*
X136473443Y-67824066D01*
X136473443Y-67824066D02*
X136744377Y-68636866D01*
X137479767Y-68636866D02*
X137208834Y-68249819D01*
X137015310Y-68636866D02*
X137015310Y-67824066D01*
X137015310Y-67824066D02*
X137324948Y-67824066D01*
X137324948Y-67824066D02*
X137402358Y-67862771D01*
X137402358Y-67862771D02*
X137441063Y-67901476D01*
X137441063Y-67901476D02*
X137479767Y-67978885D01*
X137479767Y-67978885D02*
X137479767Y-68095000D01*
X137479767Y-68095000D02*
X137441063Y-68172409D01*
X137441063Y-68172409D02*
X137402358Y-68211114D01*
X137402358Y-68211114D02*
X137324948Y-68249819D01*
X137324948Y-68249819D02*
X137015310Y-68249819D01*
X137711996Y-67824066D02*
X138176453Y-67824066D01*
X137944225Y-68636866D02*
X137944225Y-67824066D01*
D11*
X135214648Y-80528709D02*
X135500362Y-80528709D01*
X135357505Y-81028709D02*
X135357505Y-80528709D01*
X135619409Y-80528709D02*
X135952742Y-81028709D01*
X135952742Y-80528709D02*
X135619409Y-81028709D01*
D10*
X133846679Y-88597980D02*
X133846679Y-88094818D01*
X133846679Y-88094818D02*
X134156317Y-88365752D01*
X134156317Y-88365752D02*
X134156317Y-88249637D01*
X134156317Y-88249637D02*
X134195022Y-88172228D01*
X134195022Y-88172228D02*
X134233727Y-88133523D01*
X134233727Y-88133523D02*
X134311136Y-88094818D01*
X134311136Y-88094818D02*
X134504660Y-88094818D01*
X134504660Y-88094818D02*
X134582070Y-88133523D01*
X134582070Y-88133523D02*
X134620775Y-88172228D01*
X134620775Y-88172228D02*
X134659479Y-88249637D01*
X134659479Y-88249637D02*
X134659479Y-88481866D01*
X134659479Y-88481866D02*
X134620775Y-88559275D01*
X134620775Y-88559275D02*
X134582070Y-88597980D01*
X133846679Y-87823885D02*
X133846679Y-87282019D01*
X133846679Y-87282019D02*
X134659479Y-87630361D01*
X134117613Y-78012228D02*
X134659479Y-78012228D01*
X133807975Y-78205752D02*
X134388546Y-78399275D01*
X134388546Y-78399275D02*
X134388546Y-77896114D01*
X133846679Y-77199428D02*
X133846679Y-77586476D01*
X133846679Y-77586476D02*
X134233727Y-77625180D01*
X134233727Y-77625180D02*
X134195022Y-77586476D01*
X134195022Y-77586476D02*
X134156317Y-77509066D01*
X134156317Y-77509066D02*
X134156317Y-77315542D01*
X134156317Y-77315542D02*
X134195022Y-77238133D01*
X134195022Y-77238133D02*
X134233727Y-77199428D01*
X134233727Y-77199428D02*
X134311136Y-77160723D01*
X134311136Y-77160723D02*
X134504660Y-77160723D01*
X134504660Y-77160723D02*
X134582070Y-77199428D01*
X134582070Y-77199428D02*
X134620775Y-77238133D01*
X134620775Y-77238133D02*
X134659479Y-77315542D01*
X134659479Y-77315542D02*
X134659479Y-77509066D01*
X134659479Y-77509066D02*
X134620775Y-77586476D01*
X134620775Y-77586476D02*
X134582070Y-77625180D01*
D11*
X144112500Y-92740127D02*
X144112500Y-92435365D01*
X144036309Y-92511556D02*
X144112500Y-92435365D01*
X144112500Y-92435365D02*
X144188690Y-92511556D01*
X143836309Y-93384105D02*
X143702976Y-93193629D01*
X143607738Y-93384105D02*
X143607738Y-92984105D01*
X143607738Y-92984105D02*
X143760119Y-92984105D01*
X143760119Y-92984105D02*
X143798214Y-93003153D01*
X143798214Y-93003153D02*
X143817261Y-93022200D01*
X143817261Y-93022200D02*
X143836309Y-93060296D01*
X143836309Y-93060296D02*
X143836309Y-93117438D01*
X143836309Y-93117438D02*
X143817261Y-93155534D01*
X143817261Y-93155534D02*
X143798214Y-93174581D01*
X143798214Y-93174581D02*
X143760119Y-93193629D01*
X143760119Y-93193629D02*
X143607738Y-93193629D01*
X144217261Y-93003153D02*
X144179166Y-92984105D01*
X144179166Y-92984105D02*
X144122023Y-92984105D01*
X144122023Y-92984105D02*
X144064880Y-93003153D01*
X144064880Y-93003153D02*
X144026785Y-93041248D01*
X144026785Y-93041248D02*
X144007738Y-93079343D01*
X144007738Y-93079343D02*
X143988690Y-93155534D01*
X143988690Y-93155534D02*
X143988690Y-93212677D01*
X143988690Y-93212677D02*
X144007738Y-93288867D01*
X144007738Y-93288867D02*
X144026785Y-93326962D01*
X144026785Y-93326962D02*
X144064880Y-93365058D01*
X144064880Y-93365058D02*
X144122023Y-93384105D01*
X144122023Y-93384105D02*
X144160119Y-93384105D01*
X144160119Y-93384105D02*
X144217261Y-93365058D01*
X144217261Y-93365058D02*
X144236309Y-93346010D01*
X144236309Y-93346010D02*
X144236309Y-93212677D01*
X144236309Y-93212677D02*
X144160119Y-93212677D01*
X144541071Y-93174581D02*
X144598214Y-93193629D01*
X144598214Y-93193629D02*
X144617261Y-93212677D01*
X144617261Y-93212677D02*
X144636309Y-93250772D01*
X144636309Y-93250772D02*
X144636309Y-93307915D01*
X144636309Y-93307915D02*
X144617261Y-93346010D01*
X144617261Y-93346010D02*
X144598214Y-93365058D01*
X144598214Y-93365058D02*
X144560119Y-93384105D01*
X144560119Y-93384105D02*
X144407738Y-93384105D01*
X144407738Y-93384105D02*
X144407738Y-92984105D01*
X144407738Y-92984105D02*
X144541071Y-92984105D01*
X144541071Y-92984105D02*
X144579166Y-93003153D01*
X144579166Y-93003153D02*
X144598214Y-93022200D01*
X144598214Y-93022200D02*
X144617261Y-93060296D01*
X144617261Y-93060296D02*
X144617261Y-93098391D01*
X144617261Y-93098391D02*
X144598214Y-93136486D01*
X144598214Y-93136486D02*
X144579166Y-93155534D01*
X144579166Y-93155534D02*
X144541071Y-93174581D01*
X144541071Y-93174581D02*
X144407738Y-93174581D01*
X143788690Y-94028083D02*
X143750595Y-94009036D01*
X143750595Y-94009036D02*
X143731548Y-93989988D01*
X143731548Y-93989988D02*
X143712500Y-93951893D01*
X143712500Y-93951893D02*
X143712500Y-93837607D01*
X143712500Y-93837607D02*
X143731548Y-93799512D01*
X143731548Y-93799512D02*
X143750595Y-93780464D01*
X143750595Y-93780464D02*
X143788690Y-93761416D01*
X143788690Y-93761416D02*
X143845833Y-93761416D01*
X143845833Y-93761416D02*
X143883929Y-93780464D01*
X143883929Y-93780464D02*
X143902976Y-93799512D01*
X143902976Y-93799512D02*
X143922024Y-93837607D01*
X143922024Y-93837607D02*
X143922024Y-93951893D01*
X143922024Y-93951893D02*
X143902976Y-93989988D01*
X143902976Y-93989988D02*
X143883929Y-94009036D01*
X143883929Y-94009036D02*
X143845833Y-94028083D01*
X143845833Y-94028083D02*
X143788690Y-94028083D01*
X144264881Y-93761416D02*
X144264881Y-94028083D01*
X144093453Y-93761416D02*
X144093453Y-93970940D01*
X144093453Y-93970940D02*
X144112500Y-94009036D01*
X144112500Y-94009036D02*
X144150595Y-94028083D01*
X144150595Y-94028083D02*
X144207738Y-94028083D01*
X144207738Y-94028083D02*
X144245834Y-94009036D01*
X144245834Y-94009036D02*
X144264881Y-93989988D01*
X144398215Y-93761416D02*
X144550596Y-93761416D01*
X144455358Y-93628083D02*
X144455358Y-93970940D01*
X144455358Y-93970940D02*
X144474405Y-94009036D01*
X144474405Y-94009036D02*
X144512500Y-94028083D01*
X144512500Y-94028083D02*
X144550596Y-94028083D01*
D10*
X134659479Y-108395467D02*
X134272432Y-108666400D01*
X134659479Y-108859924D02*
X133846679Y-108859924D01*
X133846679Y-108859924D02*
X133846679Y-108550286D01*
X133846679Y-108550286D02*
X133885384Y-108472876D01*
X133885384Y-108472876D02*
X133924089Y-108434171D01*
X133924089Y-108434171D02*
X134001498Y-108395467D01*
X134001498Y-108395467D02*
X134117613Y-108395467D01*
X134117613Y-108395467D02*
X134195022Y-108434171D01*
X134195022Y-108434171D02*
X134233727Y-108472876D01*
X134233727Y-108472876D02*
X134272432Y-108550286D01*
X134272432Y-108550286D02*
X134272432Y-108859924D01*
X133846679Y-108124533D02*
X134659479Y-107582667D01*
X133846679Y-107582667D02*
X134659479Y-108124533D01*
X156682386Y-105874819D02*
X156140520Y-105874819D01*
X156992025Y-105681295D02*
X156411453Y-105487772D01*
X156411453Y-105487772D02*
X156411453Y-105990933D01*
X156140520Y-72545181D02*
X156140520Y-72080724D01*
X156140520Y-72312952D02*
X156953320Y-72312952D01*
X156953320Y-72312952D02*
X156837205Y-72235543D01*
X156837205Y-72235543D02*
X156759796Y-72158133D01*
X156759796Y-72158133D02*
X156721091Y-72080724D01*
X156140520Y-73319276D02*
X156140520Y-72854819D01*
X156140520Y-73087047D02*
X156953320Y-73087047D01*
X156953320Y-73087047D02*
X156837205Y-73009638D01*
X156837205Y-73009638D02*
X156759796Y-72932228D01*
X156759796Y-72932228D02*
X156721091Y-72854819D01*
D11*
X146687500Y-92740127D02*
X146687500Y-92435365D01*
X146611309Y-92511556D02*
X146687500Y-92435365D01*
X146687500Y-92435365D02*
X146763690Y-92511556D01*
X146411309Y-93384105D02*
X146277976Y-93193629D01*
X146182738Y-93384105D02*
X146182738Y-92984105D01*
X146182738Y-92984105D02*
X146335119Y-92984105D01*
X146335119Y-92984105D02*
X146373214Y-93003153D01*
X146373214Y-93003153D02*
X146392261Y-93022200D01*
X146392261Y-93022200D02*
X146411309Y-93060296D01*
X146411309Y-93060296D02*
X146411309Y-93117438D01*
X146411309Y-93117438D02*
X146392261Y-93155534D01*
X146392261Y-93155534D02*
X146373214Y-93174581D01*
X146373214Y-93174581D02*
X146335119Y-93193629D01*
X146335119Y-93193629D02*
X146182738Y-93193629D01*
X146792261Y-93003153D02*
X146754166Y-92984105D01*
X146754166Y-92984105D02*
X146697023Y-92984105D01*
X146697023Y-92984105D02*
X146639880Y-93003153D01*
X146639880Y-93003153D02*
X146601785Y-93041248D01*
X146601785Y-93041248D02*
X146582738Y-93079343D01*
X146582738Y-93079343D02*
X146563690Y-93155534D01*
X146563690Y-93155534D02*
X146563690Y-93212677D01*
X146563690Y-93212677D02*
X146582738Y-93288867D01*
X146582738Y-93288867D02*
X146601785Y-93326962D01*
X146601785Y-93326962D02*
X146639880Y-93365058D01*
X146639880Y-93365058D02*
X146697023Y-93384105D01*
X146697023Y-93384105D02*
X146735119Y-93384105D01*
X146735119Y-93384105D02*
X146792261Y-93365058D01*
X146792261Y-93365058D02*
X146811309Y-93346010D01*
X146811309Y-93346010D02*
X146811309Y-93212677D01*
X146811309Y-93212677D02*
X146735119Y-93212677D01*
X147116071Y-93174581D02*
X147173214Y-93193629D01*
X147173214Y-93193629D02*
X147192261Y-93212677D01*
X147192261Y-93212677D02*
X147211309Y-93250772D01*
X147211309Y-93250772D02*
X147211309Y-93307915D01*
X147211309Y-93307915D02*
X147192261Y-93346010D01*
X147192261Y-93346010D02*
X147173214Y-93365058D01*
X147173214Y-93365058D02*
X147135119Y-93384105D01*
X147135119Y-93384105D02*
X146982738Y-93384105D01*
X146982738Y-93384105D02*
X146982738Y-92984105D01*
X146982738Y-92984105D02*
X147116071Y-92984105D01*
X147116071Y-92984105D02*
X147154166Y-93003153D01*
X147154166Y-93003153D02*
X147173214Y-93022200D01*
X147173214Y-93022200D02*
X147192261Y-93060296D01*
X147192261Y-93060296D02*
X147192261Y-93098391D01*
X147192261Y-93098391D02*
X147173214Y-93136486D01*
X147173214Y-93136486D02*
X147154166Y-93155534D01*
X147154166Y-93155534D02*
X147116071Y-93174581D01*
X147116071Y-93174581D02*
X146982738Y-93174581D01*
X146401786Y-94009036D02*
X146363690Y-94028083D01*
X146363690Y-94028083D02*
X146287500Y-94028083D01*
X146287500Y-94028083D02*
X146249405Y-94009036D01*
X146249405Y-94009036D02*
X146230357Y-93970940D01*
X146230357Y-93970940D02*
X146230357Y-93818559D01*
X146230357Y-93818559D02*
X146249405Y-93780464D01*
X146249405Y-93780464D02*
X146287500Y-93761416D01*
X146287500Y-93761416D02*
X146363690Y-93761416D01*
X146363690Y-93761416D02*
X146401786Y-93780464D01*
X146401786Y-93780464D02*
X146420833Y-93818559D01*
X146420833Y-93818559D02*
X146420833Y-93856655D01*
X146420833Y-93856655D02*
X146230357Y-93894750D01*
X146592262Y-93761416D02*
X146592262Y-94028083D01*
X146592262Y-93799512D02*
X146611309Y-93780464D01*
X146611309Y-93780464D02*
X146649404Y-93761416D01*
X146649404Y-93761416D02*
X146706547Y-93761416D01*
X146706547Y-93761416D02*
X146744643Y-93780464D01*
X146744643Y-93780464D02*
X146763690Y-93818559D01*
X146763690Y-93818559D02*
X146763690Y-94028083D01*
X147125595Y-94028083D02*
X147125595Y-93818559D01*
X147125595Y-93818559D02*
X147106548Y-93780464D01*
X147106548Y-93780464D02*
X147068452Y-93761416D01*
X147068452Y-93761416D02*
X146992262Y-93761416D01*
X146992262Y-93761416D02*
X146954167Y-93780464D01*
X147125595Y-94009036D02*
X147087500Y-94028083D01*
X147087500Y-94028083D02*
X146992262Y-94028083D01*
X146992262Y-94028083D02*
X146954167Y-94009036D01*
X146954167Y-94009036D02*
X146935119Y-93970940D01*
X146935119Y-93970940D02*
X146935119Y-93932845D01*
X146935119Y-93932845D02*
X146954167Y-93894750D01*
X146954167Y-93894750D02*
X146992262Y-93875702D01*
X146992262Y-93875702D02*
X147087500Y-93875702D01*
X147087500Y-93875702D02*
X147125595Y-93856655D01*
X134282847Y-75516190D02*
X134092371Y-75649523D01*
X134282847Y-75744761D02*
X133882847Y-75744761D01*
X133882847Y-75744761D02*
X133882847Y-75592380D01*
X133882847Y-75592380D02*
X133901895Y-75554285D01*
X133901895Y-75554285D02*
X133920942Y-75535238D01*
X133920942Y-75535238D02*
X133959038Y-75516190D01*
X133959038Y-75516190D02*
X134016180Y-75516190D01*
X134016180Y-75516190D02*
X134054276Y-75535238D01*
X134054276Y-75535238D02*
X134073323Y-75554285D01*
X134073323Y-75554285D02*
X134092371Y-75592380D01*
X134092371Y-75592380D02*
X134092371Y-75744761D01*
X133901895Y-75135238D02*
X133882847Y-75173333D01*
X133882847Y-75173333D02*
X133882847Y-75230476D01*
X133882847Y-75230476D02*
X133901895Y-75287619D01*
X133901895Y-75287619D02*
X133939990Y-75325714D01*
X133939990Y-75325714D02*
X133978085Y-75344761D01*
X133978085Y-75344761D02*
X134054276Y-75363809D01*
X134054276Y-75363809D02*
X134111419Y-75363809D01*
X134111419Y-75363809D02*
X134187609Y-75344761D01*
X134187609Y-75344761D02*
X134225704Y-75325714D01*
X134225704Y-75325714D02*
X134263800Y-75287619D01*
X134263800Y-75287619D02*
X134282847Y-75230476D01*
X134282847Y-75230476D02*
X134282847Y-75192380D01*
X134282847Y-75192380D02*
X134263800Y-75135238D01*
X134263800Y-75135238D02*
X134244752Y-75116190D01*
X134244752Y-75116190D02*
X134111419Y-75116190D01*
X134111419Y-75116190D02*
X134111419Y-75192380D01*
X134073323Y-74811428D02*
X134092371Y-74754285D01*
X134092371Y-74754285D02*
X134111419Y-74735238D01*
X134111419Y-74735238D02*
X134149514Y-74716190D01*
X134149514Y-74716190D02*
X134206657Y-74716190D01*
X134206657Y-74716190D02*
X134244752Y-74735238D01*
X134244752Y-74735238D02*
X134263800Y-74754285D01*
X134263800Y-74754285D02*
X134282847Y-74792380D01*
X134282847Y-74792380D02*
X134282847Y-74944761D01*
X134282847Y-74944761D02*
X133882847Y-74944761D01*
X133882847Y-74944761D02*
X133882847Y-74811428D01*
X133882847Y-74811428D02*
X133901895Y-74773333D01*
X133901895Y-74773333D02*
X133920942Y-74754285D01*
X133920942Y-74754285D02*
X133959038Y-74735238D01*
X133959038Y-74735238D02*
X133997133Y-74735238D01*
X133997133Y-74735238D02*
X134035228Y-74754285D01*
X134035228Y-74754285D02*
X134054276Y-74773333D01*
X134054276Y-74773333D02*
X134073323Y-74811428D01*
X134073323Y-74811428D02*
X134073323Y-74944761D01*
X134545873Y-75516190D02*
X134526825Y-75554285D01*
X134526825Y-75554285D02*
X134526825Y-75611428D01*
X134526825Y-75611428D02*
X134545873Y-75668571D01*
X134545873Y-75668571D02*
X134583968Y-75706666D01*
X134583968Y-75706666D02*
X134622063Y-75725713D01*
X134622063Y-75725713D02*
X134698254Y-75744761D01*
X134698254Y-75744761D02*
X134755397Y-75744761D01*
X134755397Y-75744761D02*
X134831587Y-75725713D01*
X134831587Y-75725713D02*
X134869682Y-75706666D01*
X134869682Y-75706666D02*
X134907778Y-75668571D01*
X134907778Y-75668571D02*
X134926825Y-75611428D01*
X134926825Y-75611428D02*
X134926825Y-75573332D01*
X134926825Y-75573332D02*
X134907778Y-75516190D01*
X134907778Y-75516190D02*
X134888730Y-75497142D01*
X134888730Y-75497142D02*
X134755397Y-75497142D01*
X134755397Y-75497142D02*
X134755397Y-75573332D01*
X134660158Y-75154285D02*
X134926825Y-75154285D01*
X134507778Y-75249523D02*
X134793492Y-75344761D01*
X134793492Y-75344761D02*
X134793492Y-75097142D01*
X134698254Y-74887619D02*
X134679206Y-74925714D01*
X134679206Y-74925714D02*
X134660158Y-74944761D01*
X134660158Y-74944761D02*
X134622063Y-74963809D01*
X134622063Y-74963809D02*
X134603016Y-74963809D01*
X134603016Y-74963809D02*
X134564920Y-74944761D01*
X134564920Y-74944761D02*
X134545873Y-74925714D01*
X134545873Y-74925714D02*
X134526825Y-74887619D01*
X134526825Y-74887619D02*
X134526825Y-74811428D01*
X134526825Y-74811428D02*
X134545873Y-74773333D01*
X134545873Y-74773333D02*
X134564920Y-74754285D01*
X134564920Y-74754285D02*
X134603016Y-74735238D01*
X134603016Y-74735238D02*
X134622063Y-74735238D01*
X134622063Y-74735238D02*
X134660158Y-74754285D01*
X134660158Y-74754285D02*
X134679206Y-74773333D01*
X134679206Y-74773333D02*
X134698254Y-74811428D01*
X134698254Y-74811428D02*
X134698254Y-74887619D01*
X134698254Y-74887619D02*
X134717301Y-74925714D01*
X134717301Y-74925714D02*
X134736349Y-74944761D01*
X134736349Y-74944761D02*
X134774444Y-74963809D01*
X134774444Y-74963809D02*
X134850635Y-74963809D01*
X134850635Y-74963809D02*
X134888730Y-74944761D01*
X134888730Y-74944761D02*
X134907778Y-74925714D01*
X134907778Y-74925714D02*
X134926825Y-74887619D01*
X134926825Y-74887619D02*
X134926825Y-74811428D01*
X134926825Y-74811428D02*
X134907778Y-74773333D01*
X134907778Y-74773333D02*
X134888730Y-74754285D01*
X134888730Y-74754285D02*
X134850635Y-74735238D01*
X134850635Y-74735238D02*
X134774444Y-74735238D01*
X134774444Y-74735238D02*
X134736349Y-74754285D01*
X134736349Y-74754285D02*
X134717301Y-74773333D01*
X134717301Y-74773333D02*
X134698254Y-74811428D01*
D10*
X156140520Y-87785181D02*
X156140520Y-87320724D01*
X156140520Y-87552952D02*
X156953320Y-87552952D01*
X156953320Y-87552952D02*
X156837205Y-87475543D01*
X156837205Y-87475543D02*
X156759796Y-87398133D01*
X156759796Y-87398133D02*
X156721091Y-87320724D01*
X156604977Y-88249638D02*
X156643682Y-88172228D01*
X156643682Y-88172228D02*
X156682386Y-88133523D01*
X156682386Y-88133523D02*
X156759796Y-88094819D01*
X156759796Y-88094819D02*
X156798501Y-88094819D01*
X156798501Y-88094819D02*
X156875910Y-88133523D01*
X156875910Y-88133523D02*
X156914615Y-88172228D01*
X156914615Y-88172228D02*
X156953320Y-88249638D01*
X156953320Y-88249638D02*
X156953320Y-88404457D01*
X156953320Y-88404457D02*
X156914615Y-88481866D01*
X156914615Y-88481866D02*
X156875910Y-88520571D01*
X156875910Y-88520571D02*
X156798501Y-88559276D01*
X156798501Y-88559276D02*
X156759796Y-88559276D01*
X156759796Y-88559276D02*
X156682386Y-88520571D01*
X156682386Y-88520571D02*
X156643682Y-88481866D01*
X156643682Y-88481866D02*
X156604977Y-88404457D01*
X156604977Y-88404457D02*
X156604977Y-88249638D01*
X156604977Y-88249638D02*
X156566272Y-88172228D01*
X156566272Y-88172228D02*
X156527567Y-88133523D01*
X156527567Y-88133523D02*
X156450158Y-88094819D01*
X156450158Y-88094819D02*
X156295339Y-88094819D01*
X156295339Y-88094819D02*
X156217929Y-88133523D01*
X156217929Y-88133523D02*
X156179225Y-88172228D01*
X156179225Y-88172228D02*
X156140520Y-88249638D01*
X156140520Y-88249638D02*
X156140520Y-88404457D01*
X156140520Y-88404457D02*
X156179225Y-88481866D01*
X156179225Y-88481866D02*
X156217929Y-88520571D01*
X156217929Y-88520571D02*
X156295339Y-88559276D01*
X156295339Y-88559276D02*
X156450158Y-88559276D01*
X156450158Y-88559276D02*
X156527567Y-88520571D01*
X156527567Y-88520571D02*
X156566272Y-88481866D01*
X156566272Y-88481866D02*
X156604977Y-88404457D01*
X133846679Y-93677980D02*
X133846679Y-93174818D01*
X133846679Y-93174818D02*
X134156317Y-93445752D01*
X134156317Y-93445752D02*
X134156317Y-93329637D01*
X134156317Y-93329637D02*
X134195022Y-93252228D01*
X134195022Y-93252228D02*
X134233727Y-93213523D01*
X134233727Y-93213523D02*
X134311136Y-93174818D01*
X134311136Y-93174818D02*
X134504660Y-93174818D01*
X134504660Y-93174818D02*
X134582070Y-93213523D01*
X134582070Y-93213523D02*
X134620775Y-93252228D01*
X134620775Y-93252228D02*
X134659479Y-93329637D01*
X134659479Y-93329637D02*
X134659479Y-93561866D01*
X134659479Y-93561866D02*
X134620775Y-93639275D01*
X134620775Y-93639275D02*
X134582070Y-93677980D01*
X134659479Y-92787771D02*
X134659479Y-92632952D01*
X134659479Y-92632952D02*
X134620775Y-92555542D01*
X134620775Y-92555542D02*
X134582070Y-92516838D01*
X134582070Y-92516838D02*
X134465955Y-92439428D01*
X134465955Y-92439428D02*
X134311136Y-92400723D01*
X134311136Y-92400723D02*
X134001498Y-92400723D01*
X134001498Y-92400723D02*
X133924089Y-92439428D01*
X133924089Y-92439428D02*
X133885384Y-92478133D01*
X133885384Y-92478133D02*
X133846679Y-92555542D01*
X133846679Y-92555542D02*
X133846679Y-92710361D01*
X133846679Y-92710361D02*
X133885384Y-92787771D01*
X133885384Y-92787771D02*
X133924089Y-92826476D01*
X133924089Y-92826476D02*
X134001498Y-92865180D01*
X134001498Y-92865180D02*
X134195022Y-92865180D01*
X134195022Y-92865180D02*
X134272432Y-92826476D01*
X134272432Y-92826476D02*
X134311136Y-92787771D01*
X134311136Y-92787771D02*
X134349841Y-92710361D01*
X134349841Y-92710361D02*
X134349841Y-92555542D01*
X134349841Y-92555542D02*
X134311136Y-92478133D01*
X134311136Y-92478133D02*
X134272432Y-92439428D01*
X134272432Y-92439428D02*
X134195022Y-92400723D01*
X156140520Y-92865181D02*
X156140520Y-92400724D01*
X156140520Y-92632952D02*
X156953320Y-92632952D01*
X156953320Y-92632952D02*
X156837205Y-92555543D01*
X156837205Y-92555543D02*
X156759796Y-92478133D01*
X156759796Y-92478133D02*
X156721091Y-92400724D01*
X156953320Y-93561866D02*
X156953320Y-93407047D01*
X156953320Y-93407047D02*
X156914615Y-93329638D01*
X156914615Y-93329638D02*
X156875910Y-93290933D01*
X156875910Y-93290933D02*
X156759796Y-93213523D01*
X156759796Y-93213523D02*
X156604977Y-93174819D01*
X156604977Y-93174819D02*
X156295339Y-93174819D01*
X156295339Y-93174819D02*
X156217929Y-93213523D01*
X156217929Y-93213523D02*
X156179225Y-93252228D01*
X156179225Y-93252228D02*
X156140520Y-93329638D01*
X156140520Y-93329638D02*
X156140520Y-93484457D01*
X156140520Y-93484457D02*
X156179225Y-93561866D01*
X156179225Y-93561866D02*
X156217929Y-93600571D01*
X156217929Y-93600571D02*
X156295339Y-93639276D01*
X156295339Y-93639276D02*
X156488863Y-93639276D01*
X156488863Y-93639276D02*
X156566272Y-93600571D01*
X156566272Y-93600571D02*
X156604977Y-93561866D01*
X156604977Y-93561866D02*
X156643682Y-93484457D01*
X156643682Y-93484457D02*
X156643682Y-93329638D01*
X156643682Y-93329638D02*
X156604977Y-93252228D01*
X156604977Y-93252228D02*
X156566272Y-93213523D01*
X156566272Y-93213523D02*
X156488863Y-93174819D01*
X134195022Y-60387047D02*
X134195022Y-59612952D01*
X134427251Y-60232228D02*
X134427251Y-59767771D01*
X133846679Y-60000000D02*
X134195022Y-60000000D01*
X134659479Y-59922590D02*
X134659479Y-60077409D01*
D11*
X145400000Y-92740127D02*
X145400000Y-92435365D01*
X145323809Y-92511556D02*
X145400000Y-92435365D01*
X145400000Y-92435365D02*
X145476190Y-92511556D01*
X145123809Y-93003153D02*
X145085714Y-92984105D01*
X145085714Y-92984105D02*
X145028571Y-92984105D01*
X145028571Y-92984105D02*
X144971428Y-93003153D01*
X144971428Y-93003153D02*
X144933333Y-93041248D01*
X144933333Y-93041248D02*
X144914286Y-93079343D01*
X144914286Y-93079343D02*
X144895238Y-93155534D01*
X144895238Y-93155534D02*
X144895238Y-93212677D01*
X144895238Y-93212677D02*
X144914286Y-93288867D01*
X144914286Y-93288867D02*
X144933333Y-93326962D01*
X144933333Y-93326962D02*
X144971428Y-93365058D01*
X144971428Y-93365058D02*
X145028571Y-93384105D01*
X145028571Y-93384105D02*
X145066667Y-93384105D01*
X145066667Y-93384105D02*
X145123809Y-93365058D01*
X145123809Y-93365058D02*
X145142857Y-93346010D01*
X145142857Y-93346010D02*
X145142857Y-93212677D01*
X145142857Y-93212677D02*
X145066667Y-93212677D01*
X145485714Y-93117438D02*
X145485714Y-93384105D01*
X145390476Y-92965058D02*
X145295238Y-93250772D01*
X145295238Y-93250772D02*
X145542857Y-93250772D01*
X145752380Y-93155534D02*
X145714285Y-93136486D01*
X145714285Y-93136486D02*
X145695238Y-93117438D01*
X145695238Y-93117438D02*
X145676190Y-93079343D01*
X145676190Y-93079343D02*
X145676190Y-93060296D01*
X145676190Y-93060296D02*
X145695238Y-93022200D01*
X145695238Y-93022200D02*
X145714285Y-93003153D01*
X145714285Y-93003153D02*
X145752380Y-92984105D01*
X145752380Y-92984105D02*
X145828571Y-92984105D01*
X145828571Y-92984105D02*
X145866666Y-93003153D01*
X145866666Y-93003153D02*
X145885714Y-93022200D01*
X145885714Y-93022200D02*
X145904761Y-93060296D01*
X145904761Y-93060296D02*
X145904761Y-93079343D01*
X145904761Y-93079343D02*
X145885714Y-93117438D01*
X145885714Y-93117438D02*
X145866666Y-93136486D01*
X145866666Y-93136486D02*
X145828571Y-93155534D01*
X145828571Y-93155534D02*
X145752380Y-93155534D01*
X145752380Y-93155534D02*
X145714285Y-93174581D01*
X145714285Y-93174581D02*
X145695238Y-93193629D01*
X145695238Y-93193629D02*
X145676190Y-93231724D01*
X145676190Y-93231724D02*
X145676190Y-93307915D01*
X145676190Y-93307915D02*
X145695238Y-93346010D01*
X145695238Y-93346010D02*
X145714285Y-93365058D01*
X145714285Y-93365058D02*
X145752380Y-93384105D01*
X145752380Y-93384105D02*
X145828571Y-93384105D01*
X145828571Y-93384105D02*
X145866666Y-93365058D01*
X145866666Y-93365058D02*
X145885714Y-93346010D01*
X145885714Y-93346010D02*
X145904761Y-93307915D01*
X145904761Y-93307915D02*
X145904761Y-93231724D01*
X145904761Y-93231724D02*
X145885714Y-93193629D01*
X145885714Y-93193629D02*
X145866666Y-93174581D01*
X145866666Y-93174581D02*
X145828571Y-93155534D01*
X145076190Y-94028083D02*
X145038095Y-94009036D01*
X145038095Y-94009036D02*
X145019048Y-93989988D01*
X145019048Y-93989988D02*
X145000000Y-93951893D01*
X145000000Y-93951893D02*
X145000000Y-93837607D01*
X145000000Y-93837607D02*
X145019048Y-93799512D01*
X145019048Y-93799512D02*
X145038095Y-93780464D01*
X145038095Y-93780464D02*
X145076190Y-93761416D01*
X145076190Y-93761416D02*
X145133333Y-93761416D01*
X145133333Y-93761416D02*
X145171429Y-93780464D01*
X145171429Y-93780464D02*
X145190476Y-93799512D01*
X145190476Y-93799512D02*
X145209524Y-93837607D01*
X145209524Y-93837607D02*
X145209524Y-93951893D01*
X145209524Y-93951893D02*
X145190476Y-93989988D01*
X145190476Y-93989988D02*
X145171429Y-94009036D01*
X145171429Y-94009036D02*
X145133333Y-94028083D01*
X145133333Y-94028083D02*
X145076190Y-94028083D01*
X145552381Y-93761416D02*
X145552381Y-94028083D01*
X145380953Y-93761416D02*
X145380953Y-93970940D01*
X145380953Y-93970940D02*
X145400000Y-94009036D01*
X145400000Y-94009036D02*
X145438095Y-94028083D01*
X145438095Y-94028083D02*
X145495238Y-94028083D01*
X145495238Y-94028083D02*
X145533334Y-94009036D01*
X145533334Y-94009036D02*
X145552381Y-93989988D01*
X145685715Y-93761416D02*
X145838096Y-93761416D01*
X145742858Y-93628083D02*
X145742858Y-93970940D01*
X145742858Y-93970940D02*
X145761905Y-94009036D01*
X145761905Y-94009036D02*
X145800000Y-94028083D01*
X145800000Y-94028083D02*
X145838096Y-94028083D01*
D10*
X133846679Y-91137980D02*
X133846679Y-90634818D01*
X133846679Y-90634818D02*
X134156317Y-90905752D01*
X134156317Y-90905752D02*
X134156317Y-90789637D01*
X134156317Y-90789637D02*
X134195022Y-90712228D01*
X134195022Y-90712228D02*
X134233727Y-90673523D01*
X134233727Y-90673523D02*
X134311136Y-90634818D01*
X134311136Y-90634818D02*
X134504660Y-90634818D01*
X134504660Y-90634818D02*
X134582070Y-90673523D01*
X134582070Y-90673523D02*
X134620775Y-90712228D01*
X134620775Y-90712228D02*
X134659479Y-90789637D01*
X134659479Y-90789637D02*
X134659479Y-91021866D01*
X134659479Y-91021866D02*
X134620775Y-91099275D01*
X134620775Y-91099275D02*
X134582070Y-91137980D01*
X134195022Y-90170361D02*
X134156317Y-90247771D01*
X134156317Y-90247771D02*
X134117613Y-90286476D01*
X134117613Y-90286476D02*
X134040203Y-90325180D01*
X134040203Y-90325180D02*
X134001498Y-90325180D01*
X134001498Y-90325180D02*
X133924089Y-90286476D01*
X133924089Y-90286476D02*
X133885384Y-90247771D01*
X133885384Y-90247771D02*
X133846679Y-90170361D01*
X133846679Y-90170361D02*
X133846679Y-90015542D01*
X133846679Y-90015542D02*
X133885384Y-89938133D01*
X133885384Y-89938133D02*
X133924089Y-89899428D01*
X133924089Y-89899428D02*
X134001498Y-89860723D01*
X134001498Y-89860723D02*
X134040203Y-89860723D01*
X134040203Y-89860723D02*
X134117613Y-89899428D01*
X134117613Y-89899428D02*
X134156317Y-89938133D01*
X134156317Y-89938133D02*
X134195022Y-90015542D01*
X134195022Y-90015542D02*
X134195022Y-90170361D01*
X134195022Y-90170361D02*
X134233727Y-90247771D01*
X134233727Y-90247771D02*
X134272432Y-90286476D01*
X134272432Y-90286476D02*
X134349841Y-90325180D01*
X134349841Y-90325180D02*
X134504660Y-90325180D01*
X134504660Y-90325180D02*
X134582070Y-90286476D01*
X134582070Y-90286476D02*
X134620775Y-90247771D01*
X134620775Y-90247771D02*
X134659479Y-90170361D01*
X134659479Y-90170361D02*
X134659479Y-90015542D01*
X134659479Y-90015542D02*
X134620775Y-89938133D01*
X134620775Y-89938133D02*
X134582070Y-89899428D01*
X134582070Y-89899428D02*
X134504660Y-89860723D01*
X134504660Y-89860723D02*
X134349841Y-89860723D01*
X134349841Y-89860723D02*
X134272432Y-89899428D01*
X134272432Y-89899428D02*
X134233727Y-89938133D01*
X134233727Y-89938133D02*
X134195022Y-90015542D01*
X136831914Y-93885289D02*
X136948028Y-93923994D01*
X136948028Y-93923994D02*
X136986733Y-93962698D01*
X136986733Y-93962698D02*
X137025437Y-94040108D01*
X137025437Y-94040108D02*
X137025437Y-94156222D01*
X137025437Y-94156222D02*
X136986733Y-94233632D01*
X136986733Y-94233632D02*
X136948028Y-94272337D01*
X136948028Y-94272337D02*
X136870618Y-94311041D01*
X136870618Y-94311041D02*
X136560980Y-94311041D01*
X136560980Y-94311041D02*
X136560980Y-93498241D01*
X136560980Y-93498241D02*
X136831914Y-93498241D01*
X136831914Y-93498241D02*
X136909323Y-93536946D01*
X136909323Y-93536946D02*
X136948028Y-93575651D01*
X136948028Y-93575651D02*
X136986733Y-93653060D01*
X136986733Y-93653060D02*
X136986733Y-93730470D01*
X136986733Y-93730470D02*
X136948028Y-93807879D01*
X136948028Y-93807879D02*
X136909323Y-93846584D01*
X136909323Y-93846584D02*
X136831914Y-93885289D01*
X136831914Y-93885289D02*
X136560980Y-93885289D01*
X137528599Y-93498241D02*
X137683418Y-93498241D01*
X137683418Y-93498241D02*
X137760828Y-93536946D01*
X137760828Y-93536946D02*
X137838237Y-93614356D01*
X137838237Y-93614356D02*
X137876942Y-93769175D01*
X137876942Y-93769175D02*
X137876942Y-94040108D01*
X137876942Y-94040108D02*
X137838237Y-94194927D01*
X137838237Y-94194927D02*
X137760828Y-94272337D01*
X137760828Y-94272337D02*
X137683418Y-94311041D01*
X137683418Y-94311041D02*
X137528599Y-94311041D01*
X137528599Y-94311041D02*
X137451190Y-94272337D01*
X137451190Y-94272337D02*
X137373780Y-94194927D01*
X137373780Y-94194927D02*
X137335076Y-94040108D01*
X137335076Y-94040108D02*
X137335076Y-93769175D01*
X137335076Y-93769175D02*
X137373780Y-93614356D01*
X137373780Y-93614356D02*
X137451190Y-93536946D01*
X137451190Y-93536946D02*
X137528599Y-93498241D01*
X138380104Y-93498241D02*
X138534923Y-93498241D01*
X138534923Y-93498241D02*
X138612333Y-93536946D01*
X138612333Y-93536946D02*
X138689742Y-93614356D01*
X138689742Y-93614356D02*
X138728447Y-93769175D01*
X138728447Y-93769175D02*
X138728447Y-94040108D01*
X138728447Y-94040108D02*
X138689742Y-94194927D01*
X138689742Y-94194927D02*
X138612333Y-94272337D01*
X138612333Y-94272337D02*
X138534923Y-94311041D01*
X138534923Y-94311041D02*
X138380104Y-94311041D01*
X138380104Y-94311041D02*
X138302695Y-94272337D01*
X138302695Y-94272337D02*
X138225285Y-94194927D01*
X138225285Y-94194927D02*
X138186581Y-94040108D01*
X138186581Y-94040108D02*
X138186581Y-93769175D01*
X138186581Y-93769175D02*
X138225285Y-93614356D01*
X138225285Y-93614356D02*
X138302695Y-93536946D01*
X138302695Y-93536946D02*
X138380104Y-93498241D01*
X138960676Y-93498241D02*
X139425133Y-93498241D01*
X139192905Y-94311041D02*
X139192905Y-93498241D01*
X144316265Y-73906291D02*
X144316265Y-73093491D01*
X144316265Y-73093491D02*
X144625903Y-73093491D01*
X144625903Y-73093491D02*
X144703313Y-73132196D01*
X144703313Y-73132196D02*
X144742018Y-73170901D01*
X144742018Y-73170901D02*
X144780722Y-73248310D01*
X144780722Y-73248310D02*
X144780722Y-73364425D01*
X144780722Y-73364425D02*
X144742018Y-73441834D01*
X144742018Y-73441834D02*
X144703313Y-73480539D01*
X144703313Y-73480539D02*
X144625903Y-73519244D01*
X144625903Y-73519244D02*
X144316265Y-73519244D01*
X145051656Y-73093491D02*
X145245180Y-73906291D01*
X145245180Y-73906291D02*
X145399999Y-73325720D01*
X145399999Y-73325720D02*
X145554818Y-73906291D01*
X145554818Y-73906291D02*
X145748342Y-73093491D01*
X146522436Y-73906291D02*
X146251503Y-73519244D01*
X146057979Y-73906291D02*
X146057979Y-73093491D01*
X146057979Y-73093491D02*
X146367617Y-73093491D01*
X146367617Y-73093491D02*
X146445027Y-73132196D01*
X146445027Y-73132196D02*
X146483732Y-73170901D01*
X146483732Y-73170901D02*
X146522436Y-73248310D01*
X146522436Y-73248310D02*
X146522436Y-73364425D01*
X146522436Y-73364425D02*
X146483732Y-73441834D01*
X146483732Y-73441834D02*
X146445027Y-73480539D01*
X146445027Y-73480539D02*
X146367617Y-73519244D01*
X146367617Y-73519244D02*
X146057979Y-73519244D01*
X156604977Y-85322591D02*
X156643682Y-85245181D01*
X156643682Y-85245181D02*
X156682386Y-85206476D01*
X156682386Y-85206476D02*
X156759796Y-85167772D01*
X156759796Y-85167772D02*
X156798501Y-85167772D01*
X156798501Y-85167772D02*
X156875910Y-85206476D01*
X156875910Y-85206476D02*
X156914615Y-85245181D01*
X156914615Y-85245181D02*
X156953320Y-85322591D01*
X156953320Y-85322591D02*
X156953320Y-85477410D01*
X156953320Y-85477410D02*
X156914615Y-85554819D01*
X156914615Y-85554819D02*
X156875910Y-85593524D01*
X156875910Y-85593524D02*
X156798501Y-85632229D01*
X156798501Y-85632229D02*
X156759796Y-85632229D01*
X156759796Y-85632229D02*
X156682386Y-85593524D01*
X156682386Y-85593524D02*
X156643682Y-85554819D01*
X156643682Y-85554819D02*
X156604977Y-85477410D01*
X156604977Y-85477410D02*
X156604977Y-85322591D01*
X156604977Y-85322591D02*
X156566272Y-85245181D01*
X156566272Y-85245181D02*
X156527567Y-85206476D01*
X156527567Y-85206476D02*
X156450158Y-85167772D01*
X156450158Y-85167772D02*
X156295339Y-85167772D01*
X156295339Y-85167772D02*
X156217929Y-85206476D01*
X156217929Y-85206476D02*
X156179225Y-85245181D01*
X156179225Y-85245181D02*
X156140520Y-85322591D01*
X156140520Y-85322591D02*
X156140520Y-85477410D01*
X156140520Y-85477410D02*
X156179225Y-85554819D01*
X156179225Y-85554819D02*
X156217929Y-85593524D01*
X156217929Y-85593524D02*
X156295339Y-85632229D01*
X156295339Y-85632229D02*
X156450158Y-85632229D01*
X156450158Y-85632229D02*
X156527567Y-85593524D01*
X156527567Y-85593524D02*
X156566272Y-85554819D01*
X156566272Y-85554819D02*
X156604977Y-85477410D01*
X156140520Y-75085181D02*
X156140520Y-74620724D01*
X156140520Y-74852952D02*
X156953320Y-74852952D01*
X156953320Y-74852952D02*
X156837205Y-74775543D01*
X156837205Y-74775543D02*
X156759796Y-74698133D01*
X156759796Y-74698133D02*
X156721091Y-74620724D01*
X156953320Y-75588342D02*
X156953320Y-75665752D01*
X156953320Y-75665752D02*
X156914615Y-75743161D01*
X156914615Y-75743161D02*
X156875910Y-75781866D01*
X156875910Y-75781866D02*
X156798501Y-75820571D01*
X156798501Y-75820571D02*
X156643682Y-75859276D01*
X156643682Y-75859276D02*
X156450158Y-75859276D01*
X156450158Y-75859276D02*
X156295339Y-75820571D01*
X156295339Y-75820571D02*
X156217929Y-75781866D01*
X156217929Y-75781866D02*
X156179225Y-75743161D01*
X156179225Y-75743161D02*
X156140520Y-75665752D01*
X156140520Y-75665752D02*
X156140520Y-75588342D01*
X156140520Y-75588342D02*
X156179225Y-75510933D01*
X156179225Y-75510933D02*
X156217929Y-75472228D01*
X156217929Y-75472228D02*
X156295339Y-75433523D01*
X156295339Y-75433523D02*
X156450158Y-75394819D01*
X156450158Y-75394819D02*
X156643682Y-75394819D01*
X156643682Y-75394819D02*
X156798501Y-75433523D01*
X156798501Y-75433523D02*
X156875910Y-75472228D01*
X156875910Y-75472228D02*
X156914615Y-75510933D01*
X156914615Y-75510933D02*
X156953320Y-75588342D01*
X156604977Y-59612952D02*
X156604977Y-60387047D01*
X156372748Y-59767771D02*
X156372748Y-60232228D01*
X156953320Y-59999999D02*
X156604977Y-59999999D01*
X156140520Y-60077409D02*
X156140520Y-59922590D01*
X156140520Y-90325181D02*
X156140520Y-89860724D01*
X156140520Y-90092952D02*
X156953320Y-90092952D01*
X156953320Y-90092952D02*
X156837205Y-90015543D01*
X156837205Y-90015543D02*
X156759796Y-89938133D01*
X156759796Y-89938133D02*
X156721091Y-89860724D01*
X156953320Y-90596114D02*
X156953320Y-91137980D01*
X156953320Y-91137980D02*
X156140520Y-90789638D01*
D11*
X133882847Y-68610476D02*
X133882847Y-68534285D01*
X133882847Y-68534285D02*
X133901895Y-68496190D01*
X133901895Y-68496190D02*
X133939990Y-68458095D01*
X133939990Y-68458095D02*
X134016180Y-68439047D01*
X134016180Y-68439047D02*
X134149514Y-68439047D01*
X134149514Y-68439047D02*
X134225704Y-68458095D01*
X134225704Y-68458095D02*
X134263800Y-68496190D01*
X134263800Y-68496190D02*
X134282847Y-68534285D01*
X134282847Y-68534285D02*
X134282847Y-68610476D01*
X134282847Y-68610476D02*
X134263800Y-68648571D01*
X134263800Y-68648571D02*
X134225704Y-68686666D01*
X134225704Y-68686666D02*
X134149514Y-68705714D01*
X134149514Y-68705714D02*
X134016180Y-68705714D01*
X134016180Y-68705714D02*
X133939990Y-68686666D01*
X133939990Y-68686666D02*
X133901895Y-68648571D01*
X133901895Y-68648571D02*
X133882847Y-68610476D01*
X133882847Y-68324761D02*
X133882847Y-68096190D01*
X134282847Y-68210476D02*
X133882847Y-68210476D01*
X133901895Y-67753333D02*
X133882847Y-67791428D01*
X133882847Y-67791428D02*
X133882847Y-67848571D01*
X133882847Y-67848571D02*
X133901895Y-67905714D01*
X133901895Y-67905714D02*
X133939990Y-67943809D01*
X133939990Y-67943809D02*
X133978085Y-67962856D01*
X133978085Y-67962856D02*
X134054276Y-67981904D01*
X134054276Y-67981904D02*
X134111419Y-67981904D01*
X134111419Y-67981904D02*
X134187609Y-67962856D01*
X134187609Y-67962856D02*
X134225704Y-67943809D01*
X134225704Y-67943809D02*
X134263800Y-67905714D01*
X134263800Y-67905714D02*
X134282847Y-67848571D01*
X134282847Y-67848571D02*
X134282847Y-67810475D01*
X134282847Y-67810475D02*
X134263800Y-67753333D01*
X134263800Y-67753333D02*
X134244752Y-67734285D01*
X134244752Y-67734285D02*
X134111419Y-67734285D01*
X134111419Y-67734285D02*
X134111419Y-67810475D01*
X134282847Y-67258094D02*
X133882847Y-67258094D01*
X133882847Y-67258094D02*
X133882847Y-67162856D01*
X133882847Y-67162856D02*
X133901895Y-67105713D01*
X133901895Y-67105713D02*
X133939990Y-67067618D01*
X133939990Y-67067618D02*
X133978085Y-67048571D01*
X133978085Y-67048571D02*
X134054276Y-67029523D01*
X134054276Y-67029523D02*
X134111419Y-67029523D01*
X134111419Y-67029523D02*
X134187609Y-67048571D01*
X134187609Y-67048571D02*
X134225704Y-67067618D01*
X134225704Y-67067618D02*
X134263800Y-67105713D01*
X134263800Y-67105713D02*
X134282847Y-67162856D01*
X134282847Y-67162856D02*
X134282847Y-67258094D01*
X134130466Y-66858094D02*
X134130466Y-66553333D01*
X134282847Y-66705713D02*
X133978085Y-66705713D01*
X134545873Y-67896190D02*
X134526825Y-67934285D01*
X134526825Y-67934285D02*
X134526825Y-67991428D01*
X134526825Y-67991428D02*
X134545873Y-68048571D01*
X134545873Y-68048571D02*
X134583968Y-68086666D01*
X134583968Y-68086666D02*
X134622063Y-68105713D01*
X134622063Y-68105713D02*
X134698254Y-68124761D01*
X134698254Y-68124761D02*
X134755397Y-68124761D01*
X134755397Y-68124761D02*
X134831587Y-68105713D01*
X134831587Y-68105713D02*
X134869682Y-68086666D01*
X134869682Y-68086666D02*
X134907778Y-68048571D01*
X134907778Y-68048571D02*
X134926825Y-67991428D01*
X134926825Y-67991428D02*
X134926825Y-67953332D01*
X134926825Y-67953332D02*
X134907778Y-67896190D01*
X134907778Y-67896190D02*
X134888730Y-67877142D01*
X134888730Y-67877142D02*
X134755397Y-67877142D01*
X134755397Y-67877142D02*
X134755397Y-67953332D01*
X134564920Y-67724761D02*
X134545873Y-67705713D01*
X134545873Y-67705713D02*
X134526825Y-67667618D01*
X134526825Y-67667618D02*
X134526825Y-67572380D01*
X134526825Y-67572380D02*
X134545873Y-67534285D01*
X134545873Y-67534285D02*
X134564920Y-67515237D01*
X134564920Y-67515237D02*
X134603016Y-67496190D01*
X134603016Y-67496190D02*
X134641111Y-67496190D01*
X134641111Y-67496190D02*
X134698254Y-67515237D01*
X134698254Y-67515237D02*
X134926825Y-67743809D01*
X134926825Y-67743809D02*
X134926825Y-67496190D01*
X134526825Y-67248571D02*
X134526825Y-67210476D01*
X134526825Y-67210476D02*
X134545873Y-67172380D01*
X134545873Y-67172380D02*
X134564920Y-67153333D01*
X134564920Y-67153333D02*
X134603016Y-67134285D01*
X134603016Y-67134285D02*
X134679206Y-67115238D01*
X134679206Y-67115238D02*
X134774444Y-67115238D01*
X134774444Y-67115238D02*
X134850635Y-67134285D01*
X134850635Y-67134285D02*
X134888730Y-67153333D01*
X134888730Y-67153333D02*
X134907778Y-67172380D01*
X134907778Y-67172380D02*
X134926825Y-67210476D01*
X134926825Y-67210476D02*
X134926825Y-67248571D01*
X134926825Y-67248571D02*
X134907778Y-67286666D01*
X134907778Y-67286666D02*
X134888730Y-67305714D01*
X134888730Y-67305714D02*
X134850635Y-67324761D01*
X134850635Y-67324761D02*
X134774444Y-67343809D01*
X134774444Y-67343809D02*
X134679206Y-67343809D01*
X134679206Y-67343809D02*
X134603016Y-67324761D01*
X134603016Y-67324761D02*
X134564920Y-67305714D01*
X134564920Y-67305714D02*
X134545873Y-67286666D01*
X134545873Y-67286666D02*
X134526825Y-67248571D01*
D10*
X134117613Y-98332228D02*
X134659479Y-98332228D01*
X133807975Y-98525752D02*
X134388546Y-98719275D01*
X134388546Y-98719275D02*
X134388546Y-98216114D01*
X134659479Y-97480723D02*
X134659479Y-97945180D01*
X134659479Y-97712952D02*
X133846679Y-97712952D01*
X133846679Y-97712952D02*
X133962794Y-97790361D01*
X133962794Y-97790361D02*
X134040203Y-97867771D01*
X134040203Y-97867771D02*
X134078908Y-97945180D01*
X133846679Y-111419276D02*
X133846679Y-110954819D01*
X134659479Y-111187047D02*
X133846679Y-111187047D01*
X133846679Y-110761295D02*
X134659479Y-110219429D01*
X133846679Y-110219429D02*
X134659479Y-110761295D01*
X156953320Y-97829067D02*
X156953320Y-98370933D01*
X156953320Y-98370933D02*
X156140520Y-98022591D01*
X133846679Y-86057980D02*
X133846679Y-85554818D01*
X133846679Y-85554818D02*
X134156317Y-85825752D01*
X134156317Y-85825752D02*
X134156317Y-85709637D01*
X134156317Y-85709637D02*
X134195022Y-85632228D01*
X134195022Y-85632228D02*
X134233727Y-85593523D01*
X134233727Y-85593523D02*
X134311136Y-85554818D01*
X134311136Y-85554818D02*
X134504660Y-85554818D01*
X134504660Y-85554818D02*
X134582070Y-85593523D01*
X134582070Y-85593523D02*
X134620775Y-85632228D01*
X134620775Y-85632228D02*
X134659479Y-85709637D01*
X134659479Y-85709637D02*
X134659479Y-85941866D01*
X134659479Y-85941866D02*
X134620775Y-86019275D01*
X134620775Y-86019275D02*
X134582070Y-86057980D01*
X133846679Y-84858133D02*
X133846679Y-85012952D01*
X133846679Y-85012952D02*
X133885384Y-85090361D01*
X133885384Y-85090361D02*
X133924089Y-85129066D01*
X133924089Y-85129066D02*
X134040203Y-85206476D01*
X134040203Y-85206476D02*
X134195022Y-85245180D01*
X134195022Y-85245180D02*
X134504660Y-85245180D01*
X134504660Y-85245180D02*
X134582070Y-85206476D01*
X134582070Y-85206476D02*
X134620775Y-85167771D01*
X134620775Y-85167771D02*
X134659479Y-85090361D01*
X134659479Y-85090361D02*
X134659479Y-84935542D01*
X134659479Y-84935542D02*
X134620775Y-84858133D01*
X134620775Y-84858133D02*
X134582070Y-84819428D01*
X134582070Y-84819428D02*
X134504660Y-84780723D01*
X134504660Y-84780723D02*
X134311136Y-84780723D01*
X134311136Y-84780723D02*
X134233727Y-84819428D01*
X134233727Y-84819428D02*
X134195022Y-84858133D01*
X134195022Y-84858133D02*
X134156317Y-84935542D01*
X134156317Y-84935542D02*
X134156317Y-85090361D01*
X134156317Y-85090361D02*
X134195022Y-85167771D01*
X134195022Y-85167771D02*
X134233727Y-85206476D01*
X134233727Y-85206476D02*
X134311136Y-85245180D01*
X133924089Y-70779275D02*
X133885384Y-70740571D01*
X133885384Y-70740571D02*
X133846679Y-70663161D01*
X133846679Y-70663161D02*
X133846679Y-70469637D01*
X133846679Y-70469637D02*
X133885384Y-70392228D01*
X133885384Y-70392228D02*
X133924089Y-70353523D01*
X133924089Y-70353523D02*
X134001498Y-70314818D01*
X134001498Y-70314818D02*
X134078908Y-70314818D01*
X134078908Y-70314818D02*
X134195022Y-70353523D01*
X134195022Y-70353523D02*
X134659479Y-70817980D01*
X134659479Y-70817980D02*
X134659479Y-70314818D01*
X134659479Y-69540723D02*
X134659479Y-70005180D01*
X134659479Y-69772952D02*
X133846679Y-69772952D01*
X133846679Y-69772952D02*
X133962794Y-69850361D01*
X133962794Y-69850361D02*
X134040203Y-69927771D01*
X134040203Y-69927771D02*
X134078908Y-70005180D01*
X156140520Y-67465181D02*
X156140520Y-67000724D01*
X156140520Y-67232952D02*
X156953320Y-67232952D01*
X156953320Y-67232952D02*
X156837205Y-67155543D01*
X156837205Y-67155543D02*
X156759796Y-67078133D01*
X156759796Y-67078133D02*
X156721091Y-67000724D01*
X156953320Y-67736114D02*
X156953320Y-68239276D01*
X156953320Y-68239276D02*
X156643682Y-67968342D01*
X156643682Y-67968342D02*
X156643682Y-68084457D01*
X156643682Y-68084457D02*
X156604977Y-68161866D01*
X156604977Y-68161866D02*
X156566272Y-68200571D01*
X156566272Y-68200571D02*
X156488863Y-68239276D01*
X156488863Y-68239276D02*
X156295339Y-68239276D01*
X156295339Y-68239276D02*
X156217929Y-68200571D01*
X156217929Y-68200571D02*
X156179225Y-68161866D01*
X156179225Y-68161866D02*
X156140520Y-68084457D01*
X156140520Y-68084457D02*
X156140520Y-67852228D01*
X156140520Y-67852228D02*
X156179225Y-67774819D01*
X156179225Y-67774819D02*
X156217929Y-67736114D01*
X133924089Y-103412228D02*
X133885384Y-103373524D01*
X133885384Y-103373524D02*
X133846679Y-103296114D01*
X133846679Y-103296114D02*
X133846679Y-103102590D01*
X133846679Y-103102590D02*
X133885384Y-103025181D01*
X133885384Y-103025181D02*
X133924089Y-102986476D01*
X133924089Y-102986476D02*
X134001498Y-102947771D01*
X134001498Y-102947771D02*
X134078908Y-102947771D01*
X134078908Y-102947771D02*
X134195022Y-102986476D01*
X134195022Y-102986476D02*
X134659479Y-103450933D01*
X134659479Y-103450933D02*
X134659479Y-102947771D01*
X151684505Y-94259479D02*
X151413572Y-93872432D01*
X151220048Y-94259479D02*
X151220048Y-93446679D01*
X151220048Y-93446679D02*
X151529686Y-93446679D01*
X151529686Y-93446679D02*
X151607096Y-93485384D01*
X151607096Y-93485384D02*
X151645801Y-93524089D01*
X151645801Y-93524089D02*
X151684505Y-93601498D01*
X151684505Y-93601498D02*
X151684505Y-93717613D01*
X151684505Y-93717613D02*
X151645801Y-93795022D01*
X151645801Y-93795022D02*
X151607096Y-93833727D01*
X151607096Y-93833727D02*
X151529686Y-93872432D01*
X151529686Y-93872432D02*
X151220048Y-93872432D01*
X152032848Y-93833727D02*
X152303782Y-93833727D01*
X152419896Y-94259479D02*
X152032848Y-94259479D01*
X152032848Y-94259479D02*
X152032848Y-93446679D01*
X152032848Y-93446679D02*
X152419896Y-93446679D01*
X152729534Y-94220775D02*
X152845648Y-94259479D01*
X152845648Y-94259479D02*
X153039172Y-94259479D01*
X153039172Y-94259479D02*
X153116581Y-94220775D01*
X153116581Y-94220775D02*
X153155286Y-94182070D01*
X153155286Y-94182070D02*
X153193991Y-94104660D01*
X153193991Y-94104660D02*
X153193991Y-94027251D01*
X153193991Y-94027251D02*
X153155286Y-93949841D01*
X153155286Y-93949841D02*
X153116581Y-93911136D01*
X153116581Y-93911136D02*
X153039172Y-93872432D01*
X153039172Y-93872432D02*
X152884353Y-93833727D01*
X152884353Y-93833727D02*
X152806943Y-93795022D01*
X152806943Y-93795022D02*
X152768238Y-93756317D01*
X152768238Y-93756317D02*
X152729534Y-93678908D01*
X152729534Y-93678908D02*
X152729534Y-93601498D01*
X152729534Y-93601498D02*
X152768238Y-93524089D01*
X152768238Y-93524089D02*
X152806943Y-93485384D01*
X152806943Y-93485384D02*
X152884353Y-93446679D01*
X152884353Y-93446679D02*
X153077876Y-93446679D01*
X153077876Y-93446679D02*
X153193991Y-93485384D01*
X153542333Y-93833727D02*
X153813267Y-93833727D01*
X153929381Y-94259479D02*
X153542333Y-94259479D01*
X153542333Y-94259479D02*
X153542333Y-93446679D01*
X153542333Y-93446679D02*
X153929381Y-93446679D01*
X154161609Y-93446679D02*
X154626066Y-93446679D01*
X154393838Y-94259479D02*
X154393838Y-93446679D01*
X155825730Y-107814895D02*
X156212777Y-107543962D01*
X155825730Y-107350438D02*
X156638530Y-107350438D01*
X156638530Y-107350438D02*
X156638530Y-107660076D01*
X156638530Y-107660076D02*
X156599825Y-107737486D01*
X156599825Y-107737486D02*
X156561120Y-107776191D01*
X156561120Y-107776191D02*
X156483711Y-107814895D01*
X156483711Y-107814895D02*
X156367596Y-107814895D01*
X156367596Y-107814895D02*
X156290187Y-107776191D01*
X156290187Y-107776191D02*
X156251482Y-107737486D01*
X156251482Y-107737486D02*
X156212777Y-107660076D01*
X156212777Y-107660076D02*
X156212777Y-107350438D01*
X155864435Y-108124534D02*
X155825730Y-108240648D01*
X155825730Y-108240648D02*
X155825730Y-108434172D01*
X155825730Y-108434172D02*
X155864435Y-108511581D01*
X155864435Y-108511581D02*
X155903139Y-108550286D01*
X155903139Y-108550286D02*
X155980549Y-108588991D01*
X155980549Y-108588991D02*
X156057958Y-108588991D01*
X156057958Y-108588991D02*
X156135368Y-108550286D01*
X156135368Y-108550286D02*
X156174073Y-108511581D01*
X156174073Y-108511581D02*
X156212777Y-108434172D01*
X156212777Y-108434172D02*
X156251482Y-108279353D01*
X156251482Y-108279353D02*
X156290187Y-108201943D01*
X156290187Y-108201943D02*
X156328892Y-108163238D01*
X156328892Y-108163238D02*
X156406301Y-108124534D01*
X156406301Y-108124534D02*
X156483711Y-108124534D01*
X156483711Y-108124534D02*
X156561120Y-108163238D01*
X156561120Y-108163238D02*
X156599825Y-108201943D01*
X156599825Y-108201943D02*
X156638530Y-108279353D01*
X156638530Y-108279353D02*
X156638530Y-108472876D01*
X156638530Y-108472876D02*
X156599825Y-108588991D01*
X156638530Y-108821219D02*
X156638530Y-109285676D01*
X155825730Y-109053448D02*
X156638530Y-109053448D01*
X156864179Y-107238195D02*
X156864179Y-109281806D01*
X156682386Y-80087771D02*
X156140520Y-80087771D01*
X156992025Y-79894247D02*
X156411453Y-79700724D01*
X156411453Y-79700724D02*
X156411453Y-80203885D01*
X156953320Y-80861866D02*
X156953320Y-80707047D01*
X156953320Y-80707047D02*
X156914615Y-80629638D01*
X156914615Y-80629638D02*
X156875910Y-80590933D01*
X156875910Y-80590933D02*
X156759796Y-80513523D01*
X156759796Y-80513523D02*
X156604977Y-80474819D01*
X156604977Y-80474819D02*
X156295339Y-80474819D01*
X156295339Y-80474819D02*
X156217929Y-80513523D01*
X156217929Y-80513523D02*
X156179225Y-80552228D01*
X156179225Y-80552228D02*
X156140520Y-80629638D01*
X156140520Y-80629638D02*
X156140520Y-80784457D01*
X156140520Y-80784457D02*
X156179225Y-80861866D01*
X156179225Y-80861866D02*
X156217929Y-80900571D01*
X156217929Y-80900571D02*
X156295339Y-80939276D01*
X156295339Y-80939276D02*
X156488863Y-80939276D01*
X156488863Y-80939276D02*
X156566272Y-80900571D01*
X156566272Y-80900571D02*
X156604977Y-80861866D01*
X156604977Y-80861866D02*
X156643682Y-80784457D01*
X156643682Y-80784457D02*
X156643682Y-80629638D01*
X156643682Y-80629638D02*
X156604977Y-80552228D01*
X156604977Y-80552228D02*
X156566272Y-80513523D01*
X156566272Y-80513523D02*
X156488863Y-80474819D01*
X156953320Y-82589067D02*
X156953320Y-83092229D01*
X156953320Y-83092229D02*
X156643682Y-82821295D01*
X156643682Y-82821295D02*
X156643682Y-82937410D01*
X156643682Y-82937410D02*
X156604977Y-83014819D01*
X156604977Y-83014819D02*
X156566272Y-83053524D01*
X156566272Y-83053524D02*
X156488863Y-83092229D01*
X156488863Y-83092229D02*
X156295339Y-83092229D01*
X156295339Y-83092229D02*
X156217929Y-83053524D01*
X156217929Y-83053524D02*
X156179225Y-83014819D01*
X156179225Y-83014819D02*
X156140520Y-82937410D01*
X156140520Y-82937410D02*
X156140520Y-82705181D01*
X156140520Y-82705181D02*
X156179225Y-82627772D01*
X156179225Y-82627772D02*
X156217929Y-82589067D01*
X156140520Y-70005181D02*
X156140520Y-69540724D01*
X156140520Y-69772952D02*
X156953320Y-69772952D01*
X156953320Y-69772952D02*
X156837205Y-69695543D01*
X156837205Y-69695543D02*
X156759796Y-69618133D01*
X156759796Y-69618133D02*
X156721091Y-69540724D01*
X156875910Y-70314819D02*
X156914615Y-70353523D01*
X156914615Y-70353523D02*
X156953320Y-70430933D01*
X156953320Y-70430933D02*
X156953320Y-70624457D01*
X156953320Y-70624457D02*
X156914615Y-70701866D01*
X156914615Y-70701866D02*
X156875910Y-70740571D01*
X156875910Y-70740571D02*
X156798501Y-70779276D01*
X156798501Y-70779276D02*
X156721091Y-70779276D01*
X156721091Y-70779276D02*
X156604977Y-70740571D01*
X156604977Y-70740571D02*
X156140520Y-70276114D01*
X156140520Y-70276114D02*
X156140520Y-70779276D01*
D11*
X156979352Y-110209524D02*
X156979352Y-110457143D01*
X156979352Y-110457143D02*
X156826971Y-110323810D01*
X156826971Y-110323810D02*
X156826971Y-110380953D01*
X156826971Y-110380953D02*
X156807923Y-110419048D01*
X156807923Y-110419048D02*
X156788876Y-110438096D01*
X156788876Y-110438096D02*
X156750780Y-110457143D01*
X156750780Y-110457143D02*
X156655542Y-110457143D01*
X156655542Y-110457143D02*
X156617447Y-110438096D01*
X156617447Y-110438096D02*
X156598400Y-110419048D01*
X156598400Y-110419048D02*
X156579352Y-110380953D01*
X156579352Y-110380953D02*
X156579352Y-110266667D01*
X156579352Y-110266667D02*
X156598400Y-110228572D01*
X156598400Y-110228572D02*
X156617447Y-110209524D01*
X156617447Y-110628572D02*
X156598400Y-110647619D01*
X156598400Y-110647619D02*
X156579352Y-110628572D01*
X156579352Y-110628572D02*
X156598400Y-110609524D01*
X156598400Y-110609524D02*
X156617447Y-110628572D01*
X156617447Y-110628572D02*
X156579352Y-110628572D01*
X156979352Y-110780952D02*
X156979352Y-111028571D01*
X156979352Y-111028571D02*
X156826971Y-110895238D01*
X156826971Y-110895238D02*
X156826971Y-110952381D01*
X156826971Y-110952381D02*
X156807923Y-110990476D01*
X156807923Y-110990476D02*
X156788876Y-111009524D01*
X156788876Y-111009524D02*
X156750780Y-111028571D01*
X156750780Y-111028571D02*
X156655542Y-111028571D01*
X156655542Y-111028571D02*
X156617447Y-111009524D01*
X156617447Y-111009524D02*
X156598400Y-110990476D01*
X156598400Y-110990476D02*
X156579352Y-110952381D01*
X156579352Y-110952381D02*
X156579352Y-110838095D01*
X156579352Y-110838095D02*
X156598400Y-110800000D01*
X156598400Y-110800000D02*
X156617447Y-110780952D01*
X156979352Y-111142857D02*
X156579352Y-111276190D01*
X156579352Y-111276190D02*
X156979352Y-111409523D01*
D10*
X134117613Y-72932228D02*
X134659479Y-72932228D01*
X133807975Y-73125752D02*
X134388546Y-73319275D01*
X134388546Y-73319275D02*
X134388546Y-72816114D01*
X133846679Y-72583885D02*
X133846679Y-72042019D01*
X133846679Y-72042019D02*
X134659479Y-72390361D01*
X156140520Y-64925181D02*
X156140520Y-64460724D01*
X156140520Y-64692952D02*
X156953320Y-64692952D01*
X156953320Y-64692952D02*
X156837205Y-64615543D01*
X156837205Y-64615543D02*
X156759796Y-64538133D01*
X156759796Y-64538133D02*
X156721091Y-64460724D01*
X156682386Y-65621866D02*
X156140520Y-65621866D01*
X156992025Y-65428342D02*
X156411453Y-65234819D01*
X156411453Y-65234819D02*
X156411453Y-65737980D01*
D12*
X153073400Y-113660000D02*
G75*
G02*
X152870200Y-113660000I-101600J0D01*
G01*
X152870200Y-113660000D02*
G75*
G02*
X153073400Y-113660000I101600J0D01*
G01*
%LPC*%
D13*
X135673333Y-61286800D03*
D14*
X135673333Y-65466800D03*
D13*
X144313333Y-61286800D03*
D14*
X144313333Y-65466800D03*
D15*
X143243333Y-66381800D03*
X142443333Y-66381800D03*
D16*
X141743333Y-66381800D03*
X140743333Y-66381800D03*
X139243333Y-66381800D03*
X138243333Y-66381800D03*
D15*
X137543333Y-66381800D03*
X136743333Y-66381800D03*
X136743333Y-66381800D03*
X137543333Y-66381800D03*
D16*
X138743333Y-66381800D03*
X139743333Y-66381800D03*
X140243333Y-66381800D03*
X141243333Y-66381800D03*
D15*
X142443333Y-66381800D03*
X143243333Y-66381800D03*
D17*
X137103333Y-64936800D03*
X142883333Y-64936800D03*
D18*
X149868600Y-75697450D03*
X149868600Y-74147450D03*
D19*
X141585700Y-88610450D03*
X141585700Y-89630450D03*
D20*
X139808600Y-84696450D03*
X138848600Y-84696450D03*
D19*
X138243333Y-69562900D03*
X138243333Y-70582900D03*
D21*
X154740000Y-86650000D03*
X154740000Y-92650000D03*
X150990000Y-86650000D03*
X150990000Y-92650000D03*
D22*
X143400833Y-78212850D03*
X143400833Y-77252850D03*
D19*
X141743333Y-69562900D03*
X141743333Y-70582900D03*
D23*
X135673333Y-71189650D03*
X135673333Y-69614650D03*
D19*
X142609100Y-81114950D03*
X142609100Y-82134950D03*
D24*
X135595600Y-76806950D03*
X135595600Y-75786950D03*
D25*
X141955833Y-77252850D03*
X141955833Y-76752850D03*
X141955833Y-76252850D03*
X141955833Y-75752850D03*
D26*
X141243333Y-75040350D03*
X140743333Y-75040350D03*
X140243333Y-75040350D03*
X139743333Y-75040350D03*
D25*
X139030833Y-75752850D03*
X139030833Y-76252850D03*
X139030833Y-76752850D03*
X139030833Y-77252850D03*
D26*
X139743333Y-77965350D03*
X140243333Y-77965350D03*
X140743333Y-77965350D03*
X141243333Y-77965350D03*
D27*
X140493333Y-76502850D03*
D28*
X145745850Y-81114950D03*
X143845850Y-81114950D03*
X144795850Y-82989950D03*
D29*
X145404600Y-84696450D03*
X146364600Y-84696450D03*
D19*
X149056666Y-69592900D03*
X149056666Y-70612900D03*
D30*
X144632499Y-72201900D03*
X146207499Y-72201900D03*
D18*
X151428600Y-75697450D03*
X151428600Y-74147450D03*
D22*
X143400833Y-76252850D03*
X143400833Y-75292850D03*
D19*
X152556666Y-69592900D03*
X152556666Y-70612900D03*
D22*
X141243333Y-73625350D03*
X141243333Y-72665350D03*
D31*
X156325000Y-113660000D03*
X156325000Y-112700000D03*
D32*
X135595600Y-78173450D03*
X135595600Y-79748450D03*
D18*
X148348600Y-75697450D03*
X148348600Y-74147450D03*
D33*
X140976100Y-84696450D03*
X141996100Y-84696450D03*
D34*
X146486665Y-70582900D03*
X146486665Y-68482900D03*
D19*
X148985700Y-88610450D03*
X148985700Y-89630450D03*
D33*
X143217100Y-84696450D03*
X144237100Y-84696450D03*
D32*
X137221200Y-78173450D03*
X137221200Y-79748450D03*
D23*
X155126666Y-71189650D03*
X155126666Y-69614650D03*
D19*
X138235600Y-81114950D03*
X138235600Y-82134950D03*
D35*
X143450000Y-91307280D03*
D36*
X144750000Y-91307280D03*
X146050000Y-91307280D03*
D37*
X147350000Y-91307280D03*
D38*
X152948600Y-77906450D03*
X150648600Y-77906450D03*
D39*
X150648600Y-84206450D03*
D38*
X148348600Y-77906450D03*
D31*
X141585700Y-85850450D03*
X141585700Y-86810450D03*
D24*
X153764166Y-71632900D03*
X153764166Y-70612900D03*
X137035833Y-71602900D03*
X137035833Y-70582900D03*
D34*
X144313333Y-70582900D03*
X144313333Y-68482900D03*
D24*
X146324600Y-78212850D03*
X146324600Y-77192850D03*
D40*
X143521400Y-86810450D03*
X143521400Y-88610450D03*
X146821400Y-88610450D03*
X146821400Y-86810450D03*
D24*
X137221200Y-76806950D03*
X137221200Y-75786950D03*
D22*
X152948600Y-75697450D03*
X152948600Y-74737450D03*
D21*
X139810000Y-86650000D03*
X139810000Y-92650000D03*
X136060000Y-86650000D03*
X136060000Y-92650000D03*
D41*
X132700000Y-113340000D03*
X132700000Y-110800000D03*
X132700000Y-108260000D03*
X132700000Y-105720000D03*
X132700000Y-103180000D03*
X132700000Y-100640000D03*
X132700000Y-98100000D03*
X132700000Y-95560000D03*
X132700000Y-93020000D03*
X132700000Y-90480000D03*
X132700000Y-87940000D03*
X132700000Y-85400000D03*
X132700000Y-82860000D03*
X132700000Y-80320000D03*
X132700000Y-77780000D03*
X132700000Y-75240000D03*
X132700000Y-72700000D03*
X132700000Y-70160000D03*
X132700000Y-67620000D03*
X132700000Y-65080000D03*
X132700000Y-62540000D03*
X132700000Y-60000000D03*
X158100000Y-60000000D03*
X158100000Y-62540000D03*
X158100000Y-65080000D03*
X158100000Y-67620000D03*
X158100000Y-70160000D03*
X158100000Y-72700000D03*
X158100000Y-75240000D03*
X158100000Y-77780000D03*
X158100000Y-80320000D03*
X158100000Y-82860000D03*
X158100000Y-85400000D03*
X158100000Y-87940000D03*
X158100000Y-90480000D03*
X158100000Y-93020000D03*
X158100000Y-95560000D03*
X158100000Y-98100000D03*
X158100000Y-100640000D03*
X158100000Y-103180000D03*
X158100000Y-105720000D03*
X158100000Y-108260000D03*
X158100000Y-110800000D03*
X158100000Y-113340000D03*
D17*
X153696666Y-64936800D03*
X147916666Y-64936800D03*
D15*
X154056666Y-66381800D03*
X153256666Y-66381800D03*
D16*
X152056666Y-66381800D03*
X151056666Y-66381800D03*
X150556666Y-66381800D03*
X149556666Y-66381800D03*
D15*
X148356666Y-66381800D03*
X147556666Y-66381800D03*
X147556666Y-66381800D03*
X148356666Y-66381800D03*
D16*
X149056666Y-66381800D03*
X150056666Y-66381800D03*
X151556666Y-66381800D03*
X152556666Y-66381800D03*
D15*
X153256666Y-66381800D03*
X154056666Y-66381800D03*
D14*
X155126666Y-65466800D03*
D13*
X155126666Y-61286800D03*
D14*
X146486666Y-65466800D03*
D13*
X146486666Y-61286800D03*
D28*
X141372350Y-81114950D03*
X139472350Y-81114950D03*
X140422350Y-82989950D03*
D42*
X155052000Y-113660000D03*
D43*
X154400000Y-113660000D03*
D42*
X155052000Y-112390000D03*
D43*
X154400000Y-112390000D03*
D42*
X155052000Y-111120000D03*
D43*
X154400000Y-111120000D03*
D42*
X155052000Y-109850000D03*
D43*
X154400000Y-109850000D03*
D42*
X155052000Y-108580000D03*
D43*
X154400000Y-108580000D03*
D42*
X155052000Y-107310000D03*
D43*
X154400000Y-107310000D03*
D42*
X155052000Y-106040000D03*
D43*
X154400000Y-106040000D03*
D42*
X155052000Y-104770000D03*
D43*
X154400000Y-104770000D03*
D42*
X155052000Y-103500000D03*
D43*
X154400000Y-103500000D03*
D42*
X155052000Y-102230000D03*
D43*
X154400000Y-102230000D03*
D42*
X155052000Y-100960000D03*
D43*
X154400000Y-100960000D03*
D42*
X155052000Y-99690000D03*
D43*
X154400000Y-99690000D03*
D42*
X155052000Y-98420000D03*
D43*
X154400000Y-98420000D03*
D42*
X155052000Y-97150000D03*
D43*
X154400000Y-97150000D03*
D44*
X152385000Y-95650000D03*
D42*
X152385000Y-94998000D03*
D44*
X151115000Y-95650000D03*
D42*
X151115000Y-94998000D03*
D44*
X149845000Y-95650000D03*
D42*
X149845000Y-94998000D03*
D44*
X148575000Y-95650000D03*
D42*
X148575000Y-94998000D03*
D44*
X147305000Y-95650000D03*
D42*
X147305000Y-94998000D03*
D44*
X146035000Y-95650000D03*
D42*
X146035000Y-94998000D03*
D44*
X144765000Y-95650000D03*
D42*
X144765000Y-94998000D03*
D44*
X143495000Y-95650000D03*
D42*
X143495000Y-94998000D03*
D44*
X142225000Y-95650000D03*
D42*
X142225000Y-94998000D03*
D44*
X140955000Y-95650000D03*
D42*
X140955000Y-94998000D03*
D44*
X139685000Y-95650000D03*
D42*
X139685000Y-94998000D03*
D44*
X138415000Y-95650000D03*
D42*
X138415000Y-94998000D03*
D45*
X136400000Y-97150000D03*
D42*
X135748000Y-97150000D03*
D45*
X136400000Y-98420000D03*
D42*
X135748000Y-98420000D03*
D45*
X136400000Y-99690000D03*
D42*
X135748000Y-99690000D03*
D45*
X136400000Y-100960000D03*
D42*
X135748000Y-100960000D03*
D45*
X136400000Y-102230000D03*
D42*
X135748000Y-102230000D03*
D45*
X136400000Y-103500000D03*
D42*
X135748000Y-103500000D03*
D45*
X136400000Y-104770000D03*
D42*
X135748000Y-104770000D03*
D45*
X136400000Y-106040000D03*
D42*
X135748000Y-106040000D03*
D45*
X136400000Y-107310000D03*
D42*
X135748000Y-107310000D03*
D45*
X136400000Y-108580000D03*
D42*
X135748000Y-108580000D03*
D45*
X136400000Y-109850000D03*
D42*
X135748000Y-109850000D03*
D45*
X136400000Y-111120000D03*
D42*
X135748000Y-111120000D03*
D45*
X136400000Y-112390000D03*
D42*
X135748000Y-112390000D03*
D45*
X136400000Y-113660000D03*
D42*
X135748000Y-113660000D03*
D46*
X146900000Y-105940000D03*
D47*
X146900000Y-105940000D03*
G36*
X146841639Y-91007685D02*
G01*
X146887394Y-91060489D01*
X146898600Y-91112000D01*
X146898600Y-91499000D01*
X146878915Y-91566039D01*
X146826111Y-91611794D01*
X146774600Y-91623000D01*
X144025400Y-91623000D01*
X143958361Y-91603315D01*
X143912606Y-91550511D01*
X143901400Y-91499000D01*
X143901400Y-91112000D01*
X143921085Y-91044961D01*
X143973889Y-90999206D01*
X144025400Y-90988000D01*
X146774600Y-90988000D01*
X146841639Y-91007685D01*
G37*
%LPD*%
D48*
X159900000Y-114692000D02*
G75*
G02*
X159392000Y-115200000I-508001J1D01*
G01*
X131408000Y-115200000D02*
G75*
G02*
X130900000Y-114692000I1J508001D01*
G01*
X159392000Y-58200000D02*
G75*
G02*
X159900000Y-58708000I-1J-508001D01*
G01*
X130900000Y-58708000D02*
G75*
G02*
X131408000Y-58200000I508001J-1D01*
G01*
X159900000Y-114692000D02*
X159900000Y-58708000D01*
X159392000Y-115200000D02*
X131408000Y-115200000D01*
X159392000Y-58200000D02*
X131408000Y-58200000D01*
X130900000Y-58708000D02*
X130900000Y-114692000D01*
M02*
