M48
; DRILL file {KiCad 8.0.8} date 2025-02-02T16:18:37-0500
; FORMAT={-:-/ absolute / metric / decimal}
; #@! TF.CreationDate,2025-02-02T16:18:37-05:00
; #@! TF.GenerationSoftware,Kicad,Pcbnew,8.0.8
; #@! TF.FileFunction,Plated,1,4,PTH
FMAT,2
METRIC
; #@! TA.AperFunction,Plated,PTH,ViaDrill
T1C0.300
; #@! TA.AperFunction,Plated,PTH,ComponentDrill
T2C0.300
; #@! TA.AperFunction,Plated,PTH,ComponentDrill
T3C0.600
; #@! TA.AperFunction,Plated,PTH,ComponentDrill
T4C1.000
; #@! TA.AperFunction,Plated,PTH,ComponentDrill
T5C3.000
%
G90
G05
T1
X135.596Y-75.04
X136.408Y-79.748
X137.221Y-75.04
X137.543Y-67.406
X138.236Y-82.745
X138.768Y-65.045
X139.031Y-75.04
X139.031Y-77.965
X139.585Y-64.276
X139.743Y-78.916
X140.402Y-64.276
X140.422Y-84.052
X141.219Y-65.045
X142.334Y-86.81
X142.443Y-67.406
X142.607Y-84.696
X142.609Y-80.504
X143.401Y-72.665
X143.401Y-73.625
X144.313Y-69.533
X144.313Y-76.253
X144.791Y-84.052
X144.858Y-78.213
X145.4Y-70.583
X148.349Y-76.527
X148.357Y-67.406
X149.581Y-65.045
X150.398Y-64.276
X150.649Y-76.527
X150.649Y-85.586
X150.807Y-70.516
X150.99Y-89.65
X151.215Y-64.276
X152.032Y-65.045
X153.257Y-67.406
T2
X135.748Y-97.15
X135.748Y-98.42
X135.748Y-99.69
X135.748Y-100.96
X135.748Y-102.23
X135.748Y-103.5
X135.748Y-104.77
X135.748Y-106.04
X135.748Y-107.31
X135.748Y-108.58
X135.748Y-109.85
X135.748Y-111.12
X135.748Y-112.39
X135.748Y-113.66
X138.415Y-94.998
X139.685Y-94.998
X140.955Y-94.998
X142.225Y-94.998
X143.495Y-94.998
X144.765Y-94.998
X146.035Y-94.998
X147.305Y-94.998
X148.575Y-94.998
X149.845Y-94.998
X151.115Y-94.998
X152.385Y-94.998
X155.052Y-97.15
X155.052Y-98.42
X155.052Y-99.69
X155.052Y-100.96
X155.052Y-102.23
X155.052Y-103.5
X155.052Y-104.77
X155.052Y-106.04
X155.052Y-107.31
X155.052Y-108.58
X155.052Y-109.85
X155.052Y-111.12
X155.052Y-112.39
X155.052Y-113.66
T4
X132.7Y-60.0
X132.7Y-62.54
X132.7Y-65.08
X132.7Y-67.62
X132.7Y-70.16
X132.7Y-72.7
X132.7Y-75.24
X132.7Y-77.78
X132.7Y-80.32
X132.7Y-82.86
X132.7Y-85.4
X132.7Y-87.94
X132.7Y-90.48
X132.7Y-93.02
X132.7Y-95.56
X132.7Y-98.1
X132.7Y-100.64
X132.7Y-103.18
X132.7Y-105.72
X132.7Y-108.26
X132.7Y-110.8
X132.7Y-113.34
X158.1Y-60.0
X158.1Y-62.54
X158.1Y-65.08
X158.1Y-67.62
X158.1Y-70.16
X158.1Y-72.7
X158.1Y-75.24
X158.1Y-77.78
X158.1Y-80.32
X158.1Y-82.86
X158.1Y-85.4
X158.1Y-87.94
X158.1Y-90.48
X158.1Y-93.02
X158.1Y-95.56
X158.1Y-98.1
X158.1Y-100.64
X158.1Y-103.18
X158.1Y-105.72
X158.1Y-108.26
X158.1Y-110.8
X158.1Y-113.34
T5
X146.9Y-105.94
T3
X135.673Y-61.587G85X135.673Y-60.987
G05
X135.673Y-66.017G85X135.673Y-64.917
G05
X144.313Y-61.587G85X144.313Y-60.987
G05
X144.313Y-66.017G85X144.313Y-64.917
G05
X146.487Y-61.587G85X146.487Y-60.987
G05
X146.487Y-66.017G85X146.487Y-64.917
G05
X155.127Y-61.587G85X155.127Y-60.987
G05
X155.127Y-66.017G85X155.127Y-64.917
G05
M30
