G04 #@! TF.GenerationSoftware,KiCad,Pcbnew,8.0.8*
G04 #@! TF.CreationDate,2025-02-02T16:18:31-05:00*
G04 #@! TF.ProjectId,BCD-S3-DevKitC-1-N16R8V,4243442d-5333-42d4-9465-764b6974432d,1.0*
G04 #@! TF.SameCoordinates,Original*
G04 #@! TF.FileFunction,Copper,L2,Inr*
G04 #@! TF.FilePolarity,Positive*
%FSLAX46Y46*%
G04 Gerber Fmt 4.6, Leading zero omitted, Abs format (unit mm)*
G04 Created by KiCad (PCBNEW 8.0.8) date 2025-02-02 16:18:31*
%MOMM*%
%LPD*%
G01*
G04 APERTURE LIST*
G04 #@! TA.AperFunction,ComponentPad*
%ADD10O,1.000000X2.100000*%
G04 #@! TD*
G04 #@! TA.AperFunction,ComponentPad*
%ADD11O,1.000000X1.600000*%
G04 #@! TD*
G04 #@! TA.AperFunction,ComponentPad*
%ADD12C,0.450000*%
G04 #@! TD*
G04 #@! TA.AperFunction,ComponentPad*
%ADD13C,3.500000*%
G04 #@! TD*
G04 #@! TA.AperFunction,ComponentPad*
%ADD14C,1.700000*%
G04 #@! TD*
G04 #@! TA.AperFunction,ViaPad*
%ADD15C,0.450000*%
G04 #@! TD*
G04 #@! TA.AperFunction,Conductor*
%ADD16C,0.127000*%
G04 #@! TD*
G04 #@! TA.AperFunction,Profile*
%ADD17C,0.050000*%
G04 #@! TD*
G04 APERTURE END LIST*
D10*
X155126666Y-65466800D03*
D11*
X155126666Y-61286800D03*
D10*
X146486666Y-65466800D03*
D11*
X146486666Y-61286800D03*
D12*
X155052000Y-113660000D03*
X155052000Y-112390000D03*
X155052000Y-111120000D03*
X155052000Y-109850000D03*
X155052000Y-108580000D03*
X155052000Y-107310000D03*
X155052000Y-106040000D03*
X155052000Y-104770000D03*
X155052000Y-103500000D03*
X155052000Y-102230000D03*
X155052000Y-100960000D03*
X155052000Y-99690000D03*
X155052000Y-98420000D03*
X155052000Y-97150000D03*
X152385000Y-94998000D03*
X151115000Y-94998000D03*
X149845000Y-94998000D03*
X148575000Y-94998000D03*
X147305000Y-94998000D03*
X146035000Y-94998000D03*
X144765000Y-94998000D03*
X143495000Y-94998000D03*
X142225000Y-94998000D03*
X140955000Y-94998000D03*
X139685000Y-94998000D03*
X138415000Y-94998000D03*
X135748000Y-97150000D03*
X135748000Y-98420000D03*
X135748000Y-99690000D03*
X135748000Y-100960000D03*
X135748000Y-102230000D03*
X135748000Y-103500000D03*
X135748000Y-104770000D03*
X135748000Y-106040000D03*
X135748000Y-107310000D03*
X135748000Y-108580000D03*
X135748000Y-109850000D03*
X135748000Y-111120000D03*
X135748000Y-112390000D03*
X135748000Y-113660000D03*
D13*
X146900000Y-105940000D03*
D10*
X144313333Y-65466800D03*
D11*
X144313333Y-61286800D03*
D10*
X135673333Y-65466800D03*
D11*
X135673333Y-61286800D03*
D14*
X132700000Y-113340000D03*
X132700000Y-110800000D03*
X132700000Y-108260000D03*
X132700000Y-105720000D03*
X132700000Y-103180000D03*
X132700000Y-100640000D03*
X132700000Y-98100000D03*
X132700000Y-95560000D03*
X132700000Y-93020000D03*
X132700000Y-90480000D03*
X132700000Y-87940000D03*
X132700000Y-85400000D03*
X132700000Y-82860000D03*
X132700000Y-80320000D03*
X132700000Y-77780000D03*
X132700000Y-75240000D03*
X132700000Y-72700000D03*
X132700000Y-70160000D03*
X132700000Y-67620000D03*
X132700000Y-65080000D03*
X132700000Y-62540000D03*
X132700000Y-60000000D03*
X158100000Y-113340000D03*
X158100000Y-110800000D03*
X158100000Y-108260000D03*
X158100000Y-105720000D03*
X158100000Y-103180000D03*
X158100000Y-100640000D03*
X158100000Y-98100000D03*
X158100000Y-95560000D03*
X158100000Y-93020000D03*
X158100000Y-90480000D03*
X158100000Y-87940000D03*
X158100000Y-85400000D03*
X158100000Y-82860000D03*
X158100000Y-80320000D03*
X158100000Y-77780000D03*
X158100000Y-75240000D03*
X158100000Y-72700000D03*
X158100000Y-70160000D03*
X158100000Y-67620000D03*
X158100000Y-65080000D03*
X158100000Y-62540000D03*
X158100000Y-60000000D03*
D15*
X150806666Y-70515600D03*
X136408399Y-79748450D03*
X150648600Y-76526949D03*
X144857716Y-78212850D03*
X142606599Y-84696450D03*
X142333549Y-86810450D03*
X150648600Y-85585951D03*
X137543333Y-67406400D03*
X144313333Y-69532899D03*
X142443333Y-67406400D03*
X139030833Y-75040350D03*
X144313333Y-76252850D03*
X145399998Y-70582900D03*
X148348600Y-76526949D03*
X140422350Y-84051949D03*
X150990000Y-89650000D03*
X144790849Y-84051949D03*
X153256666Y-67406400D03*
X148356666Y-67406400D03*
X143400833Y-73625350D03*
X137221200Y-75039949D03*
X143400833Y-72665350D03*
X135595600Y-75039949D03*
X142609100Y-80504449D03*
X139743333Y-78916351D03*
X139030833Y-77965350D03*
X138235600Y-82745451D03*
X139584903Y-64276199D03*
X141218617Y-65045399D03*
X138768046Y-65045399D03*
X140401760Y-64276199D03*
X152031951Y-65045399D03*
X150398237Y-64276199D03*
X151215094Y-64276199D03*
X149581380Y-65045399D03*
D16*
X134782800Y-85149200D02*
X134782800Y-85584238D01*
X135292800Y-84669200D02*
X135102800Y-84669200D01*
X134782800Y-83549200D02*
G75*
G03*
X135102800Y-83869200I320000J0D01*
G01*
X137221200Y-75039949D02*
X134782800Y-77478349D01*
X134782800Y-107614800D02*
X135748000Y-108580000D01*
X134782800Y-84989200D02*
X134782800Y-85149200D01*
X135612800Y-84189200D02*
X135612800Y-84349200D01*
X135102800Y-83869200D02*
X135292800Y-83869200D01*
X135292800Y-83869200D02*
G75*
G02*
X135612800Y-84189200I0J-320000D01*
G01*
X135102800Y-84669200D02*
G75*
G03*
X134782800Y-84989200I0J-320000D01*
G01*
X134782800Y-85584238D02*
X134782800Y-107614800D01*
X135612800Y-84349200D02*
G75*
G02*
X135292800Y-84669200I-320000J0D01*
G01*
X134782800Y-77478349D02*
X134782800Y-83549200D01*
X134151200Y-76484349D02*
X134151200Y-108253200D01*
X134151200Y-108253200D02*
X135748000Y-109850000D01*
X135595600Y-75039949D02*
X134151200Y-76484349D01*
X140585799Y-73475350D02*
X140585799Y-73625350D01*
X138935799Y-73325350D02*
X139235799Y-73325350D01*
X141185799Y-73475350D02*
G75*
G02*
X141335799Y-73325399I150001J-50D01*
G01*
X141035799Y-73925350D02*
G75*
G03*
X141185850Y-73775350I1J150050D01*
G01*
X142385799Y-73775350D02*
G75*
G02*
X142535799Y-73625399I150001J-50D01*
G01*
X139385799Y-73775350D02*
G75*
G03*
X139535799Y-73925301I150001J50D01*
G01*
X139235799Y-73325350D02*
G75*
G02*
X139385850Y-73475350I1J-150050D01*
G01*
X138785799Y-73475350D02*
G75*
G02*
X138935799Y-73325399I150001J-50D01*
G01*
X138635799Y-73625350D02*
G75*
G03*
X138785850Y-73475350I1J150050D01*
G01*
X139835799Y-73925350D02*
G75*
G03*
X139985850Y-73775350I1J150050D01*
G01*
X141785799Y-73625350D02*
X141785799Y-73775350D01*
X141635799Y-73325350D02*
G75*
G02*
X141785850Y-73475350I1J-150050D01*
G01*
X140135799Y-73325350D02*
X140435799Y-73325350D01*
X137221200Y-75039949D02*
X138251475Y-74009674D01*
X143295200Y-73625350D02*
X143400833Y-73625350D01*
X141935799Y-73925350D02*
X142235799Y-73925350D01*
X142835799Y-73625350D02*
X143295200Y-73625350D01*
X142535799Y-73625350D02*
X142835799Y-73625350D01*
X139985799Y-73475350D02*
G75*
G02*
X140135799Y-73325399I150001J-50D01*
G01*
X141335799Y-73325350D02*
X141635799Y-73325350D01*
X141185799Y-73625350D02*
X141185799Y-73475350D01*
X140735799Y-73925350D02*
X141035799Y-73925350D01*
X139985799Y-73775350D02*
X139985799Y-73625350D01*
X140585799Y-73775350D02*
G75*
G03*
X140735799Y-73925301I150001J50D01*
G01*
X140585799Y-73625350D02*
X140585799Y-73775350D01*
X141785799Y-73475350D02*
X141785799Y-73625350D01*
X139985799Y-73625350D02*
X139985799Y-73475350D01*
X141785799Y-73775350D02*
G75*
G03*
X141935799Y-73925301I150001J50D01*
G01*
X139385799Y-73625350D02*
X139385799Y-73775350D01*
X140435799Y-73325350D02*
G75*
G02*
X140585850Y-73475350I1J-150050D01*
G01*
X139535799Y-73925350D02*
X139835799Y-73925350D01*
X142235799Y-73925350D02*
G75*
G03*
X142385850Y-73775350I1J150050D01*
G01*
X141185799Y-73775350D02*
X141185799Y-73625350D01*
X139385799Y-73475350D02*
X139385799Y-73625350D01*
X138251475Y-74009674D02*
X138635799Y-73625350D01*
X156220400Y-106380400D02*
X156220400Y-91013400D01*
X144790849Y-84051949D02*
X144790849Y-85959249D01*
X144790849Y-85959249D02*
X148481600Y-89650000D01*
X158100000Y-108260000D02*
X156220400Y-106380400D01*
X154857000Y-89650000D02*
X156220400Y-91013400D01*
X150990000Y-89650000D02*
X154857000Y-89650000D01*
X148481600Y-89650000D02*
X150990000Y-89650000D01*
X143400833Y-72665350D02*
X137970199Y-72665350D01*
X141522939Y-79790862D02*
X141240095Y-80073703D01*
X141240096Y-80413115D02*
X141324950Y-80497968D01*
X141331431Y-80504449D02*
X142609100Y-80504449D01*
X141324950Y-80497968D02*
X141331431Y-80504449D01*
X141438087Y-79366598D02*
X141522939Y-79451450D01*
X139743333Y-78916351D02*
X140476422Y-79649440D01*
X140815834Y-79649441D02*
X141098675Y-79366597D01*
X141240095Y-80073703D02*
G75*
G03*
X141240104Y-80413106I169705J-169697D01*
G01*
X141098675Y-79366597D02*
G75*
G02*
X141438106Y-79366578I169725J-169703D01*
G01*
X141522939Y-79451450D02*
G75*
G02*
X141522983Y-79790906I-169739J-169750D01*
G01*
X140476422Y-79649440D02*
G75*
G03*
X140815806Y-79649413I169678J169740D01*
G01*
X139030833Y-81950218D02*
X138235600Y-82745451D01*
X139030833Y-77965350D02*
X139030833Y-81950218D01*
X140354103Y-65045399D02*
X139584903Y-64276199D01*
X141218617Y-65045399D02*
X140354103Y-65045399D01*
X139378632Y-62503200D02*
X139378632Y-62373200D01*
X139978632Y-62373200D02*
X139978632Y-62503200D01*
X140218632Y-62743200D02*
X148865238Y-62743200D01*
X132700000Y-65080000D02*
X135036800Y-62743200D01*
X139618632Y-62133200D02*
X139738632Y-62133200D01*
X148865238Y-62743200D02*
X150398237Y-64276199D01*
X135036800Y-62743200D02*
X139138632Y-62743200D01*
X139978632Y-62503200D02*
G75*
G03*
X140218632Y-62743168I239968J0D01*
G01*
X139378632Y-62373200D02*
G75*
G02*
X139618632Y-62133232I239968J0D01*
G01*
X139738632Y-62133200D02*
G75*
G02*
X139978600Y-62373200I-32J-240000D01*
G01*
X139138632Y-62743200D02*
G75*
G03*
X139378600Y-62503200I-32J240000D01*
G01*
X148015781Y-63479800D02*
X135377666Y-63479800D01*
X149581380Y-65045399D02*
X148015781Y-63479800D01*
X149581380Y-65045399D02*
X150445894Y-65045399D01*
X134361666Y-65958334D02*
X132700000Y-67620000D01*
X150445894Y-65045399D02*
X151215094Y-64276199D01*
X135377666Y-63479800D02*
X134361666Y-64495800D01*
X134361666Y-64495800D02*
X134361666Y-65958334D01*
X137970199Y-72665350D02*
X135595600Y-75039949D01*
G04 #@! TA.AperFunction,Conductor*
G36*
X159395422Y-58401042D02*
G01*
X159480143Y-58414460D01*
X159493228Y-58418711D01*
X159566534Y-58456063D01*
X159577670Y-58464153D01*
X159635846Y-58522329D01*
X159643937Y-58533466D01*
X159681286Y-58606767D01*
X159685540Y-58619860D01*
X159698958Y-58704577D01*
X159699500Y-58711460D01*
X159699500Y-114688539D01*
X159698958Y-114695422D01*
X159685540Y-114780139D01*
X159681286Y-114793232D01*
X159643937Y-114866533D01*
X159635846Y-114877670D01*
X159577670Y-114935846D01*
X159566533Y-114943937D01*
X159493232Y-114981286D01*
X159480139Y-114985540D01*
X159395422Y-114998958D01*
X159388539Y-114999500D01*
X131411461Y-114999500D01*
X131404578Y-114998958D01*
X131319860Y-114985540D01*
X131306767Y-114981286D01*
X131233466Y-114943937D01*
X131222329Y-114935846D01*
X131164153Y-114877670D01*
X131156062Y-114866533D01*
X131118711Y-114793228D01*
X131114460Y-114780143D01*
X131101042Y-114695422D01*
X131100500Y-114688539D01*
X131100500Y-113339997D01*
X131591270Y-113339997D01*
X131591270Y-113340002D01*
X131610147Y-113543726D01*
X131610147Y-113543729D01*
X131666138Y-113740516D01*
X131757340Y-113923672D01*
X131834518Y-114025874D01*
X132268233Y-113592158D01*
X132299901Y-113647007D01*
X132392993Y-113740099D01*
X132447839Y-113771764D01*
X132012473Y-114207130D01*
X132031838Y-114224784D01*
X132031839Y-114224785D01*
X132205801Y-114332495D01*
X132396580Y-114406404D01*
X132597695Y-114443999D01*
X132597701Y-114444000D01*
X132802299Y-114444000D01*
X132802304Y-114443999D01*
X133003419Y-114406404D01*
X133194198Y-114332495D01*
X133368160Y-114224784D01*
X133368161Y-114224783D01*
X133387524Y-114207129D01*
X132952159Y-113771765D01*
X133007007Y-113740099D01*
X133100099Y-113647007D01*
X133131765Y-113592159D01*
X133565480Y-114025874D01*
X133642657Y-113923675D01*
X133642658Y-113923674D01*
X133733861Y-113740516D01*
X133789852Y-113543729D01*
X133789852Y-113543726D01*
X133808730Y-113340002D01*
X133808730Y-113339998D01*
X157044417Y-113339998D01*
X157044417Y-113340001D01*
X157064700Y-113545938D01*
X157124765Y-113743947D01*
X157124767Y-113743950D01*
X157124768Y-113743954D01*
X157176106Y-113840000D01*
X157220831Y-113923675D01*
X157222315Y-113926450D01*
X157353590Y-114086410D01*
X157513550Y-114217685D01*
X157696046Y-114315232D01*
X157696051Y-114315233D01*
X157696052Y-114315234D01*
X157696051Y-114315234D01*
X157894062Y-114375299D01*
X157894063Y-114375299D01*
X157894066Y-114375300D01*
X158066529Y-114392286D01*
X158099999Y-114395583D01*
X158100000Y-114395583D01*
X158100001Y-114395583D01*
X158128791Y-114392747D01*
X158305934Y-114375300D01*
X158305936Y-114375299D01*
X158305938Y-114375299D01*
X158503947Y-114315234D01*
X158503946Y-114315234D01*
X158503954Y-114315232D01*
X158686450Y-114217685D01*
X158846410Y-114086410D01*
X158977685Y-113926450D01*
X159075232Y-113743954D01*
X159135300Y-113545934D01*
X159155583Y-113340000D01*
X159135300Y-113134066D01*
X159135299Y-113134063D01*
X159135299Y-113134061D01*
X159075234Y-112936052D01*
X159075233Y-112936051D01*
X159075232Y-112936046D01*
X158977685Y-112753550D01*
X158846410Y-112593590D01*
X158686450Y-112462315D01*
X158686448Y-112462314D01*
X158686447Y-112462313D01*
X158622871Y-112428331D01*
X158503954Y-112364768D01*
X158503950Y-112364767D01*
X158503947Y-112364765D01*
X158503948Y-112364765D01*
X158305937Y-112304700D01*
X158305938Y-112304700D01*
X158100001Y-112284417D01*
X158099999Y-112284417D01*
X157894061Y-112304700D01*
X157696052Y-112364765D01*
X157513552Y-112462313D01*
X157353591Y-112593589D01*
X157353589Y-112593591D01*
X157222313Y-112753552D01*
X157124765Y-112936052D01*
X157064700Y-113134061D01*
X157044417Y-113339998D01*
X133808730Y-113339998D01*
X133808730Y-113339997D01*
X133789852Y-113136273D01*
X133789852Y-113136270D01*
X133733861Y-112939483D01*
X133642659Y-112756327D01*
X133565480Y-112654124D01*
X133131764Y-113087839D01*
X133100099Y-113032993D01*
X133007007Y-112939901D01*
X132952158Y-112908233D01*
X133387524Y-112472868D01*
X133368157Y-112455213D01*
X133262828Y-112389997D01*
X135317196Y-112389997D01*
X135317196Y-112390002D01*
X135338279Y-112523122D01*
X135338280Y-112523123D01*
X135338280Y-112523124D01*
X135338281Y-112523126D01*
X135399472Y-112643220D01*
X135494780Y-112738528D01*
X135614874Y-112799719D01*
X135614876Y-112799719D01*
X135614877Y-112799720D01*
X135747998Y-112820804D01*
X135748000Y-112820804D01*
X135748002Y-112820804D01*
X135881122Y-112799720D01*
X135881122Y-112799719D01*
X135881126Y-112799719D01*
X136001220Y-112738528D01*
X136096528Y-112643220D01*
X136157719Y-112523126D01*
X136167351Y-112462315D01*
X136178804Y-112390002D01*
X136178804Y-112389997D01*
X154621196Y-112389997D01*
X154621196Y-112390002D01*
X154642279Y-112523122D01*
X154642280Y-112523123D01*
X154642280Y-112523124D01*
X154642281Y-112523126D01*
X154703472Y-112643220D01*
X154798780Y-112738528D01*
X154918874Y-112799719D01*
X154918876Y-112799719D01*
X154918877Y-112799720D01*
X155051998Y-112820804D01*
X155052000Y-112820804D01*
X155052002Y-112820804D01*
X155185122Y-112799720D01*
X155185122Y-112799719D01*
X155185126Y-112799719D01*
X155305220Y-112738528D01*
X155400528Y-112643220D01*
X155461719Y-112523126D01*
X155471351Y-112462315D01*
X155482804Y-112390002D01*
X155482804Y-112389997D01*
X155461720Y-112256877D01*
X155461719Y-112256876D01*
X155461719Y-112256874D01*
X155400528Y-112136780D01*
X155305220Y-112041472D01*
X155185126Y-111980281D01*
X155185124Y-111980280D01*
X155185123Y-111980280D01*
X155185122Y-111980279D01*
X155052002Y-111959196D01*
X155051998Y-111959196D01*
X154918877Y-111980279D01*
X154918876Y-111980280D01*
X154798781Y-112041471D01*
X154703471Y-112136781D01*
X154642280Y-112256876D01*
X154642279Y-112256877D01*
X154621196Y-112389997D01*
X136178804Y-112389997D01*
X136157720Y-112256877D01*
X136157719Y-112256876D01*
X136157719Y-112256874D01*
X136096528Y-112136780D01*
X136001220Y-112041472D01*
X135881126Y-111980281D01*
X135881124Y-111980280D01*
X135881123Y-111980280D01*
X135881122Y-111980279D01*
X135748002Y-111959196D01*
X135747998Y-111959196D01*
X135614877Y-111980279D01*
X135614876Y-111980280D01*
X135494781Y-112041471D01*
X135399471Y-112136781D01*
X135338280Y-112256876D01*
X135338279Y-112256877D01*
X135317196Y-112389997D01*
X133262828Y-112389997D01*
X133194198Y-112347504D01*
X133003419Y-112273595D01*
X132802304Y-112236000D01*
X132597695Y-112236000D01*
X132396580Y-112273595D01*
X132205801Y-112347504D01*
X132031840Y-112455214D01*
X132031839Y-112455215D01*
X132012474Y-112472868D01*
X132447840Y-112908234D01*
X132392993Y-112939901D01*
X132299901Y-113032993D01*
X132268234Y-113087840D01*
X131834518Y-112654124D01*
X131757340Y-112756327D01*
X131666138Y-112939483D01*
X131610147Y-113136270D01*
X131610147Y-113136273D01*
X131591270Y-113339997D01*
X131100500Y-113339997D01*
X131100500Y-110799998D01*
X131644417Y-110799998D01*
X131644417Y-110800001D01*
X131664700Y-111005938D01*
X131724765Y-111203947D01*
X131724767Y-111203950D01*
X131724768Y-111203954D01*
X131822315Y-111386450D01*
X131953590Y-111546410D01*
X132113550Y-111677685D01*
X132296046Y-111775232D01*
X132296051Y-111775233D01*
X132296052Y-111775234D01*
X132296051Y-111775234D01*
X132494062Y-111835299D01*
X132494063Y-111835299D01*
X132494066Y-111835300D01*
X132666529Y-111852286D01*
X132699999Y-111855583D01*
X132700000Y-111855583D01*
X132700001Y-111855583D01*
X132728791Y-111852747D01*
X132905934Y-111835300D01*
X132905936Y-111835299D01*
X132905938Y-111835299D01*
X133103947Y-111775234D01*
X133103946Y-111775234D01*
X133103954Y-111775232D01*
X133286450Y-111677685D01*
X133446410Y-111546410D01*
X133577685Y-111386450D01*
X133675232Y-111203954D01*
X133700700Y-111119997D01*
X135317196Y-111119997D01*
X135317196Y-111120002D01*
X135338279Y-111253122D01*
X135338280Y-111253123D01*
X135338280Y-111253124D01*
X135338281Y-111253126D01*
X135399472Y-111373220D01*
X135494780Y-111468528D01*
X135614874Y-111529719D01*
X135614876Y-111529719D01*
X135614877Y-111529720D01*
X135747998Y-111550804D01*
X135748000Y-111550804D01*
X135748002Y-111550804D01*
X135881122Y-111529720D01*
X135881122Y-111529719D01*
X135881126Y-111529719D01*
X136001220Y-111468528D01*
X136096528Y-111373220D01*
X136157719Y-111253126D01*
X136165509Y-111203947D01*
X136178804Y-111120002D01*
X136178804Y-111119997D01*
X154621196Y-111119997D01*
X154621196Y-111120002D01*
X154642279Y-111253122D01*
X154642280Y-111253123D01*
X154642280Y-111253124D01*
X154642281Y-111253126D01*
X154703472Y-111373220D01*
X154798780Y-111468528D01*
X154918874Y-111529719D01*
X154918876Y-111529719D01*
X154918877Y-111529720D01*
X155051998Y-111550804D01*
X155052000Y-111550804D01*
X155052002Y-111550804D01*
X155185122Y-111529720D01*
X155185122Y-111529719D01*
X155185126Y-111529719D01*
X155305220Y-111468528D01*
X155400528Y-111373220D01*
X155461719Y-111253126D01*
X155469509Y-111203947D01*
X155482804Y-111120002D01*
X155482804Y-111119997D01*
X155461720Y-110986877D01*
X155461719Y-110986876D01*
X155461719Y-110986874D01*
X155400528Y-110866780D01*
X155333746Y-110799998D01*
X157044417Y-110799998D01*
X157044417Y-110800001D01*
X157064700Y-111005938D01*
X157124765Y-111203947D01*
X157124767Y-111203950D01*
X157124768Y-111203954D01*
X157222315Y-111386450D01*
X157353590Y-111546410D01*
X157513550Y-111677685D01*
X157696046Y-111775232D01*
X157696051Y-111775233D01*
X157696052Y-111775234D01*
X157696051Y-111775234D01*
X157894062Y-111835299D01*
X157894063Y-111835299D01*
X157894066Y-111835300D01*
X158066529Y-111852286D01*
X158099999Y-111855583D01*
X158100000Y-111855583D01*
X158100001Y-111855583D01*
X158128791Y-111852747D01*
X158305934Y-111835300D01*
X158305936Y-111835299D01*
X158305938Y-111835299D01*
X158503947Y-111775234D01*
X158503946Y-111775234D01*
X158503954Y-111775232D01*
X158686450Y-111677685D01*
X158846410Y-111546410D01*
X158977685Y-111386450D01*
X159075232Y-111203954D01*
X159135300Y-111005934D01*
X159155583Y-110800000D01*
X159135300Y-110594066D01*
X159135299Y-110594063D01*
X159135299Y-110594061D01*
X159075234Y-110396052D01*
X159075233Y-110396051D01*
X159075232Y-110396046D01*
X158977685Y-110213550D01*
X158846410Y-110053590D01*
X158686450Y-109922315D01*
X158686448Y-109922314D01*
X158686447Y-109922313D01*
X158622871Y-109888331D01*
X158503954Y-109824768D01*
X158503950Y-109824767D01*
X158503947Y-109824765D01*
X158503948Y-109824765D01*
X158305937Y-109764700D01*
X158305938Y-109764700D01*
X158100001Y-109744417D01*
X158099999Y-109744417D01*
X157894061Y-109764700D01*
X157696052Y-109824765D01*
X157513552Y-109922313D01*
X157353591Y-110053589D01*
X157353589Y-110053591D01*
X157222313Y-110213552D01*
X157124765Y-110396052D01*
X157064700Y-110594061D01*
X157044417Y-110799998D01*
X155333746Y-110799998D01*
X155305220Y-110771472D01*
X155185126Y-110710281D01*
X155185124Y-110710280D01*
X155185123Y-110710280D01*
X155185122Y-110710279D01*
X155052002Y-110689196D01*
X155051998Y-110689196D01*
X154918877Y-110710279D01*
X154918876Y-110710280D01*
X154798781Y-110771471D01*
X154703471Y-110866781D01*
X154642280Y-110986876D01*
X154642279Y-110986877D01*
X154621196Y-111119997D01*
X136178804Y-111119997D01*
X136157720Y-110986877D01*
X136157719Y-110986876D01*
X136157719Y-110986874D01*
X136096528Y-110866780D01*
X136001220Y-110771472D01*
X135881126Y-110710281D01*
X135881124Y-110710280D01*
X135881123Y-110710280D01*
X135881122Y-110710279D01*
X135748002Y-110689196D01*
X135747998Y-110689196D01*
X135614877Y-110710279D01*
X135614876Y-110710280D01*
X135494781Y-110771471D01*
X135399471Y-110866781D01*
X135338280Y-110986876D01*
X135338279Y-110986877D01*
X135317196Y-111119997D01*
X133700700Y-111119997D01*
X133735300Y-111005934D01*
X133755583Y-110800000D01*
X133735300Y-110594066D01*
X133735299Y-110594063D01*
X133735299Y-110594061D01*
X133675234Y-110396052D01*
X133675233Y-110396051D01*
X133675232Y-110396046D01*
X133577685Y-110213550D01*
X133446410Y-110053590D01*
X133286450Y-109922315D01*
X133286448Y-109922314D01*
X133286447Y-109922313D01*
X133222871Y-109888331D01*
X133103954Y-109824768D01*
X133103950Y-109824767D01*
X133103947Y-109824765D01*
X133103948Y-109824765D01*
X132905937Y-109764700D01*
X132905938Y-109764700D01*
X132700001Y-109744417D01*
X132699999Y-109744417D01*
X132494061Y-109764700D01*
X132296052Y-109824765D01*
X132113552Y-109922313D01*
X131953591Y-110053589D01*
X131953589Y-110053591D01*
X131822313Y-110213552D01*
X131724765Y-110396052D01*
X131664700Y-110594061D01*
X131644417Y-110799998D01*
X131100500Y-110799998D01*
X131100500Y-108259998D01*
X131644417Y-108259998D01*
X131644417Y-108260001D01*
X131664700Y-108465938D01*
X131724765Y-108663947D01*
X131724767Y-108663950D01*
X131724768Y-108663954D01*
X131822315Y-108846450D01*
X131953590Y-109006410D01*
X132113550Y-109137685D01*
X132296046Y-109235232D01*
X132296051Y-109235233D01*
X132296052Y-109235234D01*
X132296051Y-109235234D01*
X132494062Y-109295299D01*
X132494063Y-109295299D01*
X132494066Y-109295300D01*
X132666529Y-109312286D01*
X132699999Y-109315583D01*
X132700000Y-109315583D01*
X132700001Y-109315583D01*
X132728791Y-109312747D01*
X132905934Y-109295300D01*
X132905936Y-109295299D01*
X132905938Y-109295299D01*
X133103947Y-109235234D01*
X133103946Y-109235234D01*
X133103954Y-109235232D01*
X133286450Y-109137685D01*
X133446410Y-109006410D01*
X133577685Y-108846450D01*
X133675232Y-108663954D01*
X133735300Y-108465934D01*
X133755583Y-108260000D01*
X133735300Y-108054066D01*
X133735299Y-108054063D01*
X133735299Y-108054061D01*
X133675234Y-107856052D01*
X133675233Y-107856051D01*
X133675232Y-107856046D01*
X133577685Y-107673550D01*
X133446410Y-107513590D01*
X133286450Y-107382315D01*
X133286448Y-107382314D01*
X133286447Y-107382313D01*
X133222871Y-107348331D01*
X133103954Y-107284768D01*
X133103950Y-107284767D01*
X133103947Y-107284765D01*
X133103948Y-107284765D01*
X132905937Y-107224700D01*
X132905938Y-107224700D01*
X132700001Y-107204417D01*
X132699999Y-107204417D01*
X132494061Y-107224700D01*
X132296052Y-107284765D01*
X132113552Y-107382313D01*
X131953591Y-107513589D01*
X131953589Y-107513591D01*
X131822313Y-107673552D01*
X131724765Y-107856052D01*
X131664700Y-108054061D01*
X131644417Y-108259998D01*
X131100500Y-108259998D01*
X131100500Y-105719998D01*
X131644417Y-105719998D01*
X131644417Y-105720001D01*
X131664700Y-105925938D01*
X131724765Y-106123947D01*
X131724767Y-106123950D01*
X131724768Y-106123954D01*
X131788331Y-106242871D01*
X131803391Y-106271047D01*
X131822315Y-106306450D01*
X131953590Y-106466410D01*
X132113550Y-106597685D01*
X132296046Y-106695232D01*
X132296051Y-106695233D01*
X132296052Y-106695234D01*
X132296051Y-106695234D01*
X132494062Y-106755299D01*
X132494063Y-106755299D01*
X132494066Y-106755300D01*
X132666529Y-106772286D01*
X132699999Y-106775583D01*
X132700000Y-106775583D01*
X132700001Y-106775583D01*
X132728791Y-106772747D01*
X132905934Y-106755300D01*
X132905936Y-106755299D01*
X132905938Y-106755299D01*
X133103947Y-106695234D01*
X133103946Y-106695234D01*
X133103954Y-106695232D01*
X133286450Y-106597685D01*
X133446410Y-106466410D01*
X133577685Y-106306450D01*
X133675232Y-106123954D01*
X133735300Y-105925934D01*
X133755583Y-105720000D01*
X133735300Y-105514066D01*
X133735299Y-105514063D01*
X133735299Y-105514061D01*
X133675234Y-105316052D01*
X133675233Y-105316051D01*
X133675232Y-105316046D01*
X133577685Y-105133550D01*
X133446410Y-104973590D01*
X133286450Y-104842315D01*
X133286448Y-104842314D01*
X133286447Y-104842313D01*
X133222871Y-104808331D01*
X133103954Y-104744768D01*
X133103950Y-104744767D01*
X133103947Y-104744765D01*
X133103948Y-104744765D01*
X132905937Y-104684700D01*
X132905938Y-104684700D01*
X132700001Y-104664417D01*
X132699999Y-104664417D01*
X132494061Y-104684700D01*
X132296052Y-104744765D01*
X132113552Y-104842313D01*
X131953591Y-104973589D01*
X131953589Y-104973591D01*
X131822313Y-105133552D01*
X131724765Y-105316052D01*
X131664700Y-105514061D01*
X131644417Y-105719998D01*
X131100500Y-105719998D01*
X131100500Y-103179998D01*
X131644417Y-103179998D01*
X131644417Y-103180001D01*
X131664700Y-103385938D01*
X131724765Y-103583947D01*
X131724767Y-103583950D01*
X131724768Y-103583954D01*
X131822315Y-103766450D01*
X131953590Y-103926410D01*
X132113550Y-104057685D01*
X132296046Y-104155232D01*
X132296051Y-104155233D01*
X132296052Y-104155234D01*
X132296051Y-104155234D01*
X132494062Y-104215299D01*
X132494063Y-104215299D01*
X132494066Y-104215300D01*
X132666529Y-104232286D01*
X132699999Y-104235583D01*
X132700000Y-104235583D01*
X132700001Y-104235583D01*
X132728791Y-104232747D01*
X132905934Y-104215300D01*
X132905936Y-104215299D01*
X132905938Y-104215299D01*
X133103947Y-104155234D01*
X133103946Y-104155234D01*
X133103954Y-104155232D01*
X133286450Y-104057685D01*
X133446410Y-103926410D01*
X133577685Y-103766450D01*
X133675232Y-103583954D01*
X133735300Y-103385934D01*
X133755583Y-103180000D01*
X133735300Y-102974066D01*
X133735299Y-102974063D01*
X133735299Y-102974061D01*
X133675234Y-102776052D01*
X133675233Y-102776051D01*
X133675232Y-102776046D01*
X133577685Y-102593550D01*
X133446410Y-102433590D01*
X133286450Y-102302315D01*
X133286448Y-102302314D01*
X133286447Y-102302313D01*
X133222871Y-102268331D01*
X133103954Y-102204768D01*
X133103950Y-102204767D01*
X133103947Y-102204765D01*
X133103948Y-102204765D01*
X132905937Y-102144700D01*
X132905938Y-102144700D01*
X132700001Y-102124417D01*
X132699999Y-102124417D01*
X132494061Y-102144700D01*
X132296052Y-102204765D01*
X132113552Y-102302313D01*
X131953591Y-102433589D01*
X131953589Y-102433591D01*
X131822313Y-102593552D01*
X131724765Y-102776052D01*
X131664700Y-102974061D01*
X131644417Y-103179998D01*
X131100500Y-103179998D01*
X131100500Y-100639998D01*
X131644417Y-100639998D01*
X131644417Y-100640001D01*
X131664700Y-100845938D01*
X131724765Y-101043947D01*
X131724767Y-101043950D01*
X131724768Y-101043954D01*
X131822315Y-101226450D01*
X131953590Y-101386410D01*
X132113550Y-101517685D01*
X132296046Y-101615232D01*
X132296051Y-101615233D01*
X132296052Y-101615234D01*
X132296051Y-101615234D01*
X132494062Y-101675299D01*
X132494063Y-101675299D01*
X132494066Y-101675300D01*
X132666529Y-101692286D01*
X132699999Y-101695583D01*
X132700000Y-101695583D01*
X132700001Y-101695583D01*
X132728791Y-101692747D01*
X132905934Y-101675300D01*
X132905936Y-101675299D01*
X132905938Y-101675299D01*
X133103947Y-101615234D01*
X133103946Y-101615234D01*
X133103954Y-101615232D01*
X133286450Y-101517685D01*
X133446410Y-101386410D01*
X133577685Y-101226450D01*
X133675232Y-101043954D01*
X133735300Y-100845934D01*
X133755583Y-100640000D01*
X133735300Y-100434066D01*
X133735299Y-100434063D01*
X133735299Y-100434061D01*
X133675234Y-100236052D01*
X133675233Y-100236051D01*
X133675232Y-100236046D01*
X133577685Y-100053550D01*
X133446410Y-99893590D01*
X133286450Y-99762315D01*
X133286448Y-99762314D01*
X133286447Y-99762313D01*
X133222871Y-99728331D01*
X133103954Y-99664768D01*
X133103950Y-99664767D01*
X133103947Y-99664765D01*
X133103948Y-99664765D01*
X132905937Y-99604700D01*
X132905938Y-99604700D01*
X132700001Y-99584417D01*
X132699999Y-99584417D01*
X132494061Y-99604700D01*
X132296052Y-99664765D01*
X132113552Y-99762313D01*
X131953591Y-99893589D01*
X131953589Y-99893591D01*
X131822313Y-100053552D01*
X131724765Y-100236052D01*
X131664700Y-100434061D01*
X131644417Y-100639998D01*
X131100500Y-100639998D01*
X131100500Y-98099998D01*
X131644417Y-98099998D01*
X131644417Y-98100001D01*
X131664700Y-98305938D01*
X131724765Y-98503947D01*
X131724767Y-98503950D01*
X131724768Y-98503954D01*
X131822315Y-98686450D01*
X131953590Y-98846410D01*
X132113550Y-98977685D01*
X132296046Y-99075232D01*
X132296051Y-99075233D01*
X132296052Y-99075234D01*
X132296051Y-99075234D01*
X132494062Y-99135299D01*
X132494063Y-99135299D01*
X132494066Y-99135300D01*
X132666529Y-99152286D01*
X132699999Y-99155583D01*
X132700000Y-99155583D01*
X132700001Y-99155583D01*
X132728791Y-99152747D01*
X132905934Y-99135300D01*
X132905936Y-99135299D01*
X132905938Y-99135299D01*
X133103947Y-99075234D01*
X133103946Y-99075234D01*
X133103954Y-99075232D01*
X133286450Y-98977685D01*
X133446410Y-98846410D01*
X133577685Y-98686450D01*
X133675232Y-98503954D01*
X133735300Y-98305934D01*
X133755583Y-98100000D01*
X133735300Y-97894066D01*
X133735299Y-97894063D01*
X133735299Y-97894061D01*
X133675234Y-97696052D01*
X133675233Y-97696051D01*
X133675232Y-97696046D01*
X133577685Y-97513550D01*
X133446410Y-97353590D01*
X133286450Y-97222315D01*
X133286448Y-97222314D01*
X133286447Y-97222313D01*
X133222871Y-97188331D01*
X133103954Y-97124768D01*
X133103950Y-97124767D01*
X133103947Y-97124765D01*
X133103948Y-97124765D01*
X132905937Y-97064700D01*
X132905938Y-97064700D01*
X132700001Y-97044417D01*
X132699999Y-97044417D01*
X132494061Y-97064700D01*
X132296052Y-97124765D01*
X132113552Y-97222313D01*
X131953591Y-97353589D01*
X131953589Y-97353591D01*
X131822313Y-97513552D01*
X131724765Y-97696052D01*
X131664700Y-97894061D01*
X131644417Y-98099998D01*
X131100500Y-98099998D01*
X131100500Y-95559998D01*
X131644417Y-95559998D01*
X131644417Y-95560001D01*
X131664700Y-95765938D01*
X131724765Y-95963947D01*
X131724767Y-95963950D01*
X131724768Y-95963954D01*
X131822315Y-96146450D01*
X131953590Y-96306410D01*
X132113550Y-96437685D01*
X132296046Y-96535232D01*
X132296051Y-96535233D01*
X132296052Y-96535234D01*
X132296051Y-96535234D01*
X132494062Y-96595299D01*
X132494063Y-96595299D01*
X132494066Y-96595300D01*
X132666529Y-96612286D01*
X132699999Y-96615583D01*
X132700000Y-96615583D01*
X132700001Y-96615583D01*
X132728791Y-96612747D01*
X132905934Y-96595300D01*
X132905936Y-96595299D01*
X132905938Y-96595299D01*
X133103947Y-96535234D01*
X133103946Y-96535234D01*
X133103954Y-96535232D01*
X133286450Y-96437685D01*
X133446410Y-96306410D01*
X133577685Y-96146450D01*
X133675232Y-95963954D01*
X133735300Y-95765934D01*
X133755583Y-95560000D01*
X133735300Y-95354066D01*
X133735299Y-95354063D01*
X133735299Y-95354061D01*
X133675234Y-95156052D01*
X133675233Y-95156051D01*
X133675232Y-95156046D01*
X133577685Y-94973550D01*
X133446410Y-94813590D01*
X133286450Y-94682315D01*
X133286448Y-94682314D01*
X133286447Y-94682313D01*
X133222871Y-94648331D01*
X133103954Y-94584768D01*
X133103950Y-94584767D01*
X133103947Y-94584765D01*
X133103948Y-94584765D01*
X132905937Y-94524700D01*
X132905938Y-94524700D01*
X132700001Y-94504417D01*
X132699999Y-94504417D01*
X132494061Y-94524700D01*
X132296052Y-94584765D01*
X132296046Y-94584767D01*
X132296046Y-94584768D01*
X132289476Y-94588280D01*
X132113552Y-94682313D01*
X131953591Y-94813589D01*
X131953589Y-94813591D01*
X131822313Y-94973552D01*
X131724765Y-95156052D01*
X131664700Y-95354061D01*
X131644417Y-95559998D01*
X131100500Y-95559998D01*
X131100500Y-93019998D01*
X131644417Y-93019998D01*
X131644417Y-93020001D01*
X131664700Y-93225938D01*
X131724765Y-93423947D01*
X131724767Y-93423950D01*
X131724768Y-93423954D01*
X131822315Y-93606450D01*
X131953590Y-93766410D01*
X132113550Y-93897685D01*
X132296046Y-93995232D01*
X132296051Y-93995233D01*
X132296052Y-93995234D01*
X132296051Y-93995234D01*
X132494062Y-94055299D01*
X132494063Y-94055299D01*
X132494066Y-94055300D01*
X132666529Y-94072286D01*
X132699999Y-94075583D01*
X132700000Y-94075583D01*
X132700001Y-94075583D01*
X132728791Y-94072747D01*
X132905934Y-94055300D01*
X132905936Y-94055299D01*
X132905938Y-94055299D01*
X133103947Y-93995234D01*
X133103946Y-93995234D01*
X133103954Y-93995232D01*
X133286450Y-93897685D01*
X133446410Y-93766410D01*
X133577685Y-93606450D01*
X133675232Y-93423954D01*
X133735300Y-93225934D01*
X133755583Y-93020000D01*
X133735300Y-92814066D01*
X133735299Y-92814063D01*
X133735299Y-92814061D01*
X133675234Y-92616052D01*
X133675233Y-92616051D01*
X133675232Y-92616046D01*
X133577685Y-92433550D01*
X133446410Y-92273590D01*
X133286450Y-92142315D01*
X133286448Y-92142314D01*
X133286447Y-92142313D01*
X133222871Y-92108331D01*
X133103954Y-92044768D01*
X133103950Y-92044767D01*
X133103947Y-92044765D01*
X133103948Y-92044765D01*
X132905937Y-91984700D01*
X132905938Y-91984700D01*
X132700001Y-91964417D01*
X132699999Y-91964417D01*
X132494061Y-91984700D01*
X132296052Y-92044765D01*
X132113552Y-92142313D01*
X131953591Y-92273589D01*
X131953589Y-92273591D01*
X131822313Y-92433552D01*
X131724765Y-92616052D01*
X131664700Y-92814061D01*
X131644417Y-93019998D01*
X131100500Y-93019998D01*
X131100500Y-90479998D01*
X131644417Y-90479998D01*
X131644417Y-90480001D01*
X131664700Y-90685938D01*
X131724765Y-90883947D01*
X131724767Y-90883950D01*
X131724768Y-90883954D01*
X131822315Y-91066450D01*
X131953590Y-91226410D01*
X132113550Y-91357685D01*
X132296046Y-91455232D01*
X132296051Y-91455233D01*
X132296052Y-91455234D01*
X132296051Y-91455234D01*
X132494062Y-91515299D01*
X132494063Y-91515299D01*
X132494066Y-91515300D01*
X132666529Y-91532286D01*
X132699999Y-91535583D01*
X132700000Y-91535583D01*
X132700001Y-91535583D01*
X132728791Y-91532747D01*
X132905934Y-91515300D01*
X132905936Y-91515299D01*
X132905938Y-91515299D01*
X133103947Y-91455234D01*
X133103946Y-91455234D01*
X133103954Y-91455232D01*
X133286450Y-91357685D01*
X133446410Y-91226410D01*
X133577685Y-91066450D01*
X133675232Y-90883954D01*
X133735300Y-90685934D01*
X133755583Y-90480000D01*
X133735300Y-90274066D01*
X133735299Y-90274063D01*
X133735299Y-90274061D01*
X133675234Y-90076052D01*
X133675233Y-90076051D01*
X133675232Y-90076046D01*
X133577685Y-89893550D01*
X133446410Y-89733590D01*
X133286450Y-89602315D01*
X133286448Y-89602314D01*
X133286447Y-89602313D01*
X133222871Y-89568331D01*
X133103954Y-89504768D01*
X133103950Y-89504767D01*
X133103947Y-89504765D01*
X133103948Y-89504765D01*
X132905937Y-89444700D01*
X132905938Y-89444700D01*
X132700001Y-89424417D01*
X132699999Y-89424417D01*
X132494061Y-89444700D01*
X132296052Y-89504765D01*
X132113552Y-89602313D01*
X131953591Y-89733589D01*
X131953589Y-89733591D01*
X131822313Y-89893552D01*
X131724765Y-90076052D01*
X131664700Y-90274061D01*
X131644417Y-90479998D01*
X131100500Y-90479998D01*
X131100500Y-87939998D01*
X131644417Y-87939998D01*
X131644417Y-87940001D01*
X131664700Y-88145938D01*
X131724765Y-88343947D01*
X131724767Y-88343950D01*
X131724768Y-88343954D01*
X131822315Y-88526450D01*
X131953590Y-88686410D01*
X132113550Y-88817685D01*
X132296046Y-88915232D01*
X132296051Y-88915233D01*
X132296052Y-88915234D01*
X132296051Y-88915234D01*
X132494062Y-88975299D01*
X132494063Y-88975299D01*
X132494066Y-88975300D01*
X132666529Y-88992286D01*
X132699999Y-88995583D01*
X132700000Y-88995583D01*
X132700001Y-88995583D01*
X132728791Y-88992747D01*
X132905934Y-88975300D01*
X132905936Y-88975299D01*
X132905938Y-88975299D01*
X133103947Y-88915234D01*
X133103946Y-88915234D01*
X133103954Y-88915232D01*
X133286450Y-88817685D01*
X133446410Y-88686410D01*
X133577685Y-88526450D01*
X133675232Y-88343954D01*
X133735300Y-88145934D01*
X133755583Y-87940000D01*
X133735300Y-87734066D01*
X133735299Y-87734063D01*
X133735299Y-87734061D01*
X133675234Y-87536052D01*
X133675233Y-87536051D01*
X133675232Y-87536046D01*
X133577685Y-87353550D01*
X133446410Y-87193590D01*
X133286450Y-87062315D01*
X133286448Y-87062314D01*
X133286447Y-87062313D01*
X133222871Y-87028331D01*
X133103954Y-86964768D01*
X133103950Y-86964767D01*
X133103947Y-86964765D01*
X133103948Y-86964765D01*
X132905937Y-86904700D01*
X132905938Y-86904700D01*
X132700001Y-86884417D01*
X132699999Y-86884417D01*
X132494061Y-86904700D01*
X132296052Y-86964765D01*
X132113552Y-87062313D01*
X131953591Y-87193589D01*
X131953589Y-87193591D01*
X131822313Y-87353552D01*
X131724765Y-87536052D01*
X131664700Y-87734061D01*
X131644417Y-87939998D01*
X131100500Y-87939998D01*
X131100500Y-85399998D01*
X131644417Y-85399998D01*
X131644417Y-85400001D01*
X131664700Y-85605938D01*
X131724765Y-85803947D01*
X131724767Y-85803950D01*
X131724768Y-85803954D01*
X131822315Y-85986450D01*
X131953590Y-86146410D01*
X132113550Y-86277685D01*
X132296046Y-86375232D01*
X132296051Y-86375233D01*
X132296052Y-86375234D01*
X132296051Y-86375234D01*
X132494062Y-86435299D01*
X132494063Y-86435299D01*
X132494066Y-86435300D01*
X132666529Y-86452286D01*
X132699999Y-86455583D01*
X132700000Y-86455583D01*
X132700001Y-86455583D01*
X132728791Y-86452747D01*
X132905934Y-86435300D01*
X132905936Y-86435299D01*
X132905938Y-86435299D01*
X133031391Y-86397243D01*
X133103954Y-86375232D01*
X133286450Y-86277685D01*
X133446410Y-86146410D01*
X133577685Y-85986450D01*
X133675232Y-85803954D01*
X133735300Y-85605934D01*
X133755583Y-85400000D01*
X133735300Y-85194066D01*
X133735299Y-85194063D01*
X133735299Y-85194061D01*
X133675234Y-84996052D01*
X133675233Y-84996051D01*
X133675232Y-84996046D01*
X133577685Y-84813550D01*
X133446410Y-84653590D01*
X133286450Y-84522315D01*
X133286448Y-84522314D01*
X133286447Y-84522313D01*
X133172988Y-84461668D01*
X133103954Y-84424768D01*
X133103950Y-84424767D01*
X133103947Y-84424765D01*
X133103948Y-84424765D01*
X132905937Y-84364700D01*
X132905938Y-84364700D01*
X132700001Y-84344417D01*
X132699999Y-84344417D01*
X132494061Y-84364700D01*
X132296052Y-84424765D01*
X132113552Y-84522313D01*
X131953591Y-84653589D01*
X131953589Y-84653591D01*
X131822313Y-84813552D01*
X131763599Y-84923399D01*
X131725331Y-84994994D01*
X131724765Y-84996052D01*
X131664700Y-85194061D01*
X131644417Y-85399998D01*
X131100500Y-85399998D01*
X131100500Y-82859998D01*
X131644417Y-82859998D01*
X131644417Y-82860001D01*
X131664700Y-83065938D01*
X131724765Y-83263947D01*
X131724767Y-83263950D01*
X131724768Y-83263954D01*
X131822315Y-83446450D01*
X131953590Y-83606410D01*
X132113550Y-83737685D01*
X132296046Y-83835232D01*
X132296051Y-83835233D01*
X132296052Y-83835234D01*
X132296051Y-83835234D01*
X132494062Y-83895299D01*
X132494063Y-83895299D01*
X132494066Y-83895300D01*
X132666529Y-83912286D01*
X132699999Y-83915583D01*
X132700000Y-83915583D01*
X132700001Y-83915583D01*
X132728791Y-83912747D01*
X132905934Y-83895300D01*
X132905936Y-83895299D01*
X132905938Y-83895299D01*
X133103947Y-83835234D01*
X133103946Y-83835234D01*
X133103954Y-83835232D01*
X133286450Y-83737685D01*
X133446410Y-83606410D01*
X133577685Y-83446450D01*
X133675232Y-83263954D01*
X133735300Y-83065934D01*
X133755583Y-82860000D01*
X133735300Y-82654066D01*
X133735299Y-82654063D01*
X133735299Y-82654061D01*
X133675234Y-82456052D01*
X133675233Y-82456051D01*
X133675232Y-82456046D01*
X133577685Y-82273550D01*
X133446410Y-82113590D01*
X133286450Y-81982315D01*
X133286448Y-81982314D01*
X133286447Y-81982313D01*
X133222871Y-81948331D01*
X133103954Y-81884768D01*
X133103950Y-81884767D01*
X133103947Y-81884765D01*
X133103948Y-81884765D01*
X132905937Y-81824700D01*
X132905938Y-81824700D01*
X132700001Y-81804417D01*
X132699999Y-81804417D01*
X132494061Y-81824700D01*
X132296052Y-81884765D01*
X132113552Y-81982313D01*
X131953591Y-82113589D01*
X131953589Y-82113591D01*
X131822313Y-82273552D01*
X131724765Y-82456052D01*
X131664700Y-82654061D01*
X131644417Y-82859998D01*
X131100500Y-82859998D01*
X131100500Y-80319998D01*
X131644417Y-80319998D01*
X131644417Y-80320001D01*
X131664700Y-80525938D01*
X131724765Y-80723947D01*
X131724767Y-80723950D01*
X131724768Y-80723954D01*
X131822315Y-80906450D01*
X131953590Y-81066410D01*
X132113550Y-81197685D01*
X132296046Y-81295232D01*
X132296051Y-81295233D01*
X132296052Y-81295234D01*
X132296051Y-81295234D01*
X132494062Y-81355299D01*
X132494063Y-81355299D01*
X132494066Y-81355300D01*
X132666529Y-81372286D01*
X132699999Y-81375583D01*
X132700000Y-81375583D01*
X132700001Y-81375583D01*
X132728791Y-81372747D01*
X132905934Y-81355300D01*
X132905936Y-81355299D01*
X132905938Y-81355299D01*
X133103947Y-81295234D01*
X133103946Y-81295234D01*
X133103954Y-81295232D01*
X133286450Y-81197685D01*
X133446410Y-81066410D01*
X133577685Y-80906450D01*
X133675232Y-80723954D01*
X133735300Y-80525934D01*
X133755583Y-80320000D01*
X133735300Y-80114066D01*
X133735299Y-80114063D01*
X133735299Y-80114061D01*
X133675234Y-79916052D01*
X133675233Y-79916051D01*
X133675232Y-79916046D01*
X133577685Y-79733550D01*
X133446410Y-79573590D01*
X133286450Y-79442315D01*
X133286448Y-79442314D01*
X133286447Y-79442313D01*
X133207137Y-79399921D01*
X133103954Y-79344768D01*
X133103950Y-79344767D01*
X133103947Y-79344765D01*
X133103948Y-79344765D01*
X132905937Y-79284700D01*
X132905938Y-79284700D01*
X132700001Y-79264417D01*
X132699999Y-79264417D01*
X132494061Y-79284700D01*
X132296052Y-79344765D01*
X132296046Y-79344767D01*
X132296046Y-79344768D01*
X132285012Y-79350666D01*
X132113552Y-79442313D01*
X131953591Y-79573589D01*
X131953589Y-79573591D01*
X131822313Y-79733552D01*
X131724765Y-79916052D01*
X131664700Y-80114061D01*
X131644417Y-80319998D01*
X131100500Y-80319998D01*
X131100500Y-77779998D01*
X131644417Y-77779998D01*
X131644417Y-77780001D01*
X131664700Y-77985938D01*
X131724765Y-78183947D01*
X131724767Y-78183950D01*
X131724768Y-78183954D01*
X131743270Y-78218568D01*
X131811369Y-78345973D01*
X131822315Y-78366450D01*
X131953590Y-78526410D01*
X132113550Y-78657685D01*
X132296046Y-78755232D01*
X132296051Y-78755233D01*
X132296052Y-78755234D01*
X132296051Y-78755234D01*
X132494062Y-78815299D01*
X132494063Y-78815299D01*
X132494066Y-78815300D01*
X132666529Y-78832286D01*
X132699999Y-78835583D01*
X132700000Y-78835583D01*
X132700001Y-78835583D01*
X132728791Y-78832747D01*
X132905934Y-78815300D01*
X132905936Y-78815299D01*
X132905938Y-78815299D01*
X133103947Y-78755234D01*
X133103946Y-78755234D01*
X133103954Y-78755232D01*
X133286450Y-78657685D01*
X133446410Y-78526410D01*
X133577685Y-78366450D01*
X133675232Y-78183954D01*
X133706849Y-78079726D01*
X133735299Y-77985938D01*
X133735299Y-77985936D01*
X133735300Y-77985934D01*
X133753305Y-77803129D01*
X133755583Y-77780001D01*
X133755583Y-77779998D01*
X133738438Y-77605926D01*
X133735300Y-77574066D01*
X133735299Y-77574063D01*
X133735299Y-77574061D01*
X133675234Y-77376052D01*
X133675233Y-77376051D01*
X133675232Y-77376046D01*
X133577685Y-77193550D01*
X133446410Y-77033590D01*
X133286450Y-76902315D01*
X133286448Y-76902314D01*
X133286447Y-76902313D01*
X133222871Y-76868331D01*
X133103954Y-76804768D01*
X133103950Y-76804767D01*
X133103947Y-76804765D01*
X133103948Y-76804765D01*
X132905937Y-76744700D01*
X132905938Y-76744700D01*
X132700001Y-76724417D01*
X132699999Y-76724417D01*
X132494061Y-76744700D01*
X132296052Y-76804765D01*
X132113552Y-76902313D01*
X131953591Y-77033589D01*
X131953589Y-77033591D01*
X131822313Y-77193552D01*
X131724765Y-77376052D01*
X131664700Y-77574061D01*
X131644417Y-77779998D01*
X131100500Y-77779998D01*
X131100500Y-76431836D01*
X133887200Y-76431836D01*
X133887200Y-108200687D01*
X133887200Y-108305713D01*
X133927392Y-108402744D01*
X134662333Y-109137685D01*
X135309198Y-109784550D01*
X135322085Y-109815663D01*
X135321543Y-109822545D01*
X135317196Y-109849996D01*
X135317196Y-109850002D01*
X135338279Y-109983122D01*
X135338280Y-109983123D01*
X135338280Y-109983124D01*
X135338281Y-109983126D01*
X135399472Y-110103220D01*
X135494780Y-110198528D01*
X135614874Y-110259719D01*
X135614876Y-110259719D01*
X135614877Y-110259720D01*
X135747998Y-110280804D01*
X135748000Y-110280804D01*
X135748002Y-110280804D01*
X135881122Y-110259720D01*
X135881122Y-110259719D01*
X135881126Y-110259719D01*
X136001220Y-110198528D01*
X136096528Y-110103220D01*
X136157719Y-109983126D01*
X136167351Y-109922315D01*
X136178804Y-109850002D01*
X136178804Y-109849997D01*
X154621196Y-109849997D01*
X154621196Y-109850002D01*
X154642279Y-109983122D01*
X154642280Y-109983123D01*
X154642280Y-109983124D01*
X154642281Y-109983126D01*
X154703472Y-110103220D01*
X154798780Y-110198528D01*
X154918874Y-110259719D01*
X154918876Y-110259719D01*
X154918877Y-110259720D01*
X155051998Y-110280804D01*
X155052000Y-110280804D01*
X155052002Y-110280804D01*
X155185122Y-110259720D01*
X155185122Y-110259719D01*
X155185126Y-110259719D01*
X155305220Y-110198528D01*
X155400528Y-110103220D01*
X155461719Y-109983126D01*
X155471351Y-109922315D01*
X155482804Y-109850002D01*
X155482804Y-109849997D01*
X155461720Y-109716877D01*
X155461719Y-109716876D01*
X155461719Y-109716874D01*
X155400528Y-109596780D01*
X155305220Y-109501472D01*
X155185126Y-109440281D01*
X155185124Y-109440280D01*
X155185123Y-109440280D01*
X155185122Y-109440279D01*
X155052002Y-109419196D01*
X155051998Y-109419196D01*
X154918877Y-109440279D01*
X154918876Y-109440280D01*
X154798781Y-109501471D01*
X154703471Y-109596781D01*
X154642280Y-109716876D01*
X154642279Y-109716877D01*
X154621196Y-109849997D01*
X136178804Y-109849997D01*
X136157720Y-109716877D01*
X136157719Y-109716876D01*
X136157719Y-109716874D01*
X136096528Y-109596780D01*
X136001220Y-109501472D01*
X135881126Y-109440281D01*
X135881124Y-109440280D01*
X135881123Y-109440280D01*
X135881122Y-109440279D01*
X135748002Y-109419196D01*
X135747996Y-109419196D01*
X135720545Y-109423543D01*
X135687799Y-109415681D01*
X135682550Y-109411198D01*
X134428087Y-108156735D01*
X134415200Y-108125622D01*
X134415200Y-77425837D01*
X134518800Y-77425837D01*
X134518800Y-83615003D01*
X134548084Y-83743303D01*
X134605182Y-83861870D01*
X134605183Y-83861871D01*
X134605184Y-83861873D01*
X134687237Y-83964763D01*
X134790127Y-84046816D01*
X134908697Y-84103916D01*
X135036999Y-84133200D01*
X135050287Y-84133200D01*
X135246250Y-84133200D01*
X135287005Y-84133200D01*
X135298392Y-84134699D01*
X135309410Y-84137651D01*
X135329136Y-84149039D01*
X135332960Y-84152863D01*
X135344347Y-84172585D01*
X135347300Y-84183603D01*
X135348800Y-84194994D01*
X135348800Y-84343405D01*
X135347300Y-84354796D01*
X135344347Y-84365814D01*
X135332960Y-84385536D01*
X135329136Y-84389360D01*
X135309414Y-84400747D01*
X135298396Y-84403700D01*
X135287005Y-84405200D01*
X135036996Y-84405200D01*
X134908696Y-84434484D01*
X134790129Y-84491582D01*
X134687237Y-84573637D01*
X134605182Y-84676529D01*
X134548084Y-84795096D01*
X134518800Y-84923396D01*
X134518800Y-84923399D01*
X134518800Y-84936687D01*
X134518800Y-85096687D01*
X134518800Y-85531725D01*
X134518800Y-107562287D01*
X134518800Y-107667313D01*
X134558992Y-107764344D01*
X134935846Y-108141198D01*
X135309198Y-108514550D01*
X135322085Y-108545663D01*
X135321543Y-108552545D01*
X135317196Y-108579996D01*
X135317196Y-108580002D01*
X135338279Y-108713122D01*
X135338280Y-108713123D01*
X135338280Y-108713124D01*
X135338281Y-108713126D01*
X135399472Y-108833220D01*
X135494780Y-108928528D01*
X135614874Y-108989719D01*
X135614876Y-108989719D01*
X135614877Y-108989720D01*
X135747998Y-109010804D01*
X135748000Y-109010804D01*
X135748002Y-109010804D01*
X135881122Y-108989720D01*
X135881122Y-108989719D01*
X135881126Y-108989719D01*
X136001220Y-108928528D01*
X136096528Y-108833220D01*
X136157719Y-108713126D01*
X136165509Y-108663947D01*
X136178804Y-108580002D01*
X136178804Y-108579997D01*
X154621196Y-108579997D01*
X154621196Y-108580002D01*
X154642279Y-108713122D01*
X154642280Y-108713123D01*
X154642280Y-108713124D01*
X154642281Y-108713126D01*
X154703472Y-108833220D01*
X154798780Y-108928528D01*
X154918874Y-108989719D01*
X154918876Y-108989719D01*
X154918877Y-108989720D01*
X155051998Y-109010804D01*
X155052000Y-109010804D01*
X155052002Y-109010804D01*
X155185122Y-108989720D01*
X155185122Y-108989719D01*
X155185126Y-108989719D01*
X155305220Y-108928528D01*
X155400528Y-108833220D01*
X155461719Y-108713126D01*
X155469509Y-108663947D01*
X155482804Y-108580002D01*
X155482804Y-108579997D01*
X155461720Y-108446877D01*
X155461719Y-108446876D01*
X155461719Y-108446874D01*
X155400528Y-108326780D01*
X155305220Y-108231472D01*
X155185126Y-108170281D01*
X155185124Y-108170280D01*
X155185123Y-108170280D01*
X155185122Y-108170279D01*
X155052002Y-108149196D01*
X155051998Y-108149196D01*
X154918877Y-108170279D01*
X154918876Y-108170280D01*
X154798781Y-108231471D01*
X154703471Y-108326781D01*
X154642280Y-108446876D01*
X154642279Y-108446877D01*
X154621196Y-108579997D01*
X136178804Y-108579997D01*
X136157720Y-108446877D01*
X136157719Y-108446876D01*
X136157719Y-108446874D01*
X136096528Y-108326780D01*
X136001220Y-108231472D01*
X135881126Y-108170281D01*
X135881124Y-108170280D01*
X135881123Y-108170280D01*
X135881122Y-108170279D01*
X135748002Y-108149196D01*
X135747996Y-108149196D01*
X135720545Y-108153543D01*
X135687799Y-108145681D01*
X135682550Y-108141198D01*
X135059687Y-107518334D01*
X135046800Y-107487221D01*
X135046800Y-107309997D01*
X135317196Y-107309997D01*
X135317196Y-107310002D01*
X135338279Y-107443122D01*
X135338280Y-107443123D01*
X135338280Y-107443124D01*
X135338281Y-107443126D01*
X135399472Y-107563220D01*
X135494780Y-107658528D01*
X135614874Y-107719719D01*
X135614876Y-107719719D01*
X135614877Y-107719720D01*
X135747998Y-107740804D01*
X135748000Y-107740804D01*
X135748002Y-107740804D01*
X135881122Y-107719720D01*
X135881122Y-107719719D01*
X135881126Y-107719719D01*
X136001220Y-107658528D01*
X136096528Y-107563220D01*
X136157719Y-107443126D01*
X136167351Y-107382315D01*
X136178804Y-107310002D01*
X136178804Y-107309997D01*
X154621196Y-107309997D01*
X154621196Y-107310002D01*
X154642279Y-107443122D01*
X154642280Y-107443123D01*
X154642280Y-107443124D01*
X154642281Y-107443126D01*
X154703472Y-107563220D01*
X154798780Y-107658528D01*
X154918874Y-107719719D01*
X154918876Y-107719719D01*
X154918877Y-107719720D01*
X155051998Y-107740804D01*
X155052000Y-107740804D01*
X155052002Y-107740804D01*
X155185122Y-107719720D01*
X155185122Y-107719719D01*
X155185126Y-107719719D01*
X155305220Y-107658528D01*
X155400528Y-107563220D01*
X155461719Y-107443126D01*
X155471351Y-107382315D01*
X155482804Y-107310002D01*
X155482804Y-107309997D01*
X155461720Y-107176877D01*
X155461719Y-107176876D01*
X155461719Y-107176874D01*
X155400528Y-107056780D01*
X155305220Y-106961472D01*
X155185126Y-106900281D01*
X155185124Y-106900280D01*
X155185123Y-106900280D01*
X155185122Y-106900279D01*
X155052002Y-106879196D01*
X155051998Y-106879196D01*
X154918877Y-106900279D01*
X154918876Y-106900280D01*
X154798781Y-106961471D01*
X154703471Y-107056781D01*
X154642280Y-107176876D01*
X154642279Y-107176877D01*
X154621196Y-107309997D01*
X136178804Y-107309997D01*
X136157720Y-107176877D01*
X136157719Y-107176876D01*
X136157719Y-107176874D01*
X136096528Y-107056780D01*
X136001220Y-106961472D01*
X135881126Y-106900281D01*
X135881124Y-106900280D01*
X135881123Y-106900280D01*
X135881122Y-106900279D01*
X135748002Y-106879196D01*
X135747998Y-106879196D01*
X135614877Y-106900279D01*
X135614876Y-106900280D01*
X135494781Y-106961471D01*
X135399471Y-107056781D01*
X135338280Y-107176876D01*
X135338279Y-107176877D01*
X135317196Y-107309997D01*
X135046800Y-107309997D01*
X135046800Y-106039997D01*
X135317196Y-106039997D01*
X135317196Y-106040002D01*
X135338279Y-106173122D01*
X135338280Y-106173123D01*
X135338280Y-106173124D01*
X135338281Y-106173126D01*
X135399472Y-106293220D01*
X135494780Y-106388528D01*
X135614874Y-106449719D01*
X135614876Y-106449719D01*
X135614877Y-106449720D01*
X135747998Y-106470804D01*
X135748000Y-106470804D01*
X135748002Y-106470804D01*
X135881122Y-106449720D01*
X135881122Y-106449719D01*
X135881126Y-106449719D01*
X136001220Y-106388528D01*
X136096528Y-106293220D01*
X136157719Y-106173126D01*
X136165509Y-106123947D01*
X136178804Y-106040002D01*
X136178804Y-106039997D01*
X154621196Y-106039997D01*
X154621196Y-106040002D01*
X154642279Y-106173122D01*
X154642280Y-106173123D01*
X154642280Y-106173124D01*
X154642281Y-106173126D01*
X154703472Y-106293220D01*
X154798780Y-106388528D01*
X154918874Y-106449719D01*
X154918876Y-106449719D01*
X154918877Y-106449720D01*
X155051998Y-106470804D01*
X155052000Y-106470804D01*
X155052002Y-106470804D01*
X155185122Y-106449720D01*
X155185122Y-106449719D01*
X155185126Y-106449719D01*
X155305220Y-106388528D01*
X155400528Y-106293220D01*
X155461719Y-106173126D01*
X155469509Y-106123947D01*
X155482804Y-106040002D01*
X155482804Y-106039997D01*
X155461720Y-105906877D01*
X155461719Y-105906876D01*
X155461719Y-105906874D01*
X155400528Y-105786780D01*
X155305220Y-105691472D01*
X155185126Y-105630281D01*
X155185124Y-105630280D01*
X155185123Y-105630280D01*
X155185122Y-105630279D01*
X155052002Y-105609196D01*
X155051998Y-105609196D01*
X154918877Y-105630279D01*
X154918876Y-105630280D01*
X154798781Y-105691471D01*
X154703471Y-105786781D01*
X154642280Y-105906876D01*
X154642279Y-105906877D01*
X154621196Y-106039997D01*
X136178804Y-106039997D01*
X136157720Y-105906877D01*
X136157719Y-105906876D01*
X136157719Y-105906874D01*
X136096528Y-105786780D01*
X136001220Y-105691472D01*
X135881126Y-105630281D01*
X135881124Y-105630280D01*
X135881123Y-105630280D01*
X135881122Y-105630279D01*
X135748002Y-105609196D01*
X135747998Y-105609196D01*
X135614877Y-105630279D01*
X135614876Y-105630280D01*
X135494781Y-105691471D01*
X135399471Y-105786781D01*
X135338280Y-105906876D01*
X135338279Y-105906877D01*
X135317196Y-106039997D01*
X135046800Y-106039997D01*
X135046800Y-104769997D01*
X135317196Y-104769997D01*
X135317196Y-104770002D01*
X135338279Y-104903122D01*
X135338280Y-104903123D01*
X135338280Y-104903124D01*
X135338281Y-104903126D01*
X135399472Y-105023220D01*
X135494780Y-105118528D01*
X135614874Y-105179719D01*
X135614876Y-105179719D01*
X135614877Y-105179720D01*
X135747998Y-105200804D01*
X135748000Y-105200804D01*
X135748002Y-105200804D01*
X135881122Y-105179720D01*
X135881122Y-105179719D01*
X135881126Y-105179719D01*
X136001220Y-105118528D01*
X136096528Y-105023220D01*
X136157719Y-104903126D01*
X136167351Y-104842315D01*
X136178804Y-104770002D01*
X136178804Y-104769997D01*
X154621196Y-104769997D01*
X154621196Y-104770002D01*
X154642279Y-104903122D01*
X154642280Y-104903123D01*
X154642280Y-104903124D01*
X154642281Y-104903126D01*
X154703472Y-105023220D01*
X154798780Y-105118528D01*
X154918874Y-105179719D01*
X154918876Y-105179719D01*
X154918877Y-105179720D01*
X155051998Y-105200804D01*
X155052000Y-105200804D01*
X155052002Y-105200804D01*
X155185122Y-105179720D01*
X155185122Y-105179719D01*
X155185126Y-105179719D01*
X155305220Y-105118528D01*
X155400528Y-105023220D01*
X155461719Y-104903126D01*
X155471351Y-104842315D01*
X155482804Y-104770002D01*
X155482804Y-104769997D01*
X155461720Y-104636877D01*
X155461719Y-104636876D01*
X155461719Y-104636874D01*
X155400528Y-104516780D01*
X155305220Y-104421472D01*
X155185126Y-104360281D01*
X155185124Y-104360280D01*
X155185123Y-104360280D01*
X155185122Y-104360279D01*
X155052002Y-104339196D01*
X155051998Y-104339196D01*
X154918877Y-104360279D01*
X154918876Y-104360280D01*
X154798781Y-104421471D01*
X154703471Y-104516781D01*
X154642280Y-104636876D01*
X154642279Y-104636877D01*
X154621196Y-104769997D01*
X136178804Y-104769997D01*
X136157720Y-104636877D01*
X136157719Y-104636876D01*
X136157719Y-104636874D01*
X136096528Y-104516780D01*
X136001220Y-104421472D01*
X135881126Y-104360281D01*
X135881124Y-104360280D01*
X135881123Y-104360280D01*
X135881122Y-104360279D01*
X135748002Y-104339196D01*
X135747998Y-104339196D01*
X135614877Y-104360279D01*
X135614876Y-104360280D01*
X135494781Y-104421471D01*
X135399471Y-104516781D01*
X135338280Y-104636876D01*
X135338279Y-104636877D01*
X135317196Y-104769997D01*
X135046800Y-104769997D01*
X135046800Y-103499997D01*
X135317196Y-103499997D01*
X135317196Y-103500002D01*
X135338279Y-103633122D01*
X135338280Y-103633123D01*
X135338280Y-103633124D01*
X135338281Y-103633126D01*
X135399472Y-103753220D01*
X135494780Y-103848528D01*
X135614874Y-103909719D01*
X135614876Y-103909719D01*
X135614877Y-103909720D01*
X135747998Y-103930804D01*
X135748000Y-103930804D01*
X135748002Y-103930804D01*
X135881122Y-103909720D01*
X135881122Y-103909719D01*
X135881126Y-103909719D01*
X136001220Y-103848528D01*
X136096528Y-103753220D01*
X136157719Y-103633126D01*
X136165509Y-103583947D01*
X136178804Y-103500002D01*
X136178804Y-103499997D01*
X154621196Y-103499997D01*
X154621196Y-103500002D01*
X154642279Y-103633122D01*
X154642280Y-103633123D01*
X154642280Y-103633124D01*
X154642281Y-103633126D01*
X154703472Y-103753220D01*
X154798780Y-103848528D01*
X154918874Y-103909719D01*
X154918876Y-103909719D01*
X154918877Y-103909720D01*
X155051998Y-103930804D01*
X155052000Y-103930804D01*
X155052002Y-103930804D01*
X155185122Y-103909720D01*
X155185122Y-103909719D01*
X155185126Y-103909719D01*
X155305220Y-103848528D01*
X155400528Y-103753220D01*
X155461719Y-103633126D01*
X155469509Y-103583947D01*
X155482804Y-103500002D01*
X155482804Y-103499997D01*
X155461720Y-103366877D01*
X155461719Y-103366876D01*
X155461719Y-103366874D01*
X155400528Y-103246780D01*
X155305220Y-103151472D01*
X155185126Y-103090281D01*
X155185124Y-103090280D01*
X155185123Y-103090280D01*
X155185122Y-103090279D01*
X155052002Y-103069196D01*
X155051998Y-103069196D01*
X154918877Y-103090279D01*
X154918876Y-103090280D01*
X154798781Y-103151471D01*
X154703471Y-103246781D01*
X154642280Y-103366876D01*
X154642279Y-103366877D01*
X154621196Y-103499997D01*
X136178804Y-103499997D01*
X136157720Y-103366877D01*
X136157719Y-103366876D01*
X136157719Y-103366874D01*
X136096528Y-103246780D01*
X136001220Y-103151472D01*
X135881126Y-103090281D01*
X135881124Y-103090280D01*
X135881123Y-103090280D01*
X135881122Y-103090279D01*
X135748002Y-103069196D01*
X135747998Y-103069196D01*
X135614877Y-103090279D01*
X135614876Y-103090280D01*
X135494781Y-103151471D01*
X135399471Y-103246781D01*
X135338280Y-103366876D01*
X135338279Y-103366877D01*
X135317196Y-103499997D01*
X135046800Y-103499997D01*
X135046800Y-102229997D01*
X135317196Y-102229997D01*
X135317196Y-102230002D01*
X135338279Y-102363122D01*
X135338280Y-102363123D01*
X135338280Y-102363124D01*
X135338281Y-102363126D01*
X135399472Y-102483220D01*
X135494780Y-102578528D01*
X135614874Y-102639719D01*
X135614876Y-102639719D01*
X135614877Y-102639720D01*
X135747998Y-102660804D01*
X135748000Y-102660804D01*
X135748002Y-102660804D01*
X135881122Y-102639720D01*
X135881122Y-102639719D01*
X135881126Y-102639719D01*
X136001220Y-102578528D01*
X136096528Y-102483220D01*
X136157719Y-102363126D01*
X136167351Y-102302315D01*
X136178804Y-102230002D01*
X136178804Y-102229997D01*
X154621196Y-102229997D01*
X154621196Y-102230002D01*
X154642279Y-102363122D01*
X154642280Y-102363123D01*
X154642280Y-102363124D01*
X154642281Y-102363126D01*
X154703472Y-102483220D01*
X154798780Y-102578528D01*
X154918874Y-102639719D01*
X154918876Y-102639719D01*
X154918877Y-102639720D01*
X155051998Y-102660804D01*
X155052000Y-102660804D01*
X155052002Y-102660804D01*
X155185122Y-102639720D01*
X155185122Y-102639719D01*
X155185126Y-102639719D01*
X155305220Y-102578528D01*
X155400528Y-102483220D01*
X155461719Y-102363126D01*
X155471351Y-102302315D01*
X155482804Y-102230002D01*
X155482804Y-102229997D01*
X155461720Y-102096877D01*
X155461719Y-102096876D01*
X155461719Y-102096874D01*
X155400528Y-101976780D01*
X155305220Y-101881472D01*
X155185126Y-101820281D01*
X155185124Y-101820280D01*
X155185123Y-101820280D01*
X155185122Y-101820279D01*
X155052002Y-101799196D01*
X155051998Y-101799196D01*
X154918877Y-101820279D01*
X154918876Y-101820280D01*
X154798781Y-101881471D01*
X154703471Y-101976781D01*
X154642280Y-102096876D01*
X154642279Y-102096877D01*
X154621196Y-102229997D01*
X136178804Y-102229997D01*
X136157720Y-102096877D01*
X136157719Y-102096876D01*
X136157719Y-102096874D01*
X136096528Y-101976780D01*
X136001220Y-101881472D01*
X135881126Y-101820281D01*
X135881124Y-101820280D01*
X135881123Y-101820280D01*
X135881122Y-101820279D01*
X135748002Y-101799196D01*
X135747998Y-101799196D01*
X135614877Y-101820279D01*
X135614876Y-101820280D01*
X135494781Y-101881471D01*
X135399471Y-101976781D01*
X135338280Y-102096876D01*
X135338279Y-102096877D01*
X135317196Y-102229997D01*
X135046800Y-102229997D01*
X135046800Y-100959997D01*
X135317196Y-100959997D01*
X135317196Y-100960002D01*
X135338279Y-101093122D01*
X135338280Y-101093123D01*
X135338280Y-101093124D01*
X135338281Y-101093126D01*
X135399472Y-101213220D01*
X135494780Y-101308528D01*
X135614874Y-101369719D01*
X135614876Y-101369719D01*
X135614877Y-101369720D01*
X135747998Y-101390804D01*
X135748000Y-101390804D01*
X135748002Y-101390804D01*
X135881122Y-101369720D01*
X135881122Y-101369719D01*
X135881126Y-101369719D01*
X136001220Y-101308528D01*
X136096528Y-101213220D01*
X136157719Y-101093126D01*
X136165509Y-101043947D01*
X136178804Y-100960002D01*
X136178804Y-100959997D01*
X154621196Y-100959997D01*
X154621196Y-100960002D01*
X154642279Y-101093122D01*
X154642280Y-101093123D01*
X154642280Y-101093124D01*
X154642281Y-101093126D01*
X154703472Y-101213220D01*
X154798780Y-101308528D01*
X154918874Y-101369719D01*
X154918876Y-101369719D01*
X154918877Y-101369720D01*
X155051998Y-101390804D01*
X155052000Y-101390804D01*
X155052002Y-101390804D01*
X155185122Y-101369720D01*
X155185122Y-101369719D01*
X155185126Y-101369719D01*
X155305220Y-101308528D01*
X155400528Y-101213220D01*
X155461719Y-101093126D01*
X155469509Y-101043947D01*
X155482804Y-100960002D01*
X155482804Y-100959997D01*
X155461720Y-100826877D01*
X155461719Y-100826876D01*
X155461719Y-100826874D01*
X155400528Y-100706780D01*
X155305220Y-100611472D01*
X155185126Y-100550281D01*
X155185124Y-100550280D01*
X155185123Y-100550280D01*
X155185122Y-100550279D01*
X155052002Y-100529196D01*
X155051998Y-100529196D01*
X154918877Y-100550279D01*
X154918876Y-100550280D01*
X154798781Y-100611471D01*
X154703471Y-100706781D01*
X154642280Y-100826876D01*
X154642279Y-100826877D01*
X154621196Y-100959997D01*
X136178804Y-100959997D01*
X136157720Y-100826877D01*
X136157719Y-100826876D01*
X136157719Y-100826874D01*
X136096528Y-100706780D01*
X136001220Y-100611472D01*
X135881126Y-100550281D01*
X135881124Y-100550280D01*
X135881123Y-100550280D01*
X135881122Y-100550279D01*
X135748002Y-100529196D01*
X135747998Y-100529196D01*
X135614877Y-100550279D01*
X135614876Y-100550280D01*
X135494781Y-100611471D01*
X135399471Y-100706781D01*
X135338280Y-100826876D01*
X135338279Y-100826877D01*
X135317196Y-100959997D01*
X135046800Y-100959997D01*
X135046800Y-99689997D01*
X135317196Y-99689997D01*
X135317196Y-99690002D01*
X135338279Y-99823122D01*
X135338280Y-99823123D01*
X135338280Y-99823124D01*
X135338281Y-99823126D01*
X135399472Y-99943220D01*
X135494780Y-100038528D01*
X135614874Y-100099719D01*
X135614876Y-100099719D01*
X135614877Y-100099720D01*
X135747998Y-100120804D01*
X135748000Y-100120804D01*
X135748002Y-100120804D01*
X135881122Y-100099720D01*
X135881122Y-100099719D01*
X135881126Y-100099719D01*
X136001220Y-100038528D01*
X136096528Y-99943220D01*
X136157719Y-99823126D01*
X136167351Y-99762315D01*
X136178804Y-99690002D01*
X136178804Y-99689997D01*
X154621196Y-99689997D01*
X154621196Y-99690002D01*
X154642279Y-99823122D01*
X154642280Y-99823123D01*
X154642280Y-99823124D01*
X154642281Y-99823126D01*
X154703472Y-99943220D01*
X154798780Y-100038528D01*
X154918874Y-100099719D01*
X154918876Y-100099719D01*
X154918877Y-100099720D01*
X155051998Y-100120804D01*
X155052000Y-100120804D01*
X155052002Y-100120804D01*
X155185122Y-100099720D01*
X155185122Y-100099719D01*
X155185126Y-100099719D01*
X155305220Y-100038528D01*
X155400528Y-99943220D01*
X155461719Y-99823126D01*
X155471351Y-99762315D01*
X155482804Y-99690002D01*
X155482804Y-99689997D01*
X155461720Y-99556877D01*
X155461719Y-99556876D01*
X155461719Y-99556874D01*
X155400528Y-99436780D01*
X155305220Y-99341472D01*
X155185126Y-99280281D01*
X155185124Y-99280280D01*
X155185123Y-99280280D01*
X155185122Y-99280279D01*
X155052002Y-99259196D01*
X155051998Y-99259196D01*
X154918877Y-99280279D01*
X154918876Y-99280280D01*
X154798781Y-99341471D01*
X154703471Y-99436781D01*
X154642280Y-99556876D01*
X154642279Y-99556877D01*
X154621196Y-99689997D01*
X136178804Y-99689997D01*
X136157720Y-99556877D01*
X136157719Y-99556876D01*
X136157719Y-99556874D01*
X136096528Y-99436780D01*
X136001220Y-99341472D01*
X135881126Y-99280281D01*
X135881124Y-99280280D01*
X135881123Y-99280280D01*
X135881122Y-99280279D01*
X135748002Y-99259196D01*
X135747998Y-99259196D01*
X135614877Y-99280279D01*
X135614876Y-99280280D01*
X135494781Y-99341471D01*
X135399471Y-99436781D01*
X135338280Y-99556876D01*
X135338279Y-99556877D01*
X135317196Y-99689997D01*
X135046800Y-99689997D01*
X135046800Y-98419997D01*
X135317196Y-98419997D01*
X135317196Y-98420002D01*
X135338279Y-98553122D01*
X135338280Y-98553123D01*
X135338280Y-98553124D01*
X135338281Y-98553126D01*
X135399472Y-98673220D01*
X135494780Y-98768528D01*
X135614874Y-98829719D01*
X135614876Y-98829719D01*
X135614877Y-98829720D01*
X135747998Y-98850804D01*
X135748000Y-98850804D01*
X135748002Y-98850804D01*
X135881122Y-98829720D01*
X135881122Y-98829719D01*
X135881126Y-98829719D01*
X136001220Y-98768528D01*
X136096528Y-98673220D01*
X136157719Y-98553126D01*
X136165509Y-98503947D01*
X136178804Y-98420002D01*
X136178804Y-98419997D01*
X154621196Y-98419997D01*
X154621196Y-98420002D01*
X154642279Y-98553122D01*
X154642280Y-98553123D01*
X154642280Y-98553124D01*
X154642281Y-98553126D01*
X154703472Y-98673220D01*
X154798780Y-98768528D01*
X154918874Y-98829719D01*
X154918876Y-98829719D01*
X154918877Y-98829720D01*
X155051998Y-98850804D01*
X155052000Y-98850804D01*
X155052002Y-98850804D01*
X155185122Y-98829720D01*
X155185122Y-98829719D01*
X155185126Y-98829719D01*
X155305220Y-98768528D01*
X155400528Y-98673220D01*
X155461719Y-98553126D01*
X155469509Y-98503947D01*
X155482804Y-98420002D01*
X155482804Y-98419997D01*
X155461720Y-98286877D01*
X155461719Y-98286876D01*
X155461719Y-98286874D01*
X155400528Y-98166780D01*
X155305220Y-98071472D01*
X155185126Y-98010281D01*
X155185124Y-98010280D01*
X155185123Y-98010280D01*
X155185122Y-98010279D01*
X155052002Y-97989196D01*
X155051998Y-97989196D01*
X154918877Y-98010279D01*
X154918876Y-98010280D01*
X154798781Y-98071471D01*
X154703471Y-98166781D01*
X154642280Y-98286876D01*
X154642279Y-98286877D01*
X154621196Y-98419997D01*
X136178804Y-98419997D01*
X136157720Y-98286877D01*
X136157719Y-98286876D01*
X136157719Y-98286874D01*
X136096528Y-98166780D01*
X136001220Y-98071472D01*
X135881126Y-98010281D01*
X135881124Y-98010280D01*
X135881123Y-98010280D01*
X135881122Y-98010279D01*
X135748002Y-97989196D01*
X135747998Y-97989196D01*
X135614877Y-98010279D01*
X135614876Y-98010280D01*
X135494781Y-98071471D01*
X135399471Y-98166781D01*
X135338280Y-98286876D01*
X135338279Y-98286877D01*
X135317196Y-98419997D01*
X135046800Y-98419997D01*
X135046800Y-97149997D01*
X135317196Y-97149997D01*
X135317196Y-97150002D01*
X135338279Y-97283122D01*
X135338280Y-97283123D01*
X135338280Y-97283124D01*
X135338281Y-97283126D01*
X135399472Y-97403220D01*
X135494780Y-97498528D01*
X135614874Y-97559719D01*
X135614876Y-97559719D01*
X135614877Y-97559720D01*
X135747998Y-97580804D01*
X135748000Y-97580804D01*
X135748002Y-97580804D01*
X135881122Y-97559720D01*
X135881122Y-97559719D01*
X135881126Y-97559719D01*
X136001220Y-97498528D01*
X136096528Y-97403220D01*
X136157719Y-97283126D01*
X136167351Y-97222315D01*
X136178804Y-97150002D01*
X136178804Y-97149997D01*
X154621196Y-97149997D01*
X154621196Y-97150002D01*
X154642279Y-97283122D01*
X154642280Y-97283123D01*
X154642280Y-97283124D01*
X154642281Y-97283126D01*
X154703472Y-97403220D01*
X154798780Y-97498528D01*
X154918874Y-97559719D01*
X154918876Y-97559719D01*
X154918877Y-97559720D01*
X155051998Y-97580804D01*
X155052000Y-97580804D01*
X155052002Y-97580804D01*
X155185122Y-97559720D01*
X155185122Y-97559719D01*
X155185126Y-97559719D01*
X155305220Y-97498528D01*
X155400528Y-97403220D01*
X155461719Y-97283126D01*
X155471351Y-97222315D01*
X155482804Y-97150002D01*
X155482804Y-97149997D01*
X155461720Y-97016877D01*
X155461719Y-97016876D01*
X155461719Y-97016874D01*
X155400528Y-96896780D01*
X155305220Y-96801472D01*
X155185126Y-96740281D01*
X155185124Y-96740280D01*
X155185123Y-96740280D01*
X155185122Y-96740279D01*
X155052002Y-96719196D01*
X155051998Y-96719196D01*
X154918877Y-96740279D01*
X154918876Y-96740280D01*
X154798781Y-96801471D01*
X154703471Y-96896781D01*
X154642280Y-97016876D01*
X154642279Y-97016877D01*
X154621196Y-97149997D01*
X136178804Y-97149997D01*
X136157720Y-97016877D01*
X136157719Y-97016876D01*
X136157719Y-97016874D01*
X136096528Y-96896780D01*
X136001220Y-96801472D01*
X135881126Y-96740281D01*
X135881124Y-96740280D01*
X135881123Y-96740280D01*
X135881122Y-96740279D01*
X135748002Y-96719196D01*
X135747998Y-96719196D01*
X135614877Y-96740279D01*
X135614876Y-96740280D01*
X135494781Y-96801471D01*
X135399471Y-96896781D01*
X135338280Y-97016876D01*
X135338279Y-97016877D01*
X135317196Y-97149997D01*
X135046800Y-97149997D01*
X135046800Y-94997997D01*
X137984196Y-94997997D01*
X137984196Y-94998002D01*
X138005279Y-95131122D01*
X138005280Y-95131123D01*
X138005280Y-95131124D01*
X138005281Y-95131126D01*
X138066472Y-95251220D01*
X138161780Y-95346528D01*
X138281874Y-95407719D01*
X138281876Y-95407719D01*
X138281877Y-95407720D01*
X138414998Y-95428804D01*
X138415000Y-95428804D01*
X138415002Y-95428804D01*
X138548122Y-95407720D01*
X138548122Y-95407719D01*
X138548126Y-95407719D01*
X138668220Y-95346528D01*
X138763528Y-95251220D01*
X138824719Y-95131126D01*
X138845804Y-94998000D01*
X138845804Y-94997997D01*
X139254196Y-94997997D01*
X139254196Y-94998002D01*
X139275279Y-95131122D01*
X139275280Y-95131123D01*
X139275280Y-95131124D01*
X139275281Y-95131126D01*
X139336472Y-95251220D01*
X139431780Y-95346528D01*
X139551874Y-95407719D01*
X139551876Y-95407719D01*
X139551877Y-95407720D01*
X139684998Y-95428804D01*
X139685000Y-95428804D01*
X139685002Y-95428804D01*
X139818122Y-95407720D01*
X139818122Y-95407719D01*
X139818126Y-95407719D01*
X139938220Y-95346528D01*
X140033528Y-95251220D01*
X140094719Y-95131126D01*
X140115804Y-94998000D01*
X140115804Y-94997997D01*
X140524196Y-94997997D01*
X140524196Y-94998002D01*
X140545279Y-95131122D01*
X140545280Y-95131123D01*
X140545280Y-95131124D01*
X140545281Y-95131126D01*
X140606472Y-95251220D01*
X140701780Y-95346528D01*
X140821874Y-95407719D01*
X140821876Y-95407719D01*
X140821877Y-95407720D01*
X140954998Y-95428804D01*
X140955000Y-95428804D01*
X140955002Y-95428804D01*
X141088122Y-95407720D01*
X141088122Y-95407719D01*
X141088126Y-95407719D01*
X141208220Y-95346528D01*
X141303528Y-95251220D01*
X141364719Y-95131126D01*
X141385804Y-94998000D01*
X141385804Y-94997997D01*
X141794196Y-94997997D01*
X141794196Y-94998002D01*
X141815279Y-95131122D01*
X141815280Y-95131123D01*
X141815280Y-95131124D01*
X141815281Y-95131126D01*
X141876472Y-95251220D01*
X141971780Y-95346528D01*
X142091874Y-95407719D01*
X142091876Y-95407719D01*
X142091877Y-95407720D01*
X142224998Y-95428804D01*
X142225000Y-95428804D01*
X142225002Y-95428804D01*
X142358122Y-95407720D01*
X142358122Y-95407719D01*
X142358126Y-95407719D01*
X142478220Y-95346528D01*
X142573528Y-95251220D01*
X142634719Y-95131126D01*
X142655804Y-94998000D01*
X142655804Y-94997997D01*
X143064196Y-94997997D01*
X143064196Y-94998002D01*
X143085279Y-95131122D01*
X143085280Y-95131123D01*
X143085280Y-95131124D01*
X143085281Y-95131126D01*
X143146472Y-95251220D01*
X143241780Y-95346528D01*
X143361874Y-95407719D01*
X143361876Y-95407719D01*
X143361877Y-95407720D01*
X143494998Y-95428804D01*
X143495000Y-95428804D01*
X143495002Y-95428804D01*
X143628122Y-95407720D01*
X143628122Y-95407719D01*
X143628126Y-95407719D01*
X143748220Y-95346528D01*
X143843528Y-95251220D01*
X143904719Y-95131126D01*
X143925804Y-94998000D01*
X143925804Y-94997997D01*
X144334196Y-94997997D01*
X144334196Y-94998002D01*
X144355279Y-95131122D01*
X144355280Y-95131123D01*
X144355280Y-95131124D01*
X144355281Y-95131126D01*
X144416472Y-95251220D01*
X144511780Y-95346528D01*
X144631874Y-95407719D01*
X144631876Y-95407719D01*
X144631877Y-95407720D01*
X144764998Y-95428804D01*
X144765000Y-95428804D01*
X144765002Y-95428804D01*
X144898122Y-95407720D01*
X144898122Y-95407719D01*
X144898126Y-95407719D01*
X145018220Y-95346528D01*
X145113528Y-95251220D01*
X145174719Y-95131126D01*
X145195804Y-94998000D01*
X145195804Y-94997997D01*
X145604196Y-94997997D01*
X145604196Y-94998002D01*
X145625279Y-95131122D01*
X145625280Y-95131123D01*
X145625280Y-95131124D01*
X145625281Y-95131126D01*
X145686472Y-95251220D01*
X145781780Y-95346528D01*
X145901874Y-95407719D01*
X145901876Y-95407719D01*
X145901877Y-95407720D01*
X146034998Y-95428804D01*
X146035000Y-95428804D01*
X146035002Y-95428804D01*
X146168122Y-95407720D01*
X146168122Y-95407719D01*
X146168126Y-95407719D01*
X146288220Y-95346528D01*
X146383528Y-95251220D01*
X146444719Y-95131126D01*
X146465804Y-94998000D01*
X146465804Y-94997997D01*
X146874196Y-94997997D01*
X146874196Y-94998002D01*
X146895279Y-95131122D01*
X146895280Y-95131123D01*
X146895280Y-95131124D01*
X146895281Y-95131126D01*
X146956472Y-95251220D01*
X147051780Y-95346528D01*
X147171874Y-95407719D01*
X147171876Y-95407719D01*
X147171877Y-95407720D01*
X147304998Y-95428804D01*
X147305000Y-95428804D01*
X147305002Y-95428804D01*
X147438122Y-95407720D01*
X147438122Y-95407719D01*
X147438126Y-95407719D01*
X147558220Y-95346528D01*
X147653528Y-95251220D01*
X147714719Y-95131126D01*
X147735804Y-94998000D01*
X147735804Y-94997997D01*
X148144196Y-94997997D01*
X148144196Y-94998002D01*
X148165279Y-95131122D01*
X148165280Y-95131123D01*
X148165280Y-95131124D01*
X148165281Y-95131126D01*
X148226472Y-95251220D01*
X148321780Y-95346528D01*
X148441874Y-95407719D01*
X148441876Y-95407719D01*
X148441877Y-95407720D01*
X148574998Y-95428804D01*
X148575000Y-95428804D01*
X148575002Y-95428804D01*
X148708122Y-95407720D01*
X148708122Y-95407719D01*
X148708126Y-95407719D01*
X148828220Y-95346528D01*
X148923528Y-95251220D01*
X148984719Y-95131126D01*
X149005804Y-94998000D01*
X149005804Y-94997997D01*
X149414196Y-94997997D01*
X149414196Y-94998002D01*
X149435279Y-95131122D01*
X149435280Y-95131123D01*
X149435280Y-95131124D01*
X149435281Y-95131126D01*
X149496472Y-95251220D01*
X149591780Y-95346528D01*
X149711874Y-95407719D01*
X149711876Y-95407719D01*
X149711877Y-95407720D01*
X149844998Y-95428804D01*
X149845000Y-95428804D01*
X149845002Y-95428804D01*
X149978122Y-95407720D01*
X149978122Y-95407719D01*
X149978126Y-95407719D01*
X150098220Y-95346528D01*
X150193528Y-95251220D01*
X150254719Y-95131126D01*
X150275804Y-94998000D01*
X150275804Y-94997997D01*
X150684196Y-94997997D01*
X150684196Y-94998002D01*
X150705279Y-95131122D01*
X150705280Y-95131123D01*
X150705280Y-95131124D01*
X150705281Y-95131126D01*
X150766472Y-95251220D01*
X150861780Y-95346528D01*
X150981874Y-95407719D01*
X150981876Y-95407719D01*
X150981877Y-95407720D01*
X151114998Y-95428804D01*
X151115000Y-95428804D01*
X151115002Y-95428804D01*
X151248122Y-95407720D01*
X151248122Y-95407719D01*
X151248126Y-95407719D01*
X151368220Y-95346528D01*
X151463528Y-95251220D01*
X151524719Y-95131126D01*
X151545804Y-94998000D01*
X151545804Y-94997997D01*
X151954196Y-94997997D01*
X151954196Y-94998002D01*
X151975279Y-95131122D01*
X151975280Y-95131123D01*
X151975280Y-95131124D01*
X151975281Y-95131126D01*
X152036472Y-95251220D01*
X152131780Y-95346528D01*
X152251874Y-95407719D01*
X152251876Y-95407719D01*
X152251877Y-95407720D01*
X152384998Y-95428804D01*
X152385000Y-95428804D01*
X152385002Y-95428804D01*
X152518122Y-95407720D01*
X152518122Y-95407719D01*
X152518126Y-95407719D01*
X152638220Y-95346528D01*
X152733528Y-95251220D01*
X152794719Y-95131126D01*
X152815804Y-94998000D01*
X152811932Y-94973550D01*
X152794720Y-94864877D01*
X152794719Y-94864876D01*
X152794719Y-94864874D01*
X152733528Y-94744780D01*
X152638220Y-94649472D01*
X152518126Y-94588281D01*
X152518124Y-94588280D01*
X152518123Y-94588280D01*
X152518122Y-94588279D01*
X152385002Y-94567196D01*
X152384998Y-94567196D01*
X152251877Y-94588279D01*
X152251876Y-94588280D01*
X152131781Y-94649471D01*
X152036471Y-94744781D01*
X151975280Y-94864876D01*
X151975279Y-94864877D01*
X151954196Y-94997997D01*
X151545804Y-94997997D01*
X151541932Y-94973550D01*
X151524720Y-94864877D01*
X151524719Y-94864876D01*
X151524719Y-94864874D01*
X151463528Y-94744780D01*
X151368220Y-94649472D01*
X151248126Y-94588281D01*
X151248124Y-94588280D01*
X151248123Y-94588280D01*
X151248122Y-94588279D01*
X151115002Y-94567196D01*
X151114998Y-94567196D01*
X150981877Y-94588279D01*
X150981876Y-94588280D01*
X150861781Y-94649471D01*
X150766471Y-94744781D01*
X150705280Y-94864876D01*
X150705279Y-94864877D01*
X150684196Y-94997997D01*
X150275804Y-94997997D01*
X150271932Y-94973550D01*
X150254720Y-94864877D01*
X150254719Y-94864876D01*
X150254719Y-94864874D01*
X150193528Y-94744780D01*
X150098220Y-94649472D01*
X149978126Y-94588281D01*
X149978124Y-94588280D01*
X149978123Y-94588280D01*
X149978122Y-94588279D01*
X149845002Y-94567196D01*
X149844998Y-94567196D01*
X149711877Y-94588279D01*
X149711876Y-94588280D01*
X149591781Y-94649471D01*
X149496471Y-94744781D01*
X149435280Y-94864876D01*
X149435279Y-94864877D01*
X149414196Y-94997997D01*
X149005804Y-94997997D01*
X149001932Y-94973550D01*
X148984720Y-94864877D01*
X148984719Y-94864876D01*
X148984719Y-94864874D01*
X148923528Y-94744780D01*
X148828220Y-94649472D01*
X148708126Y-94588281D01*
X148708124Y-94588280D01*
X148708123Y-94588280D01*
X148708122Y-94588279D01*
X148575002Y-94567196D01*
X148574998Y-94567196D01*
X148441877Y-94588279D01*
X148441876Y-94588280D01*
X148321781Y-94649471D01*
X148226471Y-94744781D01*
X148165280Y-94864876D01*
X148165279Y-94864877D01*
X148144196Y-94997997D01*
X147735804Y-94997997D01*
X147731932Y-94973550D01*
X147714720Y-94864877D01*
X147714719Y-94864876D01*
X147714719Y-94864874D01*
X147653528Y-94744780D01*
X147558220Y-94649472D01*
X147438126Y-94588281D01*
X147438124Y-94588280D01*
X147438123Y-94588280D01*
X147438122Y-94588279D01*
X147305002Y-94567196D01*
X147304998Y-94567196D01*
X147171877Y-94588279D01*
X147171876Y-94588280D01*
X147051781Y-94649471D01*
X146956471Y-94744781D01*
X146895280Y-94864876D01*
X146895279Y-94864877D01*
X146874196Y-94997997D01*
X146465804Y-94997997D01*
X146461932Y-94973550D01*
X146444720Y-94864877D01*
X146444719Y-94864876D01*
X146444719Y-94864874D01*
X146383528Y-94744780D01*
X146288220Y-94649472D01*
X146168126Y-94588281D01*
X146168124Y-94588280D01*
X146168123Y-94588280D01*
X146168122Y-94588279D01*
X146035002Y-94567196D01*
X146034998Y-94567196D01*
X145901877Y-94588279D01*
X145901876Y-94588280D01*
X145781781Y-94649471D01*
X145686471Y-94744781D01*
X145625280Y-94864876D01*
X145625279Y-94864877D01*
X145604196Y-94997997D01*
X145195804Y-94997997D01*
X145191932Y-94973550D01*
X145174720Y-94864877D01*
X145174719Y-94864876D01*
X145174719Y-94864874D01*
X145113528Y-94744780D01*
X145018220Y-94649472D01*
X144898126Y-94588281D01*
X144898124Y-94588280D01*
X144898123Y-94588280D01*
X144898122Y-94588279D01*
X144765002Y-94567196D01*
X144764998Y-94567196D01*
X144631877Y-94588279D01*
X144631876Y-94588280D01*
X144511781Y-94649471D01*
X144416471Y-94744781D01*
X144355280Y-94864876D01*
X144355279Y-94864877D01*
X144334196Y-94997997D01*
X143925804Y-94997997D01*
X143921932Y-94973550D01*
X143904720Y-94864877D01*
X143904719Y-94864876D01*
X143904719Y-94864874D01*
X143843528Y-94744780D01*
X143748220Y-94649472D01*
X143628126Y-94588281D01*
X143628124Y-94588280D01*
X143628123Y-94588280D01*
X143628122Y-94588279D01*
X143495002Y-94567196D01*
X143494998Y-94567196D01*
X143361877Y-94588279D01*
X143361876Y-94588280D01*
X143241781Y-94649471D01*
X143146471Y-94744781D01*
X143085280Y-94864876D01*
X143085279Y-94864877D01*
X143064196Y-94997997D01*
X142655804Y-94997997D01*
X142651932Y-94973550D01*
X142634720Y-94864877D01*
X142634719Y-94864876D01*
X142634719Y-94864874D01*
X142573528Y-94744780D01*
X142478220Y-94649472D01*
X142358126Y-94588281D01*
X142358124Y-94588280D01*
X142358123Y-94588280D01*
X142358122Y-94588279D01*
X142225002Y-94567196D01*
X142224998Y-94567196D01*
X142091877Y-94588279D01*
X142091876Y-94588280D01*
X141971781Y-94649471D01*
X141876471Y-94744781D01*
X141815280Y-94864876D01*
X141815279Y-94864877D01*
X141794196Y-94997997D01*
X141385804Y-94997997D01*
X141381932Y-94973550D01*
X141364720Y-94864877D01*
X141364719Y-94864876D01*
X141364719Y-94864874D01*
X141303528Y-94744780D01*
X141208220Y-94649472D01*
X141088126Y-94588281D01*
X141088124Y-94588280D01*
X141088123Y-94588280D01*
X141088122Y-94588279D01*
X140955002Y-94567196D01*
X140954998Y-94567196D01*
X140821877Y-94588279D01*
X140821876Y-94588280D01*
X140701781Y-94649471D01*
X140606471Y-94744781D01*
X140545280Y-94864876D01*
X140545279Y-94864877D01*
X140524196Y-94997997D01*
X140115804Y-94997997D01*
X140111932Y-94973550D01*
X140094720Y-94864877D01*
X140094719Y-94864876D01*
X140094719Y-94864874D01*
X140033528Y-94744780D01*
X139938220Y-94649472D01*
X139818126Y-94588281D01*
X139818124Y-94588280D01*
X139818123Y-94588280D01*
X139818122Y-94588279D01*
X139685002Y-94567196D01*
X139684998Y-94567196D01*
X139551877Y-94588279D01*
X139551876Y-94588280D01*
X139431781Y-94649471D01*
X139336471Y-94744781D01*
X139275280Y-94864876D01*
X139275279Y-94864877D01*
X139254196Y-94997997D01*
X138845804Y-94997997D01*
X138841932Y-94973550D01*
X138824720Y-94864877D01*
X138824719Y-94864876D01*
X138824719Y-94864874D01*
X138763528Y-94744780D01*
X138668220Y-94649472D01*
X138548126Y-94588281D01*
X138548124Y-94588280D01*
X138548123Y-94588280D01*
X138548122Y-94588279D01*
X138415002Y-94567196D01*
X138414998Y-94567196D01*
X138281877Y-94588279D01*
X138281876Y-94588280D01*
X138161781Y-94649471D01*
X138066471Y-94744781D01*
X138005280Y-94864876D01*
X138005279Y-94864877D01*
X137984196Y-94997997D01*
X135046800Y-94997997D01*
X135046800Y-86810447D01*
X141902745Y-86810447D01*
X141902745Y-86810452D01*
X141923828Y-86943572D01*
X141923829Y-86943573D01*
X141923829Y-86943574D01*
X141923830Y-86943576D01*
X141985021Y-87063670D01*
X142080329Y-87158978D01*
X142200423Y-87220169D01*
X142200425Y-87220169D01*
X142200426Y-87220170D01*
X142333547Y-87241254D01*
X142333549Y-87241254D01*
X142333551Y-87241254D01*
X142466671Y-87220170D01*
X142466671Y-87220169D01*
X142466675Y-87220169D01*
X142586769Y-87158978D01*
X142682077Y-87063670D01*
X142743268Y-86943576D01*
X142749426Y-86904700D01*
X142764353Y-86810452D01*
X142764353Y-86810447D01*
X142743269Y-86677327D01*
X142743268Y-86677326D01*
X142743268Y-86677324D01*
X142682077Y-86557230D01*
X142586769Y-86461922D01*
X142466675Y-86400731D01*
X142466673Y-86400730D01*
X142466672Y-86400730D01*
X142466671Y-86400729D01*
X142333551Y-86379646D01*
X142333547Y-86379646D01*
X142200426Y-86400729D01*
X142200425Y-86400730D01*
X142080330Y-86461921D01*
X141985020Y-86557231D01*
X141923829Y-86677326D01*
X141923828Y-86677327D01*
X141902745Y-86810447D01*
X135046800Y-86810447D01*
X135046800Y-84994994D01*
X135048299Y-84983607D01*
X135051251Y-84972589D01*
X135062637Y-84952865D01*
X135066465Y-84949037D01*
X135086190Y-84937651D01*
X135097209Y-84934699D01*
X135108595Y-84933200D01*
X135358600Y-84933200D01*
X135358601Y-84933200D01*
X135486903Y-84903916D01*
X135605473Y-84846816D01*
X135708363Y-84764763D01*
X135762844Y-84696447D01*
X142175795Y-84696447D01*
X142175795Y-84696452D01*
X142196878Y-84829572D01*
X142196879Y-84829573D01*
X142196879Y-84829574D01*
X142196880Y-84829576D01*
X142258071Y-84949670D01*
X142353379Y-85044978D01*
X142473473Y-85106169D01*
X142473475Y-85106169D01*
X142473476Y-85106170D01*
X142606597Y-85127254D01*
X142606599Y-85127254D01*
X142606601Y-85127254D01*
X142739721Y-85106170D01*
X142739721Y-85106169D01*
X142739725Y-85106169D01*
X142859819Y-85044978D01*
X142955127Y-84949670D01*
X143016318Y-84829576D01*
X143018857Y-84813550D01*
X143037403Y-84696452D01*
X143037403Y-84696447D01*
X143016319Y-84563327D01*
X143016318Y-84563326D01*
X143016318Y-84563324D01*
X142955127Y-84443230D01*
X142859819Y-84347922D01*
X142739725Y-84286731D01*
X142739723Y-84286730D01*
X142739722Y-84286730D01*
X142739721Y-84286729D01*
X142606601Y-84265646D01*
X142606597Y-84265646D01*
X142473476Y-84286729D01*
X142473475Y-84286730D01*
X142353380Y-84347921D01*
X142258070Y-84443231D01*
X142196879Y-84563326D01*
X142196878Y-84563327D01*
X142175795Y-84696447D01*
X135762844Y-84696447D01*
X135790416Y-84661873D01*
X135847516Y-84543303D01*
X135876800Y-84415001D01*
X135876800Y-84349200D01*
X135876800Y-84302650D01*
X135876800Y-84136687D01*
X135876800Y-84123399D01*
X135860491Y-84051946D01*
X139991546Y-84051946D01*
X139991546Y-84051951D01*
X140012629Y-84185071D01*
X140012630Y-84185072D01*
X140012630Y-84185073D01*
X140012631Y-84185075D01*
X140073822Y-84305169D01*
X140169130Y-84400477D01*
X140289224Y-84461668D01*
X140289226Y-84461668D01*
X140289227Y-84461669D01*
X140422348Y-84482753D01*
X140422350Y-84482753D01*
X140422352Y-84482753D01*
X140555472Y-84461669D01*
X140555472Y-84461668D01*
X140555476Y-84461668D01*
X140675570Y-84400477D01*
X140770878Y-84305169D01*
X140832069Y-84185075D01*
X140832303Y-84183603D01*
X140853154Y-84051951D01*
X140853154Y-84051946D01*
X144360045Y-84051946D01*
X144360045Y-84051951D01*
X144381128Y-84185071D01*
X144381129Y-84185072D01*
X144381129Y-84185073D01*
X144381130Y-84185075D01*
X144442321Y-84305169D01*
X144513962Y-84376810D01*
X144526849Y-84407922D01*
X144526849Y-85906736D01*
X144526849Y-86011762D01*
X144567041Y-86108793D01*
X148257792Y-89799544D01*
X148257791Y-89799544D01*
X148332055Y-89873807D01*
X148332056Y-89873808D01*
X148429087Y-89914000D01*
X150634026Y-89914000D01*
X150665138Y-89926887D01*
X150736779Y-89998527D01*
X150736780Y-89998528D01*
X150856874Y-90059719D01*
X150856876Y-90059719D01*
X150856877Y-90059720D01*
X150989998Y-90080804D01*
X150990000Y-90080804D01*
X150990002Y-90080804D01*
X151123122Y-90059720D01*
X151123122Y-90059719D01*
X151123126Y-90059719D01*
X151243220Y-89998528D01*
X151279041Y-89962707D01*
X151314862Y-89926887D01*
X151345974Y-89914000D01*
X154729422Y-89914000D01*
X154760535Y-89926887D01*
X155943513Y-91109865D01*
X155956400Y-91140978D01*
X155956400Y-106327887D01*
X155956400Y-106432913D01*
X155996592Y-106529944D01*
X156643522Y-107176874D01*
X157170636Y-107703988D01*
X157183523Y-107735101D01*
X157178328Y-107755842D01*
X157124767Y-107856046D01*
X157124766Y-107856049D01*
X157064700Y-108054061D01*
X157044417Y-108259998D01*
X157044417Y-108260001D01*
X157064700Y-108465938D01*
X157124765Y-108663947D01*
X157124767Y-108663950D01*
X157124768Y-108663954D01*
X157222315Y-108846450D01*
X157353590Y-109006410D01*
X157513550Y-109137685D01*
X157696046Y-109235232D01*
X157696051Y-109235233D01*
X157696052Y-109235234D01*
X157696051Y-109235234D01*
X157894062Y-109295299D01*
X157894063Y-109295299D01*
X157894066Y-109295300D01*
X158066529Y-109312286D01*
X158099999Y-109315583D01*
X158100000Y-109315583D01*
X158100001Y-109315583D01*
X158128791Y-109312747D01*
X158305934Y-109295300D01*
X158305936Y-109295299D01*
X158305938Y-109295299D01*
X158503947Y-109235234D01*
X158503946Y-109235234D01*
X158503954Y-109235232D01*
X158686450Y-109137685D01*
X158846410Y-109006410D01*
X158977685Y-108846450D01*
X159075232Y-108663954D01*
X159135300Y-108465934D01*
X159155583Y-108260000D01*
X159135300Y-108054066D01*
X159135299Y-108054063D01*
X159135299Y-108054061D01*
X159075234Y-107856052D01*
X159075233Y-107856051D01*
X159075232Y-107856046D01*
X158977685Y-107673550D01*
X158846410Y-107513590D01*
X158686450Y-107382315D01*
X158686448Y-107382314D01*
X158686447Y-107382313D01*
X158622871Y-107348331D01*
X158503954Y-107284768D01*
X158503950Y-107284767D01*
X158503947Y-107284765D01*
X158503948Y-107284765D01*
X158305937Y-107224700D01*
X158305938Y-107224700D01*
X158100001Y-107204417D01*
X158099999Y-107204417D01*
X157894061Y-107224700D01*
X157696049Y-107284766D01*
X157696046Y-107284767D01*
X157595842Y-107338328D01*
X157562328Y-107341628D01*
X157543988Y-107330636D01*
X156497287Y-106283934D01*
X156484400Y-106252821D01*
X156484400Y-105719998D01*
X157044417Y-105719998D01*
X157044417Y-105720001D01*
X157064700Y-105925938D01*
X157124765Y-106123947D01*
X157124767Y-106123950D01*
X157124768Y-106123954D01*
X157188331Y-106242871D01*
X157203391Y-106271047D01*
X157222315Y-106306450D01*
X157353590Y-106466410D01*
X157513550Y-106597685D01*
X157696046Y-106695232D01*
X157696051Y-106695233D01*
X157696052Y-106695234D01*
X157696051Y-106695234D01*
X157894062Y-106755299D01*
X157894063Y-106755299D01*
X157894066Y-106755300D01*
X158066529Y-106772286D01*
X158099999Y-106775583D01*
X158100000Y-106775583D01*
X158100001Y-106775583D01*
X158128791Y-106772747D01*
X158305934Y-106755300D01*
X158305936Y-106755299D01*
X158305938Y-106755299D01*
X158503947Y-106695234D01*
X158503946Y-106695234D01*
X158503954Y-106695232D01*
X158686450Y-106597685D01*
X158846410Y-106466410D01*
X158977685Y-106306450D01*
X159075232Y-106123954D01*
X159135300Y-105925934D01*
X159155583Y-105720000D01*
X159135300Y-105514066D01*
X159135299Y-105514063D01*
X159135299Y-105514061D01*
X159075234Y-105316052D01*
X159075233Y-105316051D01*
X159075232Y-105316046D01*
X158977685Y-105133550D01*
X158846410Y-104973590D01*
X158686450Y-104842315D01*
X158686448Y-104842314D01*
X158686447Y-104842313D01*
X158622871Y-104808331D01*
X158503954Y-104744768D01*
X158503950Y-104744767D01*
X158503947Y-104744765D01*
X158503948Y-104744765D01*
X158305937Y-104684700D01*
X158305938Y-104684700D01*
X158100001Y-104664417D01*
X158099999Y-104664417D01*
X157894061Y-104684700D01*
X157696052Y-104744765D01*
X157513552Y-104842313D01*
X157353591Y-104973589D01*
X157353589Y-104973591D01*
X157222313Y-105133552D01*
X157124765Y-105316052D01*
X157064700Y-105514061D01*
X157044417Y-105719998D01*
X156484400Y-105719998D01*
X156484400Y-103179998D01*
X157044417Y-103179998D01*
X157044417Y-103180001D01*
X157064700Y-103385938D01*
X157124765Y-103583947D01*
X157124767Y-103583950D01*
X157124768Y-103583954D01*
X157222315Y-103766450D01*
X157353590Y-103926410D01*
X157513550Y-104057685D01*
X157696046Y-104155232D01*
X157696051Y-104155233D01*
X157696052Y-104155234D01*
X157696051Y-104155234D01*
X157894062Y-104215299D01*
X157894063Y-104215299D01*
X157894066Y-104215300D01*
X158066529Y-104232286D01*
X158099999Y-104235583D01*
X158100000Y-104235583D01*
X158100001Y-104235583D01*
X158128791Y-104232747D01*
X158305934Y-104215300D01*
X158305936Y-104215299D01*
X158305938Y-104215299D01*
X158503947Y-104155234D01*
X158503946Y-104155234D01*
X158503954Y-104155232D01*
X158686450Y-104057685D01*
X158846410Y-103926410D01*
X158977685Y-103766450D01*
X159075232Y-103583954D01*
X159135300Y-103385934D01*
X159155583Y-103180000D01*
X159135300Y-102974066D01*
X159135299Y-102974063D01*
X159135299Y-102974061D01*
X159075234Y-102776052D01*
X159075233Y-102776051D01*
X159075232Y-102776046D01*
X158977685Y-102593550D01*
X158846410Y-102433590D01*
X158686450Y-102302315D01*
X158686448Y-102302314D01*
X158686447Y-102302313D01*
X158622871Y-102268331D01*
X158503954Y-102204768D01*
X158503950Y-102204767D01*
X158503947Y-102204765D01*
X158503948Y-102204765D01*
X158305937Y-102144700D01*
X158305938Y-102144700D01*
X158100001Y-102124417D01*
X158099999Y-102124417D01*
X157894061Y-102144700D01*
X157696052Y-102204765D01*
X157513552Y-102302313D01*
X157353591Y-102433589D01*
X157353589Y-102433591D01*
X157222313Y-102593552D01*
X157124765Y-102776052D01*
X157064700Y-102974061D01*
X157044417Y-103179998D01*
X156484400Y-103179998D01*
X156484400Y-100639998D01*
X157044417Y-100639998D01*
X157044417Y-100640001D01*
X157064700Y-100845938D01*
X157124765Y-101043947D01*
X157124767Y-101043950D01*
X157124768Y-101043954D01*
X157222315Y-101226450D01*
X157353590Y-101386410D01*
X157513550Y-101517685D01*
X157696046Y-101615232D01*
X157696051Y-101615233D01*
X157696052Y-101615234D01*
X157696051Y-101615234D01*
X157894062Y-101675299D01*
X157894063Y-101675299D01*
X157894066Y-101675300D01*
X158066529Y-101692286D01*
X158099999Y-101695583D01*
X158100000Y-101695583D01*
X158100001Y-101695583D01*
X158128791Y-101692747D01*
X158305934Y-101675300D01*
X158305936Y-101675299D01*
X158305938Y-101675299D01*
X158503947Y-101615234D01*
X158503946Y-101615234D01*
X158503954Y-101615232D01*
X158686450Y-101517685D01*
X158846410Y-101386410D01*
X158977685Y-101226450D01*
X159075232Y-101043954D01*
X159135300Y-100845934D01*
X159155583Y-100640000D01*
X159135300Y-100434066D01*
X159135299Y-100434063D01*
X159135299Y-100434061D01*
X159075234Y-100236052D01*
X159075233Y-100236051D01*
X159075232Y-100236046D01*
X158977685Y-100053550D01*
X158846410Y-99893590D01*
X158686450Y-99762315D01*
X158686448Y-99762314D01*
X158686447Y-99762313D01*
X158622871Y-99728331D01*
X158503954Y-99664768D01*
X158503950Y-99664767D01*
X158503947Y-99664765D01*
X158503948Y-99664765D01*
X158305937Y-99604700D01*
X158305938Y-99604700D01*
X158100001Y-99584417D01*
X158099999Y-99584417D01*
X157894061Y-99604700D01*
X157696052Y-99664765D01*
X157513552Y-99762313D01*
X157353591Y-99893589D01*
X157353589Y-99893591D01*
X157222313Y-100053552D01*
X157124765Y-100236052D01*
X157064700Y-100434061D01*
X157044417Y-100639998D01*
X156484400Y-100639998D01*
X156484400Y-98099998D01*
X157044417Y-98099998D01*
X157044417Y-98100001D01*
X157064700Y-98305938D01*
X157124765Y-98503947D01*
X157124767Y-98503950D01*
X157124768Y-98503954D01*
X157222315Y-98686450D01*
X157353590Y-98846410D01*
X157513550Y-98977685D01*
X157696046Y-99075232D01*
X157696051Y-99075233D01*
X157696052Y-99075234D01*
X157696051Y-99075234D01*
X157894062Y-99135299D01*
X157894063Y-99135299D01*
X157894066Y-99135300D01*
X158066529Y-99152286D01*
X158099999Y-99155583D01*
X158100000Y-99155583D01*
X158100001Y-99155583D01*
X158128791Y-99152747D01*
X158305934Y-99135300D01*
X158305936Y-99135299D01*
X158305938Y-99135299D01*
X158503947Y-99075234D01*
X158503946Y-99075234D01*
X158503954Y-99075232D01*
X158686450Y-98977685D01*
X158846410Y-98846410D01*
X158977685Y-98686450D01*
X159075232Y-98503954D01*
X159135300Y-98305934D01*
X159155583Y-98100000D01*
X159135300Y-97894066D01*
X159135299Y-97894063D01*
X159135299Y-97894061D01*
X159075234Y-97696052D01*
X159075233Y-97696051D01*
X159075232Y-97696046D01*
X158977685Y-97513550D01*
X158846410Y-97353590D01*
X158686450Y-97222315D01*
X158686448Y-97222314D01*
X158686447Y-97222313D01*
X158622871Y-97188331D01*
X158503954Y-97124768D01*
X158503950Y-97124767D01*
X158503947Y-97124765D01*
X158503948Y-97124765D01*
X158305937Y-97064700D01*
X158305938Y-97064700D01*
X158100001Y-97044417D01*
X158099999Y-97044417D01*
X157894061Y-97064700D01*
X157696052Y-97124765D01*
X157513552Y-97222313D01*
X157353591Y-97353589D01*
X157353589Y-97353591D01*
X157222313Y-97513552D01*
X157124765Y-97696052D01*
X157064700Y-97894061D01*
X157044417Y-98099998D01*
X156484400Y-98099998D01*
X156484400Y-95559998D01*
X157044417Y-95559998D01*
X157044417Y-95560001D01*
X157064700Y-95765938D01*
X157124765Y-95963947D01*
X157124767Y-95963950D01*
X157124768Y-95963954D01*
X157222315Y-96146450D01*
X157353590Y-96306410D01*
X157513550Y-96437685D01*
X157696046Y-96535232D01*
X157696051Y-96535233D01*
X157696052Y-96535234D01*
X157696051Y-96535234D01*
X157894062Y-96595299D01*
X157894063Y-96595299D01*
X157894066Y-96595300D01*
X158066529Y-96612286D01*
X158099999Y-96615583D01*
X158100000Y-96615583D01*
X158100001Y-96615583D01*
X158128791Y-96612747D01*
X158305934Y-96595300D01*
X158305936Y-96595299D01*
X158305938Y-96595299D01*
X158503947Y-96535234D01*
X158503946Y-96535234D01*
X158503954Y-96535232D01*
X158686450Y-96437685D01*
X158846410Y-96306410D01*
X158977685Y-96146450D01*
X159075232Y-95963954D01*
X159135300Y-95765934D01*
X159155583Y-95560000D01*
X159135300Y-95354066D01*
X159135299Y-95354063D01*
X159135299Y-95354061D01*
X159075234Y-95156052D01*
X159075233Y-95156051D01*
X159075232Y-95156046D01*
X158977685Y-94973550D01*
X158846410Y-94813590D01*
X158686450Y-94682315D01*
X158686448Y-94682314D01*
X158686447Y-94682313D01*
X158622871Y-94648331D01*
X158503954Y-94584768D01*
X158503950Y-94584767D01*
X158503947Y-94584765D01*
X158503948Y-94584765D01*
X158305937Y-94524700D01*
X158305938Y-94524700D01*
X158100001Y-94504417D01*
X158099999Y-94504417D01*
X157894061Y-94524700D01*
X157696052Y-94584765D01*
X157696046Y-94584767D01*
X157696046Y-94584768D01*
X157689476Y-94588280D01*
X157513552Y-94682313D01*
X157353591Y-94813589D01*
X157353589Y-94813591D01*
X157222313Y-94973552D01*
X157124765Y-95156052D01*
X157064700Y-95354061D01*
X157044417Y-95559998D01*
X156484400Y-95559998D01*
X156484400Y-93019998D01*
X157044417Y-93019998D01*
X157044417Y-93020001D01*
X157064700Y-93225938D01*
X157124765Y-93423947D01*
X157124767Y-93423950D01*
X157124768Y-93423954D01*
X157222315Y-93606450D01*
X157353590Y-93766410D01*
X157513550Y-93897685D01*
X157696046Y-93995232D01*
X157696051Y-93995233D01*
X157696052Y-93995234D01*
X157696051Y-93995234D01*
X157894062Y-94055299D01*
X157894063Y-94055299D01*
X157894066Y-94055300D01*
X158066529Y-94072286D01*
X158099999Y-94075583D01*
X158100000Y-94075583D01*
X158100001Y-94075583D01*
X158128791Y-94072747D01*
X158305934Y-94055300D01*
X158305936Y-94055299D01*
X158305938Y-94055299D01*
X158503947Y-93995234D01*
X158503946Y-93995234D01*
X158503954Y-93995232D01*
X158686450Y-93897685D01*
X158846410Y-93766410D01*
X158977685Y-93606450D01*
X159075232Y-93423954D01*
X159135300Y-93225934D01*
X159155583Y-93020000D01*
X159135300Y-92814066D01*
X159135299Y-92814063D01*
X159135299Y-92814061D01*
X159075234Y-92616052D01*
X159075233Y-92616051D01*
X159075232Y-92616046D01*
X158977685Y-92433550D01*
X158846410Y-92273590D01*
X158686450Y-92142315D01*
X158686448Y-92142314D01*
X158686447Y-92142313D01*
X158622871Y-92108331D01*
X158503954Y-92044768D01*
X158503950Y-92044767D01*
X158503947Y-92044765D01*
X158503948Y-92044765D01*
X158305937Y-91984700D01*
X158305938Y-91984700D01*
X158100001Y-91964417D01*
X158099999Y-91964417D01*
X157894061Y-91984700D01*
X157696052Y-92044765D01*
X157513552Y-92142313D01*
X157353591Y-92273589D01*
X157353589Y-92273591D01*
X157222313Y-92433552D01*
X157124765Y-92616052D01*
X157064700Y-92814061D01*
X157044417Y-93019998D01*
X156484400Y-93019998D01*
X156484400Y-90960887D01*
X156470174Y-90926542D01*
X156444209Y-90863856D01*
X156060351Y-90479998D01*
X157044417Y-90479998D01*
X157044417Y-90480001D01*
X157064700Y-90685938D01*
X157124765Y-90883947D01*
X157124767Y-90883950D01*
X157124768Y-90883954D01*
X157222315Y-91066450D01*
X157353590Y-91226410D01*
X157513550Y-91357685D01*
X157696046Y-91455232D01*
X157696051Y-91455233D01*
X157696052Y-91455234D01*
X157696051Y-91455234D01*
X157894062Y-91515299D01*
X157894063Y-91515299D01*
X157894066Y-91515300D01*
X158066529Y-91532286D01*
X158099999Y-91535583D01*
X158100000Y-91535583D01*
X158100001Y-91535583D01*
X158128791Y-91532747D01*
X158305934Y-91515300D01*
X158305936Y-91515299D01*
X158305938Y-91515299D01*
X158503947Y-91455234D01*
X158503946Y-91455234D01*
X158503954Y-91455232D01*
X158686450Y-91357685D01*
X158846410Y-91226410D01*
X158977685Y-91066450D01*
X159075232Y-90883954D01*
X159135300Y-90685934D01*
X159155583Y-90480000D01*
X159135300Y-90274066D01*
X159135299Y-90274063D01*
X159135299Y-90274061D01*
X159075234Y-90076052D01*
X159075233Y-90076051D01*
X159075232Y-90076046D01*
X158977685Y-89893550D01*
X158846410Y-89733590D01*
X158686450Y-89602315D01*
X158686448Y-89602314D01*
X158686447Y-89602313D01*
X158622871Y-89568331D01*
X158503954Y-89504768D01*
X158503950Y-89504767D01*
X158503947Y-89504765D01*
X158503948Y-89504765D01*
X158305937Y-89444700D01*
X158305938Y-89444700D01*
X158100001Y-89424417D01*
X158099999Y-89424417D01*
X157894061Y-89444700D01*
X157696052Y-89504765D01*
X157513552Y-89602313D01*
X157353591Y-89733589D01*
X157353589Y-89733591D01*
X157222313Y-89893552D01*
X157124765Y-90076052D01*
X157064700Y-90274061D01*
X157044417Y-90479998D01*
X156060351Y-90479998D01*
X155006544Y-89426192D01*
X154909513Y-89386000D01*
X154909512Y-89386000D01*
X151345974Y-89386000D01*
X151314862Y-89373113D01*
X151243220Y-89301472D01*
X151123126Y-89240281D01*
X151123124Y-89240280D01*
X151123123Y-89240280D01*
X151123122Y-89240279D01*
X150990002Y-89219196D01*
X150989998Y-89219196D01*
X150856877Y-89240279D01*
X150856876Y-89240280D01*
X150736779Y-89301472D01*
X150665138Y-89373113D01*
X150634026Y-89386000D01*
X148609178Y-89386000D01*
X148578065Y-89373113D01*
X147144950Y-87939998D01*
X157044417Y-87939998D01*
X157044417Y-87940001D01*
X157064700Y-88145938D01*
X157124765Y-88343947D01*
X157124767Y-88343950D01*
X157124768Y-88343954D01*
X157222315Y-88526450D01*
X157353590Y-88686410D01*
X157513550Y-88817685D01*
X157696046Y-88915232D01*
X157696051Y-88915233D01*
X157696052Y-88915234D01*
X157696051Y-88915234D01*
X157894062Y-88975299D01*
X157894063Y-88975299D01*
X157894066Y-88975300D01*
X158066529Y-88992286D01*
X158099999Y-88995583D01*
X158100000Y-88995583D01*
X158100001Y-88995583D01*
X158128791Y-88992747D01*
X158305934Y-88975300D01*
X158305936Y-88975299D01*
X158305938Y-88975299D01*
X158503947Y-88915234D01*
X158503946Y-88915234D01*
X158503954Y-88915232D01*
X158686450Y-88817685D01*
X158846410Y-88686410D01*
X158977685Y-88526450D01*
X159075232Y-88343954D01*
X159135300Y-88145934D01*
X159155583Y-87940000D01*
X159135300Y-87734066D01*
X159135299Y-87734063D01*
X159135299Y-87734061D01*
X159075234Y-87536052D01*
X159075233Y-87536051D01*
X159075232Y-87536046D01*
X158977685Y-87353550D01*
X158846410Y-87193590D01*
X158686450Y-87062315D01*
X158686448Y-87062314D01*
X158686447Y-87062313D01*
X158622871Y-87028331D01*
X158503954Y-86964768D01*
X158503950Y-86964767D01*
X158503947Y-86964765D01*
X158503948Y-86964765D01*
X158305937Y-86904700D01*
X158305938Y-86904700D01*
X158100001Y-86884417D01*
X158099999Y-86884417D01*
X157894061Y-86904700D01*
X157696052Y-86964765D01*
X157513552Y-87062313D01*
X157353591Y-87193589D01*
X157353589Y-87193591D01*
X157222313Y-87353552D01*
X157124765Y-87536052D01*
X157064700Y-87734061D01*
X157044417Y-87939998D01*
X147144950Y-87939998D01*
X145067736Y-85862784D01*
X145054849Y-85831671D01*
X145054849Y-85585948D01*
X150217796Y-85585948D01*
X150217796Y-85585953D01*
X150238879Y-85719073D01*
X150238880Y-85719074D01*
X150238880Y-85719075D01*
X150238881Y-85719077D01*
X150300072Y-85839171D01*
X150395380Y-85934479D01*
X150515474Y-85995670D01*
X150515476Y-85995670D01*
X150515477Y-85995671D01*
X150648598Y-86016755D01*
X150648600Y-86016755D01*
X150648602Y-86016755D01*
X150781722Y-85995671D01*
X150781722Y-85995670D01*
X150781726Y-85995670D01*
X150901820Y-85934479D01*
X150997128Y-85839171D01*
X151058319Y-85719077D01*
X151076239Y-85605938D01*
X151079404Y-85585953D01*
X151079404Y-85585948D01*
X151058320Y-85452828D01*
X151058319Y-85452827D01*
X151058319Y-85452825D01*
X151031402Y-85399998D01*
X157044417Y-85399998D01*
X157044417Y-85400001D01*
X157064700Y-85605938D01*
X157124765Y-85803947D01*
X157124767Y-85803950D01*
X157124768Y-85803954D01*
X157222315Y-85986450D01*
X157353590Y-86146410D01*
X157513550Y-86277685D01*
X157696046Y-86375232D01*
X157696051Y-86375233D01*
X157696052Y-86375234D01*
X157696051Y-86375234D01*
X157894062Y-86435299D01*
X157894063Y-86435299D01*
X157894066Y-86435300D01*
X158066529Y-86452286D01*
X158099999Y-86455583D01*
X158100000Y-86455583D01*
X158100001Y-86455583D01*
X158128791Y-86452747D01*
X158305934Y-86435300D01*
X158305936Y-86435299D01*
X158305938Y-86435299D01*
X158431391Y-86397243D01*
X158503954Y-86375232D01*
X158686450Y-86277685D01*
X158846410Y-86146410D01*
X158977685Y-85986450D01*
X159075232Y-85803954D01*
X159135300Y-85605934D01*
X159155583Y-85400000D01*
X159135300Y-85194066D01*
X159135299Y-85194063D01*
X159135299Y-85194061D01*
X159075234Y-84996052D01*
X159075233Y-84996051D01*
X159075232Y-84996046D01*
X158977685Y-84813550D01*
X158846410Y-84653590D01*
X158686450Y-84522315D01*
X158686448Y-84522314D01*
X158686447Y-84522313D01*
X158572988Y-84461668D01*
X158503954Y-84424768D01*
X158503950Y-84424767D01*
X158503947Y-84424765D01*
X158503948Y-84424765D01*
X158305937Y-84364700D01*
X158305938Y-84364700D01*
X158100001Y-84344417D01*
X158099999Y-84344417D01*
X157894061Y-84364700D01*
X157696052Y-84424765D01*
X157513552Y-84522313D01*
X157353591Y-84653589D01*
X157353589Y-84653591D01*
X157222313Y-84813552D01*
X157163599Y-84923399D01*
X157125331Y-84994994D01*
X157124765Y-84996052D01*
X157064700Y-85194061D01*
X157044417Y-85399998D01*
X151031402Y-85399998D01*
X150997128Y-85332731D01*
X150901820Y-85237423D01*
X150781726Y-85176232D01*
X150781724Y-85176231D01*
X150781723Y-85176231D01*
X150781722Y-85176230D01*
X150648602Y-85155147D01*
X150648598Y-85155147D01*
X150515477Y-85176230D01*
X150515476Y-85176231D01*
X150395381Y-85237422D01*
X150300071Y-85332732D01*
X150238880Y-85452827D01*
X150238879Y-85452828D01*
X150217796Y-85585948D01*
X145054849Y-85585948D01*
X145054849Y-84407922D01*
X145067735Y-84376810D01*
X145139377Y-84305169D01*
X145200568Y-84185075D01*
X145200802Y-84183603D01*
X145221653Y-84051951D01*
X145221653Y-84051946D01*
X145200569Y-83918826D01*
X145200568Y-83918825D01*
X145200568Y-83918823D01*
X145139377Y-83798729D01*
X145044069Y-83703421D01*
X144923975Y-83642230D01*
X144923973Y-83642229D01*
X144923972Y-83642229D01*
X144923971Y-83642228D01*
X144790851Y-83621145D01*
X144790847Y-83621145D01*
X144657726Y-83642228D01*
X144657725Y-83642229D01*
X144537630Y-83703420D01*
X144442320Y-83798730D01*
X144381129Y-83918825D01*
X144381128Y-83918826D01*
X144360045Y-84051946D01*
X140853154Y-84051946D01*
X140832070Y-83918826D01*
X140832069Y-83918825D01*
X140832069Y-83918823D01*
X140770878Y-83798729D01*
X140675570Y-83703421D01*
X140555476Y-83642230D01*
X140555474Y-83642229D01*
X140555473Y-83642229D01*
X140555472Y-83642228D01*
X140422352Y-83621145D01*
X140422348Y-83621145D01*
X140289227Y-83642228D01*
X140289226Y-83642229D01*
X140169131Y-83703420D01*
X140073821Y-83798730D01*
X140012630Y-83918825D01*
X140012629Y-83918826D01*
X139991546Y-84051946D01*
X135860491Y-84051946D01*
X135847516Y-83995097D01*
X135790416Y-83876527D01*
X135708363Y-83773637D01*
X135605473Y-83691584D01*
X135605471Y-83691583D01*
X135605470Y-83691582D01*
X135486903Y-83634484D01*
X135358603Y-83605200D01*
X135358601Y-83605200D01*
X135345313Y-83605200D01*
X135108595Y-83605200D01*
X135097205Y-83603700D01*
X135086186Y-83600747D01*
X135066463Y-83589360D01*
X135062639Y-83585536D01*
X135051251Y-83565810D01*
X135048299Y-83554792D01*
X135046800Y-83543405D01*
X135046800Y-82745448D01*
X137804796Y-82745448D01*
X137804796Y-82745453D01*
X137825879Y-82878573D01*
X137825880Y-82878574D01*
X137825880Y-82878575D01*
X137825881Y-82878577D01*
X137887072Y-82998671D01*
X137982380Y-83093979D01*
X138102474Y-83155170D01*
X138102476Y-83155170D01*
X138102477Y-83155171D01*
X138235598Y-83176255D01*
X138235600Y-83176255D01*
X138235602Y-83176255D01*
X138368722Y-83155171D01*
X138368722Y-83155170D01*
X138368726Y-83155170D01*
X138488820Y-83093979D01*
X138584128Y-82998671D01*
X138645319Y-82878577D01*
X138648262Y-82860000D01*
X138648262Y-82859998D01*
X157044417Y-82859998D01*
X157044417Y-82860001D01*
X157064700Y-83065938D01*
X157124765Y-83263947D01*
X157124767Y-83263950D01*
X157124768Y-83263954D01*
X157222315Y-83446450D01*
X157353590Y-83606410D01*
X157513550Y-83737685D01*
X157696046Y-83835232D01*
X157696051Y-83835233D01*
X157696052Y-83835234D01*
X157696051Y-83835234D01*
X157894062Y-83895299D01*
X157894063Y-83895299D01*
X157894066Y-83895300D01*
X158066529Y-83912286D01*
X158099999Y-83915583D01*
X158100000Y-83915583D01*
X158100001Y-83915583D01*
X158128791Y-83912747D01*
X158305934Y-83895300D01*
X158305936Y-83895299D01*
X158305938Y-83895299D01*
X158503947Y-83835234D01*
X158503946Y-83835234D01*
X158503954Y-83835232D01*
X158686450Y-83737685D01*
X158846410Y-83606410D01*
X158977685Y-83446450D01*
X159075232Y-83263954D01*
X159135300Y-83065934D01*
X159155583Y-82860000D01*
X159135300Y-82654066D01*
X159135299Y-82654063D01*
X159135299Y-82654061D01*
X159075234Y-82456052D01*
X159075233Y-82456051D01*
X159075232Y-82456046D01*
X158977685Y-82273550D01*
X158846410Y-82113590D01*
X158686450Y-81982315D01*
X158686448Y-81982314D01*
X158686447Y-81982313D01*
X158622871Y-81948331D01*
X158503954Y-81884768D01*
X158503950Y-81884767D01*
X158503947Y-81884765D01*
X158503948Y-81884765D01*
X158305937Y-81824700D01*
X158305938Y-81824700D01*
X158100001Y-81804417D01*
X158099999Y-81804417D01*
X157894061Y-81824700D01*
X157696052Y-81884765D01*
X157513552Y-81982313D01*
X157353591Y-82113589D01*
X157353589Y-82113591D01*
X157222313Y-82273552D01*
X157124765Y-82456052D01*
X157064700Y-82654061D01*
X157044417Y-82859998D01*
X138648262Y-82859998D01*
X138666404Y-82745453D01*
X138666404Y-82745451D01*
X138666404Y-82745448D01*
X138662055Y-82717997D01*
X138669915Y-82685253D01*
X138674393Y-82680008D01*
X139254641Y-82099762D01*
X139294833Y-82002731D01*
X139294833Y-81897706D01*
X139294833Y-79156637D01*
X139307720Y-79125524D01*
X139338833Y-79112637D01*
X139369946Y-79125524D01*
X139378037Y-79136662D01*
X139394805Y-79169571D01*
X139490113Y-79264879D01*
X139610207Y-79326070D01*
X139610209Y-79326070D01*
X139610210Y-79326071D01*
X139743331Y-79347155D01*
X139743332Y-79347155D01*
X139743332Y-79347154D01*
X139743333Y-79347155D01*
X139770785Y-79342806D01*
X139803529Y-79350666D01*
X139808781Y-79355151D01*
X140254187Y-79800557D01*
X140254258Y-79800641D01*
X140276859Y-79823234D01*
X140276900Y-79823331D01*
X140289751Y-79836178D01*
X140289751Y-79836179D01*
X140329911Y-79876325D01*
X140426083Y-79936733D01*
X140533284Y-79974229D01*
X140646141Y-79986934D01*
X140758996Y-79974211D01*
X140866191Y-79936697D01*
X140936085Y-79892778D01*
X140969283Y-79887138D01*
X140996749Y-79906625D01*
X141002390Y-79939825D01*
X140996749Y-79953443D01*
X140952831Y-80023340D01*
X140952825Y-80023353D01*
X140915318Y-80130552D01*
X140915317Y-80130556D01*
X140902606Y-80243409D01*
X140902606Y-80243415D01*
X140915326Y-80356279D01*
X140952839Y-80463472D01*
X140952844Y-80463483D01*
X141013263Y-80559634D01*
X141013270Y-80559643D01*
X141039106Y-80585478D01*
X141138549Y-80684919D01*
X141138550Y-80684920D01*
X141181884Y-80728256D01*
X141181885Y-80728256D01*
X141181887Y-80728258D01*
X141250498Y-80756677D01*
X141278918Y-80768449D01*
X141278919Y-80768449D01*
X141383944Y-80768449D01*
X142253126Y-80768449D01*
X142284238Y-80781336D01*
X142355879Y-80852976D01*
X142355880Y-80852977D01*
X142475974Y-80914168D01*
X142475976Y-80914168D01*
X142475977Y-80914169D01*
X142609098Y-80935253D01*
X142609100Y-80935253D01*
X142609102Y-80935253D01*
X142742222Y-80914169D01*
X142742222Y-80914168D01*
X142742226Y-80914168D01*
X142862320Y-80852977D01*
X142957628Y-80757669D01*
X143018819Y-80637575D01*
X143027071Y-80585478D01*
X143039904Y-80504451D01*
X143039904Y-80504446D01*
X143018820Y-80371326D01*
X143018819Y-80371325D01*
X143018819Y-80371323D01*
X142992668Y-80319998D01*
X157044417Y-80319998D01*
X157044417Y-80320001D01*
X157064700Y-80525938D01*
X157124765Y-80723947D01*
X157124767Y-80723950D01*
X157124768Y-80723954D01*
X157222315Y-80906450D01*
X157353590Y-81066410D01*
X157513550Y-81197685D01*
X157696046Y-81295232D01*
X157696051Y-81295233D01*
X157696052Y-81295234D01*
X157696051Y-81295234D01*
X157894062Y-81355299D01*
X157894063Y-81355299D01*
X157894066Y-81355300D01*
X158066529Y-81372286D01*
X158099999Y-81375583D01*
X158100000Y-81375583D01*
X158100001Y-81375583D01*
X158128791Y-81372747D01*
X158305934Y-81355300D01*
X158305936Y-81355299D01*
X158305938Y-81355299D01*
X158503947Y-81295234D01*
X158503946Y-81295234D01*
X158503954Y-81295232D01*
X158686450Y-81197685D01*
X158846410Y-81066410D01*
X158977685Y-80906450D01*
X159075232Y-80723954D01*
X159135300Y-80525934D01*
X159155583Y-80320000D01*
X159135300Y-80114066D01*
X159135299Y-80114063D01*
X159135299Y-80114061D01*
X159075234Y-79916052D01*
X159075233Y-79916051D01*
X159075232Y-79916046D01*
X158977685Y-79733550D01*
X158846410Y-79573590D01*
X158686450Y-79442315D01*
X158686448Y-79442314D01*
X158686447Y-79442313D01*
X158607137Y-79399921D01*
X158503954Y-79344768D01*
X158503950Y-79344767D01*
X158503947Y-79344765D01*
X158503948Y-79344765D01*
X158305937Y-79284700D01*
X158305938Y-79284700D01*
X158100001Y-79264417D01*
X158099999Y-79264417D01*
X157894061Y-79284700D01*
X157696052Y-79344765D01*
X157696046Y-79344767D01*
X157696046Y-79344768D01*
X157685012Y-79350666D01*
X157513552Y-79442313D01*
X157353591Y-79573589D01*
X157353589Y-79573591D01*
X157222313Y-79733552D01*
X157124765Y-79916052D01*
X157064700Y-80114061D01*
X157044417Y-80319998D01*
X142992668Y-80319998D01*
X142957628Y-80251229D01*
X142862320Y-80155921D01*
X142742226Y-80094730D01*
X142742224Y-80094729D01*
X142742223Y-80094729D01*
X142742222Y-80094728D01*
X142609102Y-80073645D01*
X142609098Y-80073645D01*
X142475977Y-80094728D01*
X142475976Y-80094729D01*
X142355879Y-80155921D01*
X142284238Y-80227562D01*
X142253126Y-80240449D01*
X141552928Y-80240449D01*
X141521815Y-80227562D01*
X141508928Y-80196449D01*
X141521815Y-80165336D01*
X141556599Y-80130552D01*
X141673766Y-80013385D01*
X141673871Y-80013299D01*
X141696728Y-79990432D01*
X141696873Y-79990371D01*
X141709699Y-79977537D01*
X141709701Y-79977539D01*
X141749846Y-79937376D01*
X141810251Y-79841200D01*
X141847743Y-79733994D01*
X141860443Y-79621134D01*
X141847714Y-79508277D01*
X141847713Y-79508275D01*
X141847712Y-79508269D01*
X141810196Y-79401088D01*
X141810194Y-79401082D01*
X141749764Y-79304921D01*
X141735426Y-79290584D01*
X141660184Y-79215342D01*
X141660167Y-79215322D01*
X141637662Y-79192818D01*
X141637635Y-79192754D01*
X141584618Y-79139743D01*
X141584616Y-79139741D01*
X141488444Y-79079318D01*
X141488439Y-79079316D01*
X141381239Y-79041811D01*
X141336091Y-79036726D01*
X141268372Y-79029100D01*
X141268370Y-79029100D01*
X141268369Y-79029100D01*
X141155512Y-79041822D01*
X141155504Y-79041824D01*
X141048309Y-79079340D01*
X140952142Y-79139774D01*
X140925964Y-79165954D01*
X140925963Y-79165954D01*
X140677241Y-79414680D01*
X140646128Y-79427568D01*
X140615016Y-79414681D01*
X140615015Y-79414681D01*
X140182133Y-78981799D01*
X140169246Y-78950686D01*
X140169787Y-78943812D01*
X140174137Y-78916351D01*
X140161345Y-78835583D01*
X140153053Y-78783228D01*
X140153052Y-78783227D01*
X140153052Y-78783225D01*
X140091861Y-78663131D01*
X139996553Y-78567823D01*
X139876459Y-78506632D01*
X139876457Y-78506631D01*
X139876456Y-78506631D01*
X139876455Y-78506630D01*
X139743335Y-78485547D01*
X139743331Y-78485547D01*
X139610210Y-78506630D01*
X139610209Y-78506631D01*
X139490114Y-78567822D01*
X139394804Y-78663132D01*
X139378037Y-78696040D01*
X139352430Y-78717911D01*
X139318857Y-78715268D01*
X139296986Y-78689661D01*
X139294833Y-78676064D01*
X139294833Y-78321323D01*
X139307719Y-78290211D01*
X139379361Y-78218570D01*
X139382277Y-78212847D01*
X144426912Y-78212847D01*
X144426912Y-78212852D01*
X144447995Y-78345972D01*
X144447996Y-78345973D01*
X144447996Y-78345974D01*
X144447997Y-78345976D01*
X144509188Y-78466070D01*
X144604496Y-78561378D01*
X144724590Y-78622569D01*
X144724592Y-78622569D01*
X144724593Y-78622570D01*
X144857714Y-78643654D01*
X144857716Y-78643654D01*
X144857718Y-78643654D01*
X144990838Y-78622570D01*
X144990838Y-78622569D01*
X144990842Y-78622569D01*
X145110936Y-78561378D01*
X145206244Y-78466070D01*
X145267435Y-78345976D01*
X145274227Y-78303098D01*
X145288520Y-78212852D01*
X145288520Y-78212847D01*
X145267436Y-78079727D01*
X145267435Y-78079726D01*
X145267435Y-78079724D01*
X145206244Y-77959630D01*
X145110936Y-77864322D01*
X144990842Y-77803131D01*
X144990840Y-77803130D01*
X144990839Y-77803130D01*
X144990838Y-77803129D01*
X144857718Y-77782046D01*
X144857714Y-77782046D01*
X144724593Y-77803129D01*
X144724592Y-77803130D01*
X144604497Y-77864321D01*
X144509187Y-77959631D01*
X144447996Y-78079726D01*
X144447995Y-78079727D01*
X144426912Y-78212847D01*
X139382277Y-78212847D01*
X139440552Y-78098476D01*
X139458377Y-77985938D01*
X139461637Y-77965352D01*
X139461637Y-77965347D01*
X139440553Y-77832227D01*
X139440552Y-77832226D01*
X139440552Y-77832224D01*
X139413942Y-77779998D01*
X157044417Y-77779998D01*
X157044417Y-77780001D01*
X157064700Y-77985938D01*
X157124765Y-78183947D01*
X157124767Y-78183950D01*
X157124768Y-78183954D01*
X157143270Y-78218568D01*
X157211369Y-78345973D01*
X157222315Y-78366450D01*
X157353590Y-78526410D01*
X157513550Y-78657685D01*
X157696046Y-78755232D01*
X157696051Y-78755233D01*
X157696052Y-78755234D01*
X157696051Y-78755234D01*
X157894062Y-78815299D01*
X157894063Y-78815299D01*
X157894066Y-78815300D01*
X158066529Y-78832286D01*
X158099999Y-78835583D01*
X158100000Y-78835583D01*
X158100001Y-78835583D01*
X158128791Y-78832747D01*
X158305934Y-78815300D01*
X158305936Y-78815299D01*
X158305938Y-78815299D01*
X158503947Y-78755234D01*
X158503946Y-78755234D01*
X158503954Y-78755232D01*
X158686450Y-78657685D01*
X158846410Y-78526410D01*
X158977685Y-78366450D01*
X159075232Y-78183954D01*
X159106849Y-78079726D01*
X159135299Y-77985938D01*
X159135299Y-77985936D01*
X159135300Y-77985934D01*
X159153305Y-77803129D01*
X159155583Y-77780001D01*
X159155583Y-77779998D01*
X159138438Y-77605926D01*
X159135300Y-77574066D01*
X159135299Y-77574063D01*
X159135299Y-77574061D01*
X159075234Y-77376052D01*
X159075233Y-77376051D01*
X159075232Y-77376046D01*
X158977685Y-77193550D01*
X158846410Y-77033590D01*
X158686450Y-76902315D01*
X158686448Y-76902314D01*
X158686447Y-76902313D01*
X158622871Y-76868331D01*
X158503954Y-76804768D01*
X158503950Y-76804767D01*
X158503947Y-76804765D01*
X158503948Y-76804765D01*
X158305937Y-76744700D01*
X158305938Y-76744700D01*
X158100001Y-76724417D01*
X158099999Y-76724417D01*
X157894061Y-76744700D01*
X157696052Y-76804765D01*
X157513552Y-76902313D01*
X157353591Y-77033589D01*
X157353589Y-77033591D01*
X157222313Y-77193552D01*
X157124765Y-77376052D01*
X157064700Y-77574061D01*
X157044417Y-77779998D01*
X139413942Y-77779998D01*
X139379361Y-77712130D01*
X139284053Y-77616822D01*
X139163959Y-77555631D01*
X139163957Y-77555630D01*
X139163956Y-77555630D01*
X139163955Y-77555629D01*
X139030835Y-77534546D01*
X139030831Y-77534546D01*
X138897710Y-77555629D01*
X138897709Y-77555630D01*
X138777614Y-77616821D01*
X138682304Y-77712131D01*
X138621113Y-77832226D01*
X138621112Y-77832227D01*
X138600029Y-77965347D01*
X138600029Y-77965352D01*
X138621112Y-78098472D01*
X138621113Y-78098473D01*
X138621113Y-78098474D01*
X138621114Y-78098476D01*
X138682305Y-78218570D01*
X138753946Y-78290211D01*
X138766833Y-78321323D01*
X138766833Y-81822639D01*
X138753946Y-81853752D01*
X138301048Y-82306649D01*
X138269935Y-82319536D01*
X138263053Y-82318994D01*
X138235604Y-82314647D01*
X138235598Y-82314647D01*
X138102477Y-82335730D01*
X138102476Y-82335731D01*
X137982381Y-82396922D01*
X137887071Y-82492232D01*
X137825880Y-82612327D01*
X137825879Y-82612328D01*
X137804796Y-82745448D01*
X135046800Y-82745448D01*
X135046800Y-79748447D01*
X135977595Y-79748447D01*
X135977595Y-79748452D01*
X135998678Y-79881572D01*
X135998679Y-79881573D01*
X135998679Y-79881574D01*
X135998680Y-79881576D01*
X136059871Y-80001670D01*
X136155179Y-80096978D01*
X136275273Y-80158169D01*
X136275275Y-80158169D01*
X136275276Y-80158170D01*
X136408397Y-80179254D01*
X136408399Y-80179254D01*
X136408401Y-80179254D01*
X136541521Y-80158170D01*
X136541521Y-80158169D01*
X136541525Y-80158169D01*
X136661619Y-80096978D01*
X136756927Y-80001670D01*
X136818118Y-79881576D01*
X136824514Y-79841197D01*
X136839203Y-79748452D01*
X136839203Y-79748447D01*
X136818119Y-79615327D01*
X136818118Y-79615326D01*
X136818118Y-79615324D01*
X136756927Y-79495230D01*
X136661619Y-79399922D01*
X136541525Y-79338731D01*
X136541523Y-79338730D01*
X136541522Y-79338730D01*
X136541521Y-79338729D01*
X136408401Y-79317646D01*
X136408397Y-79317646D01*
X136275276Y-79338729D01*
X136275275Y-79338730D01*
X136155180Y-79399921D01*
X136059870Y-79495231D01*
X135998679Y-79615326D01*
X135998678Y-79615327D01*
X135977595Y-79748447D01*
X135046800Y-79748447D01*
X135046800Y-77605926D01*
X135059686Y-77574814D01*
X136381652Y-76252847D01*
X143882529Y-76252847D01*
X143882529Y-76252852D01*
X143903612Y-76385972D01*
X143903613Y-76385973D01*
X143903613Y-76385974D01*
X143903614Y-76385976D01*
X143964805Y-76506070D01*
X144060113Y-76601378D01*
X144180207Y-76662569D01*
X144180209Y-76662569D01*
X144180210Y-76662570D01*
X144313331Y-76683654D01*
X144313333Y-76683654D01*
X144313335Y-76683654D01*
X144446455Y-76662570D01*
X144446455Y-76662569D01*
X144446459Y-76662569D01*
X144566553Y-76601378D01*
X144640985Y-76526946D01*
X147917796Y-76526946D01*
X147917796Y-76526951D01*
X147938879Y-76660071D01*
X147938880Y-76660072D01*
X147938880Y-76660073D01*
X147938881Y-76660075D01*
X148000072Y-76780169D01*
X148095380Y-76875477D01*
X148215474Y-76936668D01*
X148215476Y-76936668D01*
X148215477Y-76936669D01*
X148348598Y-76957753D01*
X148348600Y-76957753D01*
X148348602Y-76957753D01*
X148481722Y-76936669D01*
X148481722Y-76936668D01*
X148481726Y-76936668D01*
X148601820Y-76875477D01*
X148697128Y-76780169D01*
X148758319Y-76660075D01*
X148779404Y-76526949D01*
X148779404Y-76526946D01*
X150217796Y-76526946D01*
X150217796Y-76526951D01*
X150238879Y-76660071D01*
X150238880Y-76660072D01*
X150238880Y-76660073D01*
X150238881Y-76660075D01*
X150300072Y-76780169D01*
X150395380Y-76875477D01*
X150515474Y-76936668D01*
X150515476Y-76936668D01*
X150515477Y-76936669D01*
X150648598Y-76957753D01*
X150648600Y-76957753D01*
X150648602Y-76957753D01*
X150781722Y-76936669D01*
X150781722Y-76936668D01*
X150781726Y-76936668D01*
X150901820Y-76875477D01*
X150997128Y-76780169D01*
X151058319Y-76660075D01*
X151079404Y-76526949D01*
X151079404Y-76526946D01*
X151058320Y-76393826D01*
X151058319Y-76393825D01*
X151058319Y-76393823D01*
X150997128Y-76273729D01*
X150901820Y-76178421D01*
X150781726Y-76117230D01*
X150781724Y-76117229D01*
X150781723Y-76117229D01*
X150781722Y-76117228D01*
X150648602Y-76096145D01*
X150648598Y-76096145D01*
X150515477Y-76117228D01*
X150515476Y-76117229D01*
X150395381Y-76178420D01*
X150300071Y-76273730D01*
X150238880Y-76393825D01*
X150238879Y-76393826D01*
X150217796Y-76526946D01*
X148779404Y-76526946D01*
X148758320Y-76393826D01*
X148758319Y-76393825D01*
X148758319Y-76393823D01*
X148697128Y-76273729D01*
X148601820Y-76178421D01*
X148481726Y-76117230D01*
X148481724Y-76117229D01*
X148481723Y-76117229D01*
X148481722Y-76117228D01*
X148348602Y-76096145D01*
X148348598Y-76096145D01*
X148215477Y-76117228D01*
X148215476Y-76117229D01*
X148095381Y-76178420D01*
X148000071Y-76273730D01*
X147938880Y-76393825D01*
X147938879Y-76393826D01*
X147917796Y-76526946D01*
X144640985Y-76526946D01*
X144661861Y-76506070D01*
X144723052Y-76385976D01*
X144740582Y-76275300D01*
X144744137Y-76252852D01*
X144744137Y-76252847D01*
X144723053Y-76119727D01*
X144723052Y-76119726D01*
X144723052Y-76119724D01*
X144661861Y-75999630D01*
X144566553Y-75904322D01*
X144446459Y-75843131D01*
X144446457Y-75843130D01*
X144446456Y-75843130D01*
X144446455Y-75843129D01*
X144313335Y-75822046D01*
X144313331Y-75822046D01*
X144180210Y-75843129D01*
X144180209Y-75843130D01*
X144060114Y-75904321D01*
X143964804Y-75999631D01*
X143903613Y-76119726D01*
X143903612Y-76119727D01*
X143882529Y-76252847D01*
X136381652Y-76252847D01*
X137155751Y-75478748D01*
X137186863Y-75465862D01*
X137193739Y-75466403D01*
X137221200Y-75470753D01*
X137221200Y-75470752D01*
X137221201Y-75470753D01*
X137221202Y-75470753D01*
X137354322Y-75449669D01*
X137354322Y-75449668D01*
X137354326Y-75449668D01*
X137474420Y-75388477D01*
X137569728Y-75293169D01*
X137630919Y-75173075D01*
X137651941Y-75040350D01*
X137651941Y-75040347D01*
X138600029Y-75040347D01*
X138600029Y-75040352D01*
X138621112Y-75173472D01*
X138621113Y-75173473D01*
X138621113Y-75173474D01*
X138621114Y-75173476D01*
X138682305Y-75293570D01*
X138777613Y-75388878D01*
X138897707Y-75450069D01*
X138897709Y-75450069D01*
X138897710Y-75450070D01*
X139030831Y-75471154D01*
X139030833Y-75471154D01*
X139030835Y-75471154D01*
X139163955Y-75450070D01*
X139163955Y-75450069D01*
X139163959Y-75450069D01*
X139284053Y-75388878D01*
X139379361Y-75293570D01*
X139406657Y-75239998D01*
X157044417Y-75239998D01*
X157044417Y-75240001D01*
X157064700Y-75445938D01*
X157124765Y-75643947D01*
X157124767Y-75643950D01*
X157124768Y-75643954D01*
X157222315Y-75826450D01*
X157353590Y-75986410D01*
X157513550Y-76117685D01*
X157696046Y-76215232D01*
X157696051Y-76215233D01*
X157696052Y-76215234D01*
X157696051Y-76215234D01*
X157894062Y-76275299D01*
X157894063Y-76275299D01*
X157894066Y-76275300D01*
X158066529Y-76292286D01*
X158099999Y-76295583D01*
X158100000Y-76295583D01*
X158100001Y-76295583D01*
X158128791Y-76292747D01*
X158305934Y-76275300D01*
X158305936Y-76275299D01*
X158305938Y-76275299D01*
X158503947Y-76215234D01*
X158503946Y-76215234D01*
X158503954Y-76215232D01*
X158686450Y-76117685D01*
X158846410Y-75986410D01*
X158977685Y-75826450D01*
X159075232Y-75643954D01*
X159129255Y-75465862D01*
X159135299Y-75445938D01*
X159135299Y-75445936D01*
X159135300Y-75445934D01*
X159155583Y-75240000D01*
X159135300Y-75034066D01*
X159135299Y-75034063D01*
X159135299Y-75034061D01*
X159075234Y-74836052D01*
X159075233Y-74836051D01*
X159075232Y-74836046D01*
X158977685Y-74653550D01*
X158846410Y-74493590D01*
X158686450Y-74362315D01*
X158686448Y-74362314D01*
X158686447Y-74362313D01*
X158622871Y-74328331D01*
X158503954Y-74264768D01*
X158503950Y-74264767D01*
X158503947Y-74264765D01*
X158503948Y-74264765D01*
X158305937Y-74204700D01*
X158305938Y-74204700D01*
X158100001Y-74184417D01*
X158099999Y-74184417D01*
X157894061Y-74204700D01*
X157696052Y-74264765D01*
X157513552Y-74362313D01*
X157353591Y-74493589D01*
X157353589Y-74493591D01*
X157222313Y-74653552D01*
X157124765Y-74836052D01*
X157064700Y-75034061D01*
X157044417Y-75239998D01*
X139406657Y-75239998D01*
X139440552Y-75173476D01*
X139440617Y-75173071D01*
X139461637Y-75040352D01*
X139461637Y-75040347D01*
X139440553Y-74907227D01*
X139440552Y-74907226D01*
X139440552Y-74907224D01*
X139379361Y-74787130D01*
X139284053Y-74691822D01*
X139163959Y-74630631D01*
X139163957Y-74630630D01*
X139163956Y-74630630D01*
X139163955Y-74630629D01*
X139030835Y-74609546D01*
X139030831Y-74609546D01*
X138897710Y-74630629D01*
X138897709Y-74630630D01*
X138777614Y-74691821D01*
X138682304Y-74787131D01*
X138621113Y-74907226D01*
X138621112Y-74907227D01*
X138600029Y-75040347D01*
X137651941Y-75040347D01*
X137652004Y-75039951D01*
X137652004Y-75039949D01*
X137651071Y-75034061D01*
X137647655Y-75012495D01*
X137655515Y-74979751D01*
X137659993Y-74974506D01*
X138475284Y-74159218D01*
X138475284Y-74159216D01*
X138756957Y-73877542D01*
X138776684Y-73866155D01*
X138795563Y-73861099D01*
X138889954Y-73806618D01*
X138967031Y-73729566D01*
X139021545Y-73635195D01*
X139025098Y-73621948D01*
X139045606Y-73595239D01*
X139067595Y-73589350D01*
X139077799Y-73589350D01*
X139108912Y-73602237D01*
X139121799Y-73633350D01*
X139121799Y-73725033D01*
X139121782Y-73725231D01*
X139121792Y-73757160D01*
X139121745Y-73757275D01*
X139121766Y-73829937D01*
X139150006Y-73935213D01*
X139204508Y-74029566D01*
X139204526Y-74029596D01*
X139231093Y-74056154D01*
X139281613Y-74106658D01*
X139376011Y-74161145D01*
X139376013Y-74161146D01*
X139481298Y-74189351D01*
X139535797Y-74189350D01*
X139582348Y-74189351D01*
X139582351Y-74189350D01*
X139789247Y-74189350D01*
X139835797Y-74189350D01*
X139888312Y-74189350D01*
X139889910Y-74189350D01*
X139890284Y-74189299D01*
X139890290Y-74189300D01*
X139995563Y-74161099D01*
X140089954Y-74106618D01*
X140167031Y-74029566D01*
X140221545Y-73935195D01*
X140237010Y-73877544D01*
X140243276Y-73854187D01*
X140263784Y-73827476D01*
X140297173Y-73823090D01*
X140323884Y-73843598D01*
X140328271Y-73854187D01*
X140350006Y-73935213D01*
X140404508Y-74029566D01*
X140404526Y-74029596D01*
X140431093Y-74056154D01*
X140481613Y-74106658D01*
X140576011Y-74161145D01*
X140576013Y-74161146D01*
X140681298Y-74189351D01*
X140735797Y-74189350D01*
X140782348Y-74189351D01*
X140782351Y-74189350D01*
X140989247Y-74189350D01*
X141035797Y-74189350D01*
X141088312Y-74189350D01*
X141089910Y-74189350D01*
X141090284Y-74189299D01*
X141090290Y-74189300D01*
X141195563Y-74161099D01*
X141289954Y-74106618D01*
X141367031Y-74029566D01*
X141421545Y-73935195D01*
X141437010Y-73877544D01*
X141443276Y-73854187D01*
X141463784Y-73827476D01*
X141497173Y-73823090D01*
X141523884Y-73843598D01*
X141528271Y-73854187D01*
X141550006Y-73935213D01*
X141604508Y-74029566D01*
X141604526Y-74029596D01*
X141631093Y-74056154D01*
X141681613Y-74106658D01*
X141776011Y-74161145D01*
X141776013Y-74161146D01*
X141881298Y-74189351D01*
X141935797Y-74189350D01*
X141982348Y-74189351D01*
X141982351Y-74189350D01*
X142189247Y-74189350D01*
X142235797Y-74189350D01*
X142288312Y-74189350D01*
X142289910Y-74189350D01*
X142290284Y-74189299D01*
X142290290Y-74189300D01*
X142395563Y-74161099D01*
X142489954Y-74106618D01*
X142567031Y-74029566D01*
X142621545Y-73935195D01*
X142625098Y-73921948D01*
X142645606Y-73895239D01*
X142667595Y-73889350D01*
X142783286Y-73889350D01*
X143044859Y-73889350D01*
X143075971Y-73902237D01*
X143147612Y-73973877D01*
X143147613Y-73973878D01*
X143267707Y-74035069D01*
X143267709Y-74035069D01*
X143267710Y-74035070D01*
X143400831Y-74056154D01*
X143400833Y-74056154D01*
X143400835Y-74056154D01*
X143533955Y-74035070D01*
X143533955Y-74035069D01*
X143533959Y-74035069D01*
X143654053Y-73973878D01*
X143749361Y-73878570D01*
X143810552Y-73758476D01*
X143810743Y-73757275D01*
X143831637Y-73625352D01*
X143831637Y-73625347D01*
X143810553Y-73492227D01*
X143810552Y-73492226D01*
X143810552Y-73492224D01*
X143749361Y-73372130D01*
X143654053Y-73276822D01*
X143533959Y-73215631D01*
X143533957Y-73215630D01*
X143533956Y-73215630D01*
X143533955Y-73215629D01*
X143400835Y-73194546D01*
X143400831Y-73194546D01*
X143267710Y-73215629D01*
X143267709Y-73215630D01*
X143147612Y-73276822D01*
X143075971Y-73348463D01*
X143044859Y-73361350D01*
X142585900Y-73361350D01*
X142585887Y-73361349D01*
X142582348Y-73361349D01*
X142535797Y-73361350D01*
X142481669Y-73361350D01*
X142481306Y-73361397D01*
X142376030Y-73389600D01*
X142376029Y-73389600D01*
X142281643Y-73444081D01*
X142204564Y-73521136D01*
X142150056Y-73615499D01*
X142150051Y-73615510D01*
X142146500Y-73628751D01*
X142125992Y-73655462D01*
X142104003Y-73661350D01*
X142093799Y-73661350D01*
X142062686Y-73648463D01*
X142049799Y-73617350D01*
X142049799Y-73525743D01*
X142049815Y-73525549D01*
X142049813Y-73521815D01*
X142049815Y-73521812D01*
X142049805Y-73493542D01*
X142049855Y-73493419D01*
X142049849Y-73475262D01*
X142049850Y-73475262D01*
X142049833Y-73420763D01*
X142021593Y-73315486D01*
X141967092Y-73221136D01*
X141967071Y-73221100D01*
X141928514Y-73182557D01*
X141889985Y-73144041D01*
X141795583Y-73089553D01*
X141795580Y-73089552D01*
X141690299Y-73061348D01*
X141690297Y-73061348D01*
X141635797Y-73061350D01*
X141385900Y-73061350D01*
X141385887Y-73061349D01*
X141382348Y-73061349D01*
X141335797Y-73061350D01*
X141281669Y-73061350D01*
X141281306Y-73061397D01*
X141176030Y-73089600D01*
X141176029Y-73089600D01*
X141081643Y-73144081D01*
X141004564Y-73221136D01*
X140950052Y-73315506D01*
X140950050Y-73315511D01*
X140928322Y-73396511D01*
X140907814Y-73423222D01*
X140874425Y-73427608D01*
X140847714Y-73407100D01*
X140843327Y-73396511D01*
X140821593Y-73315486D01*
X140767092Y-73221136D01*
X140767071Y-73221100D01*
X140728514Y-73182557D01*
X140689985Y-73144041D01*
X140595583Y-73089553D01*
X140595580Y-73089552D01*
X140490299Y-73061348D01*
X140490297Y-73061348D01*
X140435797Y-73061350D01*
X140185900Y-73061350D01*
X140185887Y-73061349D01*
X140182348Y-73061349D01*
X140135797Y-73061350D01*
X140081669Y-73061350D01*
X140081306Y-73061397D01*
X139976030Y-73089600D01*
X139976029Y-73089600D01*
X139881643Y-73144081D01*
X139804564Y-73221136D01*
X139750052Y-73315506D01*
X139750050Y-73315511D01*
X139728322Y-73396511D01*
X139707814Y-73423222D01*
X139674425Y-73427608D01*
X139647714Y-73407100D01*
X139643327Y-73396511D01*
X139621593Y-73315486D01*
X139567092Y-73221136D01*
X139567071Y-73221100D01*
X139528514Y-73182557D01*
X139489985Y-73144041D01*
X139395583Y-73089553D01*
X139395580Y-73089552D01*
X139290299Y-73061348D01*
X139290297Y-73061348D01*
X139235797Y-73061350D01*
X138985900Y-73061350D01*
X138985887Y-73061349D01*
X138982348Y-73061349D01*
X138935797Y-73061350D01*
X138881669Y-73061350D01*
X138881306Y-73061397D01*
X138776030Y-73089600D01*
X138776029Y-73089600D01*
X138681643Y-73144081D01*
X138604564Y-73221136D01*
X138550052Y-73315506D01*
X138550050Y-73315511D01*
X138538115Y-73360004D01*
X138517607Y-73386715D01*
X138510668Y-73389950D01*
X138501766Y-73393190D01*
X138498430Y-73395116D01*
X138498407Y-73395077D01*
X138490979Y-73399584D01*
X138486259Y-73401539D01*
X138486255Y-73401542D01*
X138458635Y-73429161D01*
X138455806Y-73431752D01*
X138430445Y-73453033D01*
X138430443Y-73453034D01*
X138427440Y-73458236D01*
X138420451Y-73467344D01*
X138101932Y-73785864D01*
X138101931Y-73785865D01*
X137286648Y-74601147D01*
X137255535Y-74614034D01*
X137248653Y-74613492D01*
X137221204Y-74609145D01*
X137221198Y-74609145D01*
X137088077Y-74630228D01*
X137088076Y-74630229D01*
X136967981Y-74691420D01*
X136872671Y-74786730D01*
X136811480Y-74906825D01*
X136811479Y-74906826D01*
X136790396Y-75039946D01*
X136790396Y-75039952D01*
X136794743Y-75067402D01*
X136786881Y-75100147D01*
X136782398Y-75105397D01*
X134633256Y-77254541D01*
X134633255Y-77254540D01*
X134558992Y-77328804D01*
X134518800Y-77425837D01*
X134415200Y-77425837D01*
X134415200Y-76611926D01*
X134428086Y-76580814D01*
X135530151Y-75478748D01*
X135561263Y-75465862D01*
X135568139Y-75466403D01*
X135595600Y-75470753D01*
X135595600Y-75470752D01*
X135595601Y-75470753D01*
X135595602Y-75470753D01*
X135728722Y-75449669D01*
X135728722Y-75449668D01*
X135728726Y-75449668D01*
X135848820Y-75388477D01*
X135944128Y-75293169D01*
X136005319Y-75173075D01*
X136026341Y-75040350D01*
X136026404Y-75039951D01*
X136026404Y-75039949D01*
X136025471Y-75034061D01*
X136022055Y-75012495D01*
X136029915Y-74979751D01*
X136034394Y-74974505D01*
X138066664Y-72942237D01*
X138097777Y-72929350D01*
X143044859Y-72929350D01*
X143075971Y-72942237D01*
X143147612Y-73013877D01*
X143147613Y-73013878D01*
X143267707Y-73075069D01*
X143267709Y-73075069D01*
X143267710Y-73075070D01*
X143400831Y-73096154D01*
X143400833Y-73096154D01*
X143400835Y-73096154D01*
X143533955Y-73075070D01*
X143533955Y-73075069D01*
X143533959Y-73075069D01*
X143654053Y-73013878D01*
X143749361Y-72918570D01*
X143810552Y-72798476D01*
X143826150Y-72699998D01*
X157044417Y-72699998D01*
X157044417Y-72700001D01*
X157064700Y-72905938D01*
X157124765Y-73103947D01*
X157124767Y-73103950D01*
X157124768Y-73103954D01*
X157146217Y-73144081D01*
X157217168Y-73276822D01*
X157222315Y-73286450D01*
X157353590Y-73446410D01*
X157513550Y-73577685D01*
X157696046Y-73675232D01*
X157696051Y-73675233D01*
X157696052Y-73675234D01*
X157696051Y-73675234D01*
X157894062Y-73735299D01*
X157894063Y-73735299D01*
X157894066Y-73735300D01*
X158066529Y-73752286D01*
X158099999Y-73755583D01*
X158100000Y-73755583D01*
X158100001Y-73755583D01*
X158128791Y-73752747D01*
X158305934Y-73735300D01*
X158305936Y-73735299D01*
X158305938Y-73735299D01*
X158503947Y-73675234D01*
X158503946Y-73675234D01*
X158503954Y-73675232D01*
X158686450Y-73577685D01*
X158846410Y-73446410D01*
X158977685Y-73286450D01*
X159075232Y-73103954D01*
X159135300Y-72905934D01*
X159155583Y-72700000D01*
X159152170Y-72665352D01*
X159149911Y-72642417D01*
X159135300Y-72494066D01*
X159135299Y-72494063D01*
X159135299Y-72494061D01*
X159075234Y-72296052D01*
X159075233Y-72296051D01*
X159075232Y-72296046D01*
X158977685Y-72113550D01*
X158846410Y-71953590D01*
X158686450Y-71822315D01*
X158686448Y-71822314D01*
X158686447Y-71822313D01*
X158622871Y-71788331D01*
X158503954Y-71724768D01*
X158503950Y-71724767D01*
X158503947Y-71724765D01*
X158503948Y-71724765D01*
X158305937Y-71664700D01*
X158305938Y-71664700D01*
X158100001Y-71644417D01*
X158099999Y-71644417D01*
X157894061Y-71664700D01*
X157696052Y-71724765D01*
X157513552Y-71822313D01*
X157353591Y-71953589D01*
X157353589Y-71953591D01*
X157222313Y-72113552D01*
X157124765Y-72296052D01*
X157064700Y-72494061D01*
X157044417Y-72699998D01*
X143826150Y-72699998D01*
X143831637Y-72665352D01*
X143831637Y-72665347D01*
X143810553Y-72532227D01*
X143810552Y-72532226D01*
X143810552Y-72532224D01*
X143749361Y-72412130D01*
X143654053Y-72316822D01*
X143533959Y-72255631D01*
X143533957Y-72255630D01*
X143533956Y-72255630D01*
X143533955Y-72255629D01*
X143400835Y-72234546D01*
X143400831Y-72234546D01*
X143267710Y-72255629D01*
X143267709Y-72255630D01*
X143147612Y-72316822D01*
X143075971Y-72388463D01*
X143044859Y-72401350D01*
X138022711Y-72401350D01*
X137917686Y-72401350D01*
X137891659Y-72412131D01*
X137820655Y-72441542D01*
X135661048Y-74601147D01*
X135629935Y-74614034D01*
X135623053Y-74613492D01*
X135595604Y-74609145D01*
X135595598Y-74609145D01*
X135462477Y-74630228D01*
X135462476Y-74630229D01*
X135342381Y-74691420D01*
X135247071Y-74786730D01*
X135185880Y-74906825D01*
X135185879Y-74906826D01*
X135164796Y-75039946D01*
X135164796Y-75039952D01*
X135169143Y-75067402D01*
X135161281Y-75100147D01*
X135156798Y-75105397D01*
X134001656Y-76260541D01*
X134001655Y-76260540D01*
X133927392Y-76334804D01*
X133927392Y-76334805D01*
X133887200Y-76431836D01*
X131100500Y-76431836D01*
X131100500Y-75239998D01*
X131644417Y-75239998D01*
X131644417Y-75240001D01*
X131664700Y-75445938D01*
X131724765Y-75643947D01*
X131724767Y-75643950D01*
X131724768Y-75643954D01*
X131822315Y-75826450D01*
X131953590Y-75986410D01*
X132113550Y-76117685D01*
X132296046Y-76215232D01*
X132296051Y-76215233D01*
X132296052Y-76215234D01*
X132296051Y-76215234D01*
X132494062Y-76275299D01*
X132494063Y-76275299D01*
X132494066Y-76275300D01*
X132666529Y-76292286D01*
X132699999Y-76295583D01*
X132700000Y-76295583D01*
X132700001Y-76295583D01*
X132728791Y-76292747D01*
X132905934Y-76275300D01*
X132905936Y-76275299D01*
X132905938Y-76275299D01*
X133103947Y-76215234D01*
X133103946Y-76215234D01*
X133103954Y-76215232D01*
X133286450Y-76117685D01*
X133446410Y-75986410D01*
X133577685Y-75826450D01*
X133675232Y-75643954D01*
X133729255Y-75465862D01*
X133735299Y-75445938D01*
X133735299Y-75445936D01*
X133735300Y-75445934D01*
X133755583Y-75240000D01*
X133735300Y-75034066D01*
X133735299Y-75034063D01*
X133735299Y-75034061D01*
X133675234Y-74836052D01*
X133675233Y-74836051D01*
X133675232Y-74836046D01*
X133577685Y-74653550D01*
X133446410Y-74493590D01*
X133286450Y-74362315D01*
X133286448Y-74362314D01*
X133286447Y-74362313D01*
X133222871Y-74328331D01*
X133103954Y-74264768D01*
X133103950Y-74264767D01*
X133103947Y-74264765D01*
X133103948Y-74264765D01*
X132905937Y-74204700D01*
X132905938Y-74204700D01*
X132700001Y-74184417D01*
X132699999Y-74184417D01*
X132494061Y-74204700D01*
X132296052Y-74264765D01*
X132113552Y-74362313D01*
X131953591Y-74493589D01*
X131953589Y-74493591D01*
X131822313Y-74653552D01*
X131724765Y-74836052D01*
X131664700Y-75034061D01*
X131644417Y-75239998D01*
X131100500Y-75239998D01*
X131100500Y-72699998D01*
X131644417Y-72699998D01*
X131644417Y-72700001D01*
X131664700Y-72905938D01*
X131724765Y-73103947D01*
X131724767Y-73103950D01*
X131724768Y-73103954D01*
X131746217Y-73144081D01*
X131817168Y-73276822D01*
X131822315Y-73286450D01*
X131953590Y-73446410D01*
X132113550Y-73577685D01*
X132296046Y-73675232D01*
X132296051Y-73675233D01*
X132296052Y-73675234D01*
X132296051Y-73675234D01*
X132494062Y-73735299D01*
X132494063Y-73735299D01*
X132494066Y-73735300D01*
X132666529Y-73752286D01*
X132699999Y-73755583D01*
X132700000Y-73755583D01*
X132700001Y-73755583D01*
X132728791Y-73752747D01*
X132905934Y-73735300D01*
X132905936Y-73735299D01*
X132905938Y-73735299D01*
X133103947Y-73675234D01*
X133103946Y-73675234D01*
X133103954Y-73675232D01*
X133286450Y-73577685D01*
X133446410Y-73446410D01*
X133577685Y-73286450D01*
X133675232Y-73103954D01*
X133735300Y-72905934D01*
X133755583Y-72700000D01*
X133752170Y-72665352D01*
X133749911Y-72642417D01*
X133735300Y-72494066D01*
X133735299Y-72494063D01*
X133735299Y-72494061D01*
X133675234Y-72296052D01*
X133675233Y-72296051D01*
X133675232Y-72296046D01*
X133577685Y-72113550D01*
X133446410Y-71953590D01*
X133286450Y-71822315D01*
X133286448Y-71822314D01*
X133286447Y-71822313D01*
X133222871Y-71788331D01*
X133103954Y-71724768D01*
X133103950Y-71724767D01*
X133103947Y-71724765D01*
X133103948Y-71724765D01*
X132905937Y-71664700D01*
X132905938Y-71664700D01*
X132700001Y-71644417D01*
X132699999Y-71644417D01*
X132494061Y-71664700D01*
X132296052Y-71724765D01*
X132113552Y-71822313D01*
X131953591Y-71953589D01*
X131953589Y-71953591D01*
X131822313Y-72113552D01*
X131724765Y-72296052D01*
X131664700Y-72494061D01*
X131644417Y-72699998D01*
X131100500Y-72699998D01*
X131100500Y-70159998D01*
X131644417Y-70159998D01*
X131644417Y-70160001D01*
X131664700Y-70365938D01*
X131724765Y-70563947D01*
X131724767Y-70563950D01*
X131724768Y-70563954D01*
X131822315Y-70746450D01*
X131953590Y-70906410D01*
X132113550Y-71037685D01*
X132296046Y-71135232D01*
X132296051Y-71135233D01*
X132296052Y-71135234D01*
X132296051Y-71135234D01*
X132494062Y-71195299D01*
X132494063Y-71195299D01*
X132494066Y-71195300D01*
X132666529Y-71212286D01*
X132699999Y-71215583D01*
X132700000Y-71215583D01*
X132700001Y-71215583D01*
X132728791Y-71212747D01*
X132905934Y-71195300D01*
X132905936Y-71195299D01*
X132905938Y-71195299D01*
X133103947Y-71135234D01*
X133103946Y-71135234D01*
X133103954Y-71135232D01*
X133286450Y-71037685D01*
X133446410Y-70906410D01*
X133577685Y-70746450D01*
X133665107Y-70582897D01*
X144969194Y-70582897D01*
X144969194Y-70582902D01*
X144990277Y-70716022D01*
X144990278Y-70716023D01*
X144990278Y-70716024D01*
X144990279Y-70716026D01*
X145051470Y-70836120D01*
X145146778Y-70931428D01*
X145266872Y-70992619D01*
X145266874Y-70992619D01*
X145266875Y-70992620D01*
X145399996Y-71013704D01*
X145399998Y-71013704D01*
X145400000Y-71013704D01*
X145533120Y-70992620D01*
X145533120Y-70992619D01*
X145533124Y-70992619D01*
X145653218Y-70931428D01*
X145748526Y-70836120D01*
X145809717Y-70716026D01*
X145830802Y-70582900D01*
X145830802Y-70582897D01*
X145809718Y-70449777D01*
X145809717Y-70449776D01*
X145809717Y-70449774D01*
X145748526Y-70329680D01*
X145653218Y-70234372D01*
X145533124Y-70173181D01*
X145533122Y-70173180D01*
X145533121Y-70173180D01*
X145533120Y-70173179D01*
X145449894Y-70159998D01*
X157044417Y-70159998D01*
X157044417Y-70160001D01*
X157064700Y-70365938D01*
X157124765Y-70563947D01*
X157124767Y-70563950D01*
X157124768Y-70563954D01*
X157222315Y-70746450D01*
X157353590Y-70906410D01*
X157513550Y-71037685D01*
X157696046Y-71135232D01*
X157696051Y-71135233D01*
X157696052Y-71135234D01*
X157696051Y-71135234D01*
X157894062Y-71195299D01*
X157894063Y-71195299D01*
X157894066Y-71195300D01*
X158066529Y-71212286D01*
X158099999Y-71215583D01*
X158100000Y-71215583D01*
X158100001Y-71215583D01*
X158128791Y-71212747D01*
X158305934Y-71195300D01*
X158305936Y-71195299D01*
X158305938Y-71195299D01*
X158503947Y-71135234D01*
X158503946Y-71135234D01*
X158503954Y-71135232D01*
X158686450Y-71037685D01*
X158846410Y-70906410D01*
X158977685Y-70746450D01*
X159075232Y-70563954D01*
X159135300Y-70365934D01*
X159155583Y-70160000D01*
X159135300Y-69954066D01*
X159135299Y-69954063D01*
X159135299Y-69954061D01*
X159075234Y-69756052D01*
X159075233Y-69756051D01*
X159075232Y-69756046D01*
X158977685Y-69573550D01*
X158846410Y-69413590D01*
X158686450Y-69282315D01*
X158686448Y-69282314D01*
X158686447Y-69282313D01*
X158622871Y-69248331D01*
X158503954Y-69184768D01*
X158503950Y-69184767D01*
X158503947Y-69184765D01*
X158503948Y-69184765D01*
X158305937Y-69124700D01*
X158305938Y-69124700D01*
X158100001Y-69104417D01*
X158099999Y-69104417D01*
X157894061Y-69124700D01*
X157696052Y-69184765D01*
X157513552Y-69282313D01*
X157353591Y-69413589D01*
X157353589Y-69413591D01*
X157222313Y-69573552D01*
X157124765Y-69756052D01*
X157064700Y-69954061D01*
X157044417Y-70159998D01*
X145449894Y-70159998D01*
X145400000Y-70152096D01*
X145399996Y-70152096D01*
X145266875Y-70173179D01*
X145266874Y-70173180D01*
X145146779Y-70234371D01*
X145051469Y-70329681D01*
X144990278Y-70449776D01*
X144990277Y-70449777D01*
X144969194Y-70582897D01*
X133665107Y-70582897D01*
X133675232Y-70563954D01*
X133735300Y-70365934D01*
X133755583Y-70160000D01*
X133735300Y-69954066D01*
X133735299Y-69954063D01*
X133735299Y-69954061D01*
X133675234Y-69756052D01*
X133675233Y-69756051D01*
X133675232Y-69756046D01*
X133577685Y-69573550D01*
X133544321Y-69532896D01*
X143882529Y-69532896D01*
X143882529Y-69532901D01*
X143903612Y-69666021D01*
X143903613Y-69666022D01*
X143903613Y-69666023D01*
X143903614Y-69666025D01*
X143964805Y-69786119D01*
X144060113Y-69881427D01*
X144180207Y-69942618D01*
X144180209Y-69942618D01*
X144180210Y-69942619D01*
X144313331Y-69963703D01*
X144313333Y-69963703D01*
X144313335Y-69963703D01*
X144446455Y-69942619D01*
X144446455Y-69942618D01*
X144446459Y-69942618D01*
X144566553Y-69881427D01*
X144661861Y-69786119D01*
X144723052Y-69666025D01*
X144737699Y-69573552D01*
X144744137Y-69532901D01*
X144744137Y-69532896D01*
X144723053Y-69399776D01*
X144723052Y-69399775D01*
X144723052Y-69399773D01*
X144661861Y-69279679D01*
X144566553Y-69184371D01*
X144446459Y-69123180D01*
X144446457Y-69123179D01*
X144446456Y-69123179D01*
X144446455Y-69123178D01*
X144313335Y-69102095D01*
X144313331Y-69102095D01*
X144180210Y-69123178D01*
X144180209Y-69123179D01*
X144060114Y-69184370D01*
X143964804Y-69279680D01*
X143903613Y-69399775D01*
X143903612Y-69399776D01*
X143882529Y-69532896D01*
X133544321Y-69532896D01*
X133446410Y-69413590D01*
X133286450Y-69282315D01*
X133286448Y-69282314D01*
X133286447Y-69282313D01*
X133222871Y-69248331D01*
X133103954Y-69184768D01*
X133103950Y-69184767D01*
X133103947Y-69184765D01*
X133103948Y-69184765D01*
X132905937Y-69124700D01*
X132905938Y-69124700D01*
X132700001Y-69104417D01*
X132699999Y-69104417D01*
X132494061Y-69124700D01*
X132296052Y-69184765D01*
X132113552Y-69282313D01*
X131953591Y-69413589D01*
X131953589Y-69413591D01*
X131822313Y-69573552D01*
X131724765Y-69756052D01*
X131664700Y-69954061D01*
X131644417Y-70159998D01*
X131100500Y-70159998D01*
X131100500Y-65079998D01*
X131644417Y-65079998D01*
X131644417Y-65080001D01*
X131664700Y-65285938D01*
X131724765Y-65483947D01*
X131724767Y-65483950D01*
X131724768Y-65483954D01*
X131822315Y-65666450D01*
X131953590Y-65826410D01*
X132113550Y-65957685D01*
X132296046Y-66055232D01*
X132296051Y-66055233D01*
X132296052Y-66055234D01*
X132296051Y-66055234D01*
X132494062Y-66115299D01*
X132494063Y-66115299D01*
X132494066Y-66115300D01*
X132666529Y-66132286D01*
X132699999Y-66135583D01*
X132700000Y-66135583D01*
X132700001Y-66135583D01*
X132730327Y-66132596D01*
X132905934Y-66115300D01*
X132905936Y-66115299D01*
X132905938Y-66115299D01*
X133103947Y-66055234D01*
X133103946Y-66055234D01*
X133103954Y-66055232D01*
X133286450Y-65957685D01*
X133446410Y-65826410D01*
X133577685Y-65666450D01*
X133675232Y-65483954D01*
X133718960Y-65339800D01*
X133735299Y-65285938D01*
X133735299Y-65285936D01*
X133735300Y-65285934D01*
X133755583Y-65080000D01*
X133735300Y-64874066D01*
X133735299Y-64874063D01*
X133735299Y-64874061D01*
X133675234Y-64676051D01*
X133675233Y-64676048D01*
X133675232Y-64676046D01*
X133621670Y-64575841D01*
X133618370Y-64542329D01*
X133629360Y-64523990D01*
X135133265Y-63020087D01*
X135164378Y-63007200D01*
X139088184Y-63007200D01*
X139088274Y-63007207D01*
X139092115Y-63007206D01*
X139092117Y-63007207D01*
X139120406Y-63007202D01*
X139120482Y-63007233D01*
X139138667Y-63007231D01*
X139138667Y-63007232D01*
X139195453Y-63007225D01*
X139306175Y-62981940D01*
X139408495Y-62932653D01*
X139408499Y-62932650D01*
X139497280Y-62861838D01*
X139497281Y-62861836D01*
X139497283Y-62861835D01*
X139568089Y-62773037D01*
X139617362Y-62670711D01*
X139635720Y-62590273D01*
X139655206Y-62562810D01*
X139688406Y-62557168D01*
X139715871Y-62576655D01*
X139721513Y-62590273D01*
X139739878Y-62670728D01*
X139789161Y-62773056D01*
X139789163Y-62773059D01*
X139789164Y-62773061D01*
X139859987Y-62861861D01*
X139948796Y-62932672D01*
X140051136Y-62981945D01*
X140161875Y-63007207D01*
X140218667Y-63007200D01*
X148737660Y-63007200D01*
X148768773Y-63020087D01*
X149959435Y-64210750D01*
X149972322Y-64241863D01*
X149971780Y-64248745D01*
X149967433Y-64276195D01*
X149967433Y-64276201D01*
X149988516Y-64409321D01*
X149988517Y-64409322D01*
X149988517Y-64409323D01*
X149988518Y-64409325D01*
X150049709Y-64529419D01*
X150145017Y-64624727D01*
X150265111Y-64685918D01*
X150265113Y-64685918D01*
X150265114Y-64685919D01*
X150315763Y-64693941D01*
X150344477Y-64711536D01*
X150352338Y-64744282D01*
X150334743Y-64772996D01*
X150308880Y-64781399D01*
X149937354Y-64781399D01*
X149906242Y-64768512D01*
X149834600Y-64696871D01*
X149828850Y-64693941D01*
X149714506Y-64635680D01*
X149714504Y-64635679D01*
X149714503Y-64635679D01*
X149714502Y-64635678D01*
X149581382Y-64614595D01*
X149581376Y-64614595D01*
X149553925Y-64618942D01*
X149521179Y-64611080D01*
X149515930Y-64606597D01*
X148932312Y-64022979D01*
X148165325Y-63255992D01*
X148068294Y-63215800D01*
X135430179Y-63215800D01*
X135325153Y-63215800D01*
X135228122Y-63255991D01*
X134212122Y-64271992D01*
X134212121Y-64271991D01*
X134137858Y-64346255D01*
X134137858Y-64346256D01*
X134100621Y-64436155D01*
X134097666Y-64443288D01*
X134097666Y-65830755D01*
X134084779Y-65861868D01*
X133256010Y-66690636D01*
X133224897Y-66703523D01*
X133204157Y-66698328D01*
X133103954Y-66644768D01*
X133103950Y-66644767D01*
X133103947Y-66644765D01*
X133103948Y-66644765D01*
X132905937Y-66584700D01*
X132905938Y-66584700D01*
X132700001Y-66564417D01*
X132699999Y-66564417D01*
X132494061Y-66584700D01*
X132296052Y-66644765D01*
X132113552Y-66742313D01*
X131953591Y-66873589D01*
X131953589Y-66873591D01*
X131822313Y-67033552D01*
X131724765Y-67216052D01*
X131664700Y-67414061D01*
X131644417Y-67619998D01*
X131644417Y-67620001D01*
X131664700Y-67825938D01*
X131724765Y-68023947D01*
X131724767Y-68023950D01*
X131724768Y-68023954D01*
X131822315Y-68206450D01*
X131953590Y-68366410D01*
X132113550Y-68497685D01*
X132296046Y-68595232D01*
X132296051Y-68595233D01*
X132296052Y-68595234D01*
X132296051Y-68595234D01*
X132494062Y-68655299D01*
X132494063Y-68655299D01*
X132494066Y-68655300D01*
X132666529Y-68672286D01*
X132699999Y-68675583D01*
X132700000Y-68675583D01*
X132700001Y-68675583D01*
X132728791Y-68672747D01*
X132905934Y-68655300D01*
X132905936Y-68655299D01*
X132905938Y-68655299D01*
X133103947Y-68595234D01*
X133103946Y-68595234D01*
X133103954Y-68595232D01*
X133286450Y-68497685D01*
X133446410Y-68366410D01*
X133577685Y-68206450D01*
X133675232Y-68023954D01*
X133697243Y-67951391D01*
X133735299Y-67825938D01*
X133735299Y-67825936D01*
X133735300Y-67825934D01*
X133755583Y-67620000D01*
X133735300Y-67414066D01*
X133735299Y-67414063D01*
X133735299Y-67414061D01*
X133732974Y-67406397D01*
X137112529Y-67406397D01*
X137112529Y-67406402D01*
X137133612Y-67539522D01*
X137133613Y-67539523D01*
X137133613Y-67539524D01*
X137133614Y-67539526D01*
X137194805Y-67659620D01*
X137290113Y-67754928D01*
X137410207Y-67816119D01*
X137410209Y-67816119D01*
X137410210Y-67816120D01*
X137543331Y-67837204D01*
X137543333Y-67837204D01*
X137543335Y-67837204D01*
X137676455Y-67816120D01*
X137676455Y-67816119D01*
X137676459Y-67816119D01*
X137796553Y-67754928D01*
X137891861Y-67659620D01*
X137953052Y-67539526D01*
X137974137Y-67406400D01*
X137974137Y-67406397D01*
X142012529Y-67406397D01*
X142012529Y-67406402D01*
X142033612Y-67539522D01*
X142033613Y-67539523D01*
X142033613Y-67539524D01*
X142033614Y-67539526D01*
X142094805Y-67659620D01*
X142190113Y-67754928D01*
X142310207Y-67816119D01*
X142310209Y-67816119D01*
X142310210Y-67816120D01*
X142443331Y-67837204D01*
X142443333Y-67837204D01*
X142443335Y-67837204D01*
X142576455Y-67816120D01*
X142576455Y-67816119D01*
X142576459Y-67816119D01*
X142696553Y-67754928D01*
X142791861Y-67659620D01*
X142853052Y-67539526D01*
X142874137Y-67406400D01*
X142874137Y-67406397D01*
X147925862Y-67406397D01*
X147925862Y-67406402D01*
X147946945Y-67539522D01*
X147946946Y-67539523D01*
X147946946Y-67539524D01*
X147946947Y-67539526D01*
X148008138Y-67659620D01*
X148103446Y-67754928D01*
X148223540Y-67816119D01*
X148223542Y-67816119D01*
X148223543Y-67816120D01*
X148356664Y-67837204D01*
X148356666Y-67837204D01*
X148356668Y-67837204D01*
X148489788Y-67816120D01*
X148489788Y-67816119D01*
X148489792Y-67816119D01*
X148609886Y-67754928D01*
X148705194Y-67659620D01*
X148766385Y-67539526D01*
X148787470Y-67406400D01*
X148787470Y-67406397D01*
X152825862Y-67406397D01*
X152825862Y-67406402D01*
X152846945Y-67539522D01*
X152846946Y-67539523D01*
X152846946Y-67539524D01*
X152846947Y-67539526D01*
X152908138Y-67659620D01*
X153003446Y-67754928D01*
X153123540Y-67816119D01*
X153123542Y-67816119D01*
X153123543Y-67816120D01*
X153256664Y-67837204D01*
X153256666Y-67837204D01*
X153256668Y-67837204D01*
X153389788Y-67816120D01*
X153389788Y-67816119D01*
X153389792Y-67816119D01*
X153509886Y-67754928D01*
X153605194Y-67659620D01*
X153625382Y-67619998D01*
X157044417Y-67619998D01*
X157044417Y-67620001D01*
X157064700Y-67825938D01*
X157124765Y-68023947D01*
X157124767Y-68023950D01*
X157124768Y-68023954D01*
X157222315Y-68206450D01*
X157353590Y-68366410D01*
X157513550Y-68497685D01*
X157696046Y-68595232D01*
X157696051Y-68595233D01*
X157696052Y-68595234D01*
X157696051Y-68595234D01*
X157894062Y-68655299D01*
X157894063Y-68655299D01*
X157894066Y-68655300D01*
X158066529Y-68672286D01*
X158099999Y-68675583D01*
X158100000Y-68675583D01*
X158100001Y-68675583D01*
X158128791Y-68672747D01*
X158305934Y-68655300D01*
X158305936Y-68655299D01*
X158305938Y-68655299D01*
X158503947Y-68595234D01*
X158503946Y-68595234D01*
X158503954Y-68595232D01*
X158686450Y-68497685D01*
X158846410Y-68366410D01*
X158977685Y-68206450D01*
X159075232Y-68023954D01*
X159097243Y-67951391D01*
X159135299Y-67825938D01*
X159135299Y-67825936D01*
X159135300Y-67825934D01*
X159155583Y-67620000D01*
X159135300Y-67414066D01*
X159135299Y-67414063D01*
X159135299Y-67414061D01*
X159075234Y-67216052D01*
X159075233Y-67216051D01*
X159075232Y-67216046D01*
X158977685Y-67033550D01*
X158846410Y-66873590D01*
X158686450Y-66742315D01*
X158686448Y-66742314D01*
X158686447Y-66742313D01*
X158579190Y-66684983D01*
X158503954Y-66644768D01*
X158503950Y-66644767D01*
X158503947Y-66644765D01*
X158503948Y-66644765D01*
X158305937Y-66584700D01*
X158305938Y-66584700D01*
X158100001Y-66564417D01*
X158099999Y-66564417D01*
X157894061Y-66584700D01*
X157696052Y-66644765D01*
X157513552Y-66742313D01*
X157353591Y-66873589D01*
X157353589Y-66873591D01*
X157222313Y-67033552D01*
X157124765Y-67216052D01*
X157064700Y-67414061D01*
X157044417Y-67619998D01*
X153625382Y-67619998D01*
X153666385Y-67539526D01*
X153687470Y-67406400D01*
X153687470Y-67406397D01*
X153666386Y-67273277D01*
X153666385Y-67273276D01*
X153666385Y-67273274D01*
X153605194Y-67153180D01*
X153509886Y-67057872D01*
X153389792Y-66996681D01*
X153389790Y-66996680D01*
X153389789Y-66996680D01*
X153389788Y-66996679D01*
X153256668Y-66975596D01*
X153256664Y-66975596D01*
X153123543Y-66996679D01*
X153123542Y-66996680D01*
X153003447Y-67057871D01*
X152908137Y-67153181D01*
X152846946Y-67273276D01*
X152846945Y-67273277D01*
X152825862Y-67406397D01*
X148787470Y-67406397D01*
X148766386Y-67273277D01*
X148766385Y-67273276D01*
X148766385Y-67273274D01*
X148705194Y-67153180D01*
X148609886Y-67057872D01*
X148489792Y-66996681D01*
X148489790Y-66996680D01*
X148489789Y-66996680D01*
X148489788Y-66996679D01*
X148356668Y-66975596D01*
X148356664Y-66975596D01*
X148223543Y-66996679D01*
X148223542Y-66996680D01*
X148103447Y-67057871D01*
X148008137Y-67153181D01*
X147946946Y-67273276D01*
X147946945Y-67273277D01*
X147925862Y-67406397D01*
X142874137Y-67406397D01*
X142853053Y-67273277D01*
X142853052Y-67273276D01*
X142853052Y-67273274D01*
X142791861Y-67153180D01*
X142696553Y-67057872D01*
X142576459Y-66996681D01*
X142576457Y-66996680D01*
X142576456Y-66996680D01*
X142576455Y-66996679D01*
X142443335Y-66975596D01*
X142443331Y-66975596D01*
X142310210Y-66996679D01*
X142310209Y-66996680D01*
X142190114Y-67057871D01*
X142094804Y-67153181D01*
X142033613Y-67273276D01*
X142033612Y-67273277D01*
X142012529Y-67406397D01*
X137974137Y-67406397D01*
X137953053Y-67273277D01*
X137953052Y-67273276D01*
X137953052Y-67273274D01*
X137891861Y-67153180D01*
X137796553Y-67057872D01*
X137676459Y-66996681D01*
X137676457Y-66996680D01*
X137676456Y-66996680D01*
X137676455Y-66996679D01*
X137543335Y-66975596D01*
X137543331Y-66975596D01*
X137410210Y-66996679D01*
X137410209Y-66996680D01*
X137290114Y-67057871D01*
X137194804Y-67153181D01*
X137133613Y-67273276D01*
X137133612Y-67273277D01*
X137112529Y-67406397D01*
X133732974Y-67406397D01*
X133675234Y-67216051D01*
X133675233Y-67216048D01*
X133621671Y-67115843D01*
X133618370Y-67082329D01*
X133629360Y-67063990D01*
X134585475Y-66107878D01*
X134625666Y-66010846D01*
X134625666Y-65905821D01*
X134625666Y-64842541D01*
X134919333Y-64842541D01*
X134919333Y-65339799D01*
X134919334Y-65339800D01*
X135373333Y-65339800D01*
X135373333Y-65593800D01*
X134919334Y-65593800D01*
X134919333Y-65593801D01*
X134919333Y-66091058D01*
X134948309Y-66236734D01*
X135005149Y-66373957D01*
X135087661Y-66497444D01*
X135192688Y-66602471D01*
X135316175Y-66684983D01*
X135453399Y-66741823D01*
X135546333Y-66760308D01*
X135546333Y-66289887D01*
X135557537Y-66296356D01*
X135633837Y-66316800D01*
X135712829Y-66316800D01*
X135789129Y-66296356D01*
X135800333Y-66289887D01*
X135800333Y-66760308D01*
X135893266Y-66741823D01*
X136030490Y-66684983D01*
X136153977Y-66602471D01*
X136259004Y-66497444D01*
X136341516Y-66373957D01*
X136398356Y-66236734D01*
X136427333Y-66091058D01*
X136427333Y-65593801D01*
X136427332Y-65593800D01*
X135973333Y-65593800D01*
X135973333Y-65339800D01*
X136427332Y-65339800D01*
X136427333Y-65339799D01*
X136427333Y-64867617D01*
X136577833Y-64867617D01*
X136577833Y-65005983D01*
X136613645Y-65139636D01*
X136682828Y-65259465D01*
X136780668Y-65357305D01*
X136900497Y-65426488D01*
X137034150Y-65462300D01*
X137034152Y-65462300D01*
X137172514Y-65462300D01*
X137172516Y-65462300D01*
X137306169Y-65426488D01*
X137425998Y-65357305D01*
X137523838Y-65259465D01*
X137593021Y-65139636D01*
X137618272Y-65045396D01*
X138337242Y-65045396D01*
X138337242Y-65045401D01*
X138358325Y-65178521D01*
X138358326Y-65178522D01*
X138358326Y-65178523D01*
X138358327Y-65178525D01*
X138419518Y-65298619D01*
X138514826Y-65393927D01*
X138634920Y-65455118D01*
X138634922Y-65455118D01*
X138634923Y-65455119D01*
X138768044Y-65476203D01*
X138768046Y-65476203D01*
X138768048Y-65476203D01*
X138901168Y-65455119D01*
X138901168Y-65455118D01*
X138901172Y-65455118D01*
X139021266Y-65393927D01*
X139116574Y-65298619D01*
X139177765Y-65178525D01*
X139183925Y-65139636D01*
X139198850Y-65045401D01*
X139198850Y-65045396D01*
X139177766Y-64912276D01*
X139177765Y-64912275D01*
X139177765Y-64912273D01*
X139116574Y-64792179D01*
X139021266Y-64696871D01*
X138901172Y-64635680D01*
X138901170Y-64635679D01*
X138901169Y-64635679D01*
X138901168Y-64635678D01*
X138768048Y-64614595D01*
X138768044Y-64614595D01*
X138634923Y-64635678D01*
X138634922Y-64635679D01*
X138514827Y-64696870D01*
X138419517Y-64792180D01*
X138358326Y-64912275D01*
X138358325Y-64912276D01*
X138337242Y-65045396D01*
X137618272Y-65045396D01*
X137628833Y-65005983D01*
X137628833Y-64867617D01*
X137593021Y-64733964D01*
X137523838Y-64614135D01*
X137425998Y-64516295D01*
X137386055Y-64493234D01*
X137306173Y-64447114D01*
X137306170Y-64447113D01*
X137306169Y-64447112D01*
X137306167Y-64447111D01*
X137306166Y-64447111D01*
X137265277Y-64436155D01*
X137172516Y-64411300D01*
X137034150Y-64411300D01*
X136962528Y-64430490D01*
X136900499Y-64447111D01*
X136900492Y-64447114D01*
X136780669Y-64516294D01*
X136682827Y-64614136D01*
X136613647Y-64733959D01*
X136613644Y-64733966D01*
X136610880Y-64744282D01*
X136577833Y-64867617D01*
X136427333Y-64867617D01*
X136427333Y-64842541D01*
X136398356Y-64696865D01*
X136341516Y-64559642D01*
X136259004Y-64436155D01*
X136153977Y-64331128D01*
X136071766Y-64276196D01*
X139154099Y-64276196D01*
X139154099Y-64276201D01*
X139175182Y-64409321D01*
X139175183Y-64409322D01*
X139175183Y-64409323D01*
X139175184Y-64409325D01*
X139236375Y-64529419D01*
X139331683Y-64624727D01*
X139451777Y-64685918D01*
X139451779Y-64685918D01*
X139451780Y-64685919D01*
X139584901Y-64707003D01*
X139584902Y-64707003D01*
X139584902Y-64707002D01*
X139584903Y-64707003D01*
X139612355Y-64702654D01*
X139645099Y-64710514D01*
X139650351Y-64714999D01*
X140130295Y-65194943D01*
X140130294Y-65194943D01*
X140194815Y-65259463D01*
X140204559Y-65269207D01*
X140301590Y-65309399D01*
X140862643Y-65309399D01*
X140893755Y-65322286D01*
X140965396Y-65393926D01*
X140965397Y-65393927D01*
X141085491Y-65455118D01*
X141085493Y-65455118D01*
X141085494Y-65455119D01*
X141218615Y-65476203D01*
X141218617Y-65476203D01*
X141218619Y-65476203D01*
X141351739Y-65455119D01*
X141351739Y-65455118D01*
X141351743Y-65455118D01*
X141471837Y-65393927D01*
X141567145Y-65298619D01*
X141628336Y-65178525D01*
X141634496Y-65139636D01*
X141649421Y-65045401D01*
X141649421Y-65045396D01*
X141628337Y-64912276D01*
X141628336Y-64912275D01*
X141628336Y-64912273D01*
X141605583Y-64867617D01*
X142357833Y-64867617D01*
X142357833Y-65005983D01*
X142393645Y-65139636D01*
X142462828Y-65259465D01*
X142560668Y-65357305D01*
X142680497Y-65426488D01*
X142814150Y-65462300D01*
X142814152Y-65462300D01*
X142952514Y-65462300D01*
X142952516Y-65462300D01*
X143086169Y-65426488D01*
X143205998Y-65357305D01*
X143303838Y-65259465D01*
X143373021Y-65139636D01*
X143408833Y-65005983D01*
X143408833Y-64867617D01*
X143402114Y-64842541D01*
X143559333Y-64842541D01*
X143559333Y-65339799D01*
X143559334Y-65339800D01*
X144013333Y-65339800D01*
X144013333Y-65593800D01*
X143559334Y-65593800D01*
X143559333Y-65593801D01*
X143559333Y-66091058D01*
X143588309Y-66236734D01*
X143645149Y-66373957D01*
X143727661Y-66497444D01*
X143832688Y-66602471D01*
X143956175Y-66684983D01*
X144093399Y-66741823D01*
X144186333Y-66760308D01*
X144186333Y-66289887D01*
X144197537Y-66296356D01*
X144273837Y-66316800D01*
X144352829Y-66316800D01*
X144429129Y-66296356D01*
X144440333Y-66289887D01*
X144440333Y-66760308D01*
X144533266Y-66741823D01*
X144670490Y-66684983D01*
X144793977Y-66602471D01*
X144899004Y-66497444D01*
X144981516Y-66373957D01*
X145038356Y-66236734D01*
X145067333Y-66091058D01*
X145067333Y-65593801D01*
X145067332Y-65593800D01*
X144613333Y-65593800D01*
X144613333Y-65339800D01*
X145067332Y-65339800D01*
X145067333Y-65339799D01*
X145067333Y-64842541D01*
X145732666Y-64842541D01*
X145732666Y-65339799D01*
X145732667Y-65339800D01*
X146186666Y-65339800D01*
X146186666Y-65593800D01*
X145732667Y-65593800D01*
X145732666Y-65593801D01*
X145732666Y-66091058D01*
X145761642Y-66236734D01*
X145818482Y-66373957D01*
X145900994Y-66497444D01*
X146006021Y-66602471D01*
X146129508Y-66684983D01*
X146266732Y-66741823D01*
X146359666Y-66760308D01*
X146359666Y-66289887D01*
X146370870Y-66296356D01*
X146447170Y-66316800D01*
X146526162Y-66316800D01*
X146602462Y-66296356D01*
X146613666Y-66289887D01*
X146613666Y-66760308D01*
X146706599Y-66741823D01*
X146843823Y-66684983D01*
X146967310Y-66602471D01*
X147072337Y-66497444D01*
X147154849Y-66373957D01*
X147211689Y-66236734D01*
X147240666Y-66091058D01*
X147240666Y-65593801D01*
X147240665Y-65593800D01*
X146786666Y-65593800D01*
X146786666Y-65339800D01*
X147240665Y-65339800D01*
X147240666Y-65339799D01*
X147240666Y-64867617D01*
X147391166Y-64867617D01*
X147391166Y-65005983D01*
X147426978Y-65139636D01*
X147496161Y-65259465D01*
X147594001Y-65357305D01*
X147713830Y-65426488D01*
X147847483Y-65462300D01*
X147847485Y-65462300D01*
X147985847Y-65462300D01*
X147985849Y-65462300D01*
X148119502Y-65426488D01*
X148239331Y-65357305D01*
X148337171Y-65259465D01*
X148406354Y-65139636D01*
X148442166Y-65005983D01*
X148442166Y-64867617D01*
X148406354Y-64733964D01*
X148337171Y-64614135D01*
X148239331Y-64516295D01*
X148199388Y-64493234D01*
X148119506Y-64447114D01*
X148119503Y-64447113D01*
X148119502Y-64447112D01*
X148119500Y-64447111D01*
X148119499Y-64447111D01*
X148078610Y-64436155D01*
X147985849Y-64411300D01*
X147847483Y-64411300D01*
X147775861Y-64430490D01*
X147713832Y-64447111D01*
X147713825Y-64447114D01*
X147594002Y-64516294D01*
X147496160Y-64614136D01*
X147426980Y-64733959D01*
X147426977Y-64733966D01*
X147424213Y-64744282D01*
X147391166Y-64867617D01*
X147240666Y-64867617D01*
X147240666Y-64842541D01*
X147211689Y-64696865D01*
X147154849Y-64559642D01*
X147072337Y-64436155D01*
X146967310Y-64331128D01*
X146843823Y-64248616D01*
X146706600Y-64191776D01*
X146613666Y-64173290D01*
X146613666Y-64643712D01*
X146602462Y-64637244D01*
X146526162Y-64616800D01*
X146447170Y-64616800D01*
X146370870Y-64637244D01*
X146359666Y-64643712D01*
X146359666Y-64173290D01*
X146266731Y-64191776D01*
X146129508Y-64248616D01*
X146006021Y-64331128D01*
X145900994Y-64436155D01*
X145818482Y-64559642D01*
X145761642Y-64696865D01*
X145732666Y-64842541D01*
X145067333Y-64842541D01*
X145038356Y-64696865D01*
X144981516Y-64559642D01*
X144899004Y-64436155D01*
X144793977Y-64331128D01*
X144670490Y-64248616D01*
X144533267Y-64191776D01*
X144440333Y-64173290D01*
X144440333Y-64643712D01*
X144429129Y-64637244D01*
X144352829Y-64616800D01*
X144273837Y-64616800D01*
X144197537Y-64637244D01*
X144186333Y-64643712D01*
X144186333Y-64173290D01*
X144093398Y-64191776D01*
X143956175Y-64248616D01*
X143832688Y-64331128D01*
X143727661Y-64436155D01*
X143645149Y-64559642D01*
X143588309Y-64696865D01*
X143559333Y-64842541D01*
X143402114Y-64842541D01*
X143373021Y-64733964D01*
X143303838Y-64614135D01*
X143205998Y-64516295D01*
X143166055Y-64493234D01*
X143086173Y-64447114D01*
X143086170Y-64447113D01*
X143086169Y-64447112D01*
X143086167Y-64447111D01*
X143086166Y-64447111D01*
X143045277Y-64436155D01*
X142952516Y-64411300D01*
X142814150Y-64411300D01*
X142742528Y-64430490D01*
X142680499Y-64447111D01*
X142680492Y-64447114D01*
X142560669Y-64516294D01*
X142462827Y-64614136D01*
X142393647Y-64733959D01*
X142393644Y-64733966D01*
X142390880Y-64744282D01*
X142357833Y-64867617D01*
X141605583Y-64867617D01*
X141567145Y-64792179D01*
X141471837Y-64696871D01*
X141351743Y-64635680D01*
X141351741Y-64635679D01*
X141351740Y-64635679D01*
X141351739Y-64635678D01*
X141218619Y-64614595D01*
X141218615Y-64614595D01*
X141085494Y-64635678D01*
X141085493Y-64635679D01*
X140965396Y-64696871D01*
X140893755Y-64768512D01*
X140862643Y-64781399D01*
X140491117Y-64781399D01*
X140460004Y-64768512D01*
X140447117Y-64737399D01*
X140460004Y-64706286D01*
X140484234Y-64693941D01*
X140534882Y-64685919D01*
X140534882Y-64685918D01*
X140534886Y-64685918D01*
X140654980Y-64624727D01*
X140750288Y-64529419D01*
X140811479Y-64409325D01*
X140821469Y-64346255D01*
X140832564Y-64276201D01*
X140832564Y-64276196D01*
X140811480Y-64143076D01*
X140811479Y-64143075D01*
X140811479Y-64143073D01*
X140750288Y-64022979D01*
X140654980Y-63927671D01*
X140534886Y-63866480D01*
X140534884Y-63866479D01*
X140534883Y-63866479D01*
X140534882Y-63866478D01*
X140401762Y-63845395D01*
X140401758Y-63845395D01*
X140268637Y-63866478D01*
X140268636Y-63866479D01*
X140148541Y-63927670D01*
X140053231Y-64022980D01*
X140032535Y-64063598D01*
X140006927Y-64085469D01*
X139973355Y-64082826D01*
X139954127Y-64063597D01*
X139933432Y-64022981D01*
X139933431Y-64022979D01*
X139838123Y-63927671D01*
X139718029Y-63866480D01*
X139718027Y-63866479D01*
X139718026Y-63866479D01*
X139718025Y-63866478D01*
X139584905Y-63845395D01*
X139584901Y-63845395D01*
X139451780Y-63866478D01*
X139451779Y-63866479D01*
X139331684Y-63927670D01*
X139236374Y-64022980D01*
X139175183Y-64143075D01*
X139175182Y-64143076D01*
X139154099Y-64276196D01*
X136071766Y-64276196D01*
X136030490Y-64248616D01*
X135893267Y-64191776D01*
X135800333Y-64173290D01*
X135800333Y-64643712D01*
X135789129Y-64637244D01*
X135712829Y-64616800D01*
X135633837Y-64616800D01*
X135557537Y-64637244D01*
X135546333Y-64643712D01*
X135546333Y-64173290D01*
X135453398Y-64191776D01*
X135316175Y-64248616D01*
X135192688Y-64331128D01*
X135087661Y-64436155D01*
X135005149Y-64559642D01*
X134948309Y-64696865D01*
X134919333Y-64842541D01*
X134625666Y-64842541D01*
X134625666Y-64623378D01*
X134638553Y-64592265D01*
X135474132Y-63756687D01*
X135505245Y-63743800D01*
X147888203Y-63743800D01*
X147919316Y-63756687D01*
X149142578Y-64979949D01*
X149155465Y-65011062D01*
X149154923Y-65017944D01*
X149150576Y-65045395D01*
X149150576Y-65045401D01*
X149171659Y-65178521D01*
X149171660Y-65178522D01*
X149171660Y-65178523D01*
X149171661Y-65178525D01*
X149232852Y-65298619D01*
X149328160Y-65393927D01*
X149448254Y-65455118D01*
X149448256Y-65455118D01*
X149448257Y-65455119D01*
X149581378Y-65476203D01*
X149581380Y-65476203D01*
X149581382Y-65476203D01*
X149714502Y-65455119D01*
X149714502Y-65455118D01*
X149714506Y-65455118D01*
X149834600Y-65393927D01*
X149871222Y-65357305D01*
X149906242Y-65322286D01*
X149937354Y-65309399D01*
X150498406Y-65309399D01*
X150498407Y-65309399D01*
X150595438Y-65269207D01*
X150819248Y-65045396D01*
X151601147Y-65045396D01*
X151601147Y-65045401D01*
X151622230Y-65178521D01*
X151622231Y-65178522D01*
X151622231Y-65178523D01*
X151622232Y-65178525D01*
X151683423Y-65298619D01*
X151778731Y-65393927D01*
X151898825Y-65455118D01*
X151898827Y-65455118D01*
X151898828Y-65455119D01*
X152031949Y-65476203D01*
X152031951Y-65476203D01*
X152031953Y-65476203D01*
X152165073Y-65455119D01*
X152165073Y-65455118D01*
X152165077Y-65455118D01*
X152285171Y-65393927D01*
X152380479Y-65298619D01*
X152441670Y-65178525D01*
X152447830Y-65139636D01*
X152462755Y-65045401D01*
X152462755Y-65045396D01*
X152441671Y-64912276D01*
X152441670Y-64912275D01*
X152441670Y-64912273D01*
X152418917Y-64867617D01*
X153171166Y-64867617D01*
X153171166Y-65005983D01*
X153206978Y-65139636D01*
X153276161Y-65259465D01*
X153374001Y-65357305D01*
X153493830Y-65426488D01*
X153627483Y-65462300D01*
X153627485Y-65462300D01*
X153765847Y-65462300D01*
X153765849Y-65462300D01*
X153899502Y-65426488D01*
X154019331Y-65357305D01*
X154117171Y-65259465D01*
X154186354Y-65139636D01*
X154222166Y-65005983D01*
X154222166Y-64867617D01*
X154215447Y-64842541D01*
X154372666Y-64842541D01*
X154372666Y-65339799D01*
X154372667Y-65339800D01*
X154826666Y-65339800D01*
X154826666Y-65593800D01*
X154372667Y-65593800D01*
X154372666Y-65593801D01*
X154372666Y-66091058D01*
X154401642Y-66236734D01*
X154458482Y-66373957D01*
X154540994Y-66497444D01*
X154646021Y-66602471D01*
X154769508Y-66684983D01*
X154906732Y-66741823D01*
X154999666Y-66760308D01*
X154999666Y-66289887D01*
X155010870Y-66296356D01*
X155087170Y-66316800D01*
X155166162Y-66316800D01*
X155242462Y-66296356D01*
X155253666Y-66289887D01*
X155253666Y-66760308D01*
X155346599Y-66741823D01*
X155483823Y-66684983D01*
X155607310Y-66602471D01*
X155712337Y-66497444D01*
X155794849Y-66373957D01*
X155851689Y-66236734D01*
X155880666Y-66091058D01*
X155880666Y-65593801D01*
X155880665Y-65593800D01*
X155426666Y-65593800D01*
X155426666Y-65339800D01*
X155880665Y-65339800D01*
X155880666Y-65339799D01*
X155880666Y-65079998D01*
X157044417Y-65079998D01*
X157044417Y-65080001D01*
X157064700Y-65285938D01*
X157124765Y-65483947D01*
X157124767Y-65483950D01*
X157124768Y-65483954D01*
X157222315Y-65666450D01*
X157353590Y-65826410D01*
X157513550Y-65957685D01*
X157696046Y-66055232D01*
X157696051Y-66055233D01*
X157696052Y-66055234D01*
X157696051Y-66055234D01*
X157894062Y-66115299D01*
X157894063Y-66115299D01*
X157894066Y-66115300D01*
X158066529Y-66132286D01*
X158099999Y-66135583D01*
X158100000Y-66135583D01*
X158100001Y-66135583D01*
X158130327Y-66132596D01*
X158305934Y-66115300D01*
X158305936Y-66115299D01*
X158305938Y-66115299D01*
X158503947Y-66055234D01*
X158503946Y-66055234D01*
X158503954Y-66055232D01*
X158686450Y-65957685D01*
X158846410Y-65826410D01*
X158977685Y-65666450D01*
X159075232Y-65483954D01*
X159118960Y-65339800D01*
X159135299Y-65285938D01*
X159135299Y-65285936D01*
X159135300Y-65285934D01*
X159155583Y-65080000D01*
X159135300Y-64874066D01*
X159135299Y-64874063D01*
X159135299Y-64874061D01*
X159075234Y-64676052D01*
X159075233Y-64676051D01*
X159075232Y-64676046D01*
X158977685Y-64493550D01*
X158846410Y-64333590D01*
X158686450Y-64202315D01*
X158686448Y-64202314D01*
X158686447Y-64202313D01*
X158589766Y-64150636D01*
X158503954Y-64104768D01*
X158503950Y-64104767D01*
X158503947Y-64104765D01*
X158503948Y-64104765D01*
X158305937Y-64044700D01*
X158305938Y-64044700D01*
X158100001Y-64024417D01*
X158099999Y-64024417D01*
X157894061Y-64044700D01*
X157696052Y-64104765D01*
X157513552Y-64202313D01*
X157353591Y-64333589D01*
X157353589Y-64333591D01*
X157222313Y-64493552D01*
X157124765Y-64676052D01*
X157064700Y-64874061D01*
X157044417Y-65079998D01*
X155880666Y-65079998D01*
X155880666Y-64842541D01*
X155851689Y-64696865D01*
X155794849Y-64559642D01*
X155712337Y-64436155D01*
X155607310Y-64331128D01*
X155483823Y-64248616D01*
X155346600Y-64191776D01*
X155253666Y-64173290D01*
X155253666Y-64643712D01*
X155242462Y-64637244D01*
X155166162Y-64616800D01*
X155087170Y-64616800D01*
X155010870Y-64637244D01*
X154999666Y-64643712D01*
X154999666Y-64173290D01*
X154906731Y-64191776D01*
X154769508Y-64248616D01*
X154646021Y-64331128D01*
X154540994Y-64436155D01*
X154458482Y-64559642D01*
X154401642Y-64696865D01*
X154372666Y-64842541D01*
X154215447Y-64842541D01*
X154186354Y-64733964D01*
X154117171Y-64614135D01*
X154019331Y-64516295D01*
X153979388Y-64493234D01*
X153899506Y-64447114D01*
X153899503Y-64447113D01*
X153899502Y-64447112D01*
X153899500Y-64447111D01*
X153899499Y-64447111D01*
X153858610Y-64436155D01*
X153765849Y-64411300D01*
X153627483Y-64411300D01*
X153555861Y-64430490D01*
X153493832Y-64447111D01*
X153493825Y-64447114D01*
X153374002Y-64516294D01*
X153276160Y-64614136D01*
X153206980Y-64733959D01*
X153206977Y-64733966D01*
X153204213Y-64744282D01*
X153171166Y-64867617D01*
X152418917Y-64867617D01*
X152380479Y-64792179D01*
X152285171Y-64696871D01*
X152165077Y-64635680D01*
X152165075Y-64635679D01*
X152165074Y-64635679D01*
X152165073Y-64635678D01*
X152031953Y-64614595D01*
X152031949Y-64614595D01*
X151898828Y-64635678D01*
X151898827Y-64635679D01*
X151778732Y-64696870D01*
X151683422Y-64792180D01*
X151622231Y-64912275D01*
X151622230Y-64912276D01*
X151601147Y-65045396D01*
X150819248Y-65045396D01*
X151149645Y-64714998D01*
X151180757Y-64702112D01*
X151187633Y-64702653D01*
X151215094Y-64707003D01*
X151215094Y-64707002D01*
X151215095Y-64707003D01*
X151215096Y-64707003D01*
X151348216Y-64685919D01*
X151348216Y-64685918D01*
X151348220Y-64685918D01*
X151468314Y-64624727D01*
X151563622Y-64529419D01*
X151624813Y-64409325D01*
X151634803Y-64346255D01*
X151645898Y-64276201D01*
X151645898Y-64276196D01*
X151624814Y-64143076D01*
X151624813Y-64143075D01*
X151624813Y-64143073D01*
X151563622Y-64022979D01*
X151468314Y-63927671D01*
X151348220Y-63866480D01*
X151348218Y-63866479D01*
X151348217Y-63866479D01*
X151348216Y-63866478D01*
X151215096Y-63845395D01*
X151215092Y-63845395D01*
X151081971Y-63866478D01*
X151081970Y-63866479D01*
X150961875Y-63927670D01*
X150866565Y-64022980D01*
X150845869Y-64063598D01*
X150820261Y-64085469D01*
X150786689Y-64082826D01*
X150767461Y-64063597D01*
X150746766Y-64022981D01*
X150746765Y-64022979D01*
X150651457Y-63927671D01*
X150531363Y-63866480D01*
X150531361Y-63866479D01*
X150531360Y-63866479D01*
X150531359Y-63866478D01*
X150398239Y-63845395D01*
X150398233Y-63845395D01*
X150370783Y-63849742D01*
X150338038Y-63841880D01*
X150332788Y-63837397D01*
X150010623Y-63515232D01*
X149035388Y-62539998D01*
X157044417Y-62539998D01*
X157044417Y-62540001D01*
X157064700Y-62745938D01*
X157124765Y-62943947D01*
X157124767Y-62943950D01*
X157124768Y-62943954D01*
X157176106Y-63040000D01*
X157220831Y-63123675D01*
X157222315Y-63126450D01*
X157353590Y-63286410D01*
X157513550Y-63417685D01*
X157696046Y-63515232D01*
X157696051Y-63515233D01*
X157696052Y-63515234D01*
X157696051Y-63515234D01*
X157894062Y-63575299D01*
X157894063Y-63575299D01*
X157894066Y-63575300D01*
X158066529Y-63592286D01*
X158099999Y-63595583D01*
X158100000Y-63595583D01*
X158100001Y-63595583D01*
X158128791Y-63592747D01*
X158305934Y-63575300D01*
X158305936Y-63575299D01*
X158305938Y-63575299D01*
X158503947Y-63515234D01*
X158503946Y-63515234D01*
X158503954Y-63515232D01*
X158686450Y-63417685D01*
X158846410Y-63286410D01*
X158977685Y-63126450D01*
X159075232Y-62943954D01*
X159127078Y-62773038D01*
X159135299Y-62745938D01*
X159135299Y-62745936D01*
X159135300Y-62745934D01*
X159155583Y-62540000D01*
X159151958Y-62503200D01*
X159141519Y-62397207D01*
X159135300Y-62334066D01*
X159135299Y-62334063D01*
X159135299Y-62334061D01*
X159075234Y-62136052D01*
X159075233Y-62136051D01*
X159075232Y-62136046D01*
X158977685Y-61953550D01*
X158846410Y-61793590D01*
X158686450Y-61662315D01*
X158686448Y-61662314D01*
X158686447Y-61662313D01*
X158619064Y-61626296D01*
X158503954Y-61564768D01*
X158503950Y-61564767D01*
X158503947Y-61564765D01*
X158503948Y-61564765D01*
X158305937Y-61504700D01*
X158305938Y-61504700D01*
X158100001Y-61484417D01*
X158099999Y-61484417D01*
X157894061Y-61504700D01*
X157696052Y-61564765D01*
X157513552Y-61662313D01*
X157353591Y-61793589D01*
X157353589Y-61793591D01*
X157222313Y-61953552D01*
X157124765Y-62136052D01*
X157064700Y-62334061D01*
X157044417Y-62539998D01*
X149035388Y-62539998D01*
X149014782Y-62519392D01*
X148917751Y-62479200D01*
X148917750Y-62479200D01*
X140286632Y-62479200D01*
X140255519Y-62466313D01*
X140242632Y-62435200D01*
X140242632Y-62316704D01*
X140242599Y-62316413D01*
X140217332Y-62205701D01*
X140217330Y-62205696D01*
X140183794Y-62136052D01*
X140168062Y-62103380D01*
X140168061Y-62103379D01*
X140168061Y-62103378D01*
X140097260Y-62014586D01*
X140074729Y-61996616D01*
X140008478Y-61943774D01*
X140008437Y-61943754D01*
X139906162Y-61894489D01*
X139795450Y-61869207D01*
X139795362Y-61869206D01*
X139795289Y-61869200D01*
X139791145Y-61869200D01*
X139738667Y-61869200D01*
X139688274Y-61869192D01*
X139688184Y-61869200D01*
X139562098Y-61869200D01*
X139561884Y-61869224D01*
X139561880Y-61869225D01*
X139561879Y-61869225D01*
X139451147Y-61894485D01*
X139451143Y-61894486D01*
X139451140Y-61894488D01*
X139348815Y-61943753D01*
X139348814Y-61943754D01*
X139260012Y-62014560D01*
X139260010Y-62014562D01*
X139189189Y-62103357D01*
X139139908Y-62205682D01*
X139114632Y-62316411D01*
X139114632Y-62435200D01*
X139101745Y-62466313D01*
X139070632Y-62479200D01*
X135089312Y-62479200D01*
X134984287Y-62479200D01*
X134926347Y-62503200D01*
X134887256Y-62519392D01*
X133256010Y-64150636D01*
X133224897Y-64163523D01*
X133204157Y-64158328D01*
X133103954Y-64104768D01*
X133103950Y-64104767D01*
X133103947Y-64104765D01*
X133103948Y-64104765D01*
X132905937Y-64044700D01*
X132905938Y-64044700D01*
X132700001Y-64024417D01*
X132699999Y-64024417D01*
X132494061Y-64044700D01*
X132296052Y-64104765D01*
X132113552Y-64202313D01*
X131953591Y-64333589D01*
X131953589Y-64333591D01*
X131822313Y-64493552D01*
X131724765Y-64676052D01*
X131664700Y-64874061D01*
X131644417Y-65079998D01*
X131100500Y-65079998D01*
X131100500Y-62539997D01*
X131591270Y-62539997D01*
X131591270Y-62540002D01*
X131610147Y-62743726D01*
X131610147Y-62743729D01*
X131666138Y-62940516D01*
X131757340Y-63123672D01*
X131834518Y-63225874D01*
X132268233Y-62792158D01*
X132299901Y-62847007D01*
X132392993Y-62940099D01*
X132447839Y-62971764D01*
X132012473Y-63407130D01*
X132031838Y-63424784D01*
X132031839Y-63424785D01*
X132205801Y-63532495D01*
X132396580Y-63606404D01*
X132597695Y-63643999D01*
X132597701Y-63644000D01*
X132802299Y-63644000D01*
X132802304Y-63643999D01*
X133003419Y-63606404D01*
X133194198Y-63532495D01*
X133368160Y-63424784D01*
X133368161Y-63424783D01*
X133387524Y-63407129D01*
X132952159Y-62971765D01*
X133007007Y-62940099D01*
X133100099Y-62847007D01*
X133131765Y-62792159D01*
X133565480Y-63225874D01*
X133642657Y-63123675D01*
X133642658Y-63123674D01*
X133733861Y-62940516D01*
X133789852Y-62743729D01*
X133789852Y-62743726D01*
X133808730Y-62540002D01*
X133808730Y-62539997D01*
X133789852Y-62336273D01*
X133789852Y-62336270D01*
X133733861Y-62139483D01*
X133642659Y-61956327D01*
X133565480Y-61854124D01*
X133131764Y-62287839D01*
X133100099Y-62232993D01*
X133007007Y-62139901D01*
X132952158Y-62108233D01*
X133387524Y-61672868D01*
X133368157Y-61655213D01*
X133194198Y-61547504D01*
X133003419Y-61473595D01*
X132802304Y-61436000D01*
X132597695Y-61436000D01*
X132396580Y-61473595D01*
X132205801Y-61547504D01*
X132031840Y-61655214D01*
X132031839Y-61655215D01*
X132012474Y-61672868D01*
X132447840Y-62108234D01*
X132392993Y-62139901D01*
X132299901Y-62232993D01*
X132268234Y-62287840D01*
X131834518Y-61854124D01*
X131757340Y-61956327D01*
X131666138Y-62139483D01*
X131610147Y-62336270D01*
X131610147Y-62336273D01*
X131591270Y-62539997D01*
X131100500Y-62539997D01*
X131100500Y-59999997D01*
X131591270Y-59999997D01*
X131591270Y-60000002D01*
X131610147Y-60203726D01*
X131610147Y-60203729D01*
X131666138Y-60400516D01*
X131757340Y-60583672D01*
X131834518Y-60685874D01*
X132268233Y-60252158D01*
X132299901Y-60307007D01*
X132392993Y-60400099D01*
X132447839Y-60431764D01*
X132012473Y-60867130D01*
X132031838Y-60884784D01*
X132031839Y-60884785D01*
X132205801Y-60992495D01*
X132396580Y-61066404D01*
X132597695Y-61103999D01*
X132597701Y-61104000D01*
X132802299Y-61104000D01*
X132802304Y-61103999D01*
X133003419Y-61066404D01*
X133194198Y-60992495D01*
X133323330Y-60912541D01*
X134919333Y-60912541D01*
X134919333Y-61159799D01*
X134919334Y-61159800D01*
X135373333Y-61159800D01*
X135373333Y-61413800D01*
X134919334Y-61413800D01*
X134919333Y-61413801D01*
X134919333Y-61661058D01*
X134948309Y-61806734D01*
X135005149Y-61943957D01*
X135087661Y-62067444D01*
X135192688Y-62172471D01*
X135316175Y-62254983D01*
X135453399Y-62311823D01*
X135546333Y-62330308D01*
X135546333Y-61859887D01*
X135557537Y-61866356D01*
X135633837Y-61886800D01*
X135712829Y-61886800D01*
X135789129Y-61866356D01*
X135800333Y-61859887D01*
X135800333Y-62330308D01*
X135893266Y-62311823D01*
X136030490Y-62254983D01*
X136153977Y-62172471D01*
X136259004Y-62067444D01*
X136341516Y-61943957D01*
X136398356Y-61806734D01*
X136427333Y-61661058D01*
X136427333Y-61413801D01*
X136427332Y-61413800D01*
X135973333Y-61413800D01*
X135973333Y-61159800D01*
X136427332Y-61159800D01*
X136427333Y-61159799D01*
X136427333Y-60912541D01*
X143559333Y-60912541D01*
X143559333Y-61159799D01*
X143559334Y-61159800D01*
X144013333Y-61159800D01*
X144013333Y-61413800D01*
X143559334Y-61413800D01*
X143559333Y-61413801D01*
X143559333Y-61661058D01*
X143588309Y-61806734D01*
X143645149Y-61943957D01*
X143727661Y-62067444D01*
X143832688Y-62172471D01*
X143956175Y-62254983D01*
X144093399Y-62311823D01*
X144186333Y-62330308D01*
X144186333Y-61859887D01*
X144197537Y-61866356D01*
X144273837Y-61886800D01*
X144352829Y-61886800D01*
X144429129Y-61866356D01*
X144440333Y-61859887D01*
X144440333Y-62330308D01*
X144533266Y-62311823D01*
X144670490Y-62254983D01*
X144793977Y-62172471D01*
X144899004Y-62067444D01*
X144981516Y-61943957D01*
X145038356Y-61806734D01*
X145067333Y-61661058D01*
X145067333Y-61413801D01*
X145067332Y-61413800D01*
X144613333Y-61413800D01*
X144613333Y-61159800D01*
X145067332Y-61159800D01*
X145067333Y-61159799D01*
X145067333Y-60912541D01*
X145732666Y-60912541D01*
X145732666Y-61159799D01*
X145732667Y-61159800D01*
X146186666Y-61159800D01*
X146186666Y-61413800D01*
X145732667Y-61413800D01*
X145732666Y-61413801D01*
X145732666Y-61661058D01*
X145761642Y-61806734D01*
X145818482Y-61943957D01*
X145900994Y-62067444D01*
X146006021Y-62172471D01*
X146129508Y-62254983D01*
X146266732Y-62311823D01*
X146359666Y-62330308D01*
X146359666Y-61859887D01*
X146370870Y-61866356D01*
X146447170Y-61886800D01*
X146526162Y-61886800D01*
X146602462Y-61866356D01*
X146613666Y-61859887D01*
X146613666Y-62330308D01*
X146706599Y-62311823D01*
X146843823Y-62254983D01*
X146967310Y-62172471D01*
X147072337Y-62067444D01*
X147154849Y-61943957D01*
X147211689Y-61806734D01*
X147240666Y-61661058D01*
X147240666Y-61413801D01*
X147240665Y-61413800D01*
X146786666Y-61413800D01*
X146786666Y-61159800D01*
X147240665Y-61159800D01*
X147240666Y-61159799D01*
X147240666Y-60912541D01*
X154372666Y-60912541D01*
X154372666Y-61159799D01*
X154372667Y-61159800D01*
X154826666Y-61159800D01*
X154826666Y-61413800D01*
X154372667Y-61413800D01*
X154372666Y-61413801D01*
X154372666Y-61661058D01*
X154401642Y-61806734D01*
X154458482Y-61943957D01*
X154540994Y-62067444D01*
X154646021Y-62172471D01*
X154769508Y-62254983D01*
X154906732Y-62311823D01*
X154999666Y-62330308D01*
X154999666Y-61859887D01*
X155010870Y-61866356D01*
X155087170Y-61886800D01*
X155166162Y-61886800D01*
X155242462Y-61866356D01*
X155253666Y-61859887D01*
X155253666Y-62330308D01*
X155346599Y-62311823D01*
X155483823Y-62254983D01*
X155607310Y-62172471D01*
X155712337Y-62067444D01*
X155794849Y-61943957D01*
X155851689Y-61806734D01*
X155880666Y-61661058D01*
X155880666Y-61413801D01*
X155880665Y-61413800D01*
X155426666Y-61413800D01*
X155426666Y-61159800D01*
X155880665Y-61159800D01*
X155880666Y-61159799D01*
X155880666Y-60912541D01*
X155851689Y-60766865D01*
X155794849Y-60629642D01*
X155712337Y-60506155D01*
X155607310Y-60401128D01*
X155483823Y-60318616D01*
X155346600Y-60261776D01*
X155253666Y-60243290D01*
X155253666Y-60713712D01*
X155242462Y-60707244D01*
X155166162Y-60686800D01*
X155087170Y-60686800D01*
X155010870Y-60707244D01*
X154999666Y-60713712D01*
X154999666Y-60243290D01*
X154906731Y-60261776D01*
X154769508Y-60318616D01*
X154646021Y-60401128D01*
X154540994Y-60506155D01*
X154458482Y-60629642D01*
X154401642Y-60766865D01*
X154372666Y-60912541D01*
X147240666Y-60912541D01*
X147211689Y-60766865D01*
X147154849Y-60629642D01*
X147072337Y-60506155D01*
X146967310Y-60401128D01*
X146843823Y-60318616D01*
X146706600Y-60261776D01*
X146613666Y-60243290D01*
X146613666Y-60713712D01*
X146602462Y-60707244D01*
X146526162Y-60686800D01*
X146447170Y-60686800D01*
X146370870Y-60707244D01*
X146359666Y-60713712D01*
X146359666Y-60243290D01*
X146266731Y-60261776D01*
X146129508Y-60318616D01*
X146006021Y-60401128D01*
X145900994Y-60506155D01*
X145818482Y-60629642D01*
X145761642Y-60766865D01*
X145732666Y-60912541D01*
X145067333Y-60912541D01*
X145038356Y-60766865D01*
X144981516Y-60629642D01*
X144899004Y-60506155D01*
X144793977Y-60401128D01*
X144670490Y-60318616D01*
X144533267Y-60261776D01*
X144440333Y-60243290D01*
X144440333Y-60713712D01*
X144429129Y-60707244D01*
X144352829Y-60686800D01*
X144273837Y-60686800D01*
X144197537Y-60707244D01*
X144186333Y-60713712D01*
X144186333Y-60243290D01*
X144093398Y-60261776D01*
X143956175Y-60318616D01*
X143832688Y-60401128D01*
X143727661Y-60506155D01*
X143645149Y-60629642D01*
X143588309Y-60766865D01*
X143559333Y-60912541D01*
X136427333Y-60912541D01*
X136398356Y-60766865D01*
X136341516Y-60629642D01*
X136259004Y-60506155D01*
X136153977Y-60401128D01*
X136030490Y-60318616D01*
X135893267Y-60261776D01*
X135800333Y-60243290D01*
X135800333Y-60713712D01*
X135789129Y-60707244D01*
X135712829Y-60686800D01*
X135633837Y-60686800D01*
X135557537Y-60707244D01*
X135546333Y-60713712D01*
X135546333Y-60243290D01*
X135453398Y-60261776D01*
X135316175Y-60318616D01*
X135192688Y-60401128D01*
X135087661Y-60506155D01*
X135005149Y-60629642D01*
X134948309Y-60766865D01*
X134919333Y-60912541D01*
X133323330Y-60912541D01*
X133368160Y-60884784D01*
X133368161Y-60884783D01*
X133387524Y-60867129D01*
X132952159Y-60431765D01*
X133007007Y-60400099D01*
X133100099Y-60307007D01*
X133131765Y-60252159D01*
X133565480Y-60685874D01*
X133642657Y-60583675D01*
X133642658Y-60583674D01*
X133733861Y-60400516D01*
X133789852Y-60203729D01*
X133789852Y-60203726D01*
X133808730Y-60000002D01*
X133808730Y-59999997D01*
X156991270Y-59999997D01*
X156991270Y-60000002D01*
X157010147Y-60203726D01*
X157010147Y-60203729D01*
X157066138Y-60400516D01*
X157157340Y-60583672D01*
X157234518Y-60685874D01*
X157668233Y-60252158D01*
X157699901Y-60307007D01*
X157792993Y-60400099D01*
X157847839Y-60431764D01*
X157412473Y-60867130D01*
X157431838Y-60884784D01*
X157431839Y-60884785D01*
X157605801Y-60992495D01*
X157796580Y-61066404D01*
X157997695Y-61103999D01*
X157997701Y-61104000D01*
X158202299Y-61104000D01*
X158202304Y-61103999D01*
X158403419Y-61066404D01*
X158594198Y-60992495D01*
X158768160Y-60884784D01*
X158768161Y-60884783D01*
X158787524Y-60867129D01*
X158352159Y-60431765D01*
X158407007Y-60400099D01*
X158500099Y-60307007D01*
X158531765Y-60252159D01*
X158965480Y-60685874D01*
X159042657Y-60583675D01*
X159042658Y-60583674D01*
X159133861Y-60400516D01*
X159189852Y-60203729D01*
X159189852Y-60203726D01*
X159208730Y-60000002D01*
X159208730Y-59999997D01*
X159189852Y-59796273D01*
X159189852Y-59796270D01*
X159133861Y-59599483D01*
X159042659Y-59416327D01*
X158965480Y-59314124D01*
X158531764Y-59747839D01*
X158500099Y-59692993D01*
X158407007Y-59599901D01*
X158352158Y-59568233D01*
X158787524Y-59132868D01*
X158768157Y-59115213D01*
X158594198Y-59007504D01*
X158403419Y-58933595D01*
X158202304Y-58896000D01*
X157997695Y-58896000D01*
X157796580Y-58933595D01*
X157605801Y-59007504D01*
X157431840Y-59115214D01*
X157431839Y-59115215D01*
X157412474Y-59132868D01*
X157847840Y-59568234D01*
X157792993Y-59599901D01*
X157699901Y-59692993D01*
X157668234Y-59747840D01*
X157234518Y-59314124D01*
X157157340Y-59416327D01*
X157066138Y-59599483D01*
X157010147Y-59796270D01*
X157010147Y-59796273D01*
X156991270Y-59999997D01*
X133808730Y-59999997D01*
X133789852Y-59796273D01*
X133789852Y-59796270D01*
X133733861Y-59599483D01*
X133642659Y-59416327D01*
X133565480Y-59314124D01*
X133131764Y-59747839D01*
X133100099Y-59692993D01*
X133007007Y-59599901D01*
X132952158Y-59568233D01*
X133387524Y-59132868D01*
X133368157Y-59115213D01*
X133194198Y-59007504D01*
X133003419Y-58933595D01*
X132802304Y-58896000D01*
X132597695Y-58896000D01*
X132396580Y-58933595D01*
X132205801Y-59007504D01*
X132031840Y-59115214D01*
X132031839Y-59115215D01*
X132012474Y-59132868D01*
X132447840Y-59568234D01*
X132392993Y-59599901D01*
X132299901Y-59692993D01*
X132268234Y-59747840D01*
X131834518Y-59314124D01*
X131757340Y-59416327D01*
X131666138Y-59599483D01*
X131610147Y-59796270D01*
X131610147Y-59796273D01*
X131591270Y-59999997D01*
X131100500Y-59999997D01*
X131100500Y-58711460D01*
X131101042Y-58704577D01*
X131114460Y-58619854D01*
X131118710Y-58606773D01*
X131156064Y-58533462D01*
X131164150Y-58522332D01*
X131222332Y-58464150D01*
X131233462Y-58456064D01*
X131306773Y-58418710D01*
X131319854Y-58414460D01*
X131404578Y-58401042D01*
X131411461Y-58400500D01*
X131447882Y-58400500D01*
X159352118Y-58400500D01*
X159388539Y-58400500D01*
X159395422Y-58401042D01*
G37*
G04 #@! TD.AperFunction*
D17*
X130900000Y-58708000D02*
X130900000Y-114692000D01*
X159900000Y-114692000D02*
G75*
G02*
X159392000Y-115200000I-508000J0D01*
G01*
X159392000Y-58200000D02*
X131408000Y-58200000D01*
X159392000Y-115200000D02*
X131408000Y-115200000D01*
X159392000Y-58200000D02*
G75*
G02*
X159900000Y-58708000I0J-508000D01*
G01*
X130900000Y-58708000D02*
G75*
G02*
X131408000Y-58200000I508000J0D01*
G01*
X131408000Y-115200000D02*
G75*
G02*
X130900000Y-114692000I0J508000D01*
G01*
X159900000Y-114692000D02*
X159900000Y-58708000D01*
M02*
