G04 #@! TF.GenerationSoftware,KiCad,Pcbnew,8.0.7*
G04 #@! TF.CreationDate,2025-01-06T21:38:41-05:00*
G04 #@! TF.ProjectId,BCD-S3-DevKitC-1-N16R8V,4243442d-5333-42d4-9465-764b6974432d,1.0*
G04 #@! TF.SameCoordinates,Original*
G04 #@! TF.FileFunction,Soldermask,Top*
G04 #@! TF.FilePolarity,Negative*
%FSLAX46Y46*%
G04 Gerber Fmt 4.6, Leading zero omitted, Abs format (unit mm)*
G04 Created by KiCad (PCBNEW 8.0.7) date 2025-01-06 21:38:41*
%MOMM*%
%LPD*%
G01*
G04 APERTURE LIST*
G04 Aperture macros list*
%AMRoundRect*
0 Rectangle with rounded corners*
0 $1 Rounding radius*
0 $2 $3 $4 $5 $6 $7 $8 $9 X,Y pos of 4 corners*
0 Add a 4 corners polygon primitive as box body*
4,1,4,$2,$3,$4,$5,$6,$7,$8,$9,$2,$3,0*
0 Add four circle primitives for the rounded corners*
1,1,$1+$1,$2,$3*
1,1,$1+$1,$4,$5*
1,1,$1+$1,$6,$7*
1,1,$1+$1,$8,$9*
0 Add four rect primitives between the rounded corners*
20,1,$1+$1,$2,$3,$4,$5,0*
20,1,$1+$1,$4,$5,$6,$7,0*
20,1,$1+$1,$6,$7,$8,$9,0*
20,1,$1+$1,$8,$9,$2,$3,0*%
%AMOutline5P*
0 Free polygon, 5 corners , with rotation*
0 The origin of the aperture is its center*
0 number of corners: always 5*
0 $1 to $10 corner X, Y*
0 $11 Rotation angle, in degrees counterclockwise*
0 create outline with 5 corners*
4,1,5,$1,$2,$3,$4,$5,$6,$7,$8,$9,$10,$1,$2,$11*%
%AMOutline6P*
0 Free polygon, 6 corners , with rotation*
0 The origin of the aperture is its center*
0 number of corners: always 6*
0 $1 to $12 corner X, Y*
0 $13 Rotation angle, in degrees counterclockwise*
0 create outline with 6 corners*
4,1,6,$1,$2,$3,$4,$5,$6,$7,$8,$9,$10,$11,$12,$1,$2,$13*%
%AMOutline7P*
0 Free polygon, 7 corners , with rotation*
0 The origin of the aperture is its center*
0 number of corners: always 7*
0 $1 to $14 corner X, Y*
0 $15 Rotation angle, in degrees counterclockwise*
0 create outline with 7 corners*
4,1,7,$1,$2,$3,$4,$5,$6,$7,$8,$9,$10,$11,$12,$13,$14,$1,$2,$15*%
%AMOutline8P*
0 Free polygon, 8 corners , with rotation*
0 The origin of the aperture is its center*
0 number of corners: always 8*
0 $1 to $16 corner X, Y*
0 $17 Rotation angle, in degrees counterclockwise*
0 create outline with 8 corners*
4,1,8,$1,$2,$3,$4,$5,$6,$7,$8,$9,$10,$11,$12,$13,$14,$15,$16,$1,$2,$17*%
%AMFreePoly0*
4,1,19,0.550000,-0.750000,0.000000,-0.750000,0.000000,-0.744911,-0.071157,-0.744911,-0.207708,-0.704816,-0.327430,-0.627875,-0.420627,-0.520320,-0.479746,-0.390866,-0.500000,-0.250000,-0.500000,0.250000,-0.479746,0.390866,-0.420627,0.520320,-0.327430,0.627875,-0.207708,0.704816,-0.071157,0.744911,0.000000,0.744911,0.000000,0.750000,0.550000,0.750000,0.550000,-0.750000,0.550000,-0.750000,
$1*%
%AMFreePoly1*
4,1,19,0.000000,0.744911,0.071157,0.744911,0.207708,0.704816,0.327430,0.627875,0.420627,0.520320,0.479746,0.390866,0.500000,0.250000,0.500000,-0.250000,0.479746,-0.390866,0.420627,-0.520320,0.327430,-0.627875,0.207708,-0.704816,0.071157,-0.744911,0.000000,-0.744911,0.000000,-0.750000,-0.550000,-0.750000,-0.550000,0.750000,0.000000,0.750000,0.000000,0.744911,0.000000,0.744911,
$1*%
G04 Aperture macros list end*
%ADD10O,1.000000X1.600000*%
%ADD11O,1.000000X2.100000*%
%ADD12R,0.600000X1.450000*%
%ADD13R,0.300000X1.450000*%
%ADD14C,0.650000*%
%ADD15RoundRect,0.225000X0.250000X-0.225000X0.250000X0.225000X-0.250000X0.225000X-0.250000X-0.225000X0*%
%ADD16RoundRect,0.135000X-0.185000X0.135000X-0.185000X-0.135000X0.185000X-0.135000X0.185000X0.135000X0*%
%ADD17RoundRect,0.140000X0.140000X0.170000X-0.140000X0.170000X-0.140000X-0.170000X0.140000X-0.170000X0*%
%ADD18R,0.750000X1.000000*%
%ADD19RoundRect,0.140000X0.170000X-0.140000X0.170000X0.140000X-0.170000X0.140000X-0.170000X-0.140000X0*%
%ADD20RoundRect,0.218750X0.256250X-0.218750X0.256250X0.218750X-0.256250X0.218750X-0.256250X-0.218750X0*%
%ADD21RoundRect,0.135000X0.185000X-0.135000X0.185000X0.135000X-0.185000X0.135000X-0.185000X-0.135000X0*%
%ADD22RoundRect,0.062500X0.350000X0.062500X-0.350000X0.062500X-0.350000X-0.062500X0.350000X-0.062500X0*%
%ADD23RoundRect,0.062500X0.062500X0.350000X-0.062500X0.350000X-0.062500X-0.350000X0.062500X-0.350000X0*%
%ADD24R,1.700000X1.700000*%
%ADD25RoundRect,0.150000X-0.150000X0.587500X-0.150000X-0.587500X0.150000X-0.587500X0.150000X0.587500X0*%
%ADD26RoundRect,0.140000X-0.140000X-0.170000X0.140000X-0.170000X0.140000X0.170000X-0.140000X0.170000X0*%
%ADD27RoundRect,0.218750X-0.218750X-0.256250X0.218750X-0.256250X0.218750X0.256250X-0.218750X0.256250X0*%
%ADD28RoundRect,0.140000X-0.170000X0.140000X-0.170000X-0.140000X0.170000X-0.140000X0.170000X0.140000X0*%
%ADD29RoundRect,0.218750X-0.256250X0.218750X-0.256250X-0.218750X0.256250X-0.218750X0.256250X0.218750X0*%
%ADD30RoundRect,0.135000X-0.135000X-0.185000X0.135000X-0.185000X0.135000X0.185000X-0.135000X0.185000X0*%
%ADD31RoundRect,0.112500X0.112500X-0.187500X0.112500X0.187500X-0.112500X0.187500X-0.112500X-0.187500X0*%
%ADD32FreePoly0,0.000000*%
%ADD33R,1.000000X1.500000*%
%ADD34FreePoly1,0.000000*%
%ADD35RoundRect,0.375000X-0.375000X0.625000X-0.375000X-0.625000X0.375000X-0.625000X0.375000X0.625000X0*%
%ADD36RoundRect,0.500000X-1.400000X0.500000X-1.400000X-0.500000X1.400000X-0.500000X1.400000X0.500000X0*%
%ADD37RoundRect,0.100000X-0.650000X-0.400000X0.650000X-0.400000X0.650000X0.400000X-0.650000X0.400000X0*%
%ADD38C,1.700000*%
%ADD39C,0.450000*%
%ADD40Outline6P,-1.000000X0.270000X-0.820000X0.450000X1.000000X0.450000X1.000000X-0.450000X-0.820000X-0.450000X-1.000000X-0.270000X180.000000*%
%ADD41Outline6P,-1.000000X0.270000X-0.820000X0.450000X1.000000X0.450000X1.000000X-0.450000X-0.820000X-0.450000X-1.000000X-0.270000X270.000000*%
%ADD42Outline6P,-1.000000X0.270000X-0.820000X0.450000X1.000000X0.450000X1.000000X-0.450000X-0.820000X-0.450000X-1.000000X-0.270000X0.000000*%
%ADD43C,3.500000*%
%ADD44R,3.900000X3.900000*%
G04 #@! TA.AperFunction,Profile*
%ADD45C,0.050000*%
G04 #@! TD*
G04 APERTURE END LIST*
D10*
X135673333Y-61286800D03*
D11*
X135673333Y-65466800D03*
D10*
X144313333Y-61286800D03*
D11*
X144313333Y-65466800D03*
D12*
X143243333Y-66381800D03*
X142443333Y-66381800D03*
D13*
X141743333Y-66381800D03*
X140743333Y-66381800D03*
X139243333Y-66381800D03*
X138243333Y-66381800D03*
D12*
X137543333Y-66381800D03*
X136743333Y-66381800D03*
X136743333Y-66381800D03*
X137543333Y-66381800D03*
D13*
X138743333Y-66381800D03*
X139743333Y-66381800D03*
X140243333Y-66381800D03*
X141243333Y-66381800D03*
D12*
X142443333Y-66381800D03*
X143243333Y-66381800D03*
D14*
X137103333Y-64936800D03*
X142883333Y-64936800D03*
D15*
X149868600Y-75697450D03*
X149868600Y-74147450D03*
D16*
X141585700Y-88610450D03*
X141585700Y-89630450D03*
D17*
X139808600Y-84696450D03*
X138848600Y-84696450D03*
D16*
X138243333Y-69562900D03*
X138243333Y-70582900D03*
D18*
X154740000Y-86650000D03*
X154740000Y-92650000D03*
X150990000Y-86650000D03*
X150990000Y-92650000D03*
D19*
X143400833Y-78212850D03*
X143400833Y-77252850D03*
D16*
X141743333Y-69562900D03*
X141743333Y-70582900D03*
D20*
X135673333Y-71189650D03*
X135673333Y-69614650D03*
D16*
X142609100Y-81114950D03*
X142609100Y-82134950D03*
D21*
X135595600Y-76806950D03*
X135595600Y-75786950D03*
D22*
X141955833Y-77252850D03*
X141955833Y-76752850D03*
X141955833Y-76252850D03*
X141955833Y-75752850D03*
D23*
X141243333Y-75040350D03*
X140743333Y-75040350D03*
X140243333Y-75040350D03*
X139743333Y-75040350D03*
D22*
X139030833Y-75752850D03*
X139030833Y-76252850D03*
X139030833Y-76752850D03*
X139030833Y-77252850D03*
D23*
X139743333Y-77965350D03*
X140243333Y-77965350D03*
X140743333Y-77965350D03*
X141243333Y-77965350D03*
D24*
X140493333Y-76502850D03*
D25*
X145745850Y-81114950D03*
X143845850Y-81114950D03*
X144795850Y-82989950D03*
D26*
X145404600Y-84696450D03*
X146364600Y-84696450D03*
D16*
X149056666Y-69592900D03*
X149056666Y-70612900D03*
D27*
X144632499Y-72201900D03*
X146207499Y-72201900D03*
D15*
X151428600Y-75697450D03*
X151428600Y-74147450D03*
D19*
X143400833Y-76252850D03*
X143400833Y-75292850D03*
D16*
X152556666Y-69592900D03*
X152556666Y-70612900D03*
D19*
X141243333Y-73625350D03*
X141243333Y-72665350D03*
D28*
X156325000Y-113660000D03*
X156325000Y-112700000D03*
D29*
X135595600Y-78173450D03*
X135595600Y-79748450D03*
D15*
X148348600Y-75697450D03*
X148348600Y-74147450D03*
D30*
X140976100Y-84696450D03*
X141996100Y-84696450D03*
D31*
X146486665Y-70582900D03*
X146486665Y-68482900D03*
D16*
X148985700Y-88610450D03*
X148985700Y-89630450D03*
D30*
X143217100Y-84696450D03*
X144237100Y-84696450D03*
D29*
X137221200Y-78173450D03*
X137221200Y-79748450D03*
D20*
X155126666Y-71189650D03*
X155126666Y-69614650D03*
D16*
X138235600Y-81114950D03*
X138235600Y-82134950D03*
D32*
X143450000Y-91307280D03*
D33*
X144750000Y-91307280D03*
X146050000Y-91307280D03*
D34*
X147350000Y-91307280D03*
D35*
X152948600Y-77906450D03*
X150648600Y-77906450D03*
D36*
X150648600Y-84206450D03*
D35*
X148348600Y-77906450D03*
D28*
X141585700Y-85850450D03*
X141585700Y-86810450D03*
D21*
X153764166Y-71632900D03*
X153764166Y-70612900D03*
X137035833Y-71602900D03*
X137035833Y-70582900D03*
D31*
X144313333Y-70582900D03*
X144313333Y-68482900D03*
D21*
X146324600Y-78212850D03*
X146324600Y-77192850D03*
D37*
X143521400Y-86810450D03*
X143521400Y-88610450D03*
X146821400Y-88610450D03*
X146821400Y-86810450D03*
D21*
X137221200Y-76806950D03*
X137221200Y-75786950D03*
D19*
X152948600Y-75697450D03*
X152948600Y-74737450D03*
D18*
X139810000Y-86650000D03*
X139810000Y-92650000D03*
X136060000Y-86650000D03*
X136060000Y-92650000D03*
D38*
X132700000Y-113340000D03*
X132700000Y-110800000D03*
X132700000Y-108260000D03*
X132700000Y-105720000D03*
X132700000Y-103180000D03*
X132700000Y-100640000D03*
X132700000Y-98100000D03*
X132700000Y-95560000D03*
X132700000Y-93020000D03*
X132700000Y-90480000D03*
X132700000Y-87940000D03*
X132700000Y-85400000D03*
X132700000Y-82860000D03*
X132700000Y-80320000D03*
X132700000Y-77780000D03*
X132700000Y-75240000D03*
X132700000Y-72700000D03*
X132700000Y-70160000D03*
X132700000Y-67620000D03*
X132700000Y-65080000D03*
X132700000Y-62540000D03*
X132700000Y-60000000D03*
X158100000Y-60000000D03*
X158100000Y-62540000D03*
X158100000Y-65080000D03*
X158100000Y-67620000D03*
X158100000Y-70160000D03*
X158100000Y-72700000D03*
X158100000Y-75240000D03*
X158100000Y-77780000D03*
X158100000Y-80320000D03*
X158100000Y-82860000D03*
X158100000Y-85400000D03*
X158100000Y-87940000D03*
X158100000Y-90480000D03*
X158100000Y-93020000D03*
X158100000Y-95560000D03*
X158100000Y-98100000D03*
X158100000Y-100640000D03*
X158100000Y-103180000D03*
X158100000Y-105720000D03*
X158100000Y-108260000D03*
X158100000Y-110800000D03*
X158100000Y-113340000D03*
D14*
X153696666Y-64936800D03*
X147916666Y-64936800D03*
D12*
X154056666Y-66381800D03*
X153256666Y-66381800D03*
D13*
X152056666Y-66381800D03*
X151056666Y-66381800D03*
X150556666Y-66381800D03*
X149556666Y-66381800D03*
D12*
X148356666Y-66381800D03*
X147556666Y-66381800D03*
X147556666Y-66381800D03*
X148356666Y-66381800D03*
D13*
X149056666Y-66381800D03*
X150056666Y-66381800D03*
X151556666Y-66381800D03*
X152556666Y-66381800D03*
D12*
X153256666Y-66381800D03*
X154056666Y-66381800D03*
D11*
X155126666Y-65466800D03*
D10*
X155126666Y-61286800D03*
D11*
X146486666Y-65466800D03*
D10*
X146486666Y-61286800D03*
D25*
X141372350Y-81114950D03*
X139472350Y-81114950D03*
X140422350Y-82989950D03*
D39*
X155052000Y-113660000D03*
D40*
X154400000Y-113660000D03*
D39*
X155052000Y-112390000D03*
D40*
X154400000Y-112390000D03*
D39*
X155052000Y-111120000D03*
D40*
X154400000Y-111120000D03*
D39*
X155052000Y-109850000D03*
D40*
X154400000Y-109850000D03*
D39*
X155052000Y-108580000D03*
D40*
X154400000Y-108580000D03*
D39*
X155052000Y-107310000D03*
D40*
X154400000Y-107310000D03*
D39*
X155052000Y-106040000D03*
D40*
X154400000Y-106040000D03*
D39*
X155052000Y-104770000D03*
D40*
X154400000Y-104770000D03*
D39*
X155052000Y-103500000D03*
D40*
X154400000Y-103500000D03*
D39*
X155052000Y-102230000D03*
D40*
X154400000Y-102230000D03*
D39*
X155052000Y-100960000D03*
D40*
X154400000Y-100960000D03*
D39*
X155052000Y-99690000D03*
D40*
X154400000Y-99690000D03*
D39*
X155052000Y-98420000D03*
D40*
X154400000Y-98420000D03*
D39*
X155052000Y-97150000D03*
D40*
X154400000Y-97150000D03*
D41*
X152385000Y-95650000D03*
D39*
X152385000Y-94998000D03*
D41*
X151115000Y-95650000D03*
D39*
X151115000Y-94998000D03*
D41*
X149845000Y-95650000D03*
D39*
X149845000Y-94998000D03*
D41*
X148575000Y-95650000D03*
D39*
X148575000Y-94998000D03*
D41*
X147305000Y-95650000D03*
D39*
X147305000Y-94998000D03*
D41*
X146035000Y-95650000D03*
D39*
X146035000Y-94998000D03*
D41*
X144765000Y-95650000D03*
D39*
X144765000Y-94998000D03*
D41*
X143495000Y-95650000D03*
D39*
X143495000Y-94998000D03*
D41*
X142225000Y-95650000D03*
D39*
X142225000Y-94998000D03*
D41*
X140955000Y-95650000D03*
D39*
X140955000Y-94998000D03*
D41*
X139685000Y-95650000D03*
D39*
X139685000Y-94998000D03*
D41*
X138415000Y-95650000D03*
D39*
X138415000Y-94998000D03*
D42*
X136400000Y-97150000D03*
D39*
X135748000Y-97150000D03*
D42*
X136400000Y-98420000D03*
D39*
X135748000Y-98420000D03*
D42*
X136400000Y-99690000D03*
D39*
X135748000Y-99690000D03*
D42*
X136400000Y-100960000D03*
D39*
X135748000Y-100960000D03*
D42*
X136400000Y-102230000D03*
D39*
X135748000Y-102230000D03*
D42*
X136400000Y-103500000D03*
D39*
X135748000Y-103500000D03*
D42*
X136400000Y-104770000D03*
D39*
X135748000Y-104770000D03*
D42*
X136400000Y-106040000D03*
D39*
X135748000Y-106040000D03*
D42*
X136400000Y-107310000D03*
D39*
X135748000Y-107310000D03*
D42*
X136400000Y-108580000D03*
D39*
X135748000Y-108580000D03*
D42*
X136400000Y-109850000D03*
D39*
X135748000Y-109850000D03*
D42*
X136400000Y-111120000D03*
D39*
X135748000Y-111120000D03*
D42*
X136400000Y-112390000D03*
D39*
X135748000Y-112390000D03*
D42*
X136400000Y-113660000D03*
D39*
X135748000Y-113660000D03*
D43*
X146900000Y-105940000D03*
D44*
X146900000Y-105940000D03*
G36*
X146841639Y-91007685D02*
G01*
X146887394Y-91060489D01*
X146898600Y-91112000D01*
X146898600Y-91499000D01*
X146878915Y-91566039D01*
X146826111Y-91611794D01*
X146774600Y-91623000D01*
X144025400Y-91623000D01*
X143958361Y-91603315D01*
X143912606Y-91550511D01*
X143901400Y-91499000D01*
X143901400Y-91112000D01*
X143921085Y-91044961D01*
X143973889Y-90999206D01*
X144025400Y-90988000D01*
X146774600Y-90988000D01*
X146841639Y-91007685D01*
G37*
D45*
X159900000Y-114692000D02*
G75*
G02*
X159392000Y-115200000I-508001J1D01*
G01*
X131408000Y-115200000D02*
G75*
G02*
X130900000Y-114692000I1J508001D01*
G01*
X159392000Y-58200000D02*
G75*
G02*
X159900000Y-58708000I-1J-508001D01*
G01*
X130900000Y-58708000D02*
G75*
G02*
X131408000Y-58200000I508001J-1D01*
G01*
X159900000Y-114692000D02*
X159900000Y-58708000D01*
X159392000Y-115200000D02*
X131408000Y-115200000D01*
X159392000Y-58200000D02*
X131408000Y-58200000D01*
X130900000Y-58708000D02*
X130900000Y-114692000D01*
M02*
