G04 #@! TF.GenerationSoftware,KiCad,Pcbnew,8.0.8*
G04 #@! TF.CreationDate,2025-02-02T16:18:31-05:00*
G04 #@! TF.ProjectId,BCD-S3-DevKitC-1-N16R8V,4243442d-5333-42d4-9465-764b6974432d,1.0*
G04 #@! TF.SameCoordinates,Original*
G04 #@! TF.FileFunction,Copper,L3,Inr*
G04 #@! TF.FilePolarity,Positive*
%FSLAX46Y46*%
G04 Gerber Fmt 4.6, Leading zero omitted, Abs format (unit mm)*
G04 Created by KiCad (PCBNEW 8.0.8) date 2025-02-02 16:18:31*
%MOMM*%
%LPD*%
G01*
G04 APERTURE LIST*
G04 #@! TA.AperFunction,ComponentPad*
%ADD10O,1.000000X2.100000*%
G04 #@! TD*
G04 #@! TA.AperFunction,ComponentPad*
%ADD11O,1.000000X1.600000*%
G04 #@! TD*
G04 #@! TA.AperFunction,ComponentPad*
%ADD12C,0.450000*%
G04 #@! TD*
G04 #@! TA.AperFunction,ComponentPad*
%ADD13C,3.500000*%
G04 #@! TD*
G04 #@! TA.AperFunction,ComponentPad*
%ADD14C,1.700000*%
G04 #@! TD*
G04 #@! TA.AperFunction,ViaPad*
%ADD15C,0.450000*%
G04 #@! TD*
G04 #@! TA.AperFunction,Conductor*
%ADD16C,0.127000*%
G04 #@! TD*
G04 #@! TA.AperFunction,Conductor*
%ADD17C,0.381000*%
G04 #@! TD*
G04 #@! TA.AperFunction,Profile*
%ADD18C,0.050000*%
G04 #@! TD*
G04 APERTURE END LIST*
D10*
X155126666Y-65466800D03*
D11*
X155126666Y-61286800D03*
D10*
X146486666Y-65466800D03*
D11*
X146486666Y-61286800D03*
D12*
X155052000Y-113660000D03*
X155052000Y-112390000D03*
X155052000Y-111120000D03*
X155052000Y-109850000D03*
X155052000Y-108580000D03*
X155052000Y-107310000D03*
X155052000Y-106040000D03*
X155052000Y-104770000D03*
X155052000Y-103500000D03*
X155052000Y-102230000D03*
X155052000Y-100960000D03*
X155052000Y-99690000D03*
X155052000Y-98420000D03*
X155052000Y-97150000D03*
X152385000Y-94998000D03*
X151115000Y-94998000D03*
X149845000Y-94998000D03*
X148575000Y-94998000D03*
X147305000Y-94998000D03*
X146035000Y-94998000D03*
X144765000Y-94998000D03*
X143495000Y-94998000D03*
X142225000Y-94998000D03*
X140955000Y-94998000D03*
X139685000Y-94998000D03*
X138415000Y-94998000D03*
X135748000Y-97150000D03*
X135748000Y-98420000D03*
X135748000Y-99690000D03*
X135748000Y-100960000D03*
X135748000Y-102230000D03*
X135748000Y-103500000D03*
X135748000Y-104770000D03*
X135748000Y-106040000D03*
X135748000Y-107310000D03*
X135748000Y-108580000D03*
X135748000Y-109850000D03*
X135748000Y-111120000D03*
X135748000Y-112390000D03*
X135748000Y-113660000D03*
D13*
X146900000Y-105940000D03*
D10*
X144313333Y-65466800D03*
D11*
X144313333Y-61286800D03*
D10*
X135673333Y-65466800D03*
D11*
X135673333Y-61286800D03*
D14*
X132700000Y-113340000D03*
X132700000Y-110800000D03*
X132700000Y-108260000D03*
X132700000Y-105720000D03*
X132700000Y-103180000D03*
X132700000Y-100640000D03*
X132700000Y-98100000D03*
X132700000Y-95560000D03*
X132700000Y-93020000D03*
X132700000Y-90480000D03*
X132700000Y-87940000D03*
X132700000Y-85400000D03*
X132700000Y-82860000D03*
X132700000Y-80320000D03*
X132700000Y-77780000D03*
X132700000Y-75240000D03*
X132700000Y-72700000D03*
X132700000Y-70160000D03*
X132700000Y-67620000D03*
X132700000Y-65080000D03*
X132700000Y-62540000D03*
X132700000Y-60000000D03*
X158100000Y-113340000D03*
X158100000Y-110800000D03*
X158100000Y-108260000D03*
X158100000Y-105720000D03*
X158100000Y-103180000D03*
X158100000Y-100640000D03*
X158100000Y-98100000D03*
X158100000Y-95560000D03*
X158100000Y-93020000D03*
X158100000Y-90480000D03*
X158100000Y-87940000D03*
X158100000Y-85400000D03*
X158100000Y-82860000D03*
X158100000Y-80320000D03*
X158100000Y-77780000D03*
X158100000Y-75240000D03*
X158100000Y-72700000D03*
X158100000Y-70160000D03*
X158100000Y-67620000D03*
X158100000Y-65080000D03*
X158100000Y-62540000D03*
X158100000Y-60000000D03*
D15*
X150806666Y-70515600D03*
X136408399Y-79748450D03*
X150648600Y-76526949D03*
X144857716Y-78212850D03*
X142606599Y-84696450D03*
X142333549Y-86810450D03*
X150648600Y-85585951D03*
X137543333Y-67406400D03*
X144313333Y-69532899D03*
X142443333Y-67406400D03*
X139030833Y-75040350D03*
X144313333Y-76252850D03*
X145399998Y-70582900D03*
X148348600Y-76526949D03*
X140422350Y-84051949D03*
X150990000Y-89650000D03*
X144790849Y-84051949D03*
X153256666Y-67406400D03*
X148356666Y-67406400D03*
X143400833Y-73625350D03*
X137221200Y-75039949D03*
X143400833Y-72665350D03*
X135595600Y-75039949D03*
X142609100Y-80504449D03*
X139743333Y-78916351D03*
X139030833Y-77965350D03*
X138235600Y-82745451D03*
X139584903Y-64276199D03*
X141218617Y-65045399D03*
X138768046Y-65045399D03*
X140401760Y-64276199D03*
X152031951Y-65045399D03*
X150398237Y-64276199D03*
X151215094Y-64276199D03*
X149581380Y-65045399D03*
D16*
X134323749Y-84051949D02*
X140422350Y-84051949D01*
X133973400Y-83701600D02*
X134323749Y-84051949D01*
X133973400Y-80577400D02*
X133973400Y-83701600D01*
X133716000Y-80320000D02*
X133973400Y-80577400D01*
X132700000Y-80320000D02*
X133716000Y-80320000D01*
D17*
X137543333Y-67406400D02*
X142443333Y-67406400D01*
D16*
X144313333Y-76252850D02*
X139351650Y-76252850D01*
X139351650Y-76252850D02*
X139030833Y-75932033D01*
X139030833Y-75932033D02*
X139030833Y-75040350D01*
X144313333Y-76252850D02*
X144313333Y-69532899D01*
D17*
X146162000Y-63251799D02*
X156067401Y-63251799D01*
X148348600Y-76526949D02*
X146661549Y-76526949D01*
X145399998Y-70582900D02*
X145399998Y-64089400D01*
X145399998Y-64013801D02*
X146162000Y-63251799D01*
X146661549Y-76526949D02*
X145399998Y-75265398D01*
X156067401Y-63251799D02*
X156779200Y-62540000D01*
X156779200Y-62540000D02*
X158100000Y-62540000D01*
X145399998Y-64089400D02*
X145399998Y-64013801D01*
X145399998Y-75265398D02*
X145399998Y-70582900D01*
X153256666Y-67406400D02*
X148356666Y-67406400D01*
D16*
X139632560Y-65045399D02*
X140401760Y-64276199D01*
X138768046Y-65045399D02*
X139632560Y-65045399D01*
X152031951Y-65045399D02*
X151167437Y-65045399D01*
X151167437Y-65045399D02*
X150398237Y-64276199D01*
G04 #@! TA.AperFunction,Conductor*
G36*
X159395422Y-58401042D02*
G01*
X159480143Y-58414460D01*
X159493228Y-58418711D01*
X159566534Y-58456063D01*
X159577670Y-58464153D01*
X159635846Y-58522329D01*
X159643937Y-58533466D01*
X159681286Y-58606767D01*
X159685540Y-58619860D01*
X159698958Y-58704577D01*
X159699500Y-58711460D01*
X159699500Y-114688539D01*
X159698958Y-114695422D01*
X159685540Y-114780139D01*
X159681286Y-114793232D01*
X159643937Y-114866533D01*
X159635846Y-114877670D01*
X159577670Y-114935846D01*
X159566533Y-114943937D01*
X159493232Y-114981286D01*
X159480139Y-114985540D01*
X159395422Y-114998958D01*
X159388539Y-114999500D01*
X131411461Y-114999500D01*
X131404578Y-114998958D01*
X131319860Y-114985540D01*
X131306767Y-114981286D01*
X131233466Y-114943937D01*
X131222329Y-114935846D01*
X131164153Y-114877670D01*
X131156062Y-114866533D01*
X131118711Y-114793228D01*
X131114460Y-114780143D01*
X131101042Y-114695422D01*
X131100500Y-114688539D01*
X131100500Y-113339998D01*
X131644417Y-113339998D01*
X131644417Y-113340001D01*
X131664700Y-113545938D01*
X131724765Y-113743947D01*
X131724767Y-113743950D01*
X131724768Y-113743954D01*
X131776106Y-113840000D01*
X131820831Y-113923675D01*
X131822315Y-113926450D01*
X131953590Y-114086410D01*
X132113550Y-114217685D01*
X132296046Y-114315232D01*
X132296051Y-114315233D01*
X132296052Y-114315234D01*
X132296051Y-114315234D01*
X132494062Y-114375299D01*
X132494063Y-114375299D01*
X132494066Y-114375300D01*
X132666529Y-114392286D01*
X132699999Y-114395583D01*
X132700000Y-114395583D01*
X132700001Y-114395583D01*
X132728791Y-114392747D01*
X132905934Y-114375300D01*
X132905936Y-114375299D01*
X132905938Y-114375299D01*
X133103947Y-114315234D01*
X133103946Y-114315234D01*
X133103954Y-114315232D01*
X133286450Y-114217685D01*
X133446410Y-114086410D01*
X133577685Y-113926450D01*
X133675232Y-113743954D01*
X133700700Y-113659997D01*
X135317196Y-113659997D01*
X135317196Y-113660002D01*
X135338279Y-113793122D01*
X135338280Y-113793123D01*
X135338280Y-113793124D01*
X135338281Y-113793126D01*
X135399472Y-113913220D01*
X135494780Y-114008528D01*
X135614874Y-114069719D01*
X135614876Y-114069719D01*
X135614877Y-114069720D01*
X135747998Y-114090804D01*
X135748000Y-114090804D01*
X135748002Y-114090804D01*
X135881122Y-114069720D01*
X135881122Y-114069719D01*
X135881126Y-114069719D01*
X136001220Y-114008528D01*
X136096528Y-113913220D01*
X136157719Y-113793126D01*
X136165509Y-113743947D01*
X136178804Y-113660002D01*
X136178804Y-113659997D01*
X154621196Y-113659997D01*
X154621196Y-113660002D01*
X154642279Y-113793122D01*
X154642280Y-113793123D01*
X154642280Y-113793124D01*
X154642281Y-113793126D01*
X154703472Y-113913220D01*
X154798780Y-114008528D01*
X154918874Y-114069719D01*
X154918876Y-114069719D01*
X154918877Y-114069720D01*
X155051998Y-114090804D01*
X155052000Y-114090804D01*
X155052002Y-114090804D01*
X155185122Y-114069720D01*
X155185122Y-114069719D01*
X155185126Y-114069719D01*
X155305220Y-114008528D01*
X155400528Y-113913220D01*
X155461719Y-113793126D01*
X155469509Y-113743947D01*
X155482804Y-113660002D01*
X155482804Y-113659997D01*
X155461720Y-113526877D01*
X155461719Y-113526876D01*
X155461719Y-113526874D01*
X155400528Y-113406780D01*
X155333745Y-113339997D01*
X156991270Y-113339997D01*
X156991270Y-113340002D01*
X157010147Y-113543726D01*
X157010147Y-113543729D01*
X157066138Y-113740516D01*
X157157340Y-113923672D01*
X157234518Y-114025874D01*
X157668233Y-113592158D01*
X157699901Y-113647007D01*
X157792993Y-113740099D01*
X157847839Y-113771764D01*
X157412473Y-114207130D01*
X157431838Y-114224784D01*
X157431839Y-114224785D01*
X157605801Y-114332495D01*
X157796580Y-114406404D01*
X157997695Y-114443999D01*
X157997701Y-114444000D01*
X158202299Y-114444000D01*
X158202304Y-114443999D01*
X158403419Y-114406404D01*
X158594198Y-114332495D01*
X158768160Y-114224784D01*
X158768161Y-114224783D01*
X158787524Y-114207129D01*
X158352159Y-113771765D01*
X158407007Y-113740099D01*
X158500099Y-113647007D01*
X158531765Y-113592159D01*
X158965480Y-114025874D01*
X159042657Y-113923675D01*
X159042658Y-113923674D01*
X159133861Y-113740516D01*
X159189852Y-113543729D01*
X159189852Y-113543726D01*
X159208730Y-113340002D01*
X159208730Y-113339997D01*
X159189852Y-113136273D01*
X159189852Y-113136270D01*
X159133861Y-112939483D01*
X159042659Y-112756327D01*
X158965480Y-112654124D01*
X158531764Y-113087839D01*
X158500099Y-113032993D01*
X158407007Y-112939901D01*
X158352158Y-112908233D01*
X158787524Y-112472868D01*
X158768157Y-112455213D01*
X158594198Y-112347504D01*
X158403419Y-112273595D01*
X158202304Y-112236000D01*
X157997695Y-112236000D01*
X157796580Y-112273595D01*
X157605801Y-112347504D01*
X157431840Y-112455214D01*
X157431839Y-112455215D01*
X157412474Y-112472868D01*
X157847840Y-112908234D01*
X157792993Y-112939901D01*
X157699901Y-113032993D01*
X157668234Y-113087840D01*
X157234518Y-112654124D01*
X157157340Y-112756327D01*
X157066138Y-112939483D01*
X157010147Y-113136270D01*
X157010147Y-113136273D01*
X156991270Y-113339997D01*
X155333745Y-113339997D01*
X155305220Y-113311472D01*
X155185126Y-113250281D01*
X155185124Y-113250280D01*
X155185123Y-113250280D01*
X155185122Y-113250279D01*
X155052002Y-113229196D01*
X155051998Y-113229196D01*
X154918877Y-113250279D01*
X154918876Y-113250280D01*
X154798781Y-113311471D01*
X154703471Y-113406781D01*
X154642280Y-113526876D01*
X154642279Y-113526877D01*
X154621196Y-113659997D01*
X136178804Y-113659997D01*
X136157720Y-113526877D01*
X136157719Y-113526876D01*
X136157719Y-113526874D01*
X136096528Y-113406780D01*
X136001220Y-113311472D01*
X135881126Y-113250281D01*
X135881124Y-113250280D01*
X135881123Y-113250280D01*
X135881122Y-113250279D01*
X135748002Y-113229196D01*
X135747998Y-113229196D01*
X135614877Y-113250279D01*
X135614876Y-113250280D01*
X135494781Y-113311471D01*
X135399471Y-113406781D01*
X135338280Y-113526876D01*
X135338279Y-113526877D01*
X135317196Y-113659997D01*
X133700700Y-113659997D01*
X133735300Y-113545934D01*
X133755583Y-113340000D01*
X133735300Y-113134066D01*
X133735299Y-113134063D01*
X133735299Y-113134061D01*
X133675234Y-112936052D01*
X133675233Y-112936051D01*
X133675232Y-112936046D01*
X133577685Y-112753550D01*
X133446410Y-112593590D01*
X133286450Y-112462315D01*
X133286448Y-112462314D01*
X133286447Y-112462313D01*
X133222871Y-112428331D01*
X133151154Y-112389997D01*
X135317196Y-112389997D01*
X135317196Y-112390002D01*
X135338279Y-112523122D01*
X135338280Y-112523123D01*
X135338280Y-112523124D01*
X135338281Y-112523126D01*
X135399472Y-112643220D01*
X135494780Y-112738528D01*
X135614874Y-112799719D01*
X135614876Y-112799719D01*
X135614877Y-112799720D01*
X135747998Y-112820804D01*
X135748000Y-112820804D01*
X135748002Y-112820804D01*
X135881122Y-112799720D01*
X135881122Y-112799719D01*
X135881126Y-112799719D01*
X136001220Y-112738528D01*
X136096528Y-112643220D01*
X136157719Y-112523126D01*
X136167351Y-112462315D01*
X136178804Y-112390002D01*
X136178804Y-112389997D01*
X136157720Y-112256877D01*
X136157719Y-112256876D01*
X136157719Y-112256874D01*
X136096528Y-112136780D01*
X136001220Y-112041472D01*
X135881126Y-111980281D01*
X135881124Y-111980280D01*
X135881123Y-111980280D01*
X135881122Y-111980279D01*
X135748002Y-111959196D01*
X135747998Y-111959196D01*
X135614877Y-111980279D01*
X135614876Y-111980280D01*
X135494781Y-112041471D01*
X135399471Y-112136781D01*
X135338280Y-112256876D01*
X135338279Y-112256877D01*
X135317196Y-112389997D01*
X133151154Y-112389997D01*
X133103954Y-112364768D01*
X133103950Y-112364767D01*
X133103947Y-112364765D01*
X133103948Y-112364765D01*
X132905937Y-112304700D01*
X132905938Y-112304700D01*
X132700001Y-112284417D01*
X132699999Y-112284417D01*
X132494061Y-112304700D01*
X132296052Y-112364765D01*
X132113552Y-112462313D01*
X131953591Y-112593589D01*
X131953589Y-112593591D01*
X131822313Y-112753552D01*
X131724765Y-112936052D01*
X131664700Y-113134061D01*
X131644417Y-113339998D01*
X131100500Y-113339998D01*
X131100500Y-110799998D01*
X131644417Y-110799998D01*
X131644417Y-110800001D01*
X131664700Y-111005938D01*
X131724765Y-111203947D01*
X131724767Y-111203950D01*
X131724768Y-111203954D01*
X131776106Y-111300000D01*
X131820831Y-111383675D01*
X131822315Y-111386450D01*
X131953590Y-111546410D01*
X132113550Y-111677685D01*
X132296046Y-111775232D01*
X132296051Y-111775233D01*
X132296052Y-111775234D01*
X132296051Y-111775234D01*
X132494062Y-111835299D01*
X132494063Y-111835299D01*
X132494066Y-111835300D01*
X132666529Y-111852286D01*
X132699999Y-111855583D01*
X132700000Y-111855583D01*
X132700001Y-111855583D01*
X132728791Y-111852747D01*
X132905934Y-111835300D01*
X132905936Y-111835299D01*
X132905938Y-111835299D01*
X133103947Y-111775234D01*
X133103946Y-111775234D01*
X133103954Y-111775232D01*
X133286450Y-111677685D01*
X133446410Y-111546410D01*
X133577685Y-111386450D01*
X133675232Y-111203954D01*
X133700700Y-111119997D01*
X135317196Y-111119997D01*
X135317196Y-111120002D01*
X135338279Y-111253122D01*
X135338280Y-111253123D01*
X135338280Y-111253124D01*
X135338281Y-111253126D01*
X135399472Y-111373220D01*
X135494780Y-111468528D01*
X135614874Y-111529719D01*
X135614876Y-111529719D01*
X135614877Y-111529720D01*
X135747998Y-111550804D01*
X135748000Y-111550804D01*
X135748002Y-111550804D01*
X135881122Y-111529720D01*
X135881122Y-111529719D01*
X135881126Y-111529719D01*
X136001220Y-111468528D01*
X136096528Y-111373220D01*
X136157719Y-111253126D01*
X136165509Y-111203947D01*
X136178804Y-111120002D01*
X136178804Y-111119997D01*
X154621196Y-111119997D01*
X154621196Y-111120002D01*
X154642279Y-111253122D01*
X154642280Y-111253123D01*
X154642280Y-111253124D01*
X154642281Y-111253126D01*
X154703472Y-111373220D01*
X154798780Y-111468528D01*
X154918874Y-111529719D01*
X154918876Y-111529719D01*
X154918877Y-111529720D01*
X155051998Y-111550804D01*
X155052000Y-111550804D01*
X155052002Y-111550804D01*
X155185122Y-111529720D01*
X155185122Y-111529719D01*
X155185126Y-111529719D01*
X155305220Y-111468528D01*
X155400528Y-111373220D01*
X155461719Y-111253126D01*
X155469509Y-111203947D01*
X155482804Y-111120002D01*
X155482804Y-111119997D01*
X155461720Y-110986877D01*
X155461719Y-110986876D01*
X155461719Y-110986874D01*
X155400528Y-110866780D01*
X155333745Y-110799997D01*
X156991270Y-110799997D01*
X156991270Y-110800002D01*
X157010147Y-111003726D01*
X157010147Y-111003729D01*
X157066138Y-111200516D01*
X157157340Y-111383672D01*
X157234518Y-111485874D01*
X157668233Y-111052158D01*
X157699901Y-111107007D01*
X157792993Y-111200099D01*
X157847839Y-111231764D01*
X157412473Y-111667130D01*
X157431838Y-111684784D01*
X157431839Y-111684785D01*
X157605801Y-111792495D01*
X157796580Y-111866404D01*
X157997695Y-111903999D01*
X157997701Y-111904000D01*
X158202299Y-111904000D01*
X158202304Y-111903999D01*
X158403419Y-111866404D01*
X158594198Y-111792495D01*
X158768160Y-111684784D01*
X158768161Y-111684783D01*
X158787524Y-111667129D01*
X158352159Y-111231765D01*
X158407007Y-111200099D01*
X158500099Y-111107007D01*
X158531765Y-111052159D01*
X158965480Y-111485874D01*
X159042657Y-111383675D01*
X159042658Y-111383674D01*
X159133861Y-111200516D01*
X159189852Y-111003729D01*
X159189852Y-111003726D01*
X159208730Y-110800002D01*
X159208730Y-110799997D01*
X159189852Y-110596273D01*
X159189852Y-110596270D01*
X159133861Y-110399483D01*
X159042659Y-110216327D01*
X158965480Y-110114124D01*
X158531764Y-110547839D01*
X158500099Y-110492993D01*
X158407007Y-110399901D01*
X158352158Y-110368233D01*
X158787524Y-109932868D01*
X158768157Y-109915213D01*
X158594198Y-109807504D01*
X158403419Y-109733595D01*
X158202304Y-109696000D01*
X157997695Y-109696000D01*
X157796580Y-109733595D01*
X157605801Y-109807504D01*
X157431840Y-109915214D01*
X157431839Y-109915215D01*
X157412474Y-109932868D01*
X157847840Y-110368234D01*
X157792993Y-110399901D01*
X157699901Y-110492993D01*
X157668234Y-110547840D01*
X157234518Y-110114124D01*
X157157340Y-110216327D01*
X157066138Y-110399483D01*
X157010147Y-110596270D01*
X157010147Y-110596273D01*
X156991270Y-110799997D01*
X155333745Y-110799997D01*
X155305220Y-110771472D01*
X155185126Y-110710281D01*
X155185124Y-110710280D01*
X155185123Y-110710280D01*
X155185122Y-110710279D01*
X155052002Y-110689196D01*
X155051998Y-110689196D01*
X154918877Y-110710279D01*
X154918876Y-110710280D01*
X154798781Y-110771471D01*
X154703471Y-110866781D01*
X154642280Y-110986876D01*
X154642279Y-110986877D01*
X154621196Y-111119997D01*
X136178804Y-111119997D01*
X136157720Y-110986877D01*
X136157719Y-110986876D01*
X136157719Y-110986874D01*
X136096528Y-110866780D01*
X136001220Y-110771472D01*
X135881126Y-110710281D01*
X135881124Y-110710280D01*
X135881123Y-110710280D01*
X135881122Y-110710279D01*
X135748002Y-110689196D01*
X135747998Y-110689196D01*
X135614877Y-110710279D01*
X135614876Y-110710280D01*
X135494781Y-110771471D01*
X135399471Y-110866781D01*
X135338280Y-110986876D01*
X135338279Y-110986877D01*
X135317196Y-111119997D01*
X133700700Y-111119997D01*
X133735300Y-111005934D01*
X133755583Y-110800000D01*
X133735300Y-110594066D01*
X133735299Y-110594063D01*
X133735299Y-110594061D01*
X133675234Y-110396052D01*
X133675233Y-110396051D01*
X133675232Y-110396046D01*
X133577685Y-110213550D01*
X133446410Y-110053590D01*
X133286450Y-109922315D01*
X133286448Y-109922314D01*
X133286447Y-109922313D01*
X133222871Y-109888331D01*
X133151154Y-109849997D01*
X135317196Y-109849997D01*
X135317196Y-109850002D01*
X135338279Y-109983122D01*
X135338280Y-109983123D01*
X135338280Y-109983124D01*
X135338281Y-109983126D01*
X135399472Y-110103220D01*
X135494780Y-110198528D01*
X135614874Y-110259719D01*
X135614876Y-110259719D01*
X135614877Y-110259720D01*
X135747998Y-110280804D01*
X135748000Y-110280804D01*
X135748002Y-110280804D01*
X135881122Y-110259720D01*
X135881122Y-110259719D01*
X135881126Y-110259719D01*
X136001220Y-110198528D01*
X136096528Y-110103220D01*
X136157719Y-109983126D01*
X136167351Y-109922315D01*
X136178804Y-109850002D01*
X136178804Y-109849997D01*
X154621196Y-109849997D01*
X154621196Y-109850002D01*
X154642279Y-109983122D01*
X154642280Y-109983123D01*
X154642280Y-109983124D01*
X154642281Y-109983126D01*
X154703472Y-110103220D01*
X154798780Y-110198528D01*
X154918874Y-110259719D01*
X154918876Y-110259719D01*
X154918877Y-110259720D01*
X155051998Y-110280804D01*
X155052000Y-110280804D01*
X155052002Y-110280804D01*
X155185122Y-110259720D01*
X155185122Y-110259719D01*
X155185126Y-110259719D01*
X155305220Y-110198528D01*
X155400528Y-110103220D01*
X155461719Y-109983126D01*
X155471351Y-109922315D01*
X155482804Y-109850002D01*
X155482804Y-109849997D01*
X155461720Y-109716877D01*
X155461719Y-109716876D01*
X155461719Y-109716874D01*
X155400528Y-109596780D01*
X155305220Y-109501472D01*
X155185126Y-109440281D01*
X155185124Y-109440280D01*
X155185123Y-109440280D01*
X155185122Y-109440279D01*
X155052002Y-109419196D01*
X155051998Y-109419196D01*
X154918877Y-109440279D01*
X154918876Y-109440280D01*
X154798781Y-109501471D01*
X154703471Y-109596781D01*
X154642280Y-109716876D01*
X154642279Y-109716877D01*
X154621196Y-109849997D01*
X136178804Y-109849997D01*
X136157720Y-109716877D01*
X136157719Y-109716876D01*
X136157719Y-109716874D01*
X136096528Y-109596780D01*
X136001220Y-109501472D01*
X135881126Y-109440281D01*
X135881124Y-109440280D01*
X135881123Y-109440280D01*
X135881122Y-109440279D01*
X135748002Y-109419196D01*
X135747998Y-109419196D01*
X135614877Y-109440279D01*
X135614876Y-109440280D01*
X135494781Y-109501471D01*
X135399471Y-109596781D01*
X135338280Y-109716876D01*
X135338279Y-109716877D01*
X135317196Y-109849997D01*
X133151154Y-109849997D01*
X133103954Y-109824768D01*
X133103950Y-109824767D01*
X133103947Y-109824765D01*
X133103948Y-109824765D01*
X132905937Y-109764700D01*
X132905938Y-109764700D01*
X132700001Y-109744417D01*
X132699999Y-109744417D01*
X132494061Y-109764700D01*
X132296052Y-109824765D01*
X132113552Y-109922313D01*
X131953591Y-110053589D01*
X131953589Y-110053591D01*
X131822313Y-110213552D01*
X131724765Y-110396052D01*
X131664700Y-110594061D01*
X131644417Y-110799998D01*
X131100500Y-110799998D01*
X131100500Y-108259998D01*
X131644417Y-108259998D01*
X131644417Y-108260001D01*
X131664700Y-108465938D01*
X131724765Y-108663947D01*
X131724767Y-108663950D01*
X131724768Y-108663954D01*
X131822315Y-108846450D01*
X131953590Y-109006410D01*
X132113550Y-109137685D01*
X132296046Y-109235232D01*
X132296051Y-109235233D01*
X132296052Y-109235234D01*
X132296051Y-109235234D01*
X132494062Y-109295299D01*
X132494063Y-109295299D01*
X132494066Y-109295300D01*
X132666529Y-109312286D01*
X132699999Y-109315583D01*
X132700000Y-109315583D01*
X132700001Y-109315583D01*
X132728791Y-109312747D01*
X132905934Y-109295300D01*
X132905936Y-109295299D01*
X132905938Y-109295299D01*
X133103947Y-109235234D01*
X133103946Y-109235234D01*
X133103954Y-109235232D01*
X133286450Y-109137685D01*
X133446410Y-109006410D01*
X133577685Y-108846450D01*
X133675232Y-108663954D01*
X133700700Y-108579997D01*
X135317196Y-108579997D01*
X135317196Y-108580002D01*
X135338279Y-108713122D01*
X135338280Y-108713123D01*
X135338280Y-108713124D01*
X135338281Y-108713126D01*
X135399472Y-108833220D01*
X135494780Y-108928528D01*
X135614874Y-108989719D01*
X135614876Y-108989719D01*
X135614877Y-108989720D01*
X135747998Y-109010804D01*
X135748000Y-109010804D01*
X135748002Y-109010804D01*
X135881122Y-108989720D01*
X135881122Y-108989719D01*
X135881126Y-108989719D01*
X136001220Y-108928528D01*
X136096528Y-108833220D01*
X136157719Y-108713126D01*
X136165509Y-108663947D01*
X136178804Y-108580002D01*
X136178804Y-108579997D01*
X154621196Y-108579997D01*
X154621196Y-108580002D01*
X154642279Y-108713122D01*
X154642280Y-108713123D01*
X154642280Y-108713124D01*
X154642281Y-108713126D01*
X154703472Y-108833220D01*
X154798780Y-108928528D01*
X154918874Y-108989719D01*
X154918876Y-108989719D01*
X154918877Y-108989720D01*
X155051998Y-109010804D01*
X155052000Y-109010804D01*
X155052002Y-109010804D01*
X155185122Y-108989720D01*
X155185122Y-108989719D01*
X155185126Y-108989719D01*
X155305220Y-108928528D01*
X155400528Y-108833220D01*
X155461719Y-108713126D01*
X155469509Y-108663947D01*
X155482804Y-108580002D01*
X155482804Y-108579997D01*
X155461720Y-108446877D01*
X155461719Y-108446876D01*
X155461719Y-108446874D01*
X155400528Y-108326780D01*
X155333746Y-108259998D01*
X157044417Y-108259998D01*
X157044417Y-108260001D01*
X157064700Y-108465938D01*
X157124765Y-108663947D01*
X157124767Y-108663950D01*
X157124768Y-108663954D01*
X157222315Y-108846450D01*
X157353590Y-109006410D01*
X157513550Y-109137685D01*
X157696046Y-109235232D01*
X157696051Y-109235233D01*
X157696052Y-109235234D01*
X157696051Y-109235234D01*
X157894062Y-109295299D01*
X157894063Y-109295299D01*
X157894066Y-109295300D01*
X158066529Y-109312286D01*
X158099999Y-109315583D01*
X158100000Y-109315583D01*
X158100001Y-109315583D01*
X158128791Y-109312747D01*
X158305934Y-109295300D01*
X158305936Y-109295299D01*
X158305938Y-109295299D01*
X158503947Y-109235234D01*
X158503946Y-109235234D01*
X158503954Y-109235232D01*
X158686450Y-109137685D01*
X158846410Y-109006410D01*
X158977685Y-108846450D01*
X159075232Y-108663954D01*
X159135300Y-108465934D01*
X159155583Y-108260000D01*
X159135300Y-108054066D01*
X159135299Y-108054063D01*
X159135299Y-108054061D01*
X159075234Y-107856052D01*
X159075233Y-107856051D01*
X159075232Y-107856046D01*
X158977685Y-107673550D01*
X158846410Y-107513590D01*
X158686450Y-107382315D01*
X158686448Y-107382314D01*
X158686447Y-107382313D01*
X158622871Y-107348331D01*
X158503954Y-107284768D01*
X158503950Y-107284767D01*
X158503947Y-107284765D01*
X158503948Y-107284765D01*
X158305937Y-107224700D01*
X158305938Y-107224700D01*
X158100001Y-107204417D01*
X158099999Y-107204417D01*
X157894061Y-107224700D01*
X157696052Y-107284765D01*
X157513552Y-107382313D01*
X157353591Y-107513589D01*
X157353589Y-107513591D01*
X157222313Y-107673552D01*
X157124765Y-107856052D01*
X157064700Y-108054061D01*
X157044417Y-108259998D01*
X155333746Y-108259998D01*
X155305220Y-108231472D01*
X155185126Y-108170281D01*
X155185124Y-108170280D01*
X155185123Y-108170280D01*
X155185122Y-108170279D01*
X155052002Y-108149196D01*
X155051998Y-108149196D01*
X154918877Y-108170279D01*
X154918876Y-108170280D01*
X154798781Y-108231471D01*
X154703471Y-108326781D01*
X154642280Y-108446876D01*
X154642279Y-108446877D01*
X154621196Y-108579997D01*
X136178804Y-108579997D01*
X136157720Y-108446877D01*
X136157719Y-108446876D01*
X136157719Y-108446874D01*
X136096528Y-108326780D01*
X136001220Y-108231472D01*
X135881126Y-108170281D01*
X135881124Y-108170280D01*
X135881123Y-108170280D01*
X135881122Y-108170279D01*
X135748002Y-108149196D01*
X135747998Y-108149196D01*
X135614877Y-108170279D01*
X135614876Y-108170280D01*
X135494781Y-108231471D01*
X135399471Y-108326781D01*
X135338280Y-108446876D01*
X135338279Y-108446877D01*
X135317196Y-108579997D01*
X133700700Y-108579997D01*
X133735300Y-108465934D01*
X133755583Y-108260000D01*
X133735300Y-108054066D01*
X133735299Y-108054063D01*
X133735299Y-108054061D01*
X133675234Y-107856052D01*
X133675233Y-107856051D01*
X133675232Y-107856046D01*
X133577685Y-107673550D01*
X133446410Y-107513590D01*
X133286450Y-107382315D01*
X133286448Y-107382314D01*
X133286447Y-107382313D01*
X133222871Y-107348331D01*
X133151154Y-107309997D01*
X135317196Y-107309997D01*
X135317196Y-107310002D01*
X135338279Y-107443122D01*
X135338280Y-107443123D01*
X135338280Y-107443124D01*
X135338281Y-107443126D01*
X135399472Y-107563220D01*
X135494780Y-107658528D01*
X135614874Y-107719719D01*
X135614876Y-107719719D01*
X135614877Y-107719720D01*
X135747998Y-107740804D01*
X135748000Y-107740804D01*
X135748002Y-107740804D01*
X135881122Y-107719720D01*
X135881122Y-107719719D01*
X135881126Y-107719719D01*
X136001220Y-107658528D01*
X136096528Y-107563220D01*
X136157719Y-107443126D01*
X136161722Y-107417856D01*
X136178804Y-107310002D01*
X136178804Y-107309997D01*
X136157720Y-107176877D01*
X136157719Y-107176876D01*
X136157719Y-107176874D01*
X136096528Y-107056780D01*
X136001220Y-106961472D01*
X135881126Y-106900281D01*
X135881124Y-106900280D01*
X135881123Y-106900280D01*
X135881122Y-106900279D01*
X135748002Y-106879196D01*
X135747998Y-106879196D01*
X135614877Y-106900279D01*
X135614876Y-106900280D01*
X135494781Y-106961471D01*
X135399471Y-107056781D01*
X135338280Y-107176876D01*
X135338279Y-107176877D01*
X135317196Y-107309997D01*
X133151154Y-107309997D01*
X133103954Y-107284768D01*
X133103950Y-107284767D01*
X133103947Y-107284765D01*
X133103948Y-107284765D01*
X132905937Y-107224700D01*
X132905938Y-107224700D01*
X132700001Y-107204417D01*
X132699999Y-107204417D01*
X132494061Y-107224700D01*
X132296052Y-107284765D01*
X132113552Y-107382313D01*
X131953591Y-107513589D01*
X131953589Y-107513591D01*
X131822313Y-107673552D01*
X131724765Y-107856052D01*
X131664700Y-108054061D01*
X131644417Y-108259998D01*
X131100500Y-108259998D01*
X131100500Y-105719998D01*
X131644417Y-105719998D01*
X131644417Y-105720001D01*
X131664700Y-105925938D01*
X131724765Y-106123947D01*
X131724767Y-106123950D01*
X131724768Y-106123954D01*
X131822315Y-106306450D01*
X131953590Y-106466410D01*
X132113550Y-106597685D01*
X132296046Y-106695232D01*
X132296051Y-106695233D01*
X132296052Y-106695234D01*
X132296051Y-106695234D01*
X132494062Y-106755299D01*
X132494063Y-106755299D01*
X132494066Y-106755300D01*
X132666529Y-106772286D01*
X132699999Y-106775583D01*
X132700000Y-106775583D01*
X132700001Y-106775583D01*
X132728791Y-106772747D01*
X132905934Y-106755300D01*
X132905936Y-106755299D01*
X132905938Y-106755299D01*
X133103947Y-106695234D01*
X133103946Y-106695234D01*
X133103954Y-106695232D01*
X133286450Y-106597685D01*
X133446410Y-106466410D01*
X133577685Y-106306450D01*
X133675232Y-106123954D01*
X133700700Y-106039997D01*
X135317196Y-106039997D01*
X135317196Y-106040002D01*
X135338279Y-106173122D01*
X135338280Y-106173123D01*
X135338280Y-106173124D01*
X135338281Y-106173126D01*
X135399472Y-106293220D01*
X135494780Y-106388528D01*
X135614874Y-106449719D01*
X135614876Y-106449719D01*
X135614877Y-106449720D01*
X135747998Y-106470804D01*
X135748000Y-106470804D01*
X135748002Y-106470804D01*
X135881122Y-106449720D01*
X135881122Y-106449719D01*
X135881126Y-106449719D01*
X136001220Y-106388528D01*
X136096528Y-106293220D01*
X136157719Y-106173126D01*
X136165509Y-106123947D01*
X136178804Y-106040002D01*
X136178804Y-106039997D01*
X136162966Y-105940000D01*
X144944518Y-105940000D01*
X144964421Y-106218285D01*
X144964423Y-106218299D01*
X145023728Y-106490918D01*
X145023731Y-106490928D01*
X145121229Y-106752334D01*
X145254944Y-106997214D01*
X145380817Y-107165361D01*
X145422145Y-107220568D01*
X145619432Y-107417855D01*
X145731109Y-107501455D01*
X145842785Y-107585055D01*
X146087665Y-107718770D01*
X146146741Y-107740804D01*
X146349077Y-107816271D01*
X146621706Y-107875578D01*
X146900000Y-107895482D01*
X147178294Y-107875578D01*
X147450923Y-107816271D01*
X147712337Y-107718769D01*
X147957213Y-107585056D01*
X148180568Y-107417855D01*
X148288426Y-107309997D01*
X154621196Y-107309997D01*
X154621196Y-107310002D01*
X154642279Y-107443122D01*
X154642280Y-107443123D01*
X154642280Y-107443124D01*
X154642281Y-107443126D01*
X154703472Y-107563220D01*
X154798780Y-107658528D01*
X154918874Y-107719719D01*
X154918876Y-107719719D01*
X154918877Y-107719720D01*
X155051998Y-107740804D01*
X155052000Y-107740804D01*
X155052002Y-107740804D01*
X155185122Y-107719720D01*
X155185122Y-107719719D01*
X155185126Y-107719719D01*
X155305220Y-107658528D01*
X155400528Y-107563220D01*
X155461719Y-107443126D01*
X155465722Y-107417856D01*
X155482804Y-107310002D01*
X155482804Y-107309997D01*
X155461720Y-107176877D01*
X155461719Y-107176876D01*
X155461719Y-107176874D01*
X155400528Y-107056780D01*
X155305220Y-106961472D01*
X155185126Y-106900281D01*
X155185124Y-106900280D01*
X155185123Y-106900280D01*
X155185122Y-106900279D01*
X155052002Y-106879196D01*
X155051998Y-106879196D01*
X154918877Y-106900279D01*
X154918876Y-106900280D01*
X154798781Y-106961471D01*
X154703471Y-107056781D01*
X154642280Y-107176876D01*
X154642279Y-107176877D01*
X154621196Y-107309997D01*
X148288426Y-107309997D01*
X148377855Y-107220568D01*
X148545056Y-106997213D01*
X148678769Y-106752337D01*
X148776271Y-106490923D01*
X148835578Y-106218294D01*
X148848330Y-106039997D01*
X154621196Y-106039997D01*
X154621196Y-106040002D01*
X154642279Y-106173122D01*
X154642280Y-106173123D01*
X154642280Y-106173124D01*
X154642281Y-106173126D01*
X154703472Y-106293220D01*
X154798780Y-106388528D01*
X154918874Y-106449719D01*
X154918876Y-106449719D01*
X154918877Y-106449720D01*
X155051998Y-106470804D01*
X155052000Y-106470804D01*
X155052002Y-106470804D01*
X155185122Y-106449720D01*
X155185122Y-106449719D01*
X155185126Y-106449719D01*
X155305220Y-106388528D01*
X155400528Y-106293220D01*
X155461719Y-106173126D01*
X155469509Y-106123947D01*
X155482804Y-106040002D01*
X155482804Y-106039997D01*
X155461720Y-105906877D01*
X155461719Y-105906876D01*
X155461719Y-105906874D01*
X155400528Y-105786780D01*
X155333746Y-105719998D01*
X157044417Y-105719998D01*
X157044417Y-105720001D01*
X157064700Y-105925938D01*
X157124765Y-106123947D01*
X157124767Y-106123950D01*
X157124768Y-106123954D01*
X157222315Y-106306450D01*
X157353590Y-106466410D01*
X157513550Y-106597685D01*
X157696046Y-106695232D01*
X157696051Y-106695233D01*
X157696052Y-106695234D01*
X157696051Y-106695234D01*
X157894062Y-106755299D01*
X157894063Y-106755299D01*
X157894066Y-106755300D01*
X158066529Y-106772286D01*
X158099999Y-106775583D01*
X158100000Y-106775583D01*
X158100001Y-106775583D01*
X158128791Y-106772747D01*
X158305934Y-106755300D01*
X158305936Y-106755299D01*
X158305938Y-106755299D01*
X158503947Y-106695234D01*
X158503946Y-106695234D01*
X158503954Y-106695232D01*
X158686450Y-106597685D01*
X158846410Y-106466410D01*
X158977685Y-106306450D01*
X159075232Y-106123954D01*
X159135300Y-105925934D01*
X159155583Y-105720000D01*
X159135300Y-105514066D01*
X159135299Y-105514063D01*
X159135299Y-105514061D01*
X159075234Y-105316052D01*
X159075233Y-105316051D01*
X159075232Y-105316046D01*
X158977685Y-105133550D01*
X158846410Y-104973590D01*
X158686450Y-104842315D01*
X158686448Y-104842314D01*
X158686447Y-104842313D01*
X158622871Y-104808331D01*
X158503954Y-104744768D01*
X158503950Y-104744767D01*
X158503947Y-104744765D01*
X158503948Y-104744765D01*
X158305937Y-104684700D01*
X158305938Y-104684700D01*
X158100001Y-104664417D01*
X158099999Y-104664417D01*
X157894061Y-104684700D01*
X157696052Y-104744765D01*
X157513552Y-104842313D01*
X157353591Y-104973589D01*
X157353589Y-104973591D01*
X157222313Y-105133552D01*
X157124765Y-105316052D01*
X157064700Y-105514061D01*
X157044417Y-105719998D01*
X155333746Y-105719998D01*
X155305220Y-105691472D01*
X155185126Y-105630281D01*
X155185124Y-105630280D01*
X155185123Y-105630280D01*
X155185122Y-105630279D01*
X155052002Y-105609196D01*
X155051998Y-105609196D01*
X154918877Y-105630279D01*
X154918876Y-105630280D01*
X154798781Y-105691471D01*
X154703471Y-105786781D01*
X154642280Y-105906876D01*
X154642279Y-105906877D01*
X154621196Y-106039997D01*
X148848330Y-106039997D01*
X148855482Y-105940000D01*
X148835578Y-105661706D01*
X148776271Y-105389077D01*
X148698185Y-105179719D01*
X148678770Y-105127665D01*
X148545055Y-104882785D01*
X148460623Y-104769997D01*
X154621196Y-104769997D01*
X154621196Y-104770002D01*
X154642279Y-104903122D01*
X154642280Y-104903123D01*
X154642280Y-104903124D01*
X154642281Y-104903126D01*
X154703472Y-105023220D01*
X154798780Y-105118528D01*
X154918874Y-105179719D01*
X154918876Y-105179719D01*
X154918877Y-105179720D01*
X155051998Y-105200804D01*
X155052000Y-105200804D01*
X155052002Y-105200804D01*
X155185122Y-105179720D01*
X155185122Y-105179719D01*
X155185126Y-105179719D01*
X155305220Y-105118528D01*
X155400528Y-105023220D01*
X155461719Y-104903126D01*
X155464941Y-104882787D01*
X155482804Y-104770002D01*
X155482804Y-104769997D01*
X155461720Y-104636877D01*
X155461719Y-104636876D01*
X155461719Y-104636874D01*
X155400528Y-104516780D01*
X155305220Y-104421472D01*
X155185126Y-104360281D01*
X155185124Y-104360280D01*
X155185123Y-104360280D01*
X155185122Y-104360279D01*
X155052002Y-104339196D01*
X155051998Y-104339196D01*
X154918877Y-104360279D01*
X154918876Y-104360280D01*
X154798781Y-104421471D01*
X154703471Y-104516781D01*
X154642280Y-104636876D01*
X154642279Y-104636877D01*
X154621196Y-104769997D01*
X148460623Y-104769997D01*
X148377855Y-104659432D01*
X148180568Y-104462145D01*
X148125361Y-104420817D01*
X147957214Y-104294944D01*
X147712334Y-104161229D01*
X147450928Y-104063731D01*
X147450929Y-104063731D01*
X147450923Y-104063729D01*
X147178294Y-104004422D01*
X147178289Y-104004421D01*
X147178285Y-104004421D01*
X146900000Y-103984518D01*
X146621714Y-104004421D01*
X146621708Y-104004421D01*
X146621706Y-104004422D01*
X146621704Y-104004422D01*
X146621700Y-104004423D01*
X146349081Y-104063728D01*
X146349079Y-104063728D01*
X146349077Y-104063729D01*
X146349074Y-104063730D01*
X146349071Y-104063731D01*
X146087665Y-104161229D01*
X145842785Y-104294944D01*
X145619434Y-104462143D01*
X145422143Y-104659434D01*
X145254944Y-104882785D01*
X145121229Y-105127665D01*
X145023731Y-105389071D01*
X145023728Y-105389081D01*
X144964423Y-105661700D01*
X144964421Y-105661714D01*
X144944518Y-105940000D01*
X136162966Y-105940000D01*
X136157720Y-105906877D01*
X136157719Y-105906876D01*
X136157719Y-105906874D01*
X136096528Y-105786780D01*
X136001220Y-105691472D01*
X135881126Y-105630281D01*
X135881124Y-105630280D01*
X135881123Y-105630280D01*
X135881122Y-105630279D01*
X135748002Y-105609196D01*
X135747998Y-105609196D01*
X135614877Y-105630279D01*
X135614876Y-105630280D01*
X135494781Y-105691471D01*
X135399471Y-105786781D01*
X135338280Y-105906876D01*
X135338279Y-105906877D01*
X135317196Y-106039997D01*
X133700700Y-106039997D01*
X133735300Y-105925934D01*
X133755583Y-105720000D01*
X133735300Y-105514066D01*
X133735299Y-105514063D01*
X133735299Y-105514061D01*
X133675234Y-105316052D01*
X133675233Y-105316051D01*
X133675232Y-105316046D01*
X133577685Y-105133550D01*
X133446410Y-104973590D01*
X133286450Y-104842315D01*
X133286448Y-104842314D01*
X133286447Y-104842313D01*
X133222871Y-104808331D01*
X133151154Y-104769997D01*
X135317196Y-104769997D01*
X135317196Y-104770002D01*
X135338279Y-104903122D01*
X135338280Y-104903123D01*
X135338280Y-104903124D01*
X135338281Y-104903126D01*
X135399472Y-105023220D01*
X135494780Y-105118528D01*
X135614874Y-105179719D01*
X135614876Y-105179719D01*
X135614877Y-105179720D01*
X135747998Y-105200804D01*
X135748000Y-105200804D01*
X135748002Y-105200804D01*
X135881122Y-105179720D01*
X135881122Y-105179719D01*
X135881126Y-105179719D01*
X136001220Y-105118528D01*
X136096528Y-105023220D01*
X136157719Y-104903126D01*
X136160941Y-104882787D01*
X136178804Y-104770002D01*
X136178804Y-104769997D01*
X136157720Y-104636877D01*
X136157719Y-104636876D01*
X136157719Y-104636874D01*
X136096528Y-104516780D01*
X136001220Y-104421472D01*
X135881126Y-104360281D01*
X135881124Y-104360280D01*
X135881123Y-104360280D01*
X135881122Y-104360279D01*
X135748002Y-104339196D01*
X135747998Y-104339196D01*
X135614877Y-104360279D01*
X135614876Y-104360280D01*
X135494781Y-104421471D01*
X135399471Y-104516781D01*
X135338280Y-104636876D01*
X135338279Y-104636877D01*
X135317196Y-104769997D01*
X133151154Y-104769997D01*
X133103954Y-104744768D01*
X133103950Y-104744767D01*
X133103947Y-104744765D01*
X133103948Y-104744765D01*
X132905937Y-104684700D01*
X132905938Y-104684700D01*
X132700001Y-104664417D01*
X132699999Y-104664417D01*
X132494061Y-104684700D01*
X132296052Y-104744765D01*
X132113552Y-104842313D01*
X131953591Y-104973589D01*
X131953589Y-104973591D01*
X131822313Y-105133552D01*
X131724765Y-105316052D01*
X131664700Y-105514061D01*
X131644417Y-105719998D01*
X131100500Y-105719998D01*
X131100500Y-103179998D01*
X131644417Y-103179998D01*
X131644417Y-103180001D01*
X131664700Y-103385938D01*
X131724765Y-103583947D01*
X131724767Y-103583950D01*
X131724768Y-103583954D01*
X131822315Y-103766450D01*
X131953590Y-103926410D01*
X132113550Y-104057685D01*
X132296046Y-104155232D01*
X132296051Y-104155233D01*
X132296052Y-104155234D01*
X132296051Y-104155234D01*
X132494062Y-104215299D01*
X132494063Y-104215299D01*
X132494066Y-104215300D01*
X132666529Y-104232286D01*
X132699999Y-104235583D01*
X132700000Y-104235583D01*
X132700001Y-104235583D01*
X132728791Y-104232747D01*
X132905934Y-104215300D01*
X132905936Y-104215299D01*
X132905938Y-104215299D01*
X133031391Y-104177243D01*
X133103954Y-104155232D01*
X133286450Y-104057685D01*
X133446410Y-103926410D01*
X133577685Y-103766450D01*
X133675232Y-103583954D01*
X133700700Y-103499997D01*
X135317196Y-103499997D01*
X135317196Y-103500002D01*
X135338279Y-103633122D01*
X135338280Y-103633123D01*
X135338280Y-103633124D01*
X135338281Y-103633126D01*
X135399472Y-103753220D01*
X135494780Y-103848528D01*
X135614874Y-103909719D01*
X135614876Y-103909719D01*
X135614877Y-103909720D01*
X135747998Y-103930804D01*
X135748000Y-103930804D01*
X135748002Y-103930804D01*
X135881122Y-103909720D01*
X135881122Y-103909719D01*
X135881126Y-103909719D01*
X136001220Y-103848528D01*
X136096528Y-103753220D01*
X136157719Y-103633126D01*
X136165509Y-103583947D01*
X136178804Y-103500002D01*
X136178804Y-103499997D01*
X154621196Y-103499997D01*
X154621196Y-103500002D01*
X154642279Y-103633122D01*
X154642280Y-103633123D01*
X154642280Y-103633124D01*
X154642281Y-103633126D01*
X154703472Y-103753220D01*
X154798780Y-103848528D01*
X154918874Y-103909719D01*
X154918876Y-103909719D01*
X154918877Y-103909720D01*
X155051998Y-103930804D01*
X155052000Y-103930804D01*
X155052002Y-103930804D01*
X155185122Y-103909720D01*
X155185122Y-103909719D01*
X155185126Y-103909719D01*
X155305220Y-103848528D01*
X155400528Y-103753220D01*
X155461719Y-103633126D01*
X155469509Y-103583947D01*
X155482804Y-103500002D01*
X155482804Y-103499997D01*
X155461720Y-103366877D01*
X155461719Y-103366876D01*
X155461719Y-103366874D01*
X155400528Y-103246780D01*
X155333746Y-103179998D01*
X157044417Y-103179998D01*
X157044417Y-103180001D01*
X157064700Y-103385938D01*
X157124765Y-103583947D01*
X157124767Y-103583950D01*
X157124768Y-103583954D01*
X157222315Y-103766450D01*
X157353590Y-103926410D01*
X157513550Y-104057685D01*
X157696046Y-104155232D01*
X157696051Y-104155233D01*
X157696052Y-104155234D01*
X157696051Y-104155234D01*
X157894062Y-104215299D01*
X157894063Y-104215299D01*
X157894066Y-104215300D01*
X158066529Y-104232286D01*
X158099999Y-104235583D01*
X158100000Y-104235583D01*
X158100001Y-104235583D01*
X158128791Y-104232747D01*
X158305934Y-104215300D01*
X158305936Y-104215299D01*
X158305938Y-104215299D01*
X158431391Y-104177243D01*
X158503954Y-104155232D01*
X158686450Y-104057685D01*
X158846410Y-103926410D01*
X158977685Y-103766450D01*
X159075232Y-103583954D01*
X159135300Y-103385934D01*
X159155583Y-103180000D01*
X159135300Y-102974066D01*
X159135299Y-102974063D01*
X159135299Y-102974061D01*
X159075234Y-102776052D01*
X159075233Y-102776051D01*
X159075232Y-102776046D01*
X158977685Y-102593550D01*
X158846410Y-102433590D01*
X158686450Y-102302315D01*
X158686448Y-102302314D01*
X158686447Y-102302313D01*
X158622871Y-102268331D01*
X158503954Y-102204768D01*
X158503950Y-102204767D01*
X158503947Y-102204765D01*
X158503948Y-102204765D01*
X158305937Y-102144700D01*
X158305938Y-102144700D01*
X158100001Y-102124417D01*
X158099999Y-102124417D01*
X157894061Y-102144700D01*
X157696052Y-102204765D01*
X157513552Y-102302313D01*
X157353591Y-102433589D01*
X157353589Y-102433591D01*
X157222313Y-102593552D01*
X157124765Y-102776052D01*
X157064700Y-102974061D01*
X157044417Y-103179998D01*
X155333746Y-103179998D01*
X155305220Y-103151472D01*
X155185126Y-103090281D01*
X155185124Y-103090280D01*
X155185123Y-103090280D01*
X155185122Y-103090279D01*
X155052002Y-103069196D01*
X155051998Y-103069196D01*
X154918877Y-103090279D01*
X154918876Y-103090280D01*
X154798781Y-103151471D01*
X154703471Y-103246781D01*
X154642280Y-103366876D01*
X154642279Y-103366877D01*
X154621196Y-103499997D01*
X136178804Y-103499997D01*
X136157720Y-103366877D01*
X136157719Y-103366876D01*
X136157719Y-103366874D01*
X136096528Y-103246780D01*
X136001220Y-103151472D01*
X135881126Y-103090281D01*
X135881124Y-103090280D01*
X135881123Y-103090280D01*
X135881122Y-103090279D01*
X135748002Y-103069196D01*
X135747998Y-103069196D01*
X135614877Y-103090279D01*
X135614876Y-103090280D01*
X135494781Y-103151471D01*
X135399471Y-103246781D01*
X135338280Y-103366876D01*
X135338279Y-103366877D01*
X135317196Y-103499997D01*
X133700700Y-103499997D01*
X133735300Y-103385934D01*
X133755583Y-103180000D01*
X133735300Y-102974066D01*
X133735299Y-102974063D01*
X133735299Y-102974061D01*
X133675234Y-102776052D01*
X133675233Y-102776051D01*
X133675232Y-102776046D01*
X133577685Y-102593550D01*
X133446410Y-102433590D01*
X133286450Y-102302315D01*
X133286448Y-102302314D01*
X133286447Y-102302313D01*
X133222871Y-102268331D01*
X133151154Y-102229997D01*
X135317196Y-102229997D01*
X135317196Y-102230002D01*
X135338279Y-102363122D01*
X135338280Y-102363123D01*
X135338280Y-102363124D01*
X135338281Y-102363126D01*
X135399472Y-102483220D01*
X135494780Y-102578528D01*
X135614874Y-102639719D01*
X135614876Y-102639719D01*
X135614877Y-102639720D01*
X135747998Y-102660804D01*
X135748000Y-102660804D01*
X135748002Y-102660804D01*
X135881122Y-102639720D01*
X135881122Y-102639719D01*
X135881126Y-102639719D01*
X136001220Y-102578528D01*
X136096528Y-102483220D01*
X136157719Y-102363126D01*
X136167351Y-102302315D01*
X136178804Y-102230002D01*
X136178804Y-102229997D01*
X154621196Y-102229997D01*
X154621196Y-102230002D01*
X154642279Y-102363122D01*
X154642280Y-102363123D01*
X154642280Y-102363124D01*
X154642281Y-102363126D01*
X154703472Y-102483220D01*
X154798780Y-102578528D01*
X154918874Y-102639719D01*
X154918876Y-102639719D01*
X154918877Y-102639720D01*
X155051998Y-102660804D01*
X155052000Y-102660804D01*
X155052002Y-102660804D01*
X155185122Y-102639720D01*
X155185122Y-102639719D01*
X155185126Y-102639719D01*
X155305220Y-102578528D01*
X155400528Y-102483220D01*
X155461719Y-102363126D01*
X155471351Y-102302315D01*
X155482804Y-102230002D01*
X155482804Y-102229997D01*
X155461720Y-102096877D01*
X155461719Y-102096876D01*
X155461719Y-102096874D01*
X155400528Y-101976780D01*
X155305220Y-101881472D01*
X155185126Y-101820281D01*
X155185124Y-101820280D01*
X155185123Y-101820280D01*
X155185122Y-101820279D01*
X155052002Y-101799196D01*
X155051998Y-101799196D01*
X154918877Y-101820279D01*
X154918876Y-101820280D01*
X154798781Y-101881471D01*
X154703471Y-101976781D01*
X154642280Y-102096876D01*
X154642279Y-102096877D01*
X154621196Y-102229997D01*
X136178804Y-102229997D01*
X136157720Y-102096877D01*
X136157719Y-102096876D01*
X136157719Y-102096874D01*
X136096528Y-101976780D01*
X136001220Y-101881472D01*
X135881126Y-101820281D01*
X135881124Y-101820280D01*
X135881123Y-101820280D01*
X135881122Y-101820279D01*
X135748002Y-101799196D01*
X135747998Y-101799196D01*
X135614877Y-101820279D01*
X135614876Y-101820280D01*
X135494781Y-101881471D01*
X135399471Y-101976781D01*
X135338280Y-102096876D01*
X135338279Y-102096877D01*
X135317196Y-102229997D01*
X133151154Y-102229997D01*
X133103954Y-102204768D01*
X133103950Y-102204767D01*
X133103947Y-102204765D01*
X133103948Y-102204765D01*
X132905937Y-102144700D01*
X132905938Y-102144700D01*
X132700001Y-102124417D01*
X132699999Y-102124417D01*
X132494061Y-102144700D01*
X132296052Y-102204765D01*
X132113552Y-102302313D01*
X131953591Y-102433589D01*
X131953589Y-102433591D01*
X131822313Y-102593552D01*
X131724765Y-102776052D01*
X131664700Y-102974061D01*
X131644417Y-103179998D01*
X131100500Y-103179998D01*
X131100500Y-100639998D01*
X131644417Y-100639998D01*
X131644417Y-100640001D01*
X131664700Y-100845938D01*
X131724765Y-101043947D01*
X131724767Y-101043950D01*
X131724768Y-101043954D01*
X131822315Y-101226450D01*
X131953590Y-101386410D01*
X132113550Y-101517685D01*
X132296046Y-101615232D01*
X132296051Y-101615233D01*
X132296052Y-101615234D01*
X132296051Y-101615234D01*
X132494062Y-101675299D01*
X132494063Y-101675299D01*
X132494066Y-101675300D01*
X132666529Y-101692286D01*
X132699999Y-101695583D01*
X132700000Y-101695583D01*
X132700001Y-101695583D01*
X132728791Y-101692747D01*
X132905934Y-101675300D01*
X132905936Y-101675299D01*
X132905938Y-101675299D01*
X133103947Y-101615234D01*
X133103946Y-101615234D01*
X133103954Y-101615232D01*
X133286450Y-101517685D01*
X133446410Y-101386410D01*
X133577685Y-101226450D01*
X133675232Y-101043954D01*
X133700700Y-100959997D01*
X135317196Y-100959997D01*
X135317196Y-100960002D01*
X135338279Y-101093122D01*
X135338280Y-101093123D01*
X135338280Y-101093124D01*
X135338281Y-101093126D01*
X135399472Y-101213220D01*
X135494780Y-101308528D01*
X135614874Y-101369719D01*
X135614876Y-101369719D01*
X135614877Y-101369720D01*
X135747998Y-101390804D01*
X135748000Y-101390804D01*
X135748002Y-101390804D01*
X135881122Y-101369720D01*
X135881122Y-101369719D01*
X135881126Y-101369719D01*
X136001220Y-101308528D01*
X136096528Y-101213220D01*
X136157719Y-101093126D01*
X136165509Y-101043947D01*
X136178804Y-100960002D01*
X136178804Y-100959997D01*
X154621196Y-100959997D01*
X154621196Y-100960002D01*
X154642279Y-101093122D01*
X154642280Y-101093123D01*
X154642280Y-101093124D01*
X154642281Y-101093126D01*
X154703472Y-101213220D01*
X154798780Y-101308528D01*
X154918874Y-101369719D01*
X154918876Y-101369719D01*
X154918877Y-101369720D01*
X155051998Y-101390804D01*
X155052000Y-101390804D01*
X155052002Y-101390804D01*
X155185122Y-101369720D01*
X155185122Y-101369719D01*
X155185126Y-101369719D01*
X155305220Y-101308528D01*
X155400528Y-101213220D01*
X155461719Y-101093126D01*
X155469509Y-101043947D01*
X155482804Y-100960002D01*
X155482804Y-100959997D01*
X155461720Y-100826877D01*
X155461719Y-100826876D01*
X155461719Y-100826874D01*
X155400528Y-100706780D01*
X155333746Y-100639998D01*
X157044417Y-100639998D01*
X157044417Y-100640001D01*
X157064700Y-100845938D01*
X157124765Y-101043947D01*
X157124767Y-101043950D01*
X157124768Y-101043954D01*
X157222315Y-101226450D01*
X157353590Y-101386410D01*
X157513550Y-101517685D01*
X157696046Y-101615232D01*
X157696051Y-101615233D01*
X157696052Y-101615234D01*
X157696051Y-101615234D01*
X157894062Y-101675299D01*
X157894063Y-101675299D01*
X157894066Y-101675300D01*
X158066529Y-101692286D01*
X158099999Y-101695583D01*
X158100000Y-101695583D01*
X158100001Y-101695583D01*
X158128791Y-101692747D01*
X158305934Y-101675300D01*
X158305936Y-101675299D01*
X158305938Y-101675299D01*
X158503947Y-101615234D01*
X158503946Y-101615234D01*
X158503954Y-101615232D01*
X158686450Y-101517685D01*
X158846410Y-101386410D01*
X158977685Y-101226450D01*
X159075232Y-101043954D01*
X159135300Y-100845934D01*
X159155583Y-100640000D01*
X159135300Y-100434066D01*
X159135299Y-100434063D01*
X159135299Y-100434061D01*
X159075234Y-100236052D01*
X159075233Y-100236051D01*
X159075232Y-100236046D01*
X158977685Y-100053550D01*
X158846410Y-99893590D01*
X158686450Y-99762315D01*
X158686448Y-99762314D01*
X158686447Y-99762313D01*
X158622871Y-99728331D01*
X158503954Y-99664768D01*
X158503950Y-99664767D01*
X158503947Y-99664765D01*
X158503948Y-99664765D01*
X158305937Y-99604700D01*
X158305938Y-99604700D01*
X158100001Y-99584417D01*
X158099999Y-99584417D01*
X157894061Y-99604700D01*
X157696052Y-99664765D01*
X157513552Y-99762313D01*
X157353591Y-99893589D01*
X157353589Y-99893591D01*
X157222313Y-100053552D01*
X157124765Y-100236052D01*
X157064700Y-100434061D01*
X157044417Y-100639998D01*
X155333746Y-100639998D01*
X155305220Y-100611472D01*
X155185126Y-100550281D01*
X155185124Y-100550280D01*
X155185123Y-100550280D01*
X155185122Y-100550279D01*
X155052002Y-100529196D01*
X155051998Y-100529196D01*
X154918877Y-100550279D01*
X154918876Y-100550280D01*
X154798781Y-100611471D01*
X154703471Y-100706781D01*
X154642280Y-100826876D01*
X154642279Y-100826877D01*
X154621196Y-100959997D01*
X136178804Y-100959997D01*
X136157720Y-100826877D01*
X136157719Y-100826876D01*
X136157719Y-100826874D01*
X136096528Y-100706780D01*
X136001220Y-100611472D01*
X135881126Y-100550281D01*
X135881124Y-100550280D01*
X135881123Y-100550280D01*
X135881122Y-100550279D01*
X135748002Y-100529196D01*
X135747998Y-100529196D01*
X135614877Y-100550279D01*
X135614876Y-100550280D01*
X135494781Y-100611471D01*
X135399471Y-100706781D01*
X135338280Y-100826876D01*
X135338279Y-100826877D01*
X135317196Y-100959997D01*
X133700700Y-100959997D01*
X133735300Y-100845934D01*
X133755583Y-100640000D01*
X133735300Y-100434066D01*
X133735299Y-100434063D01*
X133735299Y-100434061D01*
X133675234Y-100236052D01*
X133675233Y-100236051D01*
X133675232Y-100236046D01*
X133577685Y-100053550D01*
X133446410Y-99893590D01*
X133286450Y-99762315D01*
X133286448Y-99762314D01*
X133286447Y-99762313D01*
X133222871Y-99728331D01*
X133151154Y-99689997D01*
X135317196Y-99689997D01*
X135317196Y-99690002D01*
X135338279Y-99823122D01*
X135338280Y-99823123D01*
X135338280Y-99823124D01*
X135338281Y-99823126D01*
X135399472Y-99943220D01*
X135494780Y-100038528D01*
X135614874Y-100099719D01*
X135614876Y-100099719D01*
X135614877Y-100099720D01*
X135747998Y-100120804D01*
X135748000Y-100120804D01*
X135748002Y-100120804D01*
X135881122Y-100099720D01*
X135881122Y-100099719D01*
X135881126Y-100099719D01*
X136001220Y-100038528D01*
X136096528Y-99943220D01*
X136157719Y-99823126D01*
X136167351Y-99762315D01*
X136178804Y-99690002D01*
X136178804Y-99689997D01*
X154621196Y-99689997D01*
X154621196Y-99690002D01*
X154642279Y-99823122D01*
X154642280Y-99823123D01*
X154642280Y-99823124D01*
X154642281Y-99823126D01*
X154703472Y-99943220D01*
X154798780Y-100038528D01*
X154918874Y-100099719D01*
X154918876Y-100099719D01*
X154918877Y-100099720D01*
X155051998Y-100120804D01*
X155052000Y-100120804D01*
X155052002Y-100120804D01*
X155185122Y-100099720D01*
X155185122Y-100099719D01*
X155185126Y-100099719D01*
X155305220Y-100038528D01*
X155400528Y-99943220D01*
X155461719Y-99823126D01*
X155471351Y-99762315D01*
X155482804Y-99690002D01*
X155482804Y-99689997D01*
X155461720Y-99556877D01*
X155461719Y-99556876D01*
X155461719Y-99556874D01*
X155400528Y-99436780D01*
X155305220Y-99341472D01*
X155185126Y-99280281D01*
X155185124Y-99280280D01*
X155185123Y-99280280D01*
X155185122Y-99280279D01*
X155052002Y-99259196D01*
X155051998Y-99259196D01*
X154918877Y-99280279D01*
X154918876Y-99280280D01*
X154798781Y-99341471D01*
X154703471Y-99436781D01*
X154642280Y-99556876D01*
X154642279Y-99556877D01*
X154621196Y-99689997D01*
X136178804Y-99689997D01*
X136157720Y-99556877D01*
X136157719Y-99556876D01*
X136157719Y-99556874D01*
X136096528Y-99436780D01*
X136001220Y-99341472D01*
X135881126Y-99280281D01*
X135881124Y-99280280D01*
X135881123Y-99280280D01*
X135881122Y-99280279D01*
X135748002Y-99259196D01*
X135747998Y-99259196D01*
X135614877Y-99280279D01*
X135614876Y-99280280D01*
X135494781Y-99341471D01*
X135399471Y-99436781D01*
X135338280Y-99556876D01*
X135338279Y-99556877D01*
X135317196Y-99689997D01*
X133151154Y-99689997D01*
X133103954Y-99664768D01*
X133103950Y-99664767D01*
X133103947Y-99664765D01*
X133103948Y-99664765D01*
X132905937Y-99604700D01*
X132905938Y-99604700D01*
X132700001Y-99584417D01*
X132699999Y-99584417D01*
X132494061Y-99604700D01*
X132296052Y-99664765D01*
X132113552Y-99762313D01*
X131953591Y-99893589D01*
X131953589Y-99893591D01*
X131822313Y-100053552D01*
X131724765Y-100236052D01*
X131664700Y-100434061D01*
X131644417Y-100639998D01*
X131100500Y-100639998D01*
X131100500Y-98099998D01*
X131644417Y-98099998D01*
X131644417Y-98100001D01*
X131664700Y-98305938D01*
X131724765Y-98503947D01*
X131724767Y-98503950D01*
X131724768Y-98503954D01*
X131822315Y-98686450D01*
X131953590Y-98846410D01*
X132113550Y-98977685D01*
X132296046Y-99075232D01*
X132296051Y-99075233D01*
X132296052Y-99075234D01*
X132296051Y-99075234D01*
X132494062Y-99135299D01*
X132494063Y-99135299D01*
X132494066Y-99135300D01*
X132666529Y-99152286D01*
X132699999Y-99155583D01*
X132700000Y-99155583D01*
X132700001Y-99155583D01*
X132728791Y-99152747D01*
X132905934Y-99135300D01*
X132905936Y-99135299D01*
X132905938Y-99135299D01*
X133103947Y-99075234D01*
X133103946Y-99075234D01*
X133103954Y-99075232D01*
X133286450Y-98977685D01*
X133446410Y-98846410D01*
X133577685Y-98686450D01*
X133675232Y-98503954D01*
X133700700Y-98419997D01*
X135317196Y-98419997D01*
X135317196Y-98420002D01*
X135338279Y-98553122D01*
X135338280Y-98553123D01*
X135338280Y-98553124D01*
X135338281Y-98553126D01*
X135399472Y-98673220D01*
X135494780Y-98768528D01*
X135614874Y-98829719D01*
X135614876Y-98829719D01*
X135614877Y-98829720D01*
X135747998Y-98850804D01*
X135748000Y-98850804D01*
X135748002Y-98850804D01*
X135881122Y-98829720D01*
X135881122Y-98829719D01*
X135881126Y-98829719D01*
X136001220Y-98768528D01*
X136096528Y-98673220D01*
X136157719Y-98553126D01*
X136165509Y-98503947D01*
X136178804Y-98420002D01*
X136178804Y-98419997D01*
X154621196Y-98419997D01*
X154621196Y-98420002D01*
X154642279Y-98553122D01*
X154642280Y-98553123D01*
X154642280Y-98553124D01*
X154642281Y-98553126D01*
X154703472Y-98673220D01*
X154798780Y-98768528D01*
X154918874Y-98829719D01*
X154918876Y-98829719D01*
X154918877Y-98829720D01*
X155051998Y-98850804D01*
X155052000Y-98850804D01*
X155052002Y-98850804D01*
X155185122Y-98829720D01*
X155185122Y-98829719D01*
X155185126Y-98829719D01*
X155305220Y-98768528D01*
X155400528Y-98673220D01*
X155461719Y-98553126D01*
X155469509Y-98503947D01*
X155482804Y-98420002D01*
X155482804Y-98419997D01*
X155461720Y-98286877D01*
X155461719Y-98286876D01*
X155461719Y-98286874D01*
X155400528Y-98166780D01*
X155333746Y-98099998D01*
X157044417Y-98099998D01*
X157044417Y-98100001D01*
X157064700Y-98305938D01*
X157124765Y-98503947D01*
X157124767Y-98503950D01*
X157124768Y-98503954D01*
X157222315Y-98686450D01*
X157353590Y-98846410D01*
X157513550Y-98977685D01*
X157696046Y-99075232D01*
X157696051Y-99075233D01*
X157696052Y-99075234D01*
X157696051Y-99075234D01*
X157894062Y-99135299D01*
X157894063Y-99135299D01*
X157894066Y-99135300D01*
X158066529Y-99152286D01*
X158099999Y-99155583D01*
X158100000Y-99155583D01*
X158100001Y-99155583D01*
X158128791Y-99152747D01*
X158305934Y-99135300D01*
X158305936Y-99135299D01*
X158305938Y-99135299D01*
X158503947Y-99075234D01*
X158503946Y-99075234D01*
X158503954Y-99075232D01*
X158686450Y-98977685D01*
X158846410Y-98846410D01*
X158977685Y-98686450D01*
X159075232Y-98503954D01*
X159135300Y-98305934D01*
X159155583Y-98100000D01*
X159135300Y-97894066D01*
X159135299Y-97894063D01*
X159135299Y-97894061D01*
X159075234Y-97696052D01*
X159075233Y-97696051D01*
X159075232Y-97696046D01*
X158977685Y-97513550D01*
X158846410Y-97353590D01*
X158686450Y-97222315D01*
X158686448Y-97222314D01*
X158686447Y-97222313D01*
X158622871Y-97188331D01*
X158503954Y-97124768D01*
X158503950Y-97124767D01*
X158503947Y-97124765D01*
X158503948Y-97124765D01*
X158305937Y-97064700D01*
X158305938Y-97064700D01*
X158100001Y-97044417D01*
X158099999Y-97044417D01*
X157894061Y-97064700D01*
X157696052Y-97124765D01*
X157513552Y-97222313D01*
X157353591Y-97353589D01*
X157353589Y-97353591D01*
X157222313Y-97513552D01*
X157124765Y-97696052D01*
X157064700Y-97894061D01*
X157044417Y-98099998D01*
X155333746Y-98099998D01*
X155305220Y-98071472D01*
X155185126Y-98010281D01*
X155185124Y-98010280D01*
X155185123Y-98010280D01*
X155185122Y-98010279D01*
X155052002Y-97989196D01*
X155051998Y-97989196D01*
X154918877Y-98010279D01*
X154918876Y-98010280D01*
X154798781Y-98071471D01*
X154703471Y-98166781D01*
X154642280Y-98286876D01*
X154642279Y-98286877D01*
X154621196Y-98419997D01*
X136178804Y-98419997D01*
X136157720Y-98286877D01*
X136157719Y-98286876D01*
X136157719Y-98286874D01*
X136096528Y-98166780D01*
X136001220Y-98071472D01*
X135881126Y-98010281D01*
X135881124Y-98010280D01*
X135881123Y-98010280D01*
X135881122Y-98010279D01*
X135748002Y-97989196D01*
X135747998Y-97989196D01*
X135614877Y-98010279D01*
X135614876Y-98010280D01*
X135494781Y-98071471D01*
X135399471Y-98166781D01*
X135338280Y-98286876D01*
X135338279Y-98286877D01*
X135317196Y-98419997D01*
X133700700Y-98419997D01*
X133735300Y-98305934D01*
X133755583Y-98100000D01*
X133735300Y-97894066D01*
X133735299Y-97894063D01*
X133735299Y-97894061D01*
X133675234Y-97696052D01*
X133675233Y-97696051D01*
X133675232Y-97696046D01*
X133577685Y-97513550D01*
X133446410Y-97353590D01*
X133286450Y-97222315D01*
X133286448Y-97222314D01*
X133286447Y-97222313D01*
X133222871Y-97188331D01*
X133151154Y-97149997D01*
X135317196Y-97149997D01*
X135317196Y-97150002D01*
X135338279Y-97283122D01*
X135338280Y-97283123D01*
X135338280Y-97283124D01*
X135338281Y-97283126D01*
X135399472Y-97403220D01*
X135494780Y-97498528D01*
X135614874Y-97559719D01*
X135614876Y-97559719D01*
X135614877Y-97559720D01*
X135747998Y-97580804D01*
X135748000Y-97580804D01*
X135748002Y-97580804D01*
X135881122Y-97559720D01*
X135881122Y-97559719D01*
X135881126Y-97559719D01*
X136001220Y-97498528D01*
X136096528Y-97403220D01*
X136157719Y-97283126D01*
X136167351Y-97222315D01*
X136178804Y-97150002D01*
X136178804Y-97149997D01*
X154621196Y-97149997D01*
X154621196Y-97150002D01*
X154642279Y-97283122D01*
X154642280Y-97283123D01*
X154642280Y-97283124D01*
X154642281Y-97283126D01*
X154703472Y-97403220D01*
X154798780Y-97498528D01*
X154918874Y-97559719D01*
X154918876Y-97559719D01*
X154918877Y-97559720D01*
X155051998Y-97580804D01*
X155052000Y-97580804D01*
X155052002Y-97580804D01*
X155185122Y-97559720D01*
X155185122Y-97559719D01*
X155185126Y-97559719D01*
X155305220Y-97498528D01*
X155400528Y-97403220D01*
X155461719Y-97283126D01*
X155471351Y-97222315D01*
X155482804Y-97150002D01*
X155482804Y-97149997D01*
X155461720Y-97016877D01*
X155461719Y-97016876D01*
X155461719Y-97016874D01*
X155400528Y-96896780D01*
X155305220Y-96801472D01*
X155185126Y-96740281D01*
X155185124Y-96740280D01*
X155185123Y-96740280D01*
X155185122Y-96740279D01*
X155052002Y-96719196D01*
X155051998Y-96719196D01*
X154918877Y-96740279D01*
X154918876Y-96740280D01*
X154798781Y-96801471D01*
X154703471Y-96896781D01*
X154642280Y-97016876D01*
X154642279Y-97016877D01*
X154621196Y-97149997D01*
X136178804Y-97149997D01*
X136157720Y-97016877D01*
X136157719Y-97016876D01*
X136157719Y-97016874D01*
X136096528Y-96896780D01*
X136001220Y-96801472D01*
X135881126Y-96740281D01*
X135881124Y-96740280D01*
X135881123Y-96740280D01*
X135881122Y-96740279D01*
X135748002Y-96719196D01*
X135747998Y-96719196D01*
X135614877Y-96740279D01*
X135614876Y-96740280D01*
X135494781Y-96801471D01*
X135399471Y-96896781D01*
X135338280Y-97016876D01*
X135338279Y-97016877D01*
X135317196Y-97149997D01*
X133151154Y-97149997D01*
X133103954Y-97124768D01*
X133103950Y-97124767D01*
X133103947Y-97124765D01*
X133103948Y-97124765D01*
X132905937Y-97064700D01*
X132905938Y-97064700D01*
X132700001Y-97044417D01*
X132699999Y-97044417D01*
X132494061Y-97064700D01*
X132296052Y-97124765D01*
X132113552Y-97222313D01*
X131953591Y-97353589D01*
X131953589Y-97353591D01*
X131822313Y-97513552D01*
X131724765Y-97696052D01*
X131664700Y-97894061D01*
X131644417Y-98099998D01*
X131100500Y-98099998D01*
X131100500Y-95559998D01*
X131644417Y-95559998D01*
X131644417Y-95560001D01*
X131664700Y-95765938D01*
X131724765Y-95963947D01*
X131724767Y-95963950D01*
X131724768Y-95963954D01*
X131822315Y-96146450D01*
X131953590Y-96306410D01*
X132113550Y-96437685D01*
X132296046Y-96535232D01*
X132296051Y-96535233D01*
X132296052Y-96535234D01*
X132296051Y-96535234D01*
X132494062Y-96595299D01*
X132494063Y-96595299D01*
X132494066Y-96595300D01*
X132666529Y-96612286D01*
X132699999Y-96615583D01*
X132700000Y-96615583D01*
X132700001Y-96615583D01*
X132728791Y-96612747D01*
X132905934Y-96595300D01*
X132905936Y-96595299D01*
X132905938Y-96595299D01*
X133103947Y-96535234D01*
X133103946Y-96535234D01*
X133103954Y-96535232D01*
X133286450Y-96437685D01*
X133446410Y-96306410D01*
X133577685Y-96146450D01*
X133675232Y-95963954D01*
X133735300Y-95765934D01*
X133755583Y-95560000D01*
X133755583Y-95559998D01*
X157044417Y-95559998D01*
X157044417Y-95560001D01*
X157064700Y-95765938D01*
X157124765Y-95963947D01*
X157124767Y-95963950D01*
X157124768Y-95963954D01*
X157222315Y-96146450D01*
X157353590Y-96306410D01*
X157513550Y-96437685D01*
X157696046Y-96535232D01*
X157696051Y-96535233D01*
X157696052Y-96535234D01*
X157696051Y-96535234D01*
X157894062Y-96595299D01*
X157894063Y-96595299D01*
X157894066Y-96595300D01*
X158066529Y-96612286D01*
X158099999Y-96615583D01*
X158100000Y-96615583D01*
X158100001Y-96615583D01*
X158128791Y-96612747D01*
X158305934Y-96595300D01*
X158305936Y-96595299D01*
X158305938Y-96595299D01*
X158503947Y-96535234D01*
X158503946Y-96535234D01*
X158503954Y-96535232D01*
X158686450Y-96437685D01*
X158846410Y-96306410D01*
X158977685Y-96146450D01*
X159075232Y-95963954D01*
X159135300Y-95765934D01*
X159155583Y-95560000D01*
X159135300Y-95354066D01*
X159135299Y-95354063D01*
X159135299Y-95354061D01*
X159075234Y-95156052D01*
X159075233Y-95156051D01*
X159075232Y-95156046D01*
X158977685Y-94973550D01*
X158846410Y-94813590D01*
X158686450Y-94682315D01*
X158686448Y-94682314D01*
X158686447Y-94682313D01*
X158622871Y-94648331D01*
X158503954Y-94584768D01*
X158503950Y-94584767D01*
X158503947Y-94584765D01*
X158503948Y-94584765D01*
X158305937Y-94524700D01*
X158305938Y-94524700D01*
X158100001Y-94504417D01*
X158099999Y-94504417D01*
X157894061Y-94524700D01*
X157696052Y-94584765D01*
X157696046Y-94584767D01*
X157696046Y-94584768D01*
X157689476Y-94588280D01*
X157513552Y-94682313D01*
X157353591Y-94813589D01*
X157353589Y-94813591D01*
X157222313Y-94973552D01*
X157124765Y-95156052D01*
X157064700Y-95354061D01*
X157044417Y-95559998D01*
X133755583Y-95559998D01*
X133735300Y-95354066D01*
X133735299Y-95354063D01*
X133735299Y-95354061D01*
X133675234Y-95156052D01*
X133675233Y-95156051D01*
X133675232Y-95156046D01*
X133590752Y-94997997D01*
X137984196Y-94997997D01*
X137984196Y-94998002D01*
X138005279Y-95131122D01*
X138005280Y-95131123D01*
X138005280Y-95131124D01*
X138005281Y-95131126D01*
X138066472Y-95251220D01*
X138161780Y-95346528D01*
X138281874Y-95407719D01*
X138281876Y-95407719D01*
X138281877Y-95407720D01*
X138414998Y-95428804D01*
X138415000Y-95428804D01*
X138415002Y-95428804D01*
X138548122Y-95407720D01*
X138548122Y-95407719D01*
X138548126Y-95407719D01*
X138668220Y-95346528D01*
X138763528Y-95251220D01*
X138824719Y-95131126D01*
X138845804Y-94998000D01*
X138845804Y-94997997D01*
X139254196Y-94997997D01*
X139254196Y-94998002D01*
X139275279Y-95131122D01*
X139275280Y-95131123D01*
X139275280Y-95131124D01*
X139275281Y-95131126D01*
X139336472Y-95251220D01*
X139431780Y-95346528D01*
X139551874Y-95407719D01*
X139551876Y-95407719D01*
X139551877Y-95407720D01*
X139684998Y-95428804D01*
X139685000Y-95428804D01*
X139685002Y-95428804D01*
X139818122Y-95407720D01*
X139818122Y-95407719D01*
X139818126Y-95407719D01*
X139938220Y-95346528D01*
X140033528Y-95251220D01*
X140094719Y-95131126D01*
X140115804Y-94998000D01*
X140115804Y-94997997D01*
X140524196Y-94997997D01*
X140524196Y-94998002D01*
X140545279Y-95131122D01*
X140545280Y-95131123D01*
X140545280Y-95131124D01*
X140545281Y-95131126D01*
X140606472Y-95251220D01*
X140701780Y-95346528D01*
X140821874Y-95407719D01*
X140821876Y-95407719D01*
X140821877Y-95407720D01*
X140954998Y-95428804D01*
X140955000Y-95428804D01*
X140955002Y-95428804D01*
X141088122Y-95407720D01*
X141088122Y-95407719D01*
X141088126Y-95407719D01*
X141208220Y-95346528D01*
X141303528Y-95251220D01*
X141364719Y-95131126D01*
X141385804Y-94998000D01*
X141385804Y-94997997D01*
X141794196Y-94997997D01*
X141794196Y-94998002D01*
X141815279Y-95131122D01*
X141815280Y-95131123D01*
X141815280Y-95131124D01*
X141815281Y-95131126D01*
X141876472Y-95251220D01*
X141971780Y-95346528D01*
X142091874Y-95407719D01*
X142091876Y-95407719D01*
X142091877Y-95407720D01*
X142224998Y-95428804D01*
X142225000Y-95428804D01*
X142225002Y-95428804D01*
X142358122Y-95407720D01*
X142358122Y-95407719D01*
X142358126Y-95407719D01*
X142478220Y-95346528D01*
X142573528Y-95251220D01*
X142634719Y-95131126D01*
X142655804Y-94998000D01*
X142655804Y-94997997D01*
X143064196Y-94997997D01*
X143064196Y-94998002D01*
X143085279Y-95131122D01*
X143085280Y-95131123D01*
X143085280Y-95131124D01*
X143085281Y-95131126D01*
X143146472Y-95251220D01*
X143241780Y-95346528D01*
X143361874Y-95407719D01*
X143361876Y-95407719D01*
X143361877Y-95407720D01*
X143494998Y-95428804D01*
X143495000Y-95428804D01*
X143495002Y-95428804D01*
X143628122Y-95407720D01*
X143628122Y-95407719D01*
X143628126Y-95407719D01*
X143748220Y-95346528D01*
X143843528Y-95251220D01*
X143904719Y-95131126D01*
X143925804Y-94998000D01*
X143925804Y-94997997D01*
X144334196Y-94997997D01*
X144334196Y-94998002D01*
X144355279Y-95131122D01*
X144355280Y-95131123D01*
X144355280Y-95131124D01*
X144355281Y-95131126D01*
X144416472Y-95251220D01*
X144511780Y-95346528D01*
X144631874Y-95407719D01*
X144631876Y-95407719D01*
X144631877Y-95407720D01*
X144764998Y-95428804D01*
X144765000Y-95428804D01*
X144765002Y-95428804D01*
X144898122Y-95407720D01*
X144898122Y-95407719D01*
X144898126Y-95407719D01*
X145018220Y-95346528D01*
X145113528Y-95251220D01*
X145174719Y-95131126D01*
X145195804Y-94998000D01*
X145195804Y-94997997D01*
X145604196Y-94997997D01*
X145604196Y-94998002D01*
X145625279Y-95131122D01*
X145625280Y-95131123D01*
X145625280Y-95131124D01*
X145625281Y-95131126D01*
X145686472Y-95251220D01*
X145781780Y-95346528D01*
X145901874Y-95407719D01*
X145901876Y-95407719D01*
X145901877Y-95407720D01*
X146034998Y-95428804D01*
X146035000Y-95428804D01*
X146035002Y-95428804D01*
X146168122Y-95407720D01*
X146168122Y-95407719D01*
X146168126Y-95407719D01*
X146288220Y-95346528D01*
X146383528Y-95251220D01*
X146444719Y-95131126D01*
X146465804Y-94998000D01*
X146465804Y-94997997D01*
X146874196Y-94997997D01*
X146874196Y-94998002D01*
X146895279Y-95131122D01*
X146895280Y-95131123D01*
X146895280Y-95131124D01*
X146895281Y-95131126D01*
X146956472Y-95251220D01*
X147051780Y-95346528D01*
X147171874Y-95407719D01*
X147171876Y-95407719D01*
X147171877Y-95407720D01*
X147304998Y-95428804D01*
X147305000Y-95428804D01*
X147305002Y-95428804D01*
X147438122Y-95407720D01*
X147438122Y-95407719D01*
X147438126Y-95407719D01*
X147558220Y-95346528D01*
X147653528Y-95251220D01*
X147714719Y-95131126D01*
X147735804Y-94998000D01*
X147735804Y-94997997D01*
X148144196Y-94997997D01*
X148144196Y-94998002D01*
X148165279Y-95131122D01*
X148165280Y-95131123D01*
X148165280Y-95131124D01*
X148165281Y-95131126D01*
X148226472Y-95251220D01*
X148321780Y-95346528D01*
X148441874Y-95407719D01*
X148441876Y-95407719D01*
X148441877Y-95407720D01*
X148574998Y-95428804D01*
X148575000Y-95428804D01*
X148575002Y-95428804D01*
X148708122Y-95407720D01*
X148708122Y-95407719D01*
X148708126Y-95407719D01*
X148828220Y-95346528D01*
X148923528Y-95251220D01*
X148984719Y-95131126D01*
X149005804Y-94998000D01*
X149005804Y-94997997D01*
X149414196Y-94997997D01*
X149414196Y-94998002D01*
X149435279Y-95131122D01*
X149435280Y-95131123D01*
X149435280Y-95131124D01*
X149435281Y-95131126D01*
X149496472Y-95251220D01*
X149591780Y-95346528D01*
X149711874Y-95407719D01*
X149711876Y-95407719D01*
X149711877Y-95407720D01*
X149844998Y-95428804D01*
X149845000Y-95428804D01*
X149845002Y-95428804D01*
X149978122Y-95407720D01*
X149978122Y-95407719D01*
X149978126Y-95407719D01*
X150098220Y-95346528D01*
X150193528Y-95251220D01*
X150254719Y-95131126D01*
X150275804Y-94998000D01*
X150275804Y-94997997D01*
X150684196Y-94997997D01*
X150684196Y-94998002D01*
X150705279Y-95131122D01*
X150705280Y-95131123D01*
X150705280Y-95131124D01*
X150705281Y-95131126D01*
X150766472Y-95251220D01*
X150861780Y-95346528D01*
X150981874Y-95407719D01*
X150981876Y-95407719D01*
X150981877Y-95407720D01*
X151114998Y-95428804D01*
X151115000Y-95428804D01*
X151115002Y-95428804D01*
X151248122Y-95407720D01*
X151248122Y-95407719D01*
X151248126Y-95407719D01*
X151368220Y-95346528D01*
X151463528Y-95251220D01*
X151524719Y-95131126D01*
X151545804Y-94998000D01*
X151545804Y-94997997D01*
X151954196Y-94997997D01*
X151954196Y-94998002D01*
X151975279Y-95131122D01*
X151975280Y-95131123D01*
X151975280Y-95131124D01*
X151975281Y-95131126D01*
X152036472Y-95251220D01*
X152131780Y-95346528D01*
X152251874Y-95407719D01*
X152251876Y-95407719D01*
X152251877Y-95407720D01*
X152384998Y-95428804D01*
X152385000Y-95428804D01*
X152385002Y-95428804D01*
X152518122Y-95407720D01*
X152518122Y-95407719D01*
X152518126Y-95407719D01*
X152638220Y-95346528D01*
X152733528Y-95251220D01*
X152794719Y-95131126D01*
X152815804Y-94998000D01*
X152811932Y-94973550D01*
X152794720Y-94864877D01*
X152794719Y-94864876D01*
X152794719Y-94864874D01*
X152733528Y-94744780D01*
X152638220Y-94649472D01*
X152518126Y-94588281D01*
X152518124Y-94588280D01*
X152518123Y-94588280D01*
X152518122Y-94588279D01*
X152385002Y-94567196D01*
X152384998Y-94567196D01*
X152251877Y-94588279D01*
X152251876Y-94588280D01*
X152131781Y-94649471D01*
X152036471Y-94744781D01*
X151975280Y-94864876D01*
X151975279Y-94864877D01*
X151954196Y-94997997D01*
X151545804Y-94997997D01*
X151541932Y-94973550D01*
X151524720Y-94864877D01*
X151524719Y-94864876D01*
X151524719Y-94864874D01*
X151463528Y-94744780D01*
X151368220Y-94649472D01*
X151248126Y-94588281D01*
X151248124Y-94588280D01*
X151248123Y-94588280D01*
X151248122Y-94588279D01*
X151115002Y-94567196D01*
X151114998Y-94567196D01*
X150981877Y-94588279D01*
X150981876Y-94588280D01*
X150861781Y-94649471D01*
X150766471Y-94744781D01*
X150705280Y-94864876D01*
X150705279Y-94864877D01*
X150684196Y-94997997D01*
X150275804Y-94997997D01*
X150271932Y-94973550D01*
X150254720Y-94864877D01*
X150254719Y-94864876D01*
X150254719Y-94864874D01*
X150193528Y-94744780D01*
X150098220Y-94649472D01*
X149978126Y-94588281D01*
X149978124Y-94588280D01*
X149978123Y-94588280D01*
X149978122Y-94588279D01*
X149845002Y-94567196D01*
X149844998Y-94567196D01*
X149711877Y-94588279D01*
X149711876Y-94588280D01*
X149591781Y-94649471D01*
X149496471Y-94744781D01*
X149435280Y-94864876D01*
X149435279Y-94864877D01*
X149414196Y-94997997D01*
X149005804Y-94997997D01*
X149001932Y-94973550D01*
X148984720Y-94864877D01*
X148984719Y-94864876D01*
X148984719Y-94864874D01*
X148923528Y-94744780D01*
X148828220Y-94649472D01*
X148708126Y-94588281D01*
X148708124Y-94588280D01*
X148708123Y-94588280D01*
X148708122Y-94588279D01*
X148575002Y-94567196D01*
X148574998Y-94567196D01*
X148441877Y-94588279D01*
X148441876Y-94588280D01*
X148321781Y-94649471D01*
X148226471Y-94744781D01*
X148165280Y-94864876D01*
X148165279Y-94864877D01*
X148144196Y-94997997D01*
X147735804Y-94997997D01*
X147731932Y-94973550D01*
X147714720Y-94864877D01*
X147714719Y-94864876D01*
X147714719Y-94864874D01*
X147653528Y-94744780D01*
X147558220Y-94649472D01*
X147438126Y-94588281D01*
X147438124Y-94588280D01*
X147438123Y-94588280D01*
X147438122Y-94588279D01*
X147305002Y-94567196D01*
X147304998Y-94567196D01*
X147171877Y-94588279D01*
X147171876Y-94588280D01*
X147051781Y-94649471D01*
X146956471Y-94744781D01*
X146895280Y-94864876D01*
X146895279Y-94864877D01*
X146874196Y-94997997D01*
X146465804Y-94997997D01*
X146461932Y-94973550D01*
X146444720Y-94864877D01*
X146444719Y-94864876D01*
X146444719Y-94864874D01*
X146383528Y-94744780D01*
X146288220Y-94649472D01*
X146168126Y-94588281D01*
X146168124Y-94588280D01*
X146168123Y-94588280D01*
X146168122Y-94588279D01*
X146035002Y-94567196D01*
X146034998Y-94567196D01*
X145901877Y-94588279D01*
X145901876Y-94588280D01*
X145781781Y-94649471D01*
X145686471Y-94744781D01*
X145625280Y-94864876D01*
X145625279Y-94864877D01*
X145604196Y-94997997D01*
X145195804Y-94997997D01*
X145191932Y-94973550D01*
X145174720Y-94864877D01*
X145174719Y-94864876D01*
X145174719Y-94864874D01*
X145113528Y-94744780D01*
X145018220Y-94649472D01*
X144898126Y-94588281D01*
X144898124Y-94588280D01*
X144898123Y-94588280D01*
X144898122Y-94588279D01*
X144765002Y-94567196D01*
X144764998Y-94567196D01*
X144631877Y-94588279D01*
X144631876Y-94588280D01*
X144511781Y-94649471D01*
X144416471Y-94744781D01*
X144355280Y-94864876D01*
X144355279Y-94864877D01*
X144334196Y-94997997D01*
X143925804Y-94997997D01*
X143921932Y-94973550D01*
X143904720Y-94864877D01*
X143904719Y-94864876D01*
X143904719Y-94864874D01*
X143843528Y-94744780D01*
X143748220Y-94649472D01*
X143628126Y-94588281D01*
X143628124Y-94588280D01*
X143628123Y-94588280D01*
X143628122Y-94588279D01*
X143495002Y-94567196D01*
X143494998Y-94567196D01*
X143361877Y-94588279D01*
X143361876Y-94588280D01*
X143241781Y-94649471D01*
X143146471Y-94744781D01*
X143085280Y-94864876D01*
X143085279Y-94864877D01*
X143064196Y-94997997D01*
X142655804Y-94997997D01*
X142651932Y-94973550D01*
X142634720Y-94864877D01*
X142634719Y-94864876D01*
X142634719Y-94864874D01*
X142573528Y-94744780D01*
X142478220Y-94649472D01*
X142358126Y-94588281D01*
X142358124Y-94588280D01*
X142358123Y-94588280D01*
X142358122Y-94588279D01*
X142225002Y-94567196D01*
X142224998Y-94567196D01*
X142091877Y-94588279D01*
X142091876Y-94588280D01*
X141971781Y-94649471D01*
X141876471Y-94744781D01*
X141815280Y-94864876D01*
X141815279Y-94864877D01*
X141794196Y-94997997D01*
X141385804Y-94997997D01*
X141381932Y-94973550D01*
X141364720Y-94864877D01*
X141364719Y-94864876D01*
X141364719Y-94864874D01*
X141303528Y-94744780D01*
X141208220Y-94649472D01*
X141088126Y-94588281D01*
X141088124Y-94588280D01*
X141088123Y-94588280D01*
X141088122Y-94588279D01*
X140955002Y-94567196D01*
X140954998Y-94567196D01*
X140821877Y-94588279D01*
X140821876Y-94588280D01*
X140701781Y-94649471D01*
X140606471Y-94744781D01*
X140545280Y-94864876D01*
X140545279Y-94864877D01*
X140524196Y-94997997D01*
X140115804Y-94997997D01*
X140111932Y-94973550D01*
X140094720Y-94864877D01*
X140094719Y-94864876D01*
X140094719Y-94864874D01*
X140033528Y-94744780D01*
X139938220Y-94649472D01*
X139818126Y-94588281D01*
X139818124Y-94588280D01*
X139818123Y-94588280D01*
X139818122Y-94588279D01*
X139685002Y-94567196D01*
X139684998Y-94567196D01*
X139551877Y-94588279D01*
X139551876Y-94588280D01*
X139431781Y-94649471D01*
X139336471Y-94744781D01*
X139275280Y-94864876D01*
X139275279Y-94864877D01*
X139254196Y-94997997D01*
X138845804Y-94997997D01*
X138841932Y-94973550D01*
X138824720Y-94864877D01*
X138824719Y-94864876D01*
X138824719Y-94864874D01*
X138763528Y-94744780D01*
X138668220Y-94649472D01*
X138548126Y-94588281D01*
X138548124Y-94588280D01*
X138548123Y-94588280D01*
X138548122Y-94588279D01*
X138415002Y-94567196D01*
X138414998Y-94567196D01*
X138281877Y-94588279D01*
X138281876Y-94588280D01*
X138161781Y-94649471D01*
X138066471Y-94744781D01*
X138005280Y-94864876D01*
X138005279Y-94864877D01*
X137984196Y-94997997D01*
X133590752Y-94997997D01*
X133577685Y-94973550D01*
X133446410Y-94813590D01*
X133286450Y-94682315D01*
X133286448Y-94682314D01*
X133286447Y-94682313D01*
X133222871Y-94648331D01*
X133103954Y-94584768D01*
X133103950Y-94584767D01*
X133103947Y-94584765D01*
X133103948Y-94584765D01*
X132905937Y-94524700D01*
X132905938Y-94524700D01*
X132700001Y-94504417D01*
X132699999Y-94504417D01*
X132494061Y-94524700D01*
X132296052Y-94584765D01*
X132296046Y-94584767D01*
X132296046Y-94584768D01*
X132289476Y-94588280D01*
X132113552Y-94682313D01*
X131953591Y-94813589D01*
X131953589Y-94813591D01*
X131822313Y-94973552D01*
X131724765Y-95156052D01*
X131664700Y-95354061D01*
X131644417Y-95559998D01*
X131100500Y-95559998D01*
X131100500Y-93019998D01*
X131644417Y-93019998D01*
X131644417Y-93020001D01*
X131664700Y-93225938D01*
X131724765Y-93423947D01*
X131724767Y-93423950D01*
X131724768Y-93423954D01*
X131822315Y-93606450D01*
X131953590Y-93766410D01*
X132113550Y-93897685D01*
X132296046Y-93995232D01*
X132296051Y-93995233D01*
X132296052Y-93995234D01*
X132296051Y-93995234D01*
X132494062Y-94055299D01*
X132494063Y-94055299D01*
X132494066Y-94055300D01*
X132666529Y-94072286D01*
X132699999Y-94075583D01*
X132700000Y-94075583D01*
X132700001Y-94075583D01*
X132728791Y-94072747D01*
X132905934Y-94055300D01*
X132905936Y-94055299D01*
X132905938Y-94055299D01*
X133103947Y-93995234D01*
X133103946Y-93995234D01*
X133103954Y-93995232D01*
X133286450Y-93897685D01*
X133446410Y-93766410D01*
X133577685Y-93606450D01*
X133675232Y-93423954D01*
X133735300Y-93225934D01*
X133755583Y-93020000D01*
X133755583Y-93019998D01*
X157044417Y-93019998D01*
X157044417Y-93020001D01*
X157064700Y-93225938D01*
X157124765Y-93423947D01*
X157124767Y-93423950D01*
X157124768Y-93423954D01*
X157222315Y-93606450D01*
X157353590Y-93766410D01*
X157513550Y-93897685D01*
X157696046Y-93995232D01*
X157696051Y-93995233D01*
X157696052Y-93995234D01*
X157696051Y-93995234D01*
X157894062Y-94055299D01*
X157894063Y-94055299D01*
X157894066Y-94055300D01*
X158066529Y-94072286D01*
X158099999Y-94075583D01*
X158100000Y-94075583D01*
X158100001Y-94075583D01*
X158128791Y-94072747D01*
X158305934Y-94055300D01*
X158305936Y-94055299D01*
X158305938Y-94055299D01*
X158503947Y-93995234D01*
X158503946Y-93995234D01*
X158503954Y-93995232D01*
X158686450Y-93897685D01*
X158846410Y-93766410D01*
X158977685Y-93606450D01*
X159075232Y-93423954D01*
X159135300Y-93225934D01*
X159155583Y-93020000D01*
X159135300Y-92814066D01*
X159135299Y-92814063D01*
X159135299Y-92814061D01*
X159075234Y-92616052D01*
X159075233Y-92616051D01*
X159075232Y-92616046D01*
X158977685Y-92433550D01*
X158846410Y-92273590D01*
X158686450Y-92142315D01*
X158686448Y-92142314D01*
X158686447Y-92142313D01*
X158622871Y-92108331D01*
X158503954Y-92044768D01*
X158503950Y-92044767D01*
X158503947Y-92044765D01*
X158503948Y-92044765D01*
X158305937Y-91984700D01*
X158305938Y-91984700D01*
X158100001Y-91964417D01*
X158099999Y-91964417D01*
X157894061Y-91984700D01*
X157696052Y-92044765D01*
X157513552Y-92142313D01*
X157353591Y-92273589D01*
X157353589Y-92273591D01*
X157222313Y-92433552D01*
X157124765Y-92616052D01*
X157064700Y-92814061D01*
X157044417Y-93019998D01*
X133755583Y-93019998D01*
X133735300Y-92814066D01*
X133735299Y-92814063D01*
X133735299Y-92814061D01*
X133675234Y-92616052D01*
X133675233Y-92616051D01*
X133675232Y-92616046D01*
X133577685Y-92433550D01*
X133446410Y-92273590D01*
X133286450Y-92142315D01*
X133286448Y-92142314D01*
X133286447Y-92142313D01*
X133222871Y-92108331D01*
X133103954Y-92044768D01*
X133103950Y-92044767D01*
X133103947Y-92044765D01*
X133103948Y-92044765D01*
X132905937Y-91984700D01*
X132905938Y-91984700D01*
X132700001Y-91964417D01*
X132699999Y-91964417D01*
X132494061Y-91984700D01*
X132296052Y-92044765D01*
X132113552Y-92142313D01*
X131953591Y-92273589D01*
X131953589Y-92273591D01*
X131822313Y-92433552D01*
X131724765Y-92616052D01*
X131664700Y-92814061D01*
X131644417Y-93019998D01*
X131100500Y-93019998D01*
X131100500Y-90479998D01*
X131644417Y-90479998D01*
X131644417Y-90480001D01*
X131664700Y-90685938D01*
X131724765Y-90883947D01*
X131724767Y-90883950D01*
X131724768Y-90883954D01*
X131822315Y-91066450D01*
X131953590Y-91226410D01*
X132113550Y-91357685D01*
X132296046Y-91455232D01*
X132296051Y-91455233D01*
X132296052Y-91455234D01*
X132296051Y-91455234D01*
X132494062Y-91515299D01*
X132494063Y-91515299D01*
X132494066Y-91515300D01*
X132666529Y-91532286D01*
X132699999Y-91535583D01*
X132700000Y-91535583D01*
X132700001Y-91535583D01*
X132728791Y-91532747D01*
X132905934Y-91515300D01*
X132905936Y-91515299D01*
X132905938Y-91515299D01*
X133103947Y-91455234D01*
X133103946Y-91455234D01*
X133103954Y-91455232D01*
X133286450Y-91357685D01*
X133446410Y-91226410D01*
X133577685Y-91066450D01*
X133675232Y-90883954D01*
X133735300Y-90685934D01*
X133755583Y-90480000D01*
X133755583Y-90479998D01*
X157044417Y-90479998D01*
X157044417Y-90480001D01*
X157064700Y-90685938D01*
X157124765Y-90883947D01*
X157124767Y-90883950D01*
X157124768Y-90883954D01*
X157222315Y-91066450D01*
X157353590Y-91226410D01*
X157513550Y-91357685D01*
X157696046Y-91455232D01*
X157696051Y-91455233D01*
X157696052Y-91455234D01*
X157696051Y-91455234D01*
X157894062Y-91515299D01*
X157894063Y-91515299D01*
X157894066Y-91515300D01*
X158066529Y-91532286D01*
X158099999Y-91535583D01*
X158100000Y-91535583D01*
X158100001Y-91535583D01*
X158128791Y-91532747D01*
X158305934Y-91515300D01*
X158305936Y-91515299D01*
X158305938Y-91515299D01*
X158503947Y-91455234D01*
X158503946Y-91455234D01*
X158503954Y-91455232D01*
X158686450Y-91357685D01*
X158846410Y-91226410D01*
X158977685Y-91066450D01*
X159075232Y-90883954D01*
X159135300Y-90685934D01*
X159155583Y-90480000D01*
X159135300Y-90274066D01*
X159135299Y-90274063D01*
X159135299Y-90274061D01*
X159075234Y-90076052D01*
X159075233Y-90076051D01*
X159075232Y-90076046D01*
X158977685Y-89893550D01*
X158846410Y-89733590D01*
X158686450Y-89602315D01*
X158686448Y-89602314D01*
X158686447Y-89602313D01*
X158622871Y-89568331D01*
X158503954Y-89504768D01*
X158503950Y-89504767D01*
X158503947Y-89504765D01*
X158503948Y-89504765D01*
X158305937Y-89444700D01*
X158305938Y-89444700D01*
X158100001Y-89424417D01*
X158099999Y-89424417D01*
X157894061Y-89444700D01*
X157696052Y-89504765D01*
X157696046Y-89504767D01*
X157696046Y-89504768D01*
X157673394Y-89516876D01*
X157513552Y-89602313D01*
X157353591Y-89733589D01*
X157353589Y-89733591D01*
X157222313Y-89893552D01*
X157124765Y-90076052D01*
X157064700Y-90274061D01*
X157044417Y-90479998D01*
X133755583Y-90479998D01*
X133735300Y-90274066D01*
X133735299Y-90274063D01*
X133735299Y-90274061D01*
X133675234Y-90076052D01*
X133675233Y-90076051D01*
X133675232Y-90076046D01*
X133577685Y-89893550D01*
X133446410Y-89733590D01*
X133344551Y-89649997D01*
X150559196Y-89649997D01*
X150559196Y-89650002D01*
X150580279Y-89783122D01*
X150580280Y-89783123D01*
X150580280Y-89783124D01*
X150580281Y-89783126D01*
X150641472Y-89903220D01*
X150736780Y-89998528D01*
X150856874Y-90059719D01*
X150856876Y-90059719D01*
X150856877Y-90059720D01*
X150989998Y-90080804D01*
X150990000Y-90080804D01*
X150990002Y-90080804D01*
X151123122Y-90059720D01*
X151123122Y-90059719D01*
X151123126Y-90059719D01*
X151243220Y-89998528D01*
X151338528Y-89903220D01*
X151399719Y-89783126D01*
X151420804Y-89650000D01*
X151420804Y-89649997D01*
X151399720Y-89516877D01*
X151399719Y-89516876D01*
X151399719Y-89516874D01*
X151338528Y-89396780D01*
X151243220Y-89301472D01*
X151123126Y-89240281D01*
X151123124Y-89240280D01*
X151123123Y-89240280D01*
X151123122Y-89240279D01*
X150990002Y-89219196D01*
X150989998Y-89219196D01*
X150856877Y-89240279D01*
X150856876Y-89240280D01*
X150736781Y-89301471D01*
X150641471Y-89396781D01*
X150580280Y-89516876D01*
X150580279Y-89516877D01*
X150559196Y-89649997D01*
X133344551Y-89649997D01*
X133286450Y-89602315D01*
X133286448Y-89602314D01*
X133286447Y-89602313D01*
X133222871Y-89568331D01*
X133103954Y-89504768D01*
X133103950Y-89504767D01*
X133103947Y-89504765D01*
X133103948Y-89504765D01*
X132905937Y-89444700D01*
X132905938Y-89444700D01*
X132700001Y-89424417D01*
X132699999Y-89424417D01*
X132494061Y-89444700D01*
X132296052Y-89504765D01*
X132296046Y-89504767D01*
X132296046Y-89504768D01*
X132273394Y-89516876D01*
X132113552Y-89602313D01*
X131953591Y-89733589D01*
X131953589Y-89733591D01*
X131822313Y-89893552D01*
X131724765Y-90076052D01*
X131664700Y-90274061D01*
X131644417Y-90479998D01*
X131100500Y-90479998D01*
X131100500Y-87939998D01*
X131644417Y-87939998D01*
X131644417Y-87940001D01*
X131664700Y-88145938D01*
X131724765Y-88343947D01*
X131724767Y-88343950D01*
X131724768Y-88343954D01*
X131822315Y-88526450D01*
X131953590Y-88686410D01*
X132113550Y-88817685D01*
X132296046Y-88915232D01*
X132296051Y-88915233D01*
X132296052Y-88915234D01*
X132296051Y-88915234D01*
X132494062Y-88975299D01*
X132494063Y-88975299D01*
X132494066Y-88975300D01*
X132666529Y-88992286D01*
X132699999Y-88995583D01*
X132700000Y-88995583D01*
X132700001Y-88995583D01*
X132728791Y-88992747D01*
X132905934Y-88975300D01*
X132905936Y-88975299D01*
X132905938Y-88975299D01*
X133103947Y-88915234D01*
X133103946Y-88915234D01*
X133103954Y-88915232D01*
X133286450Y-88817685D01*
X133446410Y-88686410D01*
X133577685Y-88526450D01*
X133675232Y-88343954D01*
X133735300Y-88145934D01*
X133755583Y-87940000D01*
X133755583Y-87939998D01*
X157044417Y-87939998D01*
X157044417Y-87940001D01*
X157064700Y-88145938D01*
X157124765Y-88343947D01*
X157124767Y-88343950D01*
X157124768Y-88343954D01*
X157222315Y-88526450D01*
X157353590Y-88686410D01*
X157513550Y-88817685D01*
X157696046Y-88915232D01*
X157696051Y-88915233D01*
X157696052Y-88915234D01*
X157696051Y-88915234D01*
X157894062Y-88975299D01*
X157894063Y-88975299D01*
X157894066Y-88975300D01*
X158066529Y-88992286D01*
X158099999Y-88995583D01*
X158100000Y-88995583D01*
X158100001Y-88995583D01*
X158128791Y-88992747D01*
X158305934Y-88975300D01*
X158305936Y-88975299D01*
X158305938Y-88975299D01*
X158503947Y-88915234D01*
X158503946Y-88915234D01*
X158503954Y-88915232D01*
X158686450Y-88817685D01*
X158846410Y-88686410D01*
X158977685Y-88526450D01*
X159075232Y-88343954D01*
X159135300Y-88145934D01*
X159155583Y-87940000D01*
X159135300Y-87734066D01*
X159135299Y-87734063D01*
X159135299Y-87734061D01*
X159075234Y-87536052D01*
X159075233Y-87536051D01*
X159075232Y-87536046D01*
X158977685Y-87353550D01*
X158846410Y-87193590D01*
X158686450Y-87062315D01*
X158686448Y-87062314D01*
X158686447Y-87062313D01*
X158622871Y-87028331D01*
X158503954Y-86964768D01*
X158503950Y-86964767D01*
X158503947Y-86964765D01*
X158503948Y-86964765D01*
X158305937Y-86904700D01*
X158305938Y-86904700D01*
X158100001Y-86884417D01*
X158099999Y-86884417D01*
X157894061Y-86904700D01*
X157696052Y-86964765D01*
X157513552Y-87062313D01*
X157353591Y-87193589D01*
X157353589Y-87193591D01*
X157222313Y-87353552D01*
X157124765Y-87536052D01*
X157064700Y-87734061D01*
X157044417Y-87939998D01*
X133755583Y-87939998D01*
X133735300Y-87734066D01*
X133735299Y-87734063D01*
X133735299Y-87734061D01*
X133675234Y-87536052D01*
X133675233Y-87536051D01*
X133675232Y-87536046D01*
X133577685Y-87353550D01*
X133446410Y-87193590D01*
X133286450Y-87062315D01*
X133286448Y-87062314D01*
X133286447Y-87062313D01*
X133222871Y-87028331D01*
X133103954Y-86964768D01*
X133103950Y-86964767D01*
X133103947Y-86964765D01*
X133103948Y-86964765D01*
X132905937Y-86904700D01*
X132905938Y-86904700D01*
X132700001Y-86884417D01*
X132699999Y-86884417D01*
X132494061Y-86904700D01*
X132296052Y-86964765D01*
X132113552Y-87062313D01*
X131953591Y-87193589D01*
X131953589Y-87193591D01*
X131822313Y-87353552D01*
X131724765Y-87536052D01*
X131664700Y-87734061D01*
X131644417Y-87939998D01*
X131100500Y-87939998D01*
X131100500Y-85399998D01*
X131644417Y-85399998D01*
X131644417Y-85400001D01*
X131664700Y-85605938D01*
X131724765Y-85803947D01*
X131724767Y-85803950D01*
X131724768Y-85803954D01*
X131822315Y-85986450D01*
X131953590Y-86146410D01*
X132113550Y-86277685D01*
X132296046Y-86375232D01*
X132296051Y-86375233D01*
X132296052Y-86375234D01*
X132296051Y-86375234D01*
X132494062Y-86435299D01*
X132494063Y-86435299D01*
X132494066Y-86435300D01*
X132666529Y-86452286D01*
X132699999Y-86455583D01*
X132700000Y-86455583D01*
X132700001Y-86455583D01*
X132728791Y-86452747D01*
X132905934Y-86435300D01*
X132905936Y-86435299D01*
X132905938Y-86435299D01*
X133103947Y-86375234D01*
X133103946Y-86375234D01*
X133103954Y-86375232D01*
X133286450Y-86277685D01*
X133446410Y-86146410D01*
X133577685Y-85986450D01*
X133675232Y-85803954D01*
X133735300Y-85605934D01*
X133755583Y-85400000D01*
X133755583Y-85399998D01*
X157044417Y-85399998D01*
X157044417Y-85400001D01*
X157064700Y-85605938D01*
X157124765Y-85803947D01*
X157124767Y-85803950D01*
X157124768Y-85803954D01*
X157222315Y-85986450D01*
X157353590Y-86146410D01*
X157513550Y-86277685D01*
X157696046Y-86375232D01*
X157696051Y-86375233D01*
X157696052Y-86375234D01*
X157696051Y-86375234D01*
X157894062Y-86435299D01*
X157894063Y-86435299D01*
X157894066Y-86435300D01*
X158066529Y-86452286D01*
X158099999Y-86455583D01*
X158100000Y-86455583D01*
X158100001Y-86455583D01*
X158128791Y-86452747D01*
X158305934Y-86435300D01*
X158305936Y-86435299D01*
X158305938Y-86435299D01*
X158503947Y-86375234D01*
X158503946Y-86375234D01*
X158503954Y-86375232D01*
X158686450Y-86277685D01*
X158846410Y-86146410D01*
X158977685Y-85986450D01*
X159075232Y-85803954D01*
X159135300Y-85605934D01*
X159155583Y-85400000D01*
X159135300Y-85194066D01*
X159135299Y-85194063D01*
X159135299Y-85194061D01*
X159075234Y-84996052D01*
X159075233Y-84996051D01*
X159075232Y-84996046D01*
X158977685Y-84813550D01*
X158846410Y-84653590D01*
X158686450Y-84522315D01*
X158686448Y-84522314D01*
X158686447Y-84522313D01*
X158572988Y-84461668D01*
X158503954Y-84424768D01*
X158503950Y-84424767D01*
X158503947Y-84424765D01*
X158503948Y-84424765D01*
X158305937Y-84364700D01*
X158305938Y-84364700D01*
X158100001Y-84344417D01*
X158099999Y-84344417D01*
X157894061Y-84364700D01*
X157696052Y-84424765D01*
X157513552Y-84522313D01*
X157353591Y-84653589D01*
X157353589Y-84653591D01*
X157222313Y-84813552D01*
X157124765Y-84996052D01*
X157064700Y-85194061D01*
X157044417Y-85399998D01*
X133755583Y-85399998D01*
X133735300Y-85194066D01*
X133735299Y-85194063D01*
X133735299Y-85194061D01*
X133675234Y-84996052D01*
X133675233Y-84996051D01*
X133675232Y-84996046D01*
X133577685Y-84813550D01*
X133446410Y-84653590D01*
X133286450Y-84522315D01*
X133286448Y-84522314D01*
X133286447Y-84522313D01*
X133172988Y-84461668D01*
X133103954Y-84424768D01*
X133103950Y-84424767D01*
X133103947Y-84424765D01*
X133103948Y-84424765D01*
X132905937Y-84364700D01*
X132905938Y-84364700D01*
X132700001Y-84344417D01*
X132699999Y-84344417D01*
X132494061Y-84364700D01*
X132296052Y-84424765D01*
X132113552Y-84522313D01*
X131953591Y-84653589D01*
X131953589Y-84653591D01*
X131822313Y-84813552D01*
X131724765Y-84996052D01*
X131664700Y-85194061D01*
X131644417Y-85399998D01*
X131100500Y-85399998D01*
X131100500Y-80319998D01*
X131644417Y-80319998D01*
X131644417Y-80320001D01*
X131664700Y-80525938D01*
X131724765Y-80723947D01*
X131724767Y-80723950D01*
X131724768Y-80723954D01*
X131773405Y-80814946D01*
X131822312Y-80906446D01*
X131822315Y-80906450D01*
X131953590Y-81066410D01*
X132113550Y-81197685D01*
X132296046Y-81295232D01*
X132296051Y-81295233D01*
X132296052Y-81295234D01*
X132296051Y-81295234D01*
X132494062Y-81355299D01*
X132494063Y-81355299D01*
X132494066Y-81355300D01*
X132666529Y-81372286D01*
X132699999Y-81375583D01*
X132700000Y-81375583D01*
X132700001Y-81375583D01*
X132728791Y-81372747D01*
X132905934Y-81355300D01*
X132905936Y-81355299D01*
X132905938Y-81355299D01*
X133103947Y-81295234D01*
X133103946Y-81295234D01*
X133103954Y-81295232D01*
X133286450Y-81197685D01*
X133446410Y-81066410D01*
X133577685Y-80906450D01*
X133606267Y-80852977D01*
X133626596Y-80814946D01*
X133652628Y-80793583D01*
X133686142Y-80796884D01*
X133707505Y-80822916D01*
X133709400Y-80835688D01*
X133709400Y-82344312D01*
X133696513Y-82375425D01*
X133665400Y-82388312D01*
X133634287Y-82375425D01*
X133626596Y-82365054D01*
X133577687Y-82273553D01*
X133577685Y-82273550D01*
X133446410Y-82113590D01*
X133286450Y-81982315D01*
X133286448Y-81982314D01*
X133286447Y-81982313D01*
X133222871Y-81948331D01*
X133103954Y-81884768D01*
X133103950Y-81884767D01*
X133103947Y-81884765D01*
X133103948Y-81884765D01*
X132905937Y-81824700D01*
X132905938Y-81824700D01*
X132700001Y-81804417D01*
X132699999Y-81804417D01*
X132494061Y-81824700D01*
X132296052Y-81884765D01*
X132113552Y-81982313D01*
X131953591Y-82113589D01*
X131953589Y-82113591D01*
X131822313Y-82273552D01*
X131724765Y-82456052D01*
X131664700Y-82654061D01*
X131644417Y-82859998D01*
X131644417Y-82860001D01*
X131664700Y-83065938D01*
X131724765Y-83263947D01*
X131724767Y-83263950D01*
X131724768Y-83263954D01*
X131822315Y-83446450D01*
X131953590Y-83606410D01*
X132113550Y-83737685D01*
X132296046Y-83835232D01*
X132296051Y-83835233D01*
X132296052Y-83835234D01*
X132296051Y-83835234D01*
X132494062Y-83895299D01*
X132494063Y-83895299D01*
X132494066Y-83895300D01*
X132666529Y-83912286D01*
X132699999Y-83915583D01*
X132700000Y-83915583D01*
X132700001Y-83915583D01*
X132728791Y-83912747D01*
X132905934Y-83895300D01*
X132905936Y-83895299D01*
X132905938Y-83895299D01*
X133031391Y-83857243D01*
X133103954Y-83835232D01*
X133286450Y-83737685D01*
X133446410Y-83606410D01*
X133577685Y-83446450D01*
X133626595Y-83354945D01*
X133652627Y-83333582D01*
X133686141Y-83336882D01*
X133707505Y-83362914D01*
X133709400Y-83375687D01*
X133709400Y-83649087D01*
X133709400Y-83754113D01*
X133749592Y-83851144D01*
X134174205Y-84275757D01*
X134271236Y-84315949D01*
X134376261Y-84315949D01*
X140066376Y-84315949D01*
X140097488Y-84328836D01*
X140133353Y-84364700D01*
X140169130Y-84400477D01*
X140289224Y-84461668D01*
X140289226Y-84461668D01*
X140289227Y-84461669D01*
X140422348Y-84482753D01*
X140422350Y-84482753D01*
X140422352Y-84482753D01*
X140555472Y-84461669D01*
X140555472Y-84461668D01*
X140555476Y-84461668D01*
X140675570Y-84400477D01*
X140770878Y-84305169D01*
X140832069Y-84185075D01*
X140853154Y-84051949D01*
X140853154Y-84051946D01*
X144360045Y-84051946D01*
X144360045Y-84051951D01*
X144381128Y-84185071D01*
X144381129Y-84185072D01*
X144381129Y-84185073D01*
X144381130Y-84185075D01*
X144442321Y-84305169D01*
X144537629Y-84400477D01*
X144657723Y-84461668D01*
X144657725Y-84461668D01*
X144657726Y-84461669D01*
X144790847Y-84482753D01*
X144790849Y-84482753D01*
X144790851Y-84482753D01*
X144923971Y-84461669D01*
X144923971Y-84461668D01*
X144923975Y-84461668D01*
X145044069Y-84400477D01*
X145139377Y-84305169D01*
X145200568Y-84185075D01*
X145221653Y-84051949D01*
X145221653Y-84051946D01*
X145200569Y-83918826D01*
X145200568Y-83918825D01*
X145200568Y-83918823D01*
X145139377Y-83798729D01*
X145044069Y-83703421D01*
X144923975Y-83642230D01*
X144923973Y-83642229D01*
X144923972Y-83642229D01*
X144923971Y-83642228D01*
X144790851Y-83621145D01*
X144790847Y-83621145D01*
X144657726Y-83642228D01*
X144657725Y-83642229D01*
X144537630Y-83703420D01*
X144442320Y-83798730D01*
X144381129Y-83918825D01*
X144381128Y-83918826D01*
X144360045Y-84051946D01*
X140853154Y-84051946D01*
X140832070Y-83918826D01*
X140832069Y-83918825D01*
X140832069Y-83918823D01*
X140770878Y-83798729D01*
X140675570Y-83703421D01*
X140555476Y-83642230D01*
X140555474Y-83642229D01*
X140555473Y-83642229D01*
X140555472Y-83642228D01*
X140422352Y-83621145D01*
X140422348Y-83621145D01*
X140289227Y-83642228D01*
X140289226Y-83642229D01*
X140169129Y-83703421D01*
X140097488Y-83775062D01*
X140066376Y-83787949D01*
X134451327Y-83787949D01*
X134420214Y-83775062D01*
X134250287Y-83605135D01*
X134237400Y-83574022D01*
X134237400Y-82745448D01*
X137804796Y-82745448D01*
X137804796Y-82745453D01*
X137825879Y-82878573D01*
X137825880Y-82878574D01*
X137825880Y-82878575D01*
X137825881Y-82878577D01*
X137887072Y-82998671D01*
X137982380Y-83093979D01*
X138102474Y-83155170D01*
X138102476Y-83155170D01*
X138102477Y-83155171D01*
X138235598Y-83176255D01*
X138235600Y-83176255D01*
X138235602Y-83176255D01*
X138368722Y-83155171D01*
X138368722Y-83155170D01*
X138368726Y-83155170D01*
X138488820Y-83093979D01*
X138584128Y-82998671D01*
X138645319Y-82878577D01*
X138648262Y-82860000D01*
X138648262Y-82859998D01*
X157044417Y-82859998D01*
X157044417Y-82860001D01*
X157064700Y-83065938D01*
X157124765Y-83263947D01*
X157124767Y-83263950D01*
X157124768Y-83263954D01*
X157222315Y-83446450D01*
X157353590Y-83606410D01*
X157513550Y-83737685D01*
X157696046Y-83835232D01*
X157696051Y-83835233D01*
X157696052Y-83835234D01*
X157696051Y-83835234D01*
X157894062Y-83895299D01*
X157894063Y-83895299D01*
X157894066Y-83895300D01*
X158066529Y-83912286D01*
X158099999Y-83915583D01*
X158100000Y-83915583D01*
X158100001Y-83915583D01*
X158128791Y-83912747D01*
X158305934Y-83895300D01*
X158305936Y-83895299D01*
X158305938Y-83895299D01*
X158431391Y-83857243D01*
X158503954Y-83835232D01*
X158686450Y-83737685D01*
X158846410Y-83606410D01*
X158977685Y-83446450D01*
X159075232Y-83263954D01*
X159135300Y-83065934D01*
X159155583Y-82860000D01*
X159135300Y-82654066D01*
X159135299Y-82654063D01*
X159135299Y-82654061D01*
X159075234Y-82456052D01*
X159075233Y-82456051D01*
X159075232Y-82456046D01*
X158977685Y-82273550D01*
X158846410Y-82113590D01*
X158686450Y-81982315D01*
X158686448Y-81982314D01*
X158686447Y-81982313D01*
X158622871Y-81948331D01*
X158503954Y-81884768D01*
X158503950Y-81884767D01*
X158503947Y-81884765D01*
X158503948Y-81884765D01*
X158305937Y-81824700D01*
X158305938Y-81824700D01*
X158100001Y-81804417D01*
X158099999Y-81804417D01*
X157894061Y-81824700D01*
X157696052Y-81884765D01*
X157513552Y-81982313D01*
X157353591Y-82113589D01*
X157353589Y-82113591D01*
X157222313Y-82273552D01*
X157124765Y-82456052D01*
X157064700Y-82654061D01*
X157044417Y-82859998D01*
X138648262Y-82859998D01*
X138666404Y-82745453D01*
X138666404Y-82745448D01*
X138645320Y-82612328D01*
X138645319Y-82612327D01*
X138645319Y-82612325D01*
X138584128Y-82492231D01*
X138488820Y-82396923D01*
X138368726Y-82335732D01*
X138368724Y-82335731D01*
X138368723Y-82335731D01*
X138368722Y-82335730D01*
X138235602Y-82314647D01*
X138235598Y-82314647D01*
X138102477Y-82335730D01*
X138102476Y-82335731D01*
X137982381Y-82396922D01*
X137887071Y-82492232D01*
X137825880Y-82612327D01*
X137825879Y-82612328D01*
X137804796Y-82745448D01*
X134237400Y-82745448D01*
X134237400Y-80524888D01*
X134228933Y-80504446D01*
X142178296Y-80504446D01*
X142178296Y-80504451D01*
X142199379Y-80637571D01*
X142199380Y-80637572D01*
X142199380Y-80637573D01*
X142199381Y-80637575D01*
X142260572Y-80757669D01*
X142355880Y-80852977D01*
X142475974Y-80914168D01*
X142475976Y-80914168D01*
X142475977Y-80914169D01*
X142609098Y-80935253D01*
X142609100Y-80935253D01*
X142609102Y-80935253D01*
X142742222Y-80914169D01*
X142742222Y-80914168D01*
X142742226Y-80914168D01*
X142862320Y-80852977D01*
X142957628Y-80757669D01*
X143018819Y-80637575D01*
X143036501Y-80525938D01*
X143039904Y-80504451D01*
X143039904Y-80504446D01*
X143018820Y-80371326D01*
X143018819Y-80371325D01*
X143018819Y-80371323D01*
X142992668Y-80319998D01*
X157044417Y-80319998D01*
X157044417Y-80320001D01*
X157064700Y-80525938D01*
X157124765Y-80723947D01*
X157124767Y-80723950D01*
X157124768Y-80723954D01*
X157173405Y-80814946D01*
X157222312Y-80906446D01*
X157222315Y-80906450D01*
X157353590Y-81066410D01*
X157513550Y-81197685D01*
X157696046Y-81295232D01*
X157696051Y-81295233D01*
X157696052Y-81295234D01*
X157696051Y-81295234D01*
X157894062Y-81355299D01*
X157894063Y-81355299D01*
X157894066Y-81355300D01*
X158066529Y-81372286D01*
X158099999Y-81375583D01*
X158100000Y-81375583D01*
X158100001Y-81375583D01*
X158128791Y-81372747D01*
X158305934Y-81355300D01*
X158305936Y-81355299D01*
X158305938Y-81355299D01*
X158503947Y-81295234D01*
X158503946Y-81295234D01*
X158503954Y-81295232D01*
X158686450Y-81197685D01*
X158846410Y-81066410D01*
X158977685Y-80906450D01*
X159075232Y-80723954D01*
X159135300Y-80525934D01*
X159155583Y-80320000D01*
X159135300Y-80114066D01*
X159135299Y-80114063D01*
X159135299Y-80114061D01*
X159075234Y-79916052D01*
X159075233Y-79916051D01*
X159075232Y-79916046D01*
X158977685Y-79733550D01*
X158846410Y-79573590D01*
X158686450Y-79442315D01*
X158686448Y-79442314D01*
X158686447Y-79442313D01*
X158622871Y-79408331D01*
X158503954Y-79344768D01*
X158503950Y-79344767D01*
X158503947Y-79344765D01*
X158503948Y-79344765D01*
X158305937Y-79284700D01*
X158305938Y-79284700D01*
X158100001Y-79264417D01*
X158099999Y-79264417D01*
X157894061Y-79284700D01*
X157696052Y-79344765D01*
X157696046Y-79344767D01*
X157696046Y-79344768D01*
X157662842Y-79362515D01*
X157513552Y-79442313D01*
X157353591Y-79573589D01*
X157353589Y-79573591D01*
X157222313Y-79733552D01*
X157124765Y-79916052D01*
X157064700Y-80114061D01*
X157044417Y-80319998D01*
X142992668Y-80319998D01*
X142957628Y-80251229D01*
X142862320Y-80155921D01*
X142742226Y-80094730D01*
X142742224Y-80094729D01*
X142742223Y-80094729D01*
X142742222Y-80094728D01*
X142609102Y-80073645D01*
X142609098Y-80073645D01*
X142475977Y-80094728D01*
X142475976Y-80094729D01*
X142355881Y-80155920D01*
X142260571Y-80251230D01*
X142199380Y-80371325D01*
X142199379Y-80371326D01*
X142178296Y-80504446D01*
X134228933Y-80504446D01*
X134214476Y-80469544D01*
X134214476Y-80469543D01*
X134197211Y-80427860D01*
X134197209Y-80427857D01*
X134197209Y-80427856D01*
X133865544Y-80096192D01*
X133768513Y-80056000D01*
X133768512Y-80056000D01*
X133750318Y-80056000D01*
X133719205Y-80043113D01*
X133708214Y-80024776D01*
X133675232Y-79916046D01*
X133577685Y-79733550D01*
X133446410Y-79573590D01*
X133286450Y-79442315D01*
X133286448Y-79442314D01*
X133286447Y-79442313D01*
X133222871Y-79408331D01*
X133103954Y-79344768D01*
X133103950Y-79344767D01*
X133103947Y-79344765D01*
X133103948Y-79344765D01*
X132905937Y-79284700D01*
X132905938Y-79284700D01*
X132700001Y-79264417D01*
X132699999Y-79264417D01*
X132494061Y-79284700D01*
X132296052Y-79344765D01*
X132296046Y-79344767D01*
X132296046Y-79344768D01*
X132262842Y-79362515D01*
X132113552Y-79442313D01*
X131953591Y-79573589D01*
X131953589Y-79573591D01*
X131822313Y-79733552D01*
X131724765Y-79916052D01*
X131664700Y-80114061D01*
X131644417Y-80319998D01*
X131100500Y-80319998D01*
X131100500Y-78916348D01*
X139312529Y-78916348D01*
X139312529Y-78916353D01*
X139333612Y-79049473D01*
X139333613Y-79049474D01*
X139333613Y-79049475D01*
X139333614Y-79049477D01*
X139394805Y-79169571D01*
X139490113Y-79264879D01*
X139610207Y-79326070D01*
X139610209Y-79326070D01*
X139610210Y-79326071D01*
X139743331Y-79347155D01*
X139743333Y-79347155D01*
X139743335Y-79347155D01*
X139876455Y-79326071D01*
X139876455Y-79326070D01*
X139876459Y-79326070D01*
X139996553Y-79264879D01*
X140091861Y-79169571D01*
X140153052Y-79049477D01*
X140174137Y-78916351D01*
X140161345Y-78835583D01*
X140153053Y-78783228D01*
X140153052Y-78783227D01*
X140153052Y-78783225D01*
X140091861Y-78663131D01*
X139996553Y-78567823D01*
X139876459Y-78506632D01*
X139876457Y-78506631D01*
X139876456Y-78506631D01*
X139876455Y-78506630D01*
X139743335Y-78485547D01*
X139743331Y-78485547D01*
X139610210Y-78506630D01*
X139610209Y-78506631D01*
X139490114Y-78567822D01*
X139394804Y-78663132D01*
X139333613Y-78783227D01*
X139333612Y-78783228D01*
X139312529Y-78916348D01*
X131100500Y-78916348D01*
X131100500Y-77779998D01*
X131644417Y-77779998D01*
X131644417Y-77780001D01*
X131664700Y-77985938D01*
X131724765Y-78183947D01*
X131724767Y-78183950D01*
X131724768Y-78183954D01*
X131822315Y-78366450D01*
X131953590Y-78526410D01*
X132113550Y-78657685D01*
X132296046Y-78755232D01*
X132296051Y-78755233D01*
X132296052Y-78755234D01*
X132296051Y-78755234D01*
X132494062Y-78815299D01*
X132494063Y-78815299D01*
X132494066Y-78815300D01*
X132666529Y-78832286D01*
X132699999Y-78835583D01*
X132700000Y-78835583D01*
X132700001Y-78835583D01*
X132728791Y-78832747D01*
X132905934Y-78815300D01*
X132905936Y-78815299D01*
X132905938Y-78815299D01*
X133103947Y-78755234D01*
X133103946Y-78755234D01*
X133103954Y-78755232D01*
X133286450Y-78657685D01*
X133446410Y-78526410D01*
X133577685Y-78366450D01*
X133675232Y-78183954D01*
X133735300Y-77985934D01*
X133737328Y-77965347D01*
X138600029Y-77965347D01*
X138600029Y-77965352D01*
X138621112Y-78098472D01*
X138621113Y-78098473D01*
X138621113Y-78098474D01*
X138621114Y-78098476D01*
X138682305Y-78218570D01*
X138777613Y-78313878D01*
X138897707Y-78375069D01*
X138897709Y-78375069D01*
X138897710Y-78375070D01*
X139030831Y-78396154D01*
X139030833Y-78396154D01*
X139030835Y-78396154D01*
X139163955Y-78375070D01*
X139163955Y-78375069D01*
X139163959Y-78375069D01*
X139284053Y-78313878D01*
X139379361Y-78218570D01*
X139440552Y-78098476D01*
X139458377Y-77985938D01*
X139461637Y-77965352D01*
X139461637Y-77965347D01*
X139440553Y-77832227D01*
X139440552Y-77832226D01*
X139440552Y-77832224D01*
X139413942Y-77779998D01*
X157044417Y-77779998D01*
X157044417Y-77780001D01*
X157064700Y-77985938D01*
X157124765Y-78183947D01*
X157124767Y-78183950D01*
X157124768Y-78183954D01*
X157222315Y-78366450D01*
X157353590Y-78526410D01*
X157513550Y-78657685D01*
X157696046Y-78755232D01*
X157696051Y-78755233D01*
X157696052Y-78755234D01*
X157696051Y-78755234D01*
X157894062Y-78815299D01*
X157894063Y-78815299D01*
X157894066Y-78815300D01*
X158066529Y-78832286D01*
X158099999Y-78835583D01*
X158100000Y-78835583D01*
X158100001Y-78835583D01*
X158128791Y-78832747D01*
X158305934Y-78815300D01*
X158305936Y-78815299D01*
X158305938Y-78815299D01*
X158503947Y-78755234D01*
X158503946Y-78755234D01*
X158503954Y-78755232D01*
X158686450Y-78657685D01*
X158846410Y-78526410D01*
X158977685Y-78366450D01*
X159075232Y-78183954D01*
X159135300Y-77985934D01*
X159155583Y-77780000D01*
X159135300Y-77574066D01*
X159135299Y-77574063D01*
X159135299Y-77574061D01*
X159075234Y-77376052D01*
X159075233Y-77376051D01*
X159075232Y-77376046D01*
X158977685Y-77193550D01*
X158846410Y-77033590D01*
X158686450Y-76902315D01*
X158686448Y-76902314D01*
X158686447Y-76902313D01*
X158569544Y-76839827D01*
X158503954Y-76804768D01*
X158503950Y-76804767D01*
X158503947Y-76804765D01*
X158503948Y-76804765D01*
X158305937Y-76744700D01*
X158305938Y-76744700D01*
X158100001Y-76724417D01*
X158099999Y-76724417D01*
X157894061Y-76744700D01*
X157696052Y-76804765D01*
X157513552Y-76902313D01*
X157353591Y-77033589D01*
X157353589Y-77033591D01*
X157222313Y-77193552D01*
X157124765Y-77376052D01*
X157064700Y-77574061D01*
X157044417Y-77779998D01*
X139413942Y-77779998D01*
X139379361Y-77712130D01*
X139284053Y-77616822D01*
X139163959Y-77555631D01*
X139163957Y-77555630D01*
X139163956Y-77555630D01*
X139163955Y-77555629D01*
X139030835Y-77534546D01*
X139030831Y-77534546D01*
X138897710Y-77555629D01*
X138897709Y-77555630D01*
X138777614Y-77616821D01*
X138682304Y-77712131D01*
X138621113Y-77832226D01*
X138621112Y-77832227D01*
X138600029Y-77965347D01*
X133737328Y-77965347D01*
X133755583Y-77780000D01*
X133735300Y-77574066D01*
X133735299Y-77574063D01*
X133735299Y-77574061D01*
X133675234Y-77376052D01*
X133675233Y-77376051D01*
X133675232Y-77376046D01*
X133577685Y-77193550D01*
X133446410Y-77033590D01*
X133286450Y-76902315D01*
X133286448Y-76902314D01*
X133286447Y-76902313D01*
X133169544Y-76839827D01*
X133103954Y-76804768D01*
X133103950Y-76804767D01*
X133103947Y-76804765D01*
X133103948Y-76804765D01*
X132905937Y-76744700D01*
X132905938Y-76744700D01*
X132700001Y-76724417D01*
X132699999Y-76724417D01*
X132494061Y-76744700D01*
X132296052Y-76804765D01*
X132113552Y-76902313D01*
X131953591Y-77033589D01*
X131953589Y-77033591D01*
X131822313Y-77193552D01*
X131724765Y-77376052D01*
X131664700Y-77574061D01*
X131644417Y-77779998D01*
X131100500Y-77779998D01*
X131100500Y-75239998D01*
X131644417Y-75239998D01*
X131644417Y-75240001D01*
X131664700Y-75445938D01*
X131724765Y-75643947D01*
X131724767Y-75643950D01*
X131724768Y-75643954D01*
X131822315Y-75826450D01*
X131953590Y-75986410D01*
X132113550Y-76117685D01*
X132296046Y-76215232D01*
X132296051Y-76215233D01*
X132296052Y-76215234D01*
X132296051Y-76215234D01*
X132494062Y-76275299D01*
X132494063Y-76275299D01*
X132494066Y-76275300D01*
X132666529Y-76292286D01*
X132699999Y-76295583D01*
X132700000Y-76295583D01*
X132700001Y-76295583D01*
X132728791Y-76292747D01*
X132905934Y-76275300D01*
X132905936Y-76275299D01*
X132905938Y-76275299D01*
X133103947Y-76215234D01*
X133103946Y-76215234D01*
X133103954Y-76215232D01*
X133286450Y-76117685D01*
X133446410Y-75986410D01*
X133577685Y-75826450D01*
X133675232Y-75643954D01*
X133734167Y-75449669D01*
X133735299Y-75445938D01*
X133735299Y-75445936D01*
X133735300Y-75445934D01*
X133755583Y-75240000D01*
X133735879Y-75039946D01*
X135164796Y-75039946D01*
X135164796Y-75039951D01*
X135185879Y-75173071D01*
X135185880Y-75173072D01*
X135185880Y-75173073D01*
X135185881Y-75173075D01*
X135247072Y-75293169D01*
X135342380Y-75388477D01*
X135462474Y-75449668D01*
X135462476Y-75449668D01*
X135462477Y-75449669D01*
X135595598Y-75470753D01*
X135595600Y-75470753D01*
X135595602Y-75470753D01*
X135728722Y-75449669D01*
X135728722Y-75449668D01*
X135728726Y-75449668D01*
X135848820Y-75388477D01*
X135944128Y-75293169D01*
X136005319Y-75173075D01*
X136026341Y-75040350D01*
X136026404Y-75039951D01*
X136026404Y-75039946D01*
X136790396Y-75039946D01*
X136790396Y-75039951D01*
X136811479Y-75173071D01*
X136811480Y-75173072D01*
X136811480Y-75173073D01*
X136811481Y-75173075D01*
X136872672Y-75293169D01*
X136967980Y-75388477D01*
X137088074Y-75449668D01*
X137088076Y-75449668D01*
X137088077Y-75449669D01*
X137221198Y-75470753D01*
X137221200Y-75470753D01*
X137221202Y-75470753D01*
X137354322Y-75449669D01*
X137354322Y-75449668D01*
X137354326Y-75449668D01*
X137474420Y-75388477D01*
X137569728Y-75293169D01*
X137630919Y-75173075D01*
X137651941Y-75040350D01*
X137651941Y-75040347D01*
X138600029Y-75040347D01*
X138600029Y-75040352D01*
X138621112Y-75173472D01*
X138621113Y-75173473D01*
X138621113Y-75173474D01*
X138621114Y-75173476D01*
X138682305Y-75293570D01*
X138753946Y-75365211D01*
X138766833Y-75396323D01*
X138766833Y-75879520D01*
X138766833Y-75984546D01*
X138807025Y-76081577D01*
X139202106Y-76476659D01*
X139270717Y-76505078D01*
X139299137Y-76516850D01*
X139299138Y-76516850D01*
X139404163Y-76516850D01*
X143957359Y-76516850D01*
X143988471Y-76529737D01*
X144060112Y-76601377D01*
X144060113Y-76601378D01*
X144180207Y-76662569D01*
X144180209Y-76662569D01*
X144180210Y-76662570D01*
X144313331Y-76683654D01*
X144313333Y-76683654D01*
X144313335Y-76683654D01*
X144446455Y-76662570D01*
X144446455Y-76662569D01*
X144446459Y-76662569D01*
X144566553Y-76601378D01*
X144661861Y-76506070D01*
X144723052Y-76385976D01*
X144740582Y-76275300D01*
X144744137Y-76252852D01*
X144744137Y-76252847D01*
X144723053Y-76119727D01*
X144723052Y-76119726D01*
X144723052Y-76119724D01*
X144661861Y-75999630D01*
X144638194Y-75975963D01*
X144590220Y-75927988D01*
X144577333Y-75896876D01*
X144577333Y-69888872D01*
X144590219Y-69857760D01*
X144661861Y-69786119D01*
X144723052Y-69666025D01*
X144737699Y-69573552D01*
X144744137Y-69532901D01*
X144744137Y-69532896D01*
X144723053Y-69399776D01*
X144723052Y-69399775D01*
X144723052Y-69399773D01*
X144661861Y-69279679D01*
X144566553Y-69184371D01*
X144446459Y-69123180D01*
X144446457Y-69123179D01*
X144446456Y-69123179D01*
X144446455Y-69123178D01*
X144313335Y-69102095D01*
X144313331Y-69102095D01*
X144180210Y-69123178D01*
X144180209Y-69123179D01*
X144060114Y-69184370D01*
X143964804Y-69279680D01*
X143903613Y-69399775D01*
X143903612Y-69399776D01*
X143882529Y-69532896D01*
X143882529Y-69532901D01*
X143903612Y-69666021D01*
X143903613Y-69666022D01*
X143903613Y-69666023D01*
X143903614Y-69666025D01*
X143964805Y-69786119D01*
X144036446Y-69857760D01*
X144049333Y-69888872D01*
X144049333Y-75896876D01*
X144036446Y-75927989D01*
X143988472Y-75975963D01*
X143957359Y-75988850D01*
X139479229Y-75988850D01*
X139448116Y-75975963D01*
X139307720Y-75835567D01*
X139294833Y-75804454D01*
X139294833Y-75396323D01*
X139307719Y-75365211D01*
X139379361Y-75293570D01*
X139440552Y-75173476D01*
X139440617Y-75173071D01*
X139461637Y-75040352D01*
X139461637Y-75040347D01*
X139440553Y-74907227D01*
X139440552Y-74907226D01*
X139440552Y-74907224D01*
X139379361Y-74787130D01*
X139284053Y-74691822D01*
X139163959Y-74630631D01*
X139163957Y-74630630D01*
X139163956Y-74630630D01*
X139163955Y-74630629D01*
X139030835Y-74609546D01*
X139030831Y-74609546D01*
X138897710Y-74630629D01*
X138897709Y-74630630D01*
X138777614Y-74691821D01*
X138682304Y-74787131D01*
X138621113Y-74907226D01*
X138621112Y-74907227D01*
X138600029Y-75040347D01*
X137651941Y-75040347D01*
X137652004Y-75039951D01*
X137652004Y-75039946D01*
X137630920Y-74906826D01*
X137630919Y-74906825D01*
X137630919Y-74906823D01*
X137569728Y-74786729D01*
X137474420Y-74691421D01*
X137354326Y-74630230D01*
X137354324Y-74630229D01*
X137354323Y-74630229D01*
X137354322Y-74630228D01*
X137221202Y-74609145D01*
X137221198Y-74609145D01*
X137088077Y-74630228D01*
X137088076Y-74630229D01*
X136967981Y-74691420D01*
X136872671Y-74786730D01*
X136811480Y-74906825D01*
X136811479Y-74906826D01*
X136790396Y-75039946D01*
X136026404Y-75039946D01*
X136005320Y-74906826D01*
X136005319Y-74906825D01*
X136005319Y-74906823D01*
X135944128Y-74786729D01*
X135848820Y-74691421D01*
X135728726Y-74630230D01*
X135728724Y-74630229D01*
X135728723Y-74630229D01*
X135728722Y-74630228D01*
X135595602Y-74609145D01*
X135595598Y-74609145D01*
X135462477Y-74630228D01*
X135462476Y-74630229D01*
X135342381Y-74691420D01*
X135247071Y-74786730D01*
X135185880Y-74906825D01*
X135185879Y-74906826D01*
X135164796Y-75039946D01*
X133735879Y-75039946D01*
X133735300Y-75034066D01*
X133735299Y-75034063D01*
X133735299Y-75034061D01*
X133675234Y-74836052D01*
X133675233Y-74836051D01*
X133675232Y-74836046D01*
X133577685Y-74653550D01*
X133446410Y-74493590D01*
X133286450Y-74362315D01*
X133286448Y-74362314D01*
X133286447Y-74362313D01*
X133222871Y-74328331D01*
X133103954Y-74264768D01*
X133103950Y-74264767D01*
X133103947Y-74264765D01*
X133103948Y-74264765D01*
X132905937Y-74204700D01*
X132905938Y-74204700D01*
X132700001Y-74184417D01*
X132699999Y-74184417D01*
X132494061Y-74204700D01*
X132296052Y-74264765D01*
X132113552Y-74362313D01*
X131953591Y-74493589D01*
X131953589Y-74493591D01*
X131822313Y-74653552D01*
X131724765Y-74836052D01*
X131664700Y-75034061D01*
X131644417Y-75239998D01*
X131100500Y-75239998D01*
X131100500Y-72699998D01*
X131644417Y-72699998D01*
X131644417Y-72700001D01*
X131664700Y-72905938D01*
X131724765Y-73103947D01*
X131724767Y-73103950D01*
X131724768Y-73103954D01*
X131773191Y-73194546D01*
X131817168Y-73276822D01*
X131822315Y-73286450D01*
X131953590Y-73446410D01*
X132113550Y-73577685D01*
X132296046Y-73675232D01*
X132296051Y-73675233D01*
X132296052Y-73675234D01*
X132296051Y-73675234D01*
X132494062Y-73735299D01*
X132494063Y-73735299D01*
X132494066Y-73735300D01*
X132666529Y-73752286D01*
X132699999Y-73755583D01*
X132700000Y-73755583D01*
X132700001Y-73755583D01*
X132728791Y-73752747D01*
X132905934Y-73735300D01*
X132905936Y-73735299D01*
X132905938Y-73735299D01*
X133103947Y-73675234D01*
X133103946Y-73675234D01*
X133103954Y-73675232D01*
X133197281Y-73625347D01*
X142970029Y-73625347D01*
X142970029Y-73625352D01*
X142991112Y-73758472D01*
X142991113Y-73758473D01*
X142991113Y-73758474D01*
X142991114Y-73758476D01*
X143052305Y-73878570D01*
X143147613Y-73973878D01*
X143267707Y-74035069D01*
X143267709Y-74035069D01*
X143267710Y-74035070D01*
X143400831Y-74056154D01*
X143400833Y-74056154D01*
X143400835Y-74056154D01*
X143533955Y-74035070D01*
X143533955Y-74035069D01*
X143533959Y-74035069D01*
X143654053Y-73973878D01*
X143749361Y-73878570D01*
X143810552Y-73758476D01*
X143811011Y-73755583D01*
X143831637Y-73625352D01*
X143831637Y-73625347D01*
X143810553Y-73492227D01*
X143810552Y-73492226D01*
X143810552Y-73492224D01*
X143749361Y-73372130D01*
X143654053Y-73276822D01*
X143533959Y-73215631D01*
X143533957Y-73215630D01*
X143533956Y-73215630D01*
X143533955Y-73215629D01*
X143400835Y-73194546D01*
X143400831Y-73194546D01*
X143267710Y-73215629D01*
X143267709Y-73215630D01*
X143147614Y-73276821D01*
X143052304Y-73372131D01*
X142991113Y-73492226D01*
X142991112Y-73492227D01*
X142970029Y-73625347D01*
X133197281Y-73625347D01*
X133286450Y-73577685D01*
X133446410Y-73446410D01*
X133577685Y-73286450D01*
X133675232Y-73103954D01*
X133735300Y-72905934D01*
X133755583Y-72700000D01*
X133752170Y-72665352D01*
X133752170Y-72665347D01*
X142970029Y-72665347D01*
X142970029Y-72665352D01*
X142991112Y-72798472D01*
X142991113Y-72798473D01*
X142991113Y-72798474D01*
X142991114Y-72798476D01*
X143052305Y-72918570D01*
X143147613Y-73013878D01*
X143267707Y-73075069D01*
X143267709Y-73075069D01*
X143267710Y-73075070D01*
X143400831Y-73096154D01*
X143400833Y-73096154D01*
X143400835Y-73096154D01*
X143533955Y-73075070D01*
X143533955Y-73075069D01*
X143533959Y-73075069D01*
X143654053Y-73013878D01*
X143749361Y-72918570D01*
X143810552Y-72798476D01*
X143826150Y-72699998D01*
X143831637Y-72665352D01*
X143831637Y-72665347D01*
X143810553Y-72532227D01*
X143810552Y-72532226D01*
X143810552Y-72532224D01*
X143749361Y-72412130D01*
X143654053Y-72316822D01*
X143533959Y-72255631D01*
X143533957Y-72255630D01*
X143533956Y-72255630D01*
X143533955Y-72255629D01*
X143400835Y-72234546D01*
X143400831Y-72234546D01*
X143267710Y-72255629D01*
X143267709Y-72255630D01*
X143147614Y-72316821D01*
X143052304Y-72412131D01*
X142991113Y-72532226D01*
X142991112Y-72532227D01*
X142970029Y-72665347D01*
X133752170Y-72665347D01*
X133749911Y-72642417D01*
X133735300Y-72494066D01*
X133735299Y-72494063D01*
X133735299Y-72494061D01*
X133675234Y-72296052D01*
X133675233Y-72296051D01*
X133675232Y-72296046D01*
X133577685Y-72113550D01*
X133446410Y-71953590D01*
X133286450Y-71822315D01*
X133286448Y-71822314D01*
X133286447Y-71822313D01*
X133222871Y-71788331D01*
X133103954Y-71724768D01*
X133103950Y-71724767D01*
X133103947Y-71724765D01*
X133103948Y-71724765D01*
X132905937Y-71664700D01*
X132905938Y-71664700D01*
X132700001Y-71644417D01*
X132699999Y-71644417D01*
X132494061Y-71664700D01*
X132296052Y-71724765D01*
X132113552Y-71822313D01*
X131953591Y-71953589D01*
X131953589Y-71953591D01*
X131822313Y-72113552D01*
X131724765Y-72296052D01*
X131664700Y-72494061D01*
X131644417Y-72699998D01*
X131100500Y-72699998D01*
X131100500Y-70159998D01*
X131644417Y-70159998D01*
X131644417Y-70160001D01*
X131664700Y-70365938D01*
X131724765Y-70563947D01*
X131724767Y-70563950D01*
X131724768Y-70563954D01*
X131822315Y-70746450D01*
X131953590Y-70906410D01*
X132113550Y-71037685D01*
X132296046Y-71135232D01*
X132296051Y-71135233D01*
X132296052Y-71135234D01*
X132296051Y-71135234D01*
X132494062Y-71195299D01*
X132494063Y-71195299D01*
X132494066Y-71195300D01*
X132666529Y-71212286D01*
X132699999Y-71215583D01*
X132700000Y-71215583D01*
X132700001Y-71215583D01*
X132728791Y-71212747D01*
X132905934Y-71195300D01*
X132905936Y-71195299D01*
X132905938Y-71195299D01*
X133103947Y-71135234D01*
X133103946Y-71135234D01*
X133103954Y-71135232D01*
X133286450Y-71037685D01*
X133446410Y-70906410D01*
X133577685Y-70746450D01*
X133675232Y-70563954D01*
X133721012Y-70413035D01*
X133735299Y-70365938D01*
X133735299Y-70365936D01*
X133735300Y-70365934D01*
X133752747Y-70188791D01*
X133755583Y-70160001D01*
X133755583Y-70159998D01*
X133748176Y-70084796D01*
X133735300Y-69954066D01*
X133735299Y-69954063D01*
X133735299Y-69954061D01*
X133675234Y-69756052D01*
X133675233Y-69756051D01*
X133675232Y-69756046D01*
X133577685Y-69573550D01*
X133446410Y-69413590D01*
X133286450Y-69282315D01*
X133286448Y-69282314D01*
X133286447Y-69282313D01*
X133222871Y-69248331D01*
X133103954Y-69184768D01*
X133103950Y-69184767D01*
X133103947Y-69184765D01*
X133103948Y-69184765D01*
X132905937Y-69124700D01*
X132905938Y-69124700D01*
X132700001Y-69104417D01*
X132699999Y-69104417D01*
X132494061Y-69124700D01*
X132296052Y-69184765D01*
X132113552Y-69282313D01*
X131953591Y-69413589D01*
X131953589Y-69413591D01*
X131822313Y-69573552D01*
X131724765Y-69756052D01*
X131664700Y-69954061D01*
X131644417Y-70159998D01*
X131100500Y-70159998D01*
X131100500Y-67619998D01*
X131644417Y-67619998D01*
X131644417Y-67620001D01*
X131664700Y-67825938D01*
X131724765Y-68023947D01*
X131724767Y-68023950D01*
X131724768Y-68023954D01*
X131822315Y-68206450D01*
X131953590Y-68366410D01*
X132113550Y-68497685D01*
X132296046Y-68595232D01*
X132296051Y-68595233D01*
X132296052Y-68595234D01*
X132296051Y-68595234D01*
X132494062Y-68655299D01*
X132494063Y-68655299D01*
X132494066Y-68655300D01*
X132666529Y-68672286D01*
X132699999Y-68675583D01*
X132700000Y-68675583D01*
X132700001Y-68675583D01*
X132728791Y-68672747D01*
X132905934Y-68655300D01*
X132905936Y-68655299D01*
X132905938Y-68655299D01*
X133103947Y-68595234D01*
X133103946Y-68595234D01*
X133103954Y-68595232D01*
X133286450Y-68497685D01*
X133446410Y-68366410D01*
X133577685Y-68206450D01*
X133675232Y-68023954D01*
X133697243Y-67951391D01*
X133735299Y-67825938D01*
X133735299Y-67825936D01*
X133735300Y-67825934D01*
X133755583Y-67620000D01*
X133735300Y-67414066D01*
X133735299Y-67414063D01*
X133735299Y-67414061D01*
X133732974Y-67406397D01*
X137112529Y-67406397D01*
X137112529Y-67406402D01*
X137133612Y-67539522D01*
X137133613Y-67539523D01*
X137133613Y-67539524D01*
X137133614Y-67539526D01*
X137194805Y-67659620D01*
X137290113Y-67754928D01*
X137410207Y-67816119D01*
X137410209Y-67816119D01*
X137410210Y-67816120D01*
X137543331Y-67837204D01*
X137543333Y-67837204D01*
X137543335Y-67837204D01*
X137676455Y-67816120D01*
X137676456Y-67816119D01*
X137676459Y-67816119D01*
X137696964Y-67805670D01*
X137703785Y-67802196D01*
X137723760Y-67797400D01*
X142262906Y-67797400D01*
X142282881Y-67802196D01*
X142293923Y-67807822D01*
X142310207Y-67816119D01*
X142310208Y-67816119D01*
X142310210Y-67816120D01*
X142443331Y-67837204D01*
X142443333Y-67837204D01*
X142443335Y-67837204D01*
X142576455Y-67816120D01*
X142576455Y-67816119D01*
X142576459Y-67816119D01*
X142696553Y-67754928D01*
X142791861Y-67659620D01*
X142853052Y-67539526D01*
X142874137Y-67406400D01*
X142874137Y-67406397D01*
X142853053Y-67273277D01*
X142853052Y-67273276D01*
X142853052Y-67273274D01*
X142791861Y-67153180D01*
X142696553Y-67057872D01*
X142576459Y-66996681D01*
X142576457Y-66996680D01*
X142576456Y-66996680D01*
X142576455Y-66996679D01*
X142443335Y-66975596D01*
X142443331Y-66975596D01*
X142310210Y-66996679D01*
X142310206Y-66996681D01*
X142282881Y-67010604D01*
X142262906Y-67015400D01*
X137723760Y-67015400D01*
X137703785Y-67010604D01*
X137676459Y-66996681D01*
X137676455Y-66996679D01*
X137543335Y-66975596D01*
X137543331Y-66975596D01*
X137410210Y-66996679D01*
X137410209Y-66996680D01*
X137290114Y-67057871D01*
X137194804Y-67153181D01*
X137133613Y-67273276D01*
X137133612Y-67273277D01*
X137112529Y-67406397D01*
X133732974Y-67406397D01*
X133675234Y-67216052D01*
X133675233Y-67216051D01*
X133675232Y-67216046D01*
X133577685Y-67033550D01*
X133446410Y-66873590D01*
X133286450Y-66742315D01*
X133286448Y-66742314D01*
X133286447Y-66742313D01*
X133189285Y-66690379D01*
X133103954Y-66644768D01*
X133103950Y-66644767D01*
X133103947Y-66644765D01*
X133103948Y-66644765D01*
X132905937Y-66584700D01*
X132905938Y-66584700D01*
X132700001Y-66564417D01*
X132699999Y-66564417D01*
X132494061Y-66584700D01*
X132296052Y-66644765D01*
X132113552Y-66742313D01*
X131953591Y-66873589D01*
X131953589Y-66873591D01*
X131822313Y-67033552D01*
X131724765Y-67216052D01*
X131664700Y-67414061D01*
X131644417Y-67619998D01*
X131100500Y-67619998D01*
X131100500Y-65079998D01*
X131644417Y-65079998D01*
X131644417Y-65080001D01*
X131664700Y-65285938D01*
X131724765Y-65483947D01*
X131724767Y-65483950D01*
X131724768Y-65483954D01*
X131822315Y-65666450D01*
X131953590Y-65826410D01*
X132113550Y-65957685D01*
X132296046Y-66055232D01*
X132296051Y-66055233D01*
X132296052Y-66055234D01*
X132296051Y-66055234D01*
X132494062Y-66115299D01*
X132494063Y-66115299D01*
X132494066Y-66115300D01*
X132666529Y-66132286D01*
X132699999Y-66135583D01*
X132700000Y-66135583D01*
X132700001Y-66135583D01*
X132728791Y-66132747D01*
X132905934Y-66115300D01*
X132905936Y-66115299D01*
X132905938Y-66115299D01*
X133103947Y-66055234D01*
X133103946Y-66055234D01*
X133103954Y-66055232D01*
X133286450Y-65957685D01*
X133446410Y-65826410D01*
X133577685Y-65666450D01*
X133675232Y-65483954D01*
X133735300Y-65285934D01*
X133755583Y-65080000D01*
X133735300Y-64874066D01*
X133735299Y-64874063D01*
X133735299Y-64874061D01*
X133727335Y-64847807D01*
X134972833Y-64847807D01*
X134972833Y-66085793D01*
X134982737Y-66135583D01*
X134999753Y-66221128D01*
X135052558Y-66348611D01*
X135052557Y-66348611D01*
X135128870Y-66462820D01*
X135129219Y-66463342D01*
X135226791Y-66560914D01*
X135232034Y-66564417D01*
X135341521Y-66637575D01*
X135358880Y-66644765D01*
X135469005Y-66690380D01*
X135604340Y-66717300D01*
X135604343Y-66717300D01*
X135742322Y-66717300D01*
X135742326Y-66717300D01*
X135877661Y-66690380D01*
X136005144Y-66637575D01*
X136119875Y-66560914D01*
X136217447Y-66463342D01*
X136294108Y-66348611D01*
X136346913Y-66221128D01*
X136373833Y-66085793D01*
X136373833Y-64867617D01*
X136577833Y-64867617D01*
X136577833Y-65005983D01*
X136613645Y-65139636D01*
X136682828Y-65259465D01*
X136780668Y-65357305D01*
X136900497Y-65426488D01*
X137034150Y-65462300D01*
X137034152Y-65462300D01*
X137172514Y-65462300D01*
X137172516Y-65462300D01*
X137306169Y-65426488D01*
X137425998Y-65357305D01*
X137523838Y-65259465D01*
X137593021Y-65139636D01*
X137618272Y-65045396D01*
X138337242Y-65045396D01*
X138337242Y-65045401D01*
X138358325Y-65178521D01*
X138358326Y-65178522D01*
X138358326Y-65178523D01*
X138358327Y-65178525D01*
X138419518Y-65298619D01*
X138514826Y-65393927D01*
X138634920Y-65455118D01*
X138634922Y-65455118D01*
X138634923Y-65455119D01*
X138768044Y-65476203D01*
X138768046Y-65476203D01*
X138768048Y-65476203D01*
X138901168Y-65455119D01*
X138901168Y-65455118D01*
X138901172Y-65455118D01*
X139021266Y-65393927D01*
X139057888Y-65357305D01*
X139092908Y-65322286D01*
X139124020Y-65309399D01*
X139685072Y-65309399D01*
X139685073Y-65309399D01*
X139782104Y-65269207D01*
X140005914Y-65045396D01*
X140787813Y-65045396D01*
X140787813Y-65045401D01*
X140808896Y-65178521D01*
X140808897Y-65178522D01*
X140808897Y-65178523D01*
X140808898Y-65178525D01*
X140870089Y-65298619D01*
X140965397Y-65393927D01*
X141085491Y-65455118D01*
X141085493Y-65455118D01*
X141085494Y-65455119D01*
X141218615Y-65476203D01*
X141218617Y-65476203D01*
X141218619Y-65476203D01*
X141351739Y-65455119D01*
X141351739Y-65455118D01*
X141351743Y-65455118D01*
X141471837Y-65393927D01*
X141567145Y-65298619D01*
X141628336Y-65178525D01*
X141634496Y-65139636D01*
X141649421Y-65045401D01*
X141649421Y-65045396D01*
X141628337Y-64912276D01*
X141628336Y-64912275D01*
X141628336Y-64912273D01*
X141605583Y-64867617D01*
X142357833Y-64867617D01*
X142357833Y-65005983D01*
X142393645Y-65139636D01*
X142462828Y-65259465D01*
X142560668Y-65357305D01*
X142680497Y-65426488D01*
X142814150Y-65462300D01*
X142814152Y-65462300D01*
X142952514Y-65462300D01*
X142952516Y-65462300D01*
X143086169Y-65426488D01*
X143205998Y-65357305D01*
X143303838Y-65259465D01*
X143373021Y-65139636D01*
X143408833Y-65005983D01*
X143408833Y-64867617D01*
X143403525Y-64847807D01*
X143612833Y-64847807D01*
X143612833Y-66085793D01*
X143622737Y-66135583D01*
X143639753Y-66221128D01*
X143692558Y-66348611D01*
X143692557Y-66348611D01*
X143768870Y-66462820D01*
X143769219Y-66463342D01*
X143866791Y-66560914D01*
X143872034Y-66564417D01*
X143981521Y-66637575D01*
X143998880Y-66644765D01*
X144109005Y-66690380D01*
X144244340Y-66717300D01*
X144244343Y-66717300D01*
X144382322Y-66717300D01*
X144382326Y-66717300D01*
X144517661Y-66690380D01*
X144645144Y-66637575D01*
X144759875Y-66560914D01*
X144857447Y-66463342D01*
X144928413Y-66357133D01*
X144956414Y-66338424D01*
X144989443Y-66344994D01*
X145008153Y-66372995D01*
X145008998Y-66381579D01*
X145008998Y-70402472D01*
X145004202Y-70422448D01*
X144990278Y-70449773D01*
X144990278Y-70449775D01*
X144969194Y-70582897D01*
X144969194Y-70582902D01*
X144990277Y-70716022D01*
X144990279Y-70716026D01*
X145004202Y-70743352D01*
X145008998Y-70763327D01*
X145008998Y-75213922D01*
X145008998Y-75316874D01*
X145025403Y-75378098D01*
X145035643Y-75416316D01*
X145035646Y-75416323D01*
X145087117Y-75505474D01*
X145087118Y-75505475D01*
X145087120Y-75505478D01*
X146348669Y-76767026D01*
X146348671Y-76767029D01*
X146421469Y-76839827D01*
X146510629Y-76891303D01*
X146610073Y-76917950D01*
X146610075Y-76917950D01*
X146715715Y-76917950D01*
X146715731Y-76917949D01*
X148168173Y-76917949D01*
X148188148Y-76922745D01*
X148199190Y-76928371D01*
X148215474Y-76936668D01*
X148215475Y-76936668D01*
X148215477Y-76936669D01*
X148348598Y-76957753D01*
X148348600Y-76957753D01*
X148348602Y-76957753D01*
X148481722Y-76936669D01*
X148481722Y-76936668D01*
X148481726Y-76936668D01*
X148601820Y-76875477D01*
X148697128Y-76780169D01*
X148758319Y-76660075D01*
X148778963Y-76529737D01*
X148779404Y-76526951D01*
X148779404Y-76526946D01*
X148758320Y-76393826D01*
X148758319Y-76393825D01*
X148758319Y-76393823D01*
X148697128Y-76273729D01*
X148601820Y-76178421D01*
X148481726Y-76117230D01*
X148481724Y-76117229D01*
X148481723Y-76117229D01*
X148481722Y-76117228D01*
X148348602Y-76096145D01*
X148348598Y-76096145D01*
X148215477Y-76117228D01*
X148215473Y-76117230D01*
X148188148Y-76131153D01*
X148168173Y-76135949D01*
X146841732Y-76135949D01*
X146810619Y-76123062D01*
X145927556Y-75239998D01*
X157044417Y-75239998D01*
X157044417Y-75240001D01*
X157064700Y-75445938D01*
X157124765Y-75643947D01*
X157124767Y-75643950D01*
X157124768Y-75643954D01*
X157222315Y-75826450D01*
X157353590Y-75986410D01*
X157513550Y-76117685D01*
X157696046Y-76215232D01*
X157696051Y-76215233D01*
X157696052Y-76215234D01*
X157696051Y-76215234D01*
X157894062Y-76275299D01*
X157894063Y-76275299D01*
X157894066Y-76275300D01*
X158066529Y-76292286D01*
X158099999Y-76295583D01*
X158100000Y-76295583D01*
X158100001Y-76295583D01*
X158128791Y-76292747D01*
X158305934Y-76275300D01*
X158305936Y-76275299D01*
X158305938Y-76275299D01*
X158503947Y-76215234D01*
X158503946Y-76215234D01*
X158503954Y-76215232D01*
X158686450Y-76117685D01*
X158846410Y-75986410D01*
X158977685Y-75826450D01*
X159075232Y-75643954D01*
X159134167Y-75449669D01*
X159135299Y-75445938D01*
X159135299Y-75445936D01*
X159135300Y-75445934D01*
X159155583Y-75240000D01*
X159135300Y-75034066D01*
X159135299Y-75034063D01*
X159135299Y-75034061D01*
X159075234Y-74836052D01*
X159075233Y-74836051D01*
X159075232Y-74836046D01*
X158977685Y-74653550D01*
X158846410Y-74493590D01*
X158686450Y-74362315D01*
X158686448Y-74362314D01*
X158686447Y-74362313D01*
X158622871Y-74328331D01*
X158503954Y-74264768D01*
X158503950Y-74264767D01*
X158503947Y-74264765D01*
X158503948Y-74264765D01*
X158305937Y-74204700D01*
X158305938Y-74204700D01*
X158100001Y-74184417D01*
X158099999Y-74184417D01*
X157894061Y-74204700D01*
X157696052Y-74264765D01*
X157513552Y-74362313D01*
X157353591Y-74493589D01*
X157353589Y-74493591D01*
X157222313Y-74653552D01*
X157124765Y-74836052D01*
X157064700Y-75034061D01*
X157044417Y-75239998D01*
X145927556Y-75239998D01*
X145803885Y-75116327D01*
X145790998Y-75085214D01*
X145790998Y-72699998D01*
X157044417Y-72699998D01*
X157044417Y-72700001D01*
X157064700Y-72905938D01*
X157124765Y-73103947D01*
X157124767Y-73103950D01*
X157124768Y-73103954D01*
X157173191Y-73194546D01*
X157217168Y-73276822D01*
X157222315Y-73286450D01*
X157353590Y-73446410D01*
X157513550Y-73577685D01*
X157696046Y-73675232D01*
X157696051Y-73675233D01*
X157696052Y-73675234D01*
X157696051Y-73675234D01*
X157894062Y-73735299D01*
X157894063Y-73735299D01*
X157894066Y-73735300D01*
X158066529Y-73752286D01*
X158099999Y-73755583D01*
X158100000Y-73755583D01*
X158100001Y-73755583D01*
X158128791Y-73752747D01*
X158305934Y-73735300D01*
X158305936Y-73735299D01*
X158305938Y-73735299D01*
X158503947Y-73675234D01*
X158503946Y-73675234D01*
X158503954Y-73675232D01*
X158686450Y-73577685D01*
X158846410Y-73446410D01*
X158977685Y-73286450D01*
X159075232Y-73103954D01*
X159135300Y-72905934D01*
X159155583Y-72700000D01*
X159152170Y-72665352D01*
X159149911Y-72642417D01*
X159135300Y-72494066D01*
X159135299Y-72494063D01*
X159135299Y-72494061D01*
X159075234Y-72296052D01*
X159075233Y-72296051D01*
X159075232Y-72296046D01*
X158977685Y-72113550D01*
X158846410Y-71953590D01*
X158686450Y-71822315D01*
X158686448Y-71822314D01*
X158686447Y-71822313D01*
X158622871Y-71788331D01*
X158503954Y-71724768D01*
X158503950Y-71724767D01*
X158503947Y-71724765D01*
X158503948Y-71724765D01*
X158305937Y-71664700D01*
X158305938Y-71664700D01*
X158100001Y-71644417D01*
X158099999Y-71644417D01*
X157894061Y-71664700D01*
X157696052Y-71724765D01*
X157513552Y-71822313D01*
X157353591Y-71953589D01*
X157353589Y-71953591D01*
X157222313Y-72113552D01*
X157124765Y-72296052D01*
X157064700Y-72494061D01*
X157044417Y-72699998D01*
X145790998Y-72699998D01*
X145790998Y-70763327D01*
X145795794Y-70743352D01*
X145799268Y-70736531D01*
X145809717Y-70716026D01*
X145820377Y-70648726D01*
X145830802Y-70582902D01*
X145830802Y-70582897D01*
X145820142Y-70515597D01*
X150375862Y-70515597D01*
X150375862Y-70515602D01*
X150396945Y-70648722D01*
X150396946Y-70648723D01*
X150396946Y-70648724D01*
X150396947Y-70648726D01*
X150458138Y-70768820D01*
X150553446Y-70864128D01*
X150673540Y-70925319D01*
X150673542Y-70925319D01*
X150673543Y-70925320D01*
X150806664Y-70946404D01*
X150806666Y-70946404D01*
X150806668Y-70946404D01*
X150939788Y-70925320D01*
X150939788Y-70925319D01*
X150939792Y-70925319D01*
X151059886Y-70864128D01*
X151155194Y-70768820D01*
X151216385Y-70648726D01*
X151226811Y-70582902D01*
X151237470Y-70515602D01*
X151237470Y-70515597D01*
X151216386Y-70382477D01*
X151216385Y-70382476D01*
X151216385Y-70382474D01*
X151155194Y-70262380D01*
X151059886Y-70167072D01*
X151046003Y-70159998D01*
X157044417Y-70159998D01*
X157044417Y-70160001D01*
X157064700Y-70365938D01*
X157124765Y-70563947D01*
X157124767Y-70563950D01*
X157124768Y-70563954D01*
X157222315Y-70746450D01*
X157353590Y-70906410D01*
X157513550Y-71037685D01*
X157696046Y-71135232D01*
X157696051Y-71135233D01*
X157696052Y-71135234D01*
X157696051Y-71135234D01*
X157894062Y-71195299D01*
X157894063Y-71195299D01*
X157894066Y-71195300D01*
X158066529Y-71212286D01*
X158099999Y-71215583D01*
X158100000Y-71215583D01*
X158100001Y-71215583D01*
X158128791Y-71212747D01*
X158305934Y-71195300D01*
X158305936Y-71195299D01*
X158305938Y-71195299D01*
X158503947Y-71135234D01*
X158503946Y-71135234D01*
X158503954Y-71135232D01*
X158686450Y-71037685D01*
X158846410Y-70906410D01*
X158977685Y-70746450D01*
X159075232Y-70563954D01*
X159121012Y-70413035D01*
X159135299Y-70365938D01*
X159135299Y-70365936D01*
X159135300Y-70365934D01*
X159152747Y-70188791D01*
X159155583Y-70160001D01*
X159155583Y-70159998D01*
X159148176Y-70084796D01*
X159135300Y-69954066D01*
X159135299Y-69954063D01*
X159135299Y-69954061D01*
X159075234Y-69756052D01*
X159075233Y-69756051D01*
X159075232Y-69756046D01*
X158977685Y-69573550D01*
X158846410Y-69413590D01*
X158686450Y-69282315D01*
X158686448Y-69282314D01*
X158686447Y-69282313D01*
X158622871Y-69248331D01*
X158503954Y-69184768D01*
X158503950Y-69184767D01*
X158503947Y-69184765D01*
X158503948Y-69184765D01*
X158305937Y-69124700D01*
X158305938Y-69124700D01*
X158100001Y-69104417D01*
X158099999Y-69104417D01*
X157894061Y-69124700D01*
X157696052Y-69184765D01*
X157513552Y-69282313D01*
X157353591Y-69413589D01*
X157353589Y-69413591D01*
X157222313Y-69573552D01*
X157124765Y-69756052D01*
X157064700Y-69954061D01*
X157044417Y-70159998D01*
X151046003Y-70159998D01*
X150939792Y-70105881D01*
X150939790Y-70105880D01*
X150939789Y-70105880D01*
X150939788Y-70105879D01*
X150806668Y-70084796D01*
X150806664Y-70084796D01*
X150673543Y-70105879D01*
X150673542Y-70105880D01*
X150553447Y-70167071D01*
X150458137Y-70262381D01*
X150396946Y-70382476D01*
X150396945Y-70382477D01*
X150375862Y-70515597D01*
X145820142Y-70515597D01*
X145809717Y-70449775D01*
X145809717Y-70449773D01*
X145795794Y-70422448D01*
X145790998Y-70402472D01*
X145790998Y-67406397D01*
X147925862Y-67406397D01*
X147925862Y-67406402D01*
X147946945Y-67539522D01*
X147946946Y-67539523D01*
X147946946Y-67539524D01*
X147946947Y-67539526D01*
X148008138Y-67659620D01*
X148103446Y-67754928D01*
X148223540Y-67816119D01*
X148223542Y-67816119D01*
X148223543Y-67816120D01*
X148356664Y-67837204D01*
X148356666Y-67837204D01*
X148356668Y-67837204D01*
X148489788Y-67816120D01*
X148489789Y-67816119D01*
X148489792Y-67816119D01*
X148510297Y-67805670D01*
X148517118Y-67802196D01*
X148537093Y-67797400D01*
X153076239Y-67797400D01*
X153096214Y-67802196D01*
X153107256Y-67807822D01*
X153123540Y-67816119D01*
X153123541Y-67816119D01*
X153123543Y-67816120D01*
X153256664Y-67837204D01*
X153256666Y-67837204D01*
X153256668Y-67837204D01*
X153389788Y-67816120D01*
X153389788Y-67816119D01*
X153389792Y-67816119D01*
X153509886Y-67754928D01*
X153605194Y-67659620D01*
X153625382Y-67619998D01*
X157044417Y-67619998D01*
X157044417Y-67620001D01*
X157064700Y-67825938D01*
X157124765Y-68023947D01*
X157124767Y-68023950D01*
X157124768Y-68023954D01*
X157222315Y-68206450D01*
X157353590Y-68366410D01*
X157513550Y-68497685D01*
X157696046Y-68595232D01*
X157696051Y-68595233D01*
X157696052Y-68595234D01*
X157696051Y-68595234D01*
X157894062Y-68655299D01*
X157894063Y-68655299D01*
X157894066Y-68655300D01*
X158066529Y-68672286D01*
X158099999Y-68675583D01*
X158100000Y-68675583D01*
X158100001Y-68675583D01*
X158128791Y-68672747D01*
X158305934Y-68655300D01*
X158305936Y-68655299D01*
X158305938Y-68655299D01*
X158503947Y-68595234D01*
X158503946Y-68595234D01*
X158503954Y-68595232D01*
X158686450Y-68497685D01*
X158846410Y-68366410D01*
X158977685Y-68206450D01*
X159075232Y-68023954D01*
X159097243Y-67951391D01*
X159135299Y-67825938D01*
X159135299Y-67825936D01*
X159135300Y-67825934D01*
X159155583Y-67620000D01*
X159135300Y-67414066D01*
X159135299Y-67414063D01*
X159135299Y-67414061D01*
X159075234Y-67216052D01*
X159075233Y-67216051D01*
X159075232Y-67216046D01*
X158977685Y-67033550D01*
X158846410Y-66873590D01*
X158686450Y-66742315D01*
X158686448Y-66742314D01*
X158686447Y-66742313D01*
X158589285Y-66690379D01*
X158503954Y-66644768D01*
X158503950Y-66644767D01*
X158503947Y-66644765D01*
X158503948Y-66644765D01*
X158305937Y-66584700D01*
X158305938Y-66584700D01*
X158100001Y-66564417D01*
X158099999Y-66564417D01*
X157894061Y-66584700D01*
X157696052Y-66644765D01*
X157513552Y-66742313D01*
X157353591Y-66873589D01*
X157353589Y-66873591D01*
X157222313Y-67033552D01*
X157124765Y-67216052D01*
X157064700Y-67414061D01*
X157044417Y-67619998D01*
X153625382Y-67619998D01*
X153666385Y-67539526D01*
X153687470Y-67406400D01*
X153687470Y-67406397D01*
X153666386Y-67273277D01*
X153666385Y-67273276D01*
X153666385Y-67273274D01*
X153605194Y-67153180D01*
X153509886Y-67057872D01*
X153389792Y-66996681D01*
X153389790Y-66996680D01*
X153389789Y-66996680D01*
X153389788Y-66996679D01*
X153256668Y-66975596D01*
X153256664Y-66975596D01*
X153123543Y-66996679D01*
X153123539Y-66996681D01*
X153096214Y-67010604D01*
X153076239Y-67015400D01*
X148537093Y-67015400D01*
X148517118Y-67010604D01*
X148489792Y-66996681D01*
X148489788Y-66996679D01*
X148356668Y-66975596D01*
X148356664Y-66975596D01*
X148223543Y-66996679D01*
X148223542Y-66996680D01*
X148103447Y-67057871D01*
X148008137Y-67153181D01*
X147946946Y-67273276D01*
X147946945Y-67273277D01*
X147925862Y-67406397D01*
X145790998Y-67406397D01*
X145790998Y-66381575D01*
X145803885Y-66350462D01*
X145834998Y-66337575D01*
X145866111Y-66350462D01*
X145871583Y-66357130D01*
X145941166Y-66461268D01*
X145942552Y-66463342D01*
X146040124Y-66560914D01*
X146045367Y-66564417D01*
X146154854Y-66637575D01*
X146172213Y-66644765D01*
X146282338Y-66690380D01*
X146417673Y-66717300D01*
X146417676Y-66717300D01*
X146555655Y-66717300D01*
X146555659Y-66717300D01*
X146690994Y-66690380D01*
X146818477Y-66637575D01*
X146933208Y-66560914D01*
X147030780Y-66463342D01*
X147107441Y-66348611D01*
X147160246Y-66221128D01*
X147187166Y-66085793D01*
X147187166Y-64867617D01*
X147391166Y-64867617D01*
X147391166Y-65005983D01*
X147426978Y-65139636D01*
X147496161Y-65259465D01*
X147594001Y-65357305D01*
X147713830Y-65426488D01*
X147847483Y-65462300D01*
X147847485Y-65462300D01*
X147985847Y-65462300D01*
X147985849Y-65462300D01*
X148119502Y-65426488D01*
X148239331Y-65357305D01*
X148337171Y-65259465D01*
X148406354Y-65139636D01*
X148431605Y-65045396D01*
X149150576Y-65045396D01*
X149150576Y-65045401D01*
X149171659Y-65178521D01*
X149171660Y-65178522D01*
X149171660Y-65178523D01*
X149171661Y-65178525D01*
X149232852Y-65298619D01*
X149328160Y-65393927D01*
X149448254Y-65455118D01*
X149448256Y-65455118D01*
X149448257Y-65455119D01*
X149581378Y-65476203D01*
X149581380Y-65476203D01*
X149581382Y-65476203D01*
X149714502Y-65455119D01*
X149714502Y-65455118D01*
X149714506Y-65455118D01*
X149834600Y-65393927D01*
X149929908Y-65298619D01*
X149991099Y-65178525D01*
X149997259Y-65139636D01*
X150012184Y-65045401D01*
X150012184Y-65045396D01*
X149991100Y-64912276D01*
X149991099Y-64912275D01*
X149991099Y-64912273D01*
X149929908Y-64792179D01*
X149834600Y-64696871D01*
X149714506Y-64635680D01*
X149714504Y-64635679D01*
X149714503Y-64635679D01*
X149714502Y-64635678D01*
X149581382Y-64614595D01*
X149581378Y-64614595D01*
X149448257Y-64635678D01*
X149448256Y-64635679D01*
X149328161Y-64696870D01*
X149232851Y-64792180D01*
X149171660Y-64912275D01*
X149171659Y-64912276D01*
X149150576Y-65045396D01*
X148431605Y-65045396D01*
X148442166Y-65005983D01*
X148442166Y-64867617D01*
X148406354Y-64733964D01*
X148337171Y-64614135D01*
X148239331Y-64516295D01*
X148159592Y-64470258D01*
X148119506Y-64447114D01*
X148119503Y-64447113D01*
X148119502Y-64447112D01*
X148119500Y-64447111D01*
X148119499Y-64447111D01*
X148083686Y-64437515D01*
X147985849Y-64411300D01*
X147847483Y-64411300D01*
X147775861Y-64430490D01*
X147713832Y-64447111D01*
X147713825Y-64447114D01*
X147594002Y-64516294D01*
X147496160Y-64614136D01*
X147426980Y-64733959D01*
X147426977Y-64733966D01*
X147424213Y-64744282D01*
X147391166Y-64867617D01*
X147187166Y-64867617D01*
X147187166Y-64847807D01*
X147160246Y-64712472D01*
X147107441Y-64584989D01*
X147107440Y-64584988D01*
X147107441Y-64584988D01*
X147056449Y-64508675D01*
X147030780Y-64470258D01*
X146933208Y-64372686D01*
X146932686Y-64372337D01*
X146818477Y-64296024D01*
X146770607Y-64276196D01*
X149967433Y-64276196D01*
X149967433Y-64276201D01*
X149988516Y-64409321D01*
X149988517Y-64409322D01*
X149988517Y-64409323D01*
X149988518Y-64409325D01*
X150049709Y-64529419D01*
X150145017Y-64624727D01*
X150265111Y-64685918D01*
X150265113Y-64685918D01*
X150265114Y-64685919D01*
X150398235Y-64707003D01*
X150398236Y-64707003D01*
X150398236Y-64707002D01*
X150398237Y-64707003D01*
X150425689Y-64702654D01*
X150458433Y-64710514D01*
X150463685Y-64714999D01*
X151017893Y-65269207D01*
X151114924Y-65309399D01*
X151219950Y-65309399D01*
X151675977Y-65309399D01*
X151707089Y-65322286D01*
X151778730Y-65393926D01*
X151778731Y-65393927D01*
X151898825Y-65455118D01*
X151898827Y-65455118D01*
X151898828Y-65455119D01*
X152031949Y-65476203D01*
X152031951Y-65476203D01*
X152031953Y-65476203D01*
X152165073Y-65455119D01*
X152165073Y-65455118D01*
X152165077Y-65455118D01*
X152285171Y-65393927D01*
X152380479Y-65298619D01*
X152441670Y-65178525D01*
X152447830Y-65139636D01*
X152462755Y-65045401D01*
X152462755Y-65045396D01*
X152441671Y-64912276D01*
X152441670Y-64912275D01*
X152441670Y-64912273D01*
X152418917Y-64867617D01*
X153171166Y-64867617D01*
X153171166Y-65005983D01*
X153206978Y-65139636D01*
X153276161Y-65259465D01*
X153374001Y-65357305D01*
X153493830Y-65426488D01*
X153627483Y-65462300D01*
X153627485Y-65462300D01*
X153765847Y-65462300D01*
X153765849Y-65462300D01*
X153899502Y-65426488D01*
X154019331Y-65357305D01*
X154117171Y-65259465D01*
X154186354Y-65139636D01*
X154222166Y-65005983D01*
X154222166Y-64867617D01*
X154216858Y-64847807D01*
X154426166Y-64847807D01*
X154426166Y-66085793D01*
X154436070Y-66135583D01*
X154453086Y-66221128D01*
X154505891Y-66348611D01*
X154505890Y-66348611D01*
X154582203Y-66462820D01*
X154582552Y-66463342D01*
X154680124Y-66560914D01*
X154685367Y-66564417D01*
X154794854Y-66637575D01*
X154812213Y-66644765D01*
X154922338Y-66690380D01*
X155057673Y-66717300D01*
X155057676Y-66717300D01*
X155195655Y-66717300D01*
X155195659Y-66717300D01*
X155330994Y-66690380D01*
X155458477Y-66637575D01*
X155573208Y-66560914D01*
X155670780Y-66463342D01*
X155747441Y-66348611D01*
X155800246Y-66221128D01*
X155827166Y-66085793D01*
X155827166Y-65079998D01*
X157044417Y-65079998D01*
X157044417Y-65080001D01*
X157064700Y-65285938D01*
X157124765Y-65483947D01*
X157124767Y-65483950D01*
X157124768Y-65483954D01*
X157222315Y-65666450D01*
X157353590Y-65826410D01*
X157513550Y-65957685D01*
X157696046Y-66055232D01*
X157696051Y-66055233D01*
X157696052Y-66055234D01*
X157696051Y-66055234D01*
X157894062Y-66115299D01*
X157894063Y-66115299D01*
X157894066Y-66115300D01*
X158066529Y-66132286D01*
X158099999Y-66135583D01*
X158100000Y-66135583D01*
X158100001Y-66135583D01*
X158128791Y-66132747D01*
X158305934Y-66115300D01*
X158305936Y-66115299D01*
X158305938Y-66115299D01*
X158503947Y-66055234D01*
X158503946Y-66055234D01*
X158503954Y-66055232D01*
X158686450Y-65957685D01*
X158846410Y-65826410D01*
X158977685Y-65666450D01*
X159075232Y-65483954D01*
X159135300Y-65285934D01*
X159155583Y-65080000D01*
X159135300Y-64874066D01*
X159135299Y-64874063D01*
X159135299Y-64874061D01*
X159075234Y-64676052D01*
X159075233Y-64676051D01*
X159075232Y-64676046D01*
X158977685Y-64493550D01*
X158846410Y-64333590D01*
X158686450Y-64202315D01*
X158686448Y-64202314D01*
X158686447Y-64202313D01*
X158612656Y-64162871D01*
X158503954Y-64104768D01*
X158503950Y-64104767D01*
X158503947Y-64104765D01*
X158503948Y-64104765D01*
X158305937Y-64044700D01*
X158305938Y-64044700D01*
X158100001Y-64024417D01*
X158099999Y-64024417D01*
X157894061Y-64044700D01*
X157696052Y-64104765D01*
X157513552Y-64202313D01*
X157353591Y-64333589D01*
X157353589Y-64333591D01*
X157222313Y-64493552D01*
X157124765Y-64676052D01*
X157064700Y-64874061D01*
X157044417Y-65079998D01*
X155827166Y-65079998D01*
X155827166Y-64847807D01*
X155800246Y-64712472D01*
X155747441Y-64584989D01*
X155747440Y-64584988D01*
X155747441Y-64584988D01*
X155696449Y-64508675D01*
X155670780Y-64470258D01*
X155573208Y-64372686D01*
X155572686Y-64372337D01*
X155458477Y-64296024D01*
X155330994Y-64243220D01*
X155195659Y-64216300D01*
X155057673Y-64216300D01*
X154956171Y-64236490D01*
X154922337Y-64243220D01*
X154794854Y-64296024D01*
X154680126Y-64372684D01*
X154582550Y-64470260D01*
X154505890Y-64584988D01*
X154453086Y-64712471D01*
X154448128Y-64737399D01*
X154426166Y-64847807D01*
X154216858Y-64847807D01*
X154186354Y-64733964D01*
X154117171Y-64614135D01*
X154019331Y-64516295D01*
X153939592Y-64470258D01*
X153899506Y-64447114D01*
X153899503Y-64447113D01*
X153899502Y-64447112D01*
X153899500Y-64447111D01*
X153899499Y-64447111D01*
X153863686Y-64437515D01*
X153765849Y-64411300D01*
X153627483Y-64411300D01*
X153555861Y-64430490D01*
X153493832Y-64447111D01*
X153493825Y-64447114D01*
X153374002Y-64516294D01*
X153276160Y-64614136D01*
X153206980Y-64733959D01*
X153206977Y-64733966D01*
X153204213Y-64744282D01*
X153171166Y-64867617D01*
X152418917Y-64867617D01*
X152380479Y-64792179D01*
X152285171Y-64696871D01*
X152165077Y-64635680D01*
X152165075Y-64635679D01*
X152165074Y-64635679D01*
X152165073Y-64635678D01*
X152031953Y-64614595D01*
X152031949Y-64614595D01*
X151898828Y-64635678D01*
X151898827Y-64635679D01*
X151778730Y-64696871D01*
X151707089Y-64768512D01*
X151675977Y-64781399D01*
X151304451Y-64781399D01*
X151273338Y-64768512D01*
X151260451Y-64737399D01*
X151273338Y-64706286D01*
X151297568Y-64693941D01*
X151348216Y-64685919D01*
X151348216Y-64685918D01*
X151348220Y-64685918D01*
X151468314Y-64624727D01*
X151563622Y-64529419D01*
X151624813Y-64409325D01*
X151630617Y-64372684D01*
X151645898Y-64276201D01*
X151645898Y-64276196D01*
X151624814Y-64143076D01*
X151624813Y-64143075D01*
X151624813Y-64143073D01*
X151563622Y-64022979D01*
X151468314Y-63927671D01*
X151348220Y-63866480D01*
X151348218Y-63866479D01*
X151348217Y-63866479D01*
X151348216Y-63866478D01*
X151215096Y-63845395D01*
X151215092Y-63845395D01*
X151081971Y-63866478D01*
X151081970Y-63866479D01*
X150961875Y-63927670D01*
X150866565Y-64022980D01*
X150845869Y-64063598D01*
X150820261Y-64085469D01*
X150786689Y-64082826D01*
X150767461Y-64063597D01*
X150746766Y-64022981D01*
X150746765Y-64022979D01*
X150651457Y-63927671D01*
X150531363Y-63866480D01*
X150531361Y-63866479D01*
X150531360Y-63866479D01*
X150531359Y-63866478D01*
X150398239Y-63845395D01*
X150398235Y-63845395D01*
X150265114Y-63866478D01*
X150265113Y-63866479D01*
X150145018Y-63927670D01*
X150049708Y-64022980D01*
X149988517Y-64143075D01*
X149988516Y-64143076D01*
X149967433Y-64276196D01*
X146770607Y-64276196D01*
X146690994Y-64243220D01*
X146555659Y-64216300D01*
X146417673Y-64216300D01*
X146316171Y-64236490D01*
X146282337Y-64243220D01*
X146154854Y-64296024D01*
X146040126Y-64372684D01*
X145942547Y-64470263D01*
X145871582Y-64576469D01*
X145843582Y-64595179D01*
X145810553Y-64588608D01*
X145791843Y-64560608D01*
X145790998Y-64552024D01*
X145790998Y-64193984D01*
X145803885Y-64162871D01*
X146311070Y-63655686D01*
X146342183Y-63642799D01*
X156118875Y-63642799D01*
X156118877Y-63642799D01*
X156218322Y-63616153D01*
X156307481Y-63564677D01*
X156928271Y-62943887D01*
X156959384Y-62931000D01*
X157091471Y-62931000D01*
X157122584Y-62943887D01*
X157130275Y-62954258D01*
X157222312Y-63126446D01*
X157222313Y-63126447D01*
X157222315Y-63126450D01*
X157353590Y-63286410D01*
X157513550Y-63417685D01*
X157696046Y-63515232D01*
X157696051Y-63515233D01*
X157696052Y-63515234D01*
X157696051Y-63515234D01*
X157894062Y-63575299D01*
X157894063Y-63575299D01*
X157894066Y-63575300D01*
X158066529Y-63592286D01*
X158099999Y-63595583D01*
X158100000Y-63595583D01*
X158100001Y-63595583D01*
X158128791Y-63592747D01*
X158305934Y-63575300D01*
X158305936Y-63575299D01*
X158305938Y-63575299D01*
X158503947Y-63515234D01*
X158503946Y-63515234D01*
X158503954Y-63515232D01*
X158686450Y-63417685D01*
X158846410Y-63286410D01*
X158977685Y-63126450D01*
X159075232Y-62943954D01*
X159097243Y-62871391D01*
X159135299Y-62745938D01*
X159135299Y-62745936D01*
X159135300Y-62745934D01*
X159155583Y-62540000D01*
X159135300Y-62334066D01*
X159135299Y-62334063D01*
X159135299Y-62334061D01*
X159075234Y-62136052D01*
X159075233Y-62136051D01*
X159075232Y-62136046D01*
X158977685Y-61953550D01*
X158846410Y-61793590D01*
X158686450Y-61662315D01*
X158686448Y-61662314D01*
X158686447Y-61662313D01*
X158622871Y-61628331D01*
X158503954Y-61564768D01*
X158503950Y-61564767D01*
X158503947Y-61564765D01*
X158503948Y-61564765D01*
X158305937Y-61504700D01*
X158305938Y-61504700D01*
X158100001Y-61484417D01*
X158099999Y-61484417D01*
X157894061Y-61504700D01*
X157696052Y-61564765D01*
X157513552Y-61662313D01*
X157353591Y-61793589D01*
X157353589Y-61793591D01*
X157222312Y-61953553D01*
X157130275Y-62125742D01*
X157104243Y-62147105D01*
X157091471Y-62149000D01*
X156830676Y-62149000D01*
X156727724Y-62149000D01*
X156674434Y-62163279D01*
X156628282Y-62175645D01*
X156628275Y-62175648D01*
X156539121Y-62227121D01*
X155918330Y-62847912D01*
X155887217Y-62860799D01*
X146216182Y-62860799D01*
X146216166Y-62860798D01*
X146213476Y-62860798D01*
X146110524Y-62860798D01*
X146011080Y-62887445D01*
X146011078Y-62887445D01*
X146011075Y-62887447D01*
X145921921Y-62938920D01*
X145921916Y-62938924D01*
X145849121Y-63011718D01*
X145849122Y-63011719D01*
X145087117Y-63773724D01*
X145035646Y-63862875D01*
X145035643Y-63862883D01*
X145015387Y-63938480D01*
X145008998Y-63962325D01*
X145008998Y-64552020D01*
X144996111Y-64583133D01*
X144964998Y-64596020D01*
X144933885Y-64583133D01*
X144928413Y-64576465D01*
X144883803Y-64509703D01*
X144857447Y-64470258D01*
X144759875Y-64372686D01*
X144759353Y-64372337D01*
X144645144Y-64296024D01*
X144517661Y-64243220D01*
X144382326Y-64216300D01*
X144244340Y-64216300D01*
X144142838Y-64236490D01*
X144109004Y-64243220D01*
X143981521Y-64296024D01*
X143866793Y-64372684D01*
X143769217Y-64470260D01*
X143692557Y-64584988D01*
X143639753Y-64712471D01*
X143634795Y-64737399D01*
X143612833Y-64847807D01*
X143403525Y-64847807D01*
X143373021Y-64733964D01*
X143303838Y-64614135D01*
X143205998Y-64516295D01*
X143126259Y-64470258D01*
X143086173Y-64447114D01*
X143086170Y-64447113D01*
X143086169Y-64447112D01*
X143086167Y-64447111D01*
X143086166Y-64447111D01*
X143050353Y-64437515D01*
X142952516Y-64411300D01*
X142814150Y-64411300D01*
X142742528Y-64430490D01*
X142680499Y-64447111D01*
X142680492Y-64447114D01*
X142560669Y-64516294D01*
X142462827Y-64614136D01*
X142393647Y-64733959D01*
X142393644Y-64733966D01*
X142390880Y-64744282D01*
X142357833Y-64867617D01*
X141605583Y-64867617D01*
X141567145Y-64792179D01*
X141471837Y-64696871D01*
X141351743Y-64635680D01*
X141351741Y-64635679D01*
X141351740Y-64635679D01*
X141351739Y-64635678D01*
X141218619Y-64614595D01*
X141218615Y-64614595D01*
X141085494Y-64635678D01*
X141085493Y-64635679D01*
X140965398Y-64696870D01*
X140870088Y-64792180D01*
X140808897Y-64912275D01*
X140808896Y-64912276D01*
X140787813Y-65045396D01*
X140005914Y-65045396D01*
X140336311Y-64714998D01*
X140367423Y-64702112D01*
X140374299Y-64702653D01*
X140401760Y-64707003D01*
X140401760Y-64707002D01*
X140401761Y-64707003D01*
X140401762Y-64707003D01*
X140534882Y-64685919D01*
X140534882Y-64685918D01*
X140534886Y-64685918D01*
X140654980Y-64624727D01*
X140750288Y-64529419D01*
X140811479Y-64409325D01*
X140817283Y-64372684D01*
X140832564Y-64276201D01*
X140832564Y-64276196D01*
X140811480Y-64143076D01*
X140811479Y-64143075D01*
X140811479Y-64143073D01*
X140750288Y-64022979D01*
X140654980Y-63927671D01*
X140534886Y-63866480D01*
X140534884Y-63866479D01*
X140534883Y-63866479D01*
X140534882Y-63866478D01*
X140401762Y-63845395D01*
X140401758Y-63845395D01*
X140268637Y-63866478D01*
X140268636Y-63866479D01*
X140148541Y-63927670D01*
X140053231Y-64022980D01*
X140032535Y-64063598D01*
X140006927Y-64085469D01*
X139973355Y-64082826D01*
X139954127Y-64063597D01*
X139933432Y-64022981D01*
X139933431Y-64022979D01*
X139838123Y-63927671D01*
X139718029Y-63866480D01*
X139718027Y-63866479D01*
X139718026Y-63866479D01*
X139718025Y-63866478D01*
X139584905Y-63845395D01*
X139584901Y-63845395D01*
X139451780Y-63866478D01*
X139451779Y-63866479D01*
X139331684Y-63927670D01*
X139236374Y-64022980D01*
X139175183Y-64143075D01*
X139175182Y-64143076D01*
X139154099Y-64276196D01*
X139154099Y-64276201D01*
X139175182Y-64409321D01*
X139175183Y-64409322D01*
X139175183Y-64409323D01*
X139175184Y-64409325D01*
X139236375Y-64529419D01*
X139331683Y-64624727D01*
X139451777Y-64685918D01*
X139451779Y-64685918D01*
X139451780Y-64685919D01*
X139502429Y-64693941D01*
X139531143Y-64711536D01*
X139539004Y-64744282D01*
X139521409Y-64772996D01*
X139495546Y-64781399D01*
X139124020Y-64781399D01*
X139092908Y-64768512D01*
X139021266Y-64696871D01*
X139015516Y-64693941D01*
X138901172Y-64635680D01*
X138901170Y-64635679D01*
X138901169Y-64635679D01*
X138901168Y-64635678D01*
X138768048Y-64614595D01*
X138768044Y-64614595D01*
X138634923Y-64635678D01*
X138634922Y-64635679D01*
X138514827Y-64696870D01*
X138419517Y-64792180D01*
X138358326Y-64912275D01*
X138358325Y-64912276D01*
X138337242Y-65045396D01*
X137618272Y-65045396D01*
X137628833Y-65005983D01*
X137628833Y-64867617D01*
X137593021Y-64733964D01*
X137523838Y-64614135D01*
X137425998Y-64516295D01*
X137346259Y-64470258D01*
X137306173Y-64447114D01*
X137306170Y-64447113D01*
X137306169Y-64447112D01*
X137306167Y-64447111D01*
X137306166Y-64447111D01*
X137270353Y-64437515D01*
X137172516Y-64411300D01*
X137034150Y-64411300D01*
X136962528Y-64430490D01*
X136900499Y-64447111D01*
X136900492Y-64447114D01*
X136780669Y-64516294D01*
X136682827Y-64614136D01*
X136613647Y-64733959D01*
X136613644Y-64733966D01*
X136610880Y-64744282D01*
X136577833Y-64867617D01*
X136373833Y-64867617D01*
X136373833Y-64847807D01*
X136346913Y-64712472D01*
X136294108Y-64584989D01*
X136294107Y-64584988D01*
X136294108Y-64584988D01*
X136243116Y-64508675D01*
X136217447Y-64470258D01*
X136119875Y-64372686D01*
X136119353Y-64372337D01*
X136005144Y-64296024D01*
X135877661Y-64243220D01*
X135742326Y-64216300D01*
X135604340Y-64216300D01*
X135502838Y-64236490D01*
X135469004Y-64243220D01*
X135341521Y-64296024D01*
X135226793Y-64372684D01*
X135129217Y-64470260D01*
X135052557Y-64584988D01*
X134999753Y-64712471D01*
X134994795Y-64737399D01*
X134972833Y-64847807D01*
X133727335Y-64847807D01*
X133675234Y-64676052D01*
X133675233Y-64676051D01*
X133675232Y-64676046D01*
X133577685Y-64493550D01*
X133446410Y-64333590D01*
X133286450Y-64202315D01*
X133286448Y-64202314D01*
X133286447Y-64202313D01*
X133212656Y-64162871D01*
X133103954Y-64104768D01*
X133103950Y-64104767D01*
X133103947Y-64104765D01*
X133103948Y-64104765D01*
X132905937Y-64044700D01*
X132905938Y-64044700D01*
X132700001Y-64024417D01*
X132699999Y-64024417D01*
X132494061Y-64044700D01*
X132296052Y-64104765D01*
X132113552Y-64202313D01*
X131953591Y-64333589D01*
X131953589Y-64333591D01*
X131822313Y-64493552D01*
X131724765Y-64676052D01*
X131664700Y-64874061D01*
X131644417Y-65079998D01*
X131100500Y-65079998D01*
X131100500Y-62539998D01*
X131644417Y-62539998D01*
X131644417Y-62540001D01*
X131664700Y-62745938D01*
X131724765Y-62943947D01*
X131724767Y-62943950D01*
X131724768Y-62943954D01*
X131760991Y-63011721D01*
X131822312Y-63126446D01*
X131822315Y-63126450D01*
X131953590Y-63286410D01*
X132113550Y-63417685D01*
X132296046Y-63515232D01*
X132296051Y-63515233D01*
X132296052Y-63515234D01*
X132296051Y-63515234D01*
X132494062Y-63575299D01*
X132494063Y-63575299D01*
X132494066Y-63575300D01*
X132666529Y-63592286D01*
X132699999Y-63595583D01*
X132700000Y-63595583D01*
X132700001Y-63595583D01*
X132728791Y-63592747D01*
X132905934Y-63575300D01*
X132905936Y-63575299D01*
X132905938Y-63575299D01*
X133103947Y-63515234D01*
X133103946Y-63515234D01*
X133103954Y-63515232D01*
X133286450Y-63417685D01*
X133446410Y-63286410D01*
X133577685Y-63126450D01*
X133675232Y-62943954D01*
X133697243Y-62871391D01*
X133735299Y-62745938D01*
X133735299Y-62745936D01*
X133735300Y-62745934D01*
X133755583Y-62540000D01*
X133735300Y-62334066D01*
X133735299Y-62334063D01*
X133735299Y-62334061D01*
X133675234Y-62136052D01*
X133675233Y-62136051D01*
X133675232Y-62136046D01*
X133577685Y-61953550D01*
X133446410Y-61793590D01*
X133286450Y-61662315D01*
X133286448Y-61662314D01*
X133286447Y-61662313D01*
X133222871Y-61628331D01*
X133103954Y-61564768D01*
X133103950Y-61564767D01*
X133103947Y-61564765D01*
X133103948Y-61564765D01*
X132905937Y-61504700D01*
X132905938Y-61504700D01*
X132700001Y-61484417D01*
X132699999Y-61484417D01*
X132494061Y-61504700D01*
X132296052Y-61564765D01*
X132113552Y-61662313D01*
X131953591Y-61793589D01*
X131953589Y-61793591D01*
X131822313Y-61953552D01*
X131724765Y-62136052D01*
X131664700Y-62334061D01*
X131644417Y-62539998D01*
X131100500Y-62539998D01*
X131100500Y-59999998D01*
X131644417Y-59999998D01*
X131644417Y-60000001D01*
X131664700Y-60205938D01*
X131724765Y-60403947D01*
X131724767Y-60403950D01*
X131724768Y-60403954D01*
X131822315Y-60586450D01*
X131953590Y-60746410D01*
X132113550Y-60877685D01*
X132296046Y-60975232D01*
X132296051Y-60975233D01*
X132296052Y-60975234D01*
X132296051Y-60975234D01*
X132494062Y-61035299D01*
X132494063Y-61035299D01*
X132494066Y-61035300D01*
X132666529Y-61052286D01*
X132699999Y-61055583D01*
X132700000Y-61055583D01*
X132700001Y-61055583D01*
X132728791Y-61052747D01*
X132905934Y-61035300D01*
X132905936Y-61035299D01*
X132905938Y-61035299D01*
X133103947Y-60975234D01*
X133103946Y-60975234D01*
X133103954Y-60975232D01*
X133211388Y-60917807D01*
X134972833Y-60917807D01*
X134972833Y-61655793D01*
X134999753Y-61791128D01*
X135052558Y-61918611D01*
X135052557Y-61918611D01*
X135128870Y-62032820D01*
X135129219Y-62033342D01*
X135226791Y-62130914D01*
X135253859Y-62149000D01*
X135341521Y-62207575D01*
X135388710Y-62227121D01*
X135469005Y-62260380D01*
X135604340Y-62287300D01*
X135604343Y-62287300D01*
X135742322Y-62287300D01*
X135742326Y-62287300D01*
X135877661Y-62260380D01*
X136005144Y-62207575D01*
X136119875Y-62130914D01*
X136217447Y-62033342D01*
X136294108Y-61918611D01*
X136346913Y-61791128D01*
X136373833Y-61655793D01*
X136373833Y-60917807D01*
X143612833Y-60917807D01*
X143612833Y-61655793D01*
X143639753Y-61791128D01*
X143692558Y-61918611D01*
X143692557Y-61918611D01*
X143768870Y-62032820D01*
X143769219Y-62033342D01*
X143866791Y-62130914D01*
X143893859Y-62149000D01*
X143981521Y-62207575D01*
X144028710Y-62227121D01*
X144109005Y-62260380D01*
X144244340Y-62287300D01*
X144244343Y-62287300D01*
X144382322Y-62287300D01*
X144382326Y-62287300D01*
X144517661Y-62260380D01*
X144645144Y-62207575D01*
X144759875Y-62130914D01*
X144857447Y-62033342D01*
X144934108Y-61918611D01*
X144986913Y-61791128D01*
X145013833Y-61655793D01*
X145013833Y-60917807D01*
X145786166Y-60917807D01*
X145786166Y-61655793D01*
X145813086Y-61791128D01*
X145865891Y-61918611D01*
X145865890Y-61918611D01*
X145942203Y-62032820D01*
X145942552Y-62033342D01*
X146040124Y-62130914D01*
X146067192Y-62149000D01*
X146154854Y-62207575D01*
X146202043Y-62227121D01*
X146282338Y-62260380D01*
X146417673Y-62287300D01*
X146417676Y-62287300D01*
X146555655Y-62287300D01*
X146555659Y-62287300D01*
X146690994Y-62260380D01*
X146818477Y-62207575D01*
X146933208Y-62130914D01*
X147030780Y-62033342D01*
X147107441Y-61918611D01*
X147160246Y-61791128D01*
X147187166Y-61655793D01*
X147187166Y-60917807D01*
X154426166Y-60917807D01*
X154426166Y-61655793D01*
X154453086Y-61791128D01*
X154505891Y-61918611D01*
X154505890Y-61918611D01*
X154582203Y-62032820D01*
X154582552Y-62033342D01*
X154680124Y-62130914D01*
X154707192Y-62149000D01*
X154794854Y-62207575D01*
X154842043Y-62227121D01*
X154922338Y-62260380D01*
X155057673Y-62287300D01*
X155057676Y-62287300D01*
X155195655Y-62287300D01*
X155195659Y-62287300D01*
X155330994Y-62260380D01*
X155458477Y-62207575D01*
X155573208Y-62130914D01*
X155670780Y-62033342D01*
X155747441Y-61918611D01*
X155800246Y-61791128D01*
X155827166Y-61655793D01*
X155827166Y-60917807D01*
X155800246Y-60782472D01*
X155747441Y-60654989D01*
X155747440Y-60654988D01*
X155747441Y-60654988D01*
X155670781Y-60540260D01*
X155670780Y-60540258D01*
X155573208Y-60442686D01*
X155515242Y-60403954D01*
X155458477Y-60366024D01*
X155330994Y-60313220D01*
X155195659Y-60286300D01*
X155057673Y-60286300D01*
X154956171Y-60306490D01*
X154922337Y-60313220D01*
X154794854Y-60366024D01*
X154680126Y-60442684D01*
X154582550Y-60540260D01*
X154505890Y-60654988D01*
X154468023Y-60746410D01*
X154453086Y-60782472D01*
X154426166Y-60917807D01*
X147187166Y-60917807D01*
X147160246Y-60782472D01*
X147107441Y-60654989D01*
X147107440Y-60654988D01*
X147107441Y-60654988D01*
X147030781Y-60540260D01*
X147030780Y-60540258D01*
X146933208Y-60442686D01*
X146875242Y-60403954D01*
X146818477Y-60366024D01*
X146690994Y-60313220D01*
X146555659Y-60286300D01*
X146417673Y-60286300D01*
X146316171Y-60306490D01*
X146282337Y-60313220D01*
X146154854Y-60366024D01*
X146040126Y-60442684D01*
X145942550Y-60540260D01*
X145865890Y-60654988D01*
X145828023Y-60746410D01*
X145813086Y-60782472D01*
X145786166Y-60917807D01*
X145013833Y-60917807D01*
X144986913Y-60782472D01*
X144934108Y-60654989D01*
X144934107Y-60654988D01*
X144934108Y-60654988D01*
X144857448Y-60540260D01*
X144857447Y-60540258D01*
X144759875Y-60442686D01*
X144701909Y-60403954D01*
X144645144Y-60366024D01*
X144517661Y-60313220D01*
X144382326Y-60286300D01*
X144244340Y-60286300D01*
X144142838Y-60306490D01*
X144109004Y-60313220D01*
X143981521Y-60366024D01*
X143866793Y-60442684D01*
X143769217Y-60540260D01*
X143692557Y-60654988D01*
X143654690Y-60746410D01*
X143639753Y-60782472D01*
X143612833Y-60917807D01*
X136373833Y-60917807D01*
X136346913Y-60782472D01*
X136294108Y-60654989D01*
X136294107Y-60654988D01*
X136294108Y-60654988D01*
X136217448Y-60540260D01*
X136217447Y-60540258D01*
X136119875Y-60442686D01*
X136061909Y-60403954D01*
X136005144Y-60366024D01*
X135877661Y-60313220D01*
X135742326Y-60286300D01*
X135604340Y-60286300D01*
X135502838Y-60306490D01*
X135469004Y-60313220D01*
X135341521Y-60366024D01*
X135226793Y-60442684D01*
X135129217Y-60540260D01*
X135052557Y-60654988D01*
X135014690Y-60746410D01*
X134999753Y-60782472D01*
X134972833Y-60917807D01*
X133211388Y-60917807D01*
X133286450Y-60877685D01*
X133446410Y-60746410D01*
X133577685Y-60586450D01*
X133675232Y-60403954D01*
X133735300Y-60205934D01*
X133755583Y-60000000D01*
X133755583Y-59999998D01*
X157044417Y-59999998D01*
X157044417Y-60000001D01*
X157064700Y-60205938D01*
X157124765Y-60403947D01*
X157124767Y-60403950D01*
X157124768Y-60403954D01*
X157222315Y-60586450D01*
X157353590Y-60746410D01*
X157513550Y-60877685D01*
X157696046Y-60975232D01*
X157696051Y-60975233D01*
X157696052Y-60975234D01*
X157696051Y-60975234D01*
X157894062Y-61035299D01*
X157894063Y-61035299D01*
X157894066Y-61035300D01*
X158066529Y-61052286D01*
X158099999Y-61055583D01*
X158100000Y-61055583D01*
X158100001Y-61055583D01*
X158128791Y-61052747D01*
X158305934Y-61035300D01*
X158305936Y-61035299D01*
X158305938Y-61035299D01*
X158503947Y-60975234D01*
X158503946Y-60975234D01*
X158503954Y-60975232D01*
X158686450Y-60877685D01*
X158846410Y-60746410D01*
X158977685Y-60586450D01*
X159075232Y-60403954D01*
X159135300Y-60205934D01*
X159155583Y-60000000D01*
X159135300Y-59794066D01*
X159135299Y-59794063D01*
X159135299Y-59794061D01*
X159075234Y-59596052D01*
X159075233Y-59596051D01*
X159075232Y-59596046D01*
X158977685Y-59413550D01*
X158846410Y-59253590D01*
X158686450Y-59122315D01*
X158686448Y-59122314D01*
X158686447Y-59122313D01*
X158622871Y-59088331D01*
X158503954Y-59024768D01*
X158503950Y-59024767D01*
X158503947Y-59024765D01*
X158503948Y-59024765D01*
X158305937Y-58964700D01*
X158305938Y-58964700D01*
X158100001Y-58944417D01*
X158099999Y-58944417D01*
X157894061Y-58964700D01*
X157696052Y-59024765D01*
X157513552Y-59122313D01*
X157353591Y-59253589D01*
X157353589Y-59253591D01*
X157222313Y-59413552D01*
X157124765Y-59596052D01*
X157064700Y-59794061D01*
X157044417Y-59999998D01*
X133755583Y-59999998D01*
X133735300Y-59794066D01*
X133735299Y-59794063D01*
X133735299Y-59794061D01*
X133675234Y-59596052D01*
X133675233Y-59596051D01*
X133675232Y-59596046D01*
X133577685Y-59413550D01*
X133446410Y-59253590D01*
X133286450Y-59122315D01*
X133286448Y-59122314D01*
X133286447Y-59122313D01*
X133222871Y-59088331D01*
X133103954Y-59024768D01*
X133103950Y-59024767D01*
X133103947Y-59024765D01*
X133103948Y-59024765D01*
X132905937Y-58964700D01*
X132905938Y-58964700D01*
X132700001Y-58944417D01*
X132699999Y-58944417D01*
X132494061Y-58964700D01*
X132296052Y-59024765D01*
X132113552Y-59122313D01*
X131953591Y-59253589D01*
X131953589Y-59253591D01*
X131822313Y-59413552D01*
X131724765Y-59596052D01*
X131664700Y-59794061D01*
X131644417Y-59999998D01*
X131100500Y-59999998D01*
X131100500Y-58711460D01*
X131101042Y-58704577D01*
X131114460Y-58619854D01*
X131118710Y-58606773D01*
X131156064Y-58533462D01*
X131164150Y-58522332D01*
X131222332Y-58464150D01*
X131233462Y-58456064D01*
X131306773Y-58418710D01*
X131319854Y-58414460D01*
X131404578Y-58401042D01*
X131411461Y-58400500D01*
X131447882Y-58400500D01*
X159352118Y-58400500D01*
X159388539Y-58400500D01*
X159395422Y-58401042D01*
G37*
G04 #@! TD.AperFunction*
D18*
X130900000Y-58708000D02*
X130900000Y-114692000D01*
X159900000Y-114692000D02*
G75*
G02*
X159392000Y-115200000I-508000J0D01*
G01*
X159392000Y-58200000D02*
X131408000Y-58200000D01*
X159392000Y-115200000D02*
X131408000Y-115200000D01*
X159392000Y-58200000D02*
G75*
G02*
X159900000Y-58708000I0J-508000D01*
G01*
X130900000Y-58708000D02*
G75*
G02*
X131408000Y-58200000I508000J0D01*
G01*
X131408000Y-115200000D02*
G75*
G02*
X130900000Y-114692000I0J508000D01*
G01*
X159900000Y-114692000D02*
X159900000Y-58708000D01*
M02*
